<?xml version="1.0" encoding="UTF-8"?>
<!DOCTYPE svg PUBLIC "-//W3C//DTD SVG 1.1//EN" "http://www.w3.org/Graphics/SVG/1.1/DTD/svg11.dtd">
<!-- Creator: CorelDRAW X7 -->
<svg xmlns="http://www.w3.org/2000/svg" xml:space="preserve" width="15.9217mm" height="5mm" version="1.1" style="shape-rendering:geometricPrecision; text-rendering:geometricPrecision; image-rendering:optimizeQuality; fill-rule:evenodd; clip-rule:evenodd"
viewBox="0 0 4610 1446"
 xmlns:xlink="http://www.w3.org/1999/xlink">
 <defs>
  <style type="text/css">
   <![CDATA[
    .fil0 {fill:#EBECEC}
    .fil1 {fill:#EBECEC;fill-rule:nonzero}
   ]]>
  </style>
 </defs>
 <g id="Layer_x0020_1">
  <metadata id="CorelCorpID_0Corel-Layer"/>
  <g id="_2372754886896">
   <path class="fil0" d="M912 0l-217 0c-14,45 -22,109 -31,163 -15,84 -31,65 -103,96 -125,52 -103,-39 -249,-97l-150 150c36,115 145,123 96,239 -10,23 -18,43 -28,66 -29,67 -73,39 -226,77l-4 220 211 39c51,181 102,110 2,261 -20,30 -39,50 -51,81l150 151c44,-15 81,-51 120,-79 80,-57 57,-12 135,4l149 -349c-31,-30 -166,-97 -133,-261 49,-239 384,-240 440,-7 39,165 -91,229 -129,267l142 352c79,-17 60,-61 133,-9 37,26 83,67 126,81l152 -149c-22,-53 -76,-104 -102,-155 -22,-41 38,-141 51,-188l208 -38 3 -221c-239,-55 -197,1 -255,-137 -55,-128 55,-122 93,-245l-150 -150c-41,16 -83,51 -120,77 -58,40 -53,52 -129,20 -72,-31 -87,-12 -102,-96 -10,-54 -18,-118 -32,-163z"/>
   <path class="fil1" d="M2390 271c90,-181 181,-271 361,-271 200,0 362,162 362,361 0,362 -362,723 -723,1085 -362,-362 -723,-723 -723,-1085 0,-199 162,-361 361,-361 181,0 271,90 362,271z"/>
   <path class="fil0" d="M3837 2c-141,10 -288,66 -391,150 -21,17 -75,66 -95,88 -4,4 -5,7 -9,12 -123,139 -188,334 -173,524 11,155 65,276 150,390 13,18 26,34 42,49 8,7 14,15 22,22 5,5 8,7 12,12 5,4 7,8 12,12 4,4 7,6 11,9 138,123 336,189 524,174 143,-11 316,-77 415,-171l46 -44c37,-39 69,-74 100,-126 23,-39 43,-76 60,-122 88,-235 51,-508 -104,-702 -28,-34 -33,-40 -64,-71 -73,-70 -150,-124 -248,-160 -96,-36 -199,-54 -310,-46zm9 221c-261,21 -482,255 -456,544 10,123 53,200 121,284 32,41 74,73 118,101 87,54 196,80 303,71 261,-22 481,-254 456,-544 -22,-262 -253,-480 -542,-456zm-199 206l141 144c24,-14 36,-20 66,-28l0 -200c-64,0 -163,44 -207,84zm276 96l0 21c31,6 44,15 66,26l142 -142c-42,-37 -129,-83 -208,-86l0 181zm-327 440l143 -142c-9,-22 -22,-34 -26,-66l-202 0c4,46 13,79 29,117 10,25 39,73 56,91zm443 -142l142 143c40,-49 80,-123 86,-209l-202 0c-2,12 -6,24 -10,34 -4,12 -12,22 -16,32zm0 -204c5,18 16,23 27,69l200 0c1,-36 -16,-86 -28,-116 -8,-18 -16,-34 -26,-49 -5,-9 -9,-13 -15,-22 -5,-7 -11,-14 -15,-21 -12,5 -58,55 -72,69 -12,12 -23,23 -35,35 -10,10 -26,28 -36,35zm-528 69l201 0c11,-46 21,-50 27,-68l-106 -105c-11,-11 -24,-29 -38,-35 -17,27 -39,53 -54,90 -12,27 -31,84 -30,118zm135 329c27,17 53,39 90,54 31,13 81,30 118,30l0 -202c-43,-10 -37,-14 -65,-26 -6,3 -137,129 -143,144zm277 -118l0 202c41,-1 83,-15 117,-29 37,-15 65,-37 91,-56 -5,-12 -57,-60 -70,-73 -16,-16 -57,-61 -72,-70 -24,10 -34,20 -66,26zm-53 -286c-55,10 -103,62 -90,129 10,54 62,101 128,90 54,-10 101,-63 90,-129 -10,-54 -62,-102 -128,-90zm-32 -336c-86,10 -177,47 -236,100 -26,23 -35,33 -57,57 -7,7 -17,22 -24,31 -8,11 -14,21 -21,34 -48,85 -69,176 -57,277 27,230 236,425 499,393 102,-12 195,-59 263,-127 142,-139 174,-366 74,-541 -20,-35 -45,-69 -71,-95 -91,-93 -234,-146 -370,-129z"/>
  </g>
 </g>
</svg>
