%TF.GenerationSoftware,KiCad,Pcbnew,7.0.5*%
%TF.CreationDate,2023-07-29T18:05:39+03:00*%
%TF.ProjectId,models-heart,6d6f6465-6c73-42d6-9865-6172742e6b69,rev?*%
%TF.SameCoordinates,Original*%
%TF.FileFunction,Copper,L4,Bot*%
%TF.FilePolarity,Positive*%
%FSLAX46Y46*%
G04 Gerber Fmt 4.6, Leading zero omitted, Abs format (unit mm)*
G04 Created by KiCad (PCBNEW 7.0.5) date 2023-07-29 18:05:39*
%MOMM*%
%LPD*%
G01*
G04 APERTURE LIST*
G04 Aperture macros list*
%AMRoundRect*
0 Rectangle with rounded corners*
0 $1 Rounding radius*
0 $2 $3 $4 $5 $6 $7 $8 $9 X,Y pos of 4 corners*
0 Add a 4 corners polygon primitive as box body*
4,1,4,$2,$3,$4,$5,$6,$7,$8,$9,$2,$3,0*
0 Add four circle primitives for the rounded corners*
1,1,$1+$1,$2,$3*
1,1,$1+$1,$4,$5*
1,1,$1+$1,$6,$7*
1,1,$1+$1,$8,$9*
0 Add four rect primitives between the rounded corners*
20,1,$1+$1,$2,$3,$4,$5,0*
20,1,$1+$1,$4,$5,$6,$7,0*
20,1,$1+$1,$6,$7,$8,$9,0*
20,1,$1+$1,$8,$9,$2,$3,0*%
G04 Aperture macros list end*
%TA.AperFunction,ComponentPad*%
%ADD10C,0.500000*%
%TD*%
%TA.AperFunction,SMDPad,CuDef*%
%ADD11R,3.500000X2.000000*%
%TD*%
%TA.AperFunction,SMDPad,CuDef*%
%ADD12C,1.000000*%
%TD*%
%TA.AperFunction,SMDPad,CuDef*%
%ADD13RoundRect,0.218750X-0.218750X-0.256250X0.218750X-0.256250X0.218750X0.256250X-0.218750X0.256250X0*%
%TD*%
%TA.AperFunction,SMDPad,CuDef*%
%ADD14R,0.600000X1.150000*%
%TD*%
%TA.AperFunction,SMDPad,CuDef*%
%ADD15R,0.300000X1.150000*%
%TD*%
%TA.AperFunction,ComponentPad*%
%ADD16O,1.000000X1.800000*%
%TD*%
%TA.AperFunction,ComponentPad*%
%ADD17O,1.000000X2.100000*%
%TD*%
%TA.AperFunction,SMDPad,CuDef*%
%ADD18R,2.500000X1.000000*%
%TD*%
%TA.AperFunction,SMDPad,CuDef*%
%ADD19R,1.000000X1.800000*%
%TD*%
%TA.AperFunction,SMDPad,CuDef*%
%ADD20R,1.400000X1.050000*%
%TD*%
%TA.AperFunction,ViaPad*%
%ADD21C,0.600000*%
%TD*%
%TA.AperFunction,Conductor*%
%ADD22C,0.200000*%
%TD*%
G04 APERTURE END LIST*
D10*
%TO.P,U6,17,GND(PPAD)*%
%TO.N,GND*%
X74775000Y-36687500D03*
X76275000Y-36687500D03*
X77775000Y-36687500D03*
D11*
X76275000Y-35937500D03*
D10*
X74775000Y-35187500D03*
X76275000Y-35187500D03*
X77775000Y-35187500D03*
%TD*%
D12*
%TO.P,TP26,1,1*%
%TO.N,+PWR*%
X82000000Y-47750000D03*
%TD*%
%TO.P,TP3,1,1*%
%TO.N,BAT +*%
X89250000Y-49250000D03*
%TD*%
%TO.P,TP5,1,1*%
%TO.N,BAT -*%
X87250000Y-51500000D03*
%TD*%
%TO.P,TP23,1,1*%
%TO.N,+PWR*%
X86000000Y-47750000D03*
%TD*%
D13*
%TO.P,D1,1,K*%
%TO.N,Net-(D1-K)*%
X88000000Y-57750000D03*
%TO.P,D1,2,A*%
%TO.N,Net-(D1-A)*%
X89575000Y-57750000D03*
%TD*%
D12*
%TO.P,TP12,1,1*%
%TO.N,BTN+*%
X70800000Y-51500000D03*
%TD*%
%TO.P,TP4,1,1*%
%TO.N,BAT -*%
X87250000Y-49250000D03*
%TD*%
D14*
%TO.P,P1,A1,GND*%
%TO.N,GND*%
X83700000Y-51820000D03*
%TO.P,P1,A4,VBUS*%
%TO.N,+5V0 USB*%
X82900000Y-51820000D03*
D15*
%TO.P,P1,A5,CC*%
%TO.N,unconnected-(P1-CC-PadA5)*%
X81750000Y-51820000D03*
%TO.P,P1,A6,D+*%
%TO.N,/USB D+*%
X80750000Y-51820000D03*
%TO.P,P1,A7,D-*%
%TO.N,/USB D-*%
X80250000Y-51820000D03*
%TO.P,P1,A8,SBU1*%
%TO.N,unconnected-(P1-SBU1-PadA8)*%
X79250000Y-51820000D03*
D14*
%TO.P,P1,A9,VBUS*%
%TO.N,+5V0 USB*%
X78100000Y-51820000D03*
%TO.P,P1,A12,GND*%
%TO.N,GND*%
X77300000Y-51820000D03*
%TO.P,P1,B1,GND*%
X77300000Y-51820000D03*
%TO.P,P1,B4,VBUS*%
%TO.N,+5V0 USB*%
X78100000Y-51820000D03*
D15*
%TO.P,P1,B5,VCONN*%
%TO.N,unconnected-(P1-VCONN-PadB5)*%
X78750000Y-51820000D03*
%TO.P,P1,B6*%
%TO.N,N/C*%
X79750000Y-51820000D03*
%TO.P,P1,B7*%
X81250000Y-51820000D03*
%TO.P,P1,B8,SBU2*%
%TO.N,unconnected-(P1-SBU2-PadB8)*%
X82250000Y-51820000D03*
D14*
%TO.P,P1,B9,VBUS*%
%TO.N,+5V0 USB*%
X82900000Y-51820000D03*
%TO.P,P1,B12,GND*%
%TO.N,GND*%
X83700000Y-51820000D03*
D16*
%TO.P,P1,S1,SHIELD*%
X84820000Y-56575000D03*
D17*
X84820000Y-52395000D03*
D16*
X76180000Y-56575000D03*
D17*
X76180000Y-52395000D03*
%TD*%
D12*
%TO.P,TP27,1,1*%
%TO.N,+PWR*%
X84000000Y-47750000D03*
%TD*%
%TO.P,TP1,1,1*%
%TO.N,MOT A*%
X70800000Y-45250000D03*
%TD*%
%TO.P,TP2,1,1*%
%TO.N,MOT B*%
X70800000Y-47250000D03*
%TD*%
%TO.P,TP9,1,1*%
%TO.N,+5V0 USB*%
X72800000Y-49250000D03*
%TD*%
%TO.P,TP10,1,1*%
%TO.N,+5V0 USB*%
X72800000Y-51500000D03*
%TD*%
%TO.P,TP20,1,1*%
%TO.N,GND*%
X83000000Y-46500000D03*
%TD*%
%TO.P,TP16,1,1*%
%TO.N,LEFT_TURN_LIGHT_PIN*%
X83000000Y-49250000D03*
%TD*%
D18*
%TO.P,U5,1,~{RST}*%
%TO.N,ESP RST*%
X88100000Y-28700000D03*
%TO.P,U5,2,ADC*%
%TO.N,ESP ADC*%
X88100000Y-30700000D03*
%TO.P,U5,3,EN*%
%TO.N,Net-(U5-EN)*%
X88100000Y-32700000D03*
%TO.P,U5,4,GPIO16*%
%TO.N,+PWR SENSE*%
X88100000Y-34700000D03*
%TO.P,U5,5,GPIO14*%
%TO.N,SERVO_PIN*%
X88100000Y-36700000D03*
%TO.P,U5,6,GPIO12*%
%TO.N,MOTOR_A*%
X88100000Y-38700000D03*
%TO.P,U5,7,GPIO13*%
%TO.N,MOTOR_B*%
X88100000Y-40700000D03*
%TO.P,U5,8,VCC*%
%TO.N,+3V3*%
X88100000Y-42700000D03*
D19*
%TO.P,U5,9,CS0*%
%TO.N,unconnected-(U5-CS0-Pad9)*%
X85500000Y-44200000D03*
%TO.P,U5,10,MISO*%
%TO.N,unconnected-(U5-MISO-Pad10)*%
X83500000Y-44200000D03*
%TO.P,U5,11,GPIO9*%
%TO.N,unconnected-(U5-GPIO9-Pad11)*%
X81500000Y-44200000D03*
%TO.P,U5,12,GPIO10*%
%TO.N,unconnected-(U5-GPIO10-Pad12)*%
X79500000Y-44200000D03*
%TO.P,U5,13,MOSI*%
%TO.N,unconnected-(U5-MOSI-Pad13)*%
X77500000Y-44200000D03*
%TO.P,U5,14,SCLK*%
%TO.N,unconnected-(U5-SCLK-Pad14)*%
X75500000Y-44200000D03*
D18*
%TO.P,U5,15,GND*%
%TO.N,GND*%
X72900000Y-42700000D03*
%TO.P,U5,16,GPIO15*%
%TO.N,+PWR HOLD*%
X72900000Y-40700000D03*
%TO.P,U5,17,GPIO2*%
%TO.N,HEAD_LIGHT_PIN*%
X72900000Y-38700000D03*
%TO.P,U5,18,GPIO0*%
%TO.N,ESP GPIO 0*%
X72900000Y-36700000D03*
%TO.P,U5,19,GPIO4*%
%TO.N,RIGHT_TURN_LIGHT_PIN*%
X72900000Y-34700000D03*
%TO.P,U5,20,GPIO5*%
%TO.N,LEFT_TURN_LIGHT_PIN*%
X72900000Y-32700000D03*
%TO.P,U5,21,GPIO3/RXD*%
%TO.N,ESP RxD*%
X72900000Y-30700000D03*
%TO.P,U5,22,GPIO1/TXD*%
%TO.N,ESP TxD*%
X72900000Y-28700000D03*
%TD*%
D12*
%TO.P,TP7,1,1*%
%TO.N,GND*%
X74800000Y-49250000D03*
%TD*%
%TO.P,TP8,1,1*%
%TO.N,GND*%
X74800000Y-51500000D03*
%TD*%
%TO.P,TP25,1,1*%
%TO.N,+PWR*%
X80000000Y-47750000D03*
%TD*%
%TO.P,TP6,1,1*%
%TO.N,BAT +*%
X89250000Y-51500000D03*
%TD*%
%TO.P,TP19,1,1*%
%TO.N,GND*%
X85000000Y-46500000D03*
%TD*%
%TO.P,TP21,1,1*%
%TO.N,GND*%
X81000000Y-46500000D03*
%TD*%
D13*
%TO.P,D2,1,K*%
%TO.N,Net-(D2-K)*%
X88000000Y-55000000D03*
%TO.P,D2,2,A*%
%TO.N,Net-(D2-A)*%
X89575000Y-55000000D03*
%TD*%
D12*
%TO.P,TP24,1,1*%
%TO.N,+PWR*%
X78000000Y-47750000D03*
%TD*%
%TO.P,TP14,1,1*%
%TO.N,HEAD_LIGHT_PIN*%
X79000000Y-49250000D03*
%TD*%
D20*
%TO.P,SW1,1,1*%
%TO.N,BTN+*%
X74600000Y-55980000D03*
X71000000Y-55980000D03*
%TO.P,SW1,2,2*%
%TO.N,GND*%
X74600000Y-57420000D03*
X71000000Y-57420000D03*
%TD*%
D12*
%TO.P,TP22,1,1*%
%TO.N,GND*%
X79000000Y-46500000D03*
%TD*%
%TO.P,TP15,1,1*%
%TO.N,RIGHT_TURN_LIGHT_PIN*%
X81000000Y-49250000D03*
%TD*%
%TO.P,TP18,1,1*%
%TO.N,GND*%
X77000000Y-46500000D03*
%TD*%
%TO.P,TP11,1,1*%
%TO.N,BTN+*%
X70800000Y-49250000D03*
%TD*%
%TO.P,TP17,1,1*%
%TO.N,SERVO_PIN*%
X85000000Y-49250000D03*
%TD*%
%TO.P,TP13,1,1*%
%TO.N,ESP GPIO 0*%
X77000000Y-49250000D03*
%TD*%
D21*
%TO.N,+5V*%
X62600000Y-45500000D03*
X73469286Y-58200964D03*
X89399500Y-53788443D03*
X87804424Y-52331637D03*
X74750000Y-54775500D03*
X67600000Y-58000000D03*
X77000000Y-58049503D03*
X62200000Y-49000000D03*
X63280000Y-46980000D03*
X87500000Y-53250000D03*
X82581739Y-53929561D03*
X69701792Y-58200470D03*
%TO.N,GND*%
X75500000Y-48750000D03*
X86843484Y-56665226D03*
X74049503Y-50300000D03*
X67500000Y-29000000D03*
X80000000Y-49500000D03*
X74250000Y-51750000D03*
X79200000Y-45600000D03*
X62000000Y-54500000D03*
X81500000Y-37500000D03*
X71935108Y-57352888D03*
X75449503Y-50300000D03*
X84000000Y-50300000D03*
X66000000Y-29000000D03*
X66000000Y-34000000D03*
X62000000Y-56000000D03*
X62000000Y-31000000D03*
X62300000Y-57200000D03*
X67500000Y-55000000D03*
X83750000Y-39250000D03*
X83589859Y-46104315D03*
X66300000Y-47000000D03*
X71450000Y-52550000D03*
X76000000Y-28500000D03*
X90000000Y-47000000D03*
X66500000Y-51000000D03*
X81750000Y-35250000D03*
X80400000Y-50300000D03*
X75000000Y-48250000D03*
X78300000Y-50300000D03*
X80000000Y-54500000D03*
X69700000Y-55800000D03*
X76100000Y-50300000D03*
X87750000Y-39700498D03*
X74100500Y-46163000D03*
X81800000Y-50300000D03*
X85400000Y-50300000D03*
X63000000Y-50500000D03*
X90200000Y-28325500D03*
X63500000Y-55000000D03*
X70700000Y-41500000D03*
X66000000Y-53500000D03*
X74500000Y-48000000D03*
X67000000Y-49000000D03*
X82500000Y-50300000D03*
X81400000Y-57570550D03*
X66000000Y-30500000D03*
X77704973Y-45619892D03*
X81750000Y-30500000D03*
X77250000Y-50750000D03*
X63000000Y-32000000D03*
X79262767Y-57485765D03*
X76800000Y-50300000D03*
X78300000Y-45500000D03*
X78499502Y-44974689D03*
X71000000Y-35000000D03*
X65000000Y-52500000D03*
X77000000Y-57250000D03*
X84700000Y-50300000D03*
X81100000Y-50300000D03*
X75187000Y-58000000D03*
X71250000Y-53750000D03*
X81750000Y-29250000D03*
X79700000Y-50300000D03*
X77650694Y-50289261D03*
X89400000Y-45500000D03*
X80750000Y-54500000D03*
X75750000Y-27799500D03*
X71500000Y-54955498D03*
X78500498Y-44300000D03*
X65500000Y-50000000D03*
X83200000Y-50300000D03*
X74750000Y-50300000D03*
X62000000Y-51000000D03*
X63500000Y-52000000D03*
X81500000Y-54500000D03*
X65400000Y-49000000D03*
X79000000Y-50300000D03*
X71629663Y-43427665D03*
X62000000Y-53000000D03*
X72141151Y-56739279D03*
X86100497Y-50300000D03*
X69700000Y-27600497D03*
X63500000Y-53500000D03*
X89411956Y-37695645D03*
X87250000Y-55750000D03*
X83500000Y-28000000D03*
X90000000Y-33274500D03*
X67500000Y-45500000D03*
%TO.N,BAT +*%
X89949503Y-50300000D03*
X88500000Y-49500000D03*
X81998159Y-48749501D03*
X88600000Y-50300000D03*
X89250000Y-50300000D03*
X83400000Y-57734500D03*
X90000000Y-56649500D03*
X88000000Y-46750000D03*
X90200000Y-51275500D03*
%TO.N,+PWR (5V0 {slash} 3V3)*%
X82499502Y-44750000D03*
X86750000Y-45000000D03*
X84499502Y-44250000D03*
X70799209Y-43410296D03*
X71480918Y-47945940D03*
X86812476Y-47117762D03*
%TO.N,+3V3*%
X88500000Y-41750000D03*
X85800000Y-33500000D03*
X85250000Y-32500000D03*
X84750000Y-30000000D03*
X89471147Y-41684587D03*
X85800000Y-32800000D03*
X85000000Y-28500000D03*
X88000000Y-35699502D03*
X84000000Y-36250000D03*
X70862500Y-37763000D03*
X70794369Y-36660000D03*
X86750000Y-42000000D03*
X89573384Y-29646767D03*
%TO.N,ESP GPIO 0*%
X69700000Y-30900000D03*
X76400000Y-49100000D03*
X72049500Y-35800000D03*
X73275498Y-35800000D03*
X74793496Y-42792996D03*
X67900000Y-33100000D03*
X70800000Y-33100000D03*
%TO.N,ESP RST*%
X69676089Y-30100000D03*
X71150498Y-30900000D03*
X87600000Y-27800000D03*
%TO.N,Net-(D1-K)*%
X85788000Y-57750500D03*
%TO.N,Net-(D1-A)*%
X88761111Y-56865312D03*
%TO.N,Net-(D2-K)*%
X86400000Y-56000000D03*
%TO.N,Net-(D2-A)*%
X89392451Y-52784903D03*
%TO.N,+5V0 USB*%
X72400000Y-50300000D03*
X78500000Y-53000000D03*
X73592655Y-51294915D03*
X72250500Y-47000498D03*
X82500000Y-53000000D03*
X73100000Y-50300000D03*
X72056746Y-49066463D03*
X86000000Y-54250000D03*
%TO.N,/USB D+*%
X69687531Y-57401095D03*
X66300000Y-57100000D03*
X65700000Y-39900000D03*
X80719811Y-52916898D03*
%TO.N,/USB D-*%
X64300000Y-57100000D03*
X69704112Y-56601765D03*
X79900000Y-52894502D03*
X66400000Y-38520000D03*
%TO.N,RTS*%
X64424500Y-35718500D03*
X62200000Y-33000000D03*
%TO.N,ESP RxD*%
X69692168Y-29283730D03*
X71712041Y-30240566D03*
%TO.N,Net-(U3-TXD)*%
X62300000Y-29800000D03*
X64700000Y-43600000D03*
%TO.N,ESP TxD*%
X69700000Y-28400000D03*
X71400000Y-28000000D03*
%TO.N,Net-(U3-RXD)*%
X64700500Y-42300000D03*
X62300000Y-28300000D03*
%TO.N,Net-(U5-EN)*%
X87200000Y-33600000D03*
%TO.N,HEAD_LIGHT_PIN*%
X78200000Y-49099500D03*
X72100000Y-39500000D03*
X75615158Y-42715159D03*
%TO.N,ESP ADC*%
X89200000Y-31700000D03*
%TO.N,BAT -*%
X87800000Y-48800000D03*
X85750000Y-45750000D03*
X86900000Y-50300000D03*
X76606277Y-45581312D03*
X87600000Y-50300000D03*
%TO.N,MOTOR_A*%
X80625000Y-31975000D03*
X74649502Y-30999500D03*
%TO.N,MOTOR_B*%
X79605790Y-32015344D03*
X74649655Y-31847169D03*
%TO.N,RIGHT_TURN_LIGHT_PIN*%
X78038847Y-41987821D03*
X80584465Y-48704902D03*
%TO.N,LEFT_TURN_LIGHT_PIN*%
X78069178Y-42805312D03*
X84129151Y-48759463D03*
%TO.N,MOT A*%
X75900000Y-41000000D03*
X76700000Y-41000000D03*
X76400000Y-41600000D03*
X73437598Y-45035763D03*
X73225983Y-45833807D03*
%TO.N,MOT B*%
X72499500Y-45500000D03*
X76300000Y-39100000D03*
X76300000Y-38500000D03*
X76084659Y-39625500D03*
X72499500Y-46186050D03*
%TO.N,+PWR*%
X86200000Y-36500000D03*
X85200000Y-41500000D03*
X85750000Y-34500000D03*
X85200000Y-42100000D03*
X79250000Y-28750000D03*
X86470750Y-31525071D03*
X84574346Y-41787173D03*
X84750000Y-42500000D03*
X85800000Y-41800000D03*
X77250000Y-30250000D03*
%TO.N,+PWR SENSE*%
X82400000Y-32600000D03*
%TO.N,+PWR HOLD*%
X70600000Y-40700000D03*
%TO.N,BTN+*%
X70650000Y-50300000D03*
X71350000Y-50300000D03*
X73200000Y-46900000D03*
%TD*%
D22*
%TO.N,GND*%
X74750000Y-49800000D02*
X74250000Y-50300000D01*
X74750000Y-50800000D02*
X75250000Y-50300000D01*
X74750000Y-51500000D02*
X74500000Y-51500000D01*
X79000000Y-46200000D02*
X79000000Y-46500000D01*
X83589859Y-46104315D02*
X83194174Y-46500000D01*
X72357328Y-42700000D02*
X72900000Y-42700000D01*
X80017992Y-46500000D02*
X77000000Y-46500000D01*
X78499502Y-44974689D02*
X78700000Y-45175187D01*
X79000000Y-45800000D02*
X79000000Y-46500000D01*
X77000000Y-46324865D02*
X77704973Y-45619892D01*
X77300000Y-50800000D02*
X77250000Y-50750000D01*
X71629663Y-43427665D02*
X72357328Y-42700000D01*
X85000000Y-46500000D02*
X80017992Y-46500000D01*
X83194174Y-46500000D02*
X83000000Y-46500000D01*
X74750000Y-49250000D02*
X74750000Y-49800000D01*
X74250000Y-50300000D02*
X74049503Y-50300000D01*
X78300000Y-45500000D02*
X79000000Y-46200000D01*
X74600000Y-57420000D02*
X74607000Y-57420000D01*
X74049503Y-50300000D02*
X86100497Y-50300000D01*
X78700000Y-45175187D02*
X78700000Y-45400000D01*
X71460430Y-57420000D02*
X71000000Y-57420000D01*
X74750000Y-48500000D02*
X75000000Y-48250000D01*
X83700000Y-50600000D02*
X83700000Y-51820000D01*
X87750000Y-39700498D02*
X87750000Y-39900000D01*
X74750000Y-49800000D02*
X75250000Y-50300000D01*
X75250000Y-50300000D02*
X75449503Y-50300000D01*
X77300000Y-51820000D02*
X77300000Y-50800000D01*
X69700000Y-55800000D02*
X69657348Y-55800000D01*
X74607000Y-57420000D02*
X75187000Y-58000000D01*
X74750000Y-50800000D02*
X74250000Y-50300000D01*
X78700000Y-45400000D02*
X79900000Y-45400000D01*
X74750000Y-49250000D02*
X74750000Y-48500000D01*
X79200000Y-45600000D02*
X79000000Y-45800000D01*
X74500000Y-51500000D02*
X74250000Y-51750000D01*
X79900000Y-45400000D02*
X81000000Y-46500000D01*
X77000000Y-46500000D02*
X77000000Y-46324865D01*
X74750000Y-49250000D02*
X74750000Y-50300000D01*
X84000000Y-50300000D02*
X83700000Y-50600000D01*
X72141151Y-56739279D02*
X71460430Y-57420000D01*
X74750000Y-51500000D02*
X74750000Y-50300000D01*
X74750000Y-51500000D02*
X74750000Y-50800000D01*
%TO.N,BAT +*%
X89250000Y-49250000D02*
X89250000Y-49800000D01*
X88600000Y-50300000D02*
X89250000Y-50950000D01*
X89250000Y-49650000D02*
X89250000Y-49250000D01*
X88750000Y-49250000D02*
X88500000Y-49500000D01*
X89250000Y-49250000D02*
X89250000Y-50300000D01*
X89250000Y-49250000D02*
X88750000Y-49250000D01*
X88600000Y-50300000D02*
X89250000Y-49650000D01*
X89250000Y-50950000D02*
X89250000Y-51500000D01*
X89949503Y-50300000D02*
X89250000Y-49600497D01*
X89250000Y-51500000D02*
X89975500Y-51500000D01*
X89250000Y-50999503D02*
X89250000Y-51500000D01*
X89949503Y-50300000D02*
X89250000Y-50999503D01*
X89250000Y-49600497D02*
X89250000Y-49250000D01*
X89250000Y-51500000D02*
X89250000Y-50800000D01*
X89250000Y-51500000D02*
X89250000Y-50300000D01*
X89975500Y-51500000D02*
X90200000Y-51275500D01*
%TO.N,+3V3*%
X87450000Y-42700000D02*
X86750000Y-42000000D01*
X88100000Y-42700000D02*
X87450000Y-42700000D01*
%TO.N,ESP GPIO 0*%
X72049500Y-36700000D02*
X72900000Y-36700000D01*
X72049500Y-35849500D02*
X72049500Y-36700000D01*
X67900000Y-31300000D02*
X67900000Y-33100000D01*
X73275498Y-36324502D02*
X72900000Y-36700000D01*
X70800000Y-31398031D02*
X70800000Y-33100000D01*
X73275498Y-35800000D02*
X73275498Y-36324502D01*
X70301969Y-30900000D02*
X70800000Y-31398031D01*
X68300000Y-30900000D02*
X67900000Y-31300000D01*
X69700000Y-30900000D02*
X68300000Y-30900000D01*
X69700000Y-30900000D02*
X70301969Y-30900000D01*
X72049500Y-35800000D02*
X72049500Y-35849500D01*
X77000000Y-49250000D02*
X76550000Y-49250000D01*
X76550000Y-49250000D02*
X76400000Y-49100000D01*
%TO.N,ESP RST*%
X87600000Y-27800000D02*
X87600000Y-28200000D01*
X70800000Y-29900000D02*
X70800000Y-30549502D01*
X87600000Y-27800000D02*
X84700000Y-27800000D01*
X82800000Y-28600000D02*
X82100000Y-27900000D01*
X69676089Y-30100000D02*
X69952178Y-29823911D01*
X82100000Y-27900000D02*
X78400000Y-27900000D01*
X70723911Y-29823911D02*
X70800000Y-29900000D01*
X76659434Y-29640566D02*
X70907256Y-29640566D01*
X84700000Y-27800000D02*
X83900000Y-28600000D01*
X70800000Y-30549502D02*
X71150498Y-30900000D01*
X78400000Y-27900000D02*
X76659434Y-29640566D01*
X83900000Y-28600000D02*
X82800000Y-28600000D01*
X69952178Y-29823911D02*
X70723911Y-29823911D01*
X87600000Y-28200000D02*
X88100000Y-28700000D01*
X70907256Y-29640566D02*
X70723911Y-29823911D01*
%TO.N,Net-(D1-K)*%
X87999500Y-57750500D02*
X88000000Y-57750000D01*
X85788000Y-57750500D02*
X87999500Y-57750500D01*
%TO.N,Net-(D1-A)*%
X89575000Y-57750000D02*
X89575000Y-57679201D01*
X89575000Y-57679201D02*
X88761111Y-56865312D01*
%TO.N,Net-(D2-K)*%
X86400000Y-55751471D02*
X87151471Y-55000000D01*
X86400000Y-56000000D02*
X86400000Y-55751471D01*
X87151471Y-55000000D02*
X88000000Y-55000000D01*
%TO.N,Net-(D2-A)*%
X88800000Y-54225000D02*
X89575000Y-55000000D01*
X88800000Y-53377354D02*
X88800000Y-54225000D01*
X89392451Y-52784903D02*
X88800000Y-53377354D01*
%TO.N,+5V0 USB*%
X72750000Y-49250000D02*
X72750000Y-49800000D01*
X72750000Y-51500000D02*
X72750000Y-50800000D01*
X78285000Y-52785000D02*
X78500000Y-53000000D01*
X72750000Y-51500000D02*
X73387570Y-51500000D01*
X72056746Y-49066463D02*
X72240283Y-49250000D01*
X73100000Y-50450000D02*
X73100000Y-50300000D01*
X72400000Y-50150000D02*
X72400000Y-50300000D01*
X72750000Y-50800000D02*
X73100000Y-50450000D01*
X82715000Y-52785000D02*
X82500000Y-53000000D01*
X78285000Y-52005000D02*
X78285000Y-52785000D01*
X82900000Y-51820000D02*
X82715000Y-52005000D01*
X72240283Y-49250000D02*
X72750000Y-49250000D01*
X73100000Y-50150000D02*
X73100000Y-50300000D01*
X72750000Y-49250000D02*
X72750000Y-50300000D01*
X72750000Y-51500000D02*
X72423771Y-51500000D01*
X78100000Y-51820000D02*
X78285000Y-52005000D01*
X72750000Y-51500000D02*
X72750000Y-50300000D01*
X72750000Y-49800000D02*
X73100000Y-50150000D01*
X72750000Y-49800000D02*
X72400000Y-50150000D01*
X72400000Y-50450000D02*
X72400000Y-50300000D01*
X72750000Y-50800000D02*
X72400000Y-50450000D01*
X82715000Y-52005000D02*
X82715000Y-52785000D01*
X73387570Y-51500000D02*
X73592655Y-51294915D01*
%TO.N,/USB D+*%
X80719811Y-52916898D02*
X80719811Y-52923220D01*
X80750000Y-51820000D02*
X80750000Y-52886709D01*
X80750000Y-52886709D02*
X80719811Y-52916898D01*
%TO.N,/USB D-*%
X80250000Y-52544502D02*
X79900000Y-52894502D01*
X80250000Y-51820000D02*
X80250000Y-52544502D01*
%TO.N,RTS*%
X64424500Y-35718500D02*
X64424500Y-35224500D01*
X64424500Y-35224500D02*
X62200000Y-33000000D01*
%TO.N,ESP RxD*%
X72171475Y-30700000D02*
X72900000Y-30700000D01*
X71712041Y-30240566D02*
X72171475Y-30700000D01*
%TO.N,Net-(U3-TXD)*%
X64700000Y-43600000D02*
X64000000Y-43600000D01*
X64000000Y-43600000D02*
X63500000Y-43100000D01*
X63500000Y-43100000D02*
X63500000Y-38400000D01*
X63500000Y-38400000D02*
X65400000Y-36500000D01*
X65400000Y-36500000D02*
X65400000Y-32900000D01*
X65400000Y-32900000D02*
X62300000Y-29800000D01*
%TO.N,ESP TxD*%
X72100000Y-28700000D02*
X72900000Y-28700000D01*
X71400000Y-28000000D02*
X72100000Y-28700000D01*
%TO.N,Net-(U3-RXD)*%
X66600000Y-32600000D02*
X66600000Y-36700000D01*
X64700500Y-38599500D02*
X64700500Y-42300000D01*
X66600000Y-36700000D02*
X64700500Y-38599500D01*
X62300000Y-28300000D02*
X66600000Y-32600000D01*
%TO.N,Net-(U5-EN)*%
X87200000Y-32700000D02*
X88100000Y-32700000D01*
X87200000Y-33600000D02*
X87200000Y-32700000D01*
%TO.N,HEAD_LIGHT_PIN*%
X78350500Y-49250000D02*
X78200000Y-49099500D01*
X75300000Y-40350000D02*
X73650000Y-38700000D01*
X79000000Y-49250000D02*
X78350500Y-49250000D01*
X73650000Y-38700000D02*
X72900000Y-38700000D01*
X72100000Y-39500000D02*
X72900000Y-38700000D01*
X75615158Y-42715159D02*
X75300000Y-42400001D01*
X75300000Y-42400001D02*
X75300000Y-40350000D01*
%TO.N,ESP ADC*%
X89200000Y-31700000D02*
X89400000Y-31500000D01*
X89400000Y-31500000D02*
X89400000Y-30600000D01*
X89400000Y-30600000D02*
X88200000Y-30600000D01*
X88200000Y-30600000D02*
X88100000Y-30700000D01*
%TO.N,BAT -*%
X87250000Y-49800000D02*
X87600000Y-50150000D01*
X87600000Y-50150000D02*
X87600000Y-50300000D01*
X86900000Y-50300000D02*
X87600000Y-50300000D01*
X86900000Y-50150000D02*
X86900000Y-50300000D01*
X87250000Y-51500000D02*
X87250000Y-50800000D01*
X87250000Y-51500000D02*
X87250000Y-50300000D01*
X87250000Y-49800000D02*
X86900000Y-50150000D01*
X87250000Y-49250000D02*
X87250000Y-50300000D01*
X87800000Y-48800000D02*
X87700000Y-48800000D01*
X87600000Y-50450000D02*
X87600000Y-50300000D01*
X87250000Y-50800000D02*
X87600000Y-50450000D01*
X87250000Y-49250000D02*
X87250000Y-49800000D01*
X87700000Y-48800000D02*
X87250000Y-49250000D01*
X87250000Y-50800000D02*
X86900000Y-50450000D01*
X86900000Y-50450000D02*
X86900000Y-50300000D01*
%TO.N,SERVO_PIN*%
X90400000Y-45700000D02*
X90400000Y-37550000D01*
X88000000Y-48100000D02*
X90400000Y-45700000D01*
X90400000Y-37550000D02*
X89550000Y-36700000D01*
X89550000Y-36700000D02*
X88100000Y-36700000D01*
X85000000Y-49250000D02*
X85950000Y-49250000D01*
X87100000Y-48100000D02*
X88000000Y-48100000D01*
X85950000Y-49250000D02*
X87100000Y-48100000D01*
%TO.N,MOTOR_A*%
X86825000Y-38700000D02*
X88100000Y-38700000D01*
X80625000Y-31975000D02*
X80625000Y-32500000D01*
X79950000Y-31300000D02*
X80625000Y-31975000D01*
X74649502Y-30999500D02*
X74899500Y-30999500D01*
X84600000Y-36001471D02*
X84600000Y-36475000D01*
X74899500Y-30999500D02*
X75200000Y-31300000D01*
X75200000Y-31300000D02*
X79950000Y-31300000D01*
X83775000Y-35650000D02*
X84248529Y-35650000D01*
X84600000Y-36475000D02*
X86825000Y-38700000D01*
X80625000Y-32500000D02*
X83775000Y-35650000D01*
X84248529Y-35650000D02*
X84600000Y-36001471D01*
%TO.N,MOTOR_B*%
X74649655Y-31847169D02*
X74817830Y-32015344D01*
X83400000Y-36000000D02*
X79415344Y-32015344D01*
X79415344Y-32015344D02*
X78323910Y-32015344D01*
X83400000Y-37500000D02*
X83400000Y-36000000D01*
X88100000Y-40700000D02*
X87350000Y-40700000D01*
X84300000Y-38400000D02*
X83400000Y-37500000D01*
X85050000Y-38400000D02*
X84300000Y-38400000D01*
X87350000Y-40700000D02*
X85050000Y-38400000D01*
X79605790Y-32015344D02*
X78323910Y-32015344D01*
X74817830Y-32015344D02*
X78323910Y-32015344D01*
%TO.N,RIGHT_TURN_LIGHT_PIN*%
X79200000Y-34900000D02*
X78500000Y-34200000D01*
X81000000Y-49120437D02*
X80584465Y-48704902D01*
X79200000Y-41108804D02*
X79200000Y-34900000D01*
X73400000Y-34200000D02*
X72900000Y-34700000D01*
X78038847Y-41987821D02*
X78320983Y-41987821D01*
X81000000Y-49250000D02*
X81000000Y-49120437D01*
X78320983Y-41987821D02*
X79200000Y-41108804D01*
X78500000Y-34200000D02*
X73400000Y-34200000D01*
%TO.N,LEFT_TURN_LIGHT_PIN*%
X78069178Y-42805312D02*
X78994688Y-42805312D01*
X83000000Y-49250000D02*
X83638614Y-49250000D01*
X73300000Y-33100000D02*
X72900000Y-32700000D01*
X78700000Y-33100000D02*
X73300000Y-33100000D01*
X78994688Y-42805312D02*
X80500000Y-41300000D01*
X83638614Y-49250000D02*
X84129151Y-48759463D01*
X80500000Y-41300000D02*
X80500000Y-34900000D01*
X80500000Y-34900000D02*
X78700000Y-33100000D01*
%TO.N,MOT A*%
X73225983Y-45377954D02*
X72748029Y-44900000D01*
X71100000Y-44900000D02*
X70750000Y-45250000D01*
X73225983Y-45833807D02*
X73225983Y-45377954D01*
X73437598Y-45166339D02*
X73437598Y-45035763D01*
X72748029Y-44900000D02*
X71100000Y-44900000D01*
X73225983Y-45377954D02*
X73437598Y-45166339D01*
%TO.N,MOT B*%
X72499500Y-45500500D02*
X71690491Y-46309509D01*
X72376041Y-46309509D02*
X72499500Y-46186050D01*
X71690491Y-46309509D02*
X72376041Y-46309509D01*
X72499500Y-45500000D02*
X72499500Y-45500500D01*
X70750000Y-47250000D02*
X71690491Y-46309509D01*
%TO.N,+PWR*%
X85800000Y-42500000D02*
X84750000Y-42500000D01*
X85600000Y-42500000D02*
X85200000Y-42100000D01*
X86000000Y-46700000D02*
X87500000Y-45200000D01*
X87500000Y-45200000D02*
X87500000Y-44500000D01*
X85200000Y-42100000D02*
X84887173Y-42100000D01*
X84887173Y-42100000D02*
X84574346Y-41787173D01*
X87500000Y-44500000D02*
X86500000Y-43500000D01*
X86500000Y-43200000D02*
X85800000Y-42500000D01*
X85800000Y-42500000D02*
X85800000Y-41800000D01*
X78000000Y-47750000D02*
X86000000Y-47750000D01*
X86000000Y-47750000D02*
X86000000Y-46700000D01*
X86500000Y-43500000D02*
X86500000Y-43200000D01*
X85800000Y-42500000D02*
X85600000Y-42500000D01*
%TO.N,+PWR SENSE*%
X88100000Y-34700000D02*
X87700000Y-35100000D01*
X84900000Y-35100000D02*
X82400000Y-32600000D01*
X87700000Y-35100000D02*
X84900000Y-35100000D01*
%TO.N,+PWR HOLD*%
X70600000Y-40700000D02*
X72900000Y-40700000D01*
X72583861Y-40383861D02*
X72900000Y-40700000D01*
%TO.N,BTN+*%
X70750000Y-50400000D02*
X70650000Y-50300000D01*
X72405026Y-55000000D02*
X73620000Y-55000000D01*
X70750000Y-51500000D02*
X70750000Y-50400000D01*
X71250000Y-50300000D02*
X71350000Y-50300000D01*
X71000000Y-55980000D02*
X71425026Y-55980000D01*
X70750000Y-50900000D02*
X70750000Y-51500000D01*
X70750000Y-49800000D02*
X71250000Y-50300000D01*
X70650000Y-55630000D02*
X71000000Y-55980000D01*
X70650000Y-50300000D02*
X70750000Y-50200000D01*
X73620000Y-55000000D02*
X74600000Y-55980000D01*
X70750000Y-50200000D02*
X70750000Y-49800000D01*
X71024680Y-49250000D02*
X70750000Y-49250000D01*
X70750000Y-51500000D02*
X70650000Y-51600000D01*
X71350000Y-50300000D02*
X70750000Y-50900000D01*
X73200000Y-46900000D02*
X73200000Y-47074680D01*
X71425026Y-55980000D02*
X72405026Y-55000000D01*
X70650000Y-51600000D02*
X70650000Y-55630000D01*
X70750000Y-49250000D02*
X70750000Y-50200000D01*
X73200000Y-47074680D02*
X71024680Y-49250000D01*
X70750000Y-49250000D02*
X70750000Y-49800000D01*
%TD*%
%TA.AperFunction,Conductor*%
%TO.N,GND*%
G36*
X72339191Y-27319407D02*
G01*
X72375155Y-27368907D01*
X72380000Y-27399499D01*
X72380000Y-27400000D01*
X78423230Y-27400000D01*
X78436887Y-27404437D01*
X78454647Y-27400000D01*
X82083023Y-27400000D01*
X82104807Y-27407078D01*
X82139972Y-27400000D01*
X84429457Y-27400000D01*
X84487648Y-27418907D01*
X84523612Y-27468407D01*
X84523612Y-27529593D01*
X84496154Y-27572161D01*
X84494048Y-27574080D01*
X84474839Y-27599515D01*
X84470335Y-27604692D01*
X83804525Y-28270503D01*
X83750008Y-28298281D01*
X83734521Y-28299500D01*
X82965480Y-28299500D01*
X82907289Y-28280593D01*
X82895476Y-28270504D01*
X82358565Y-27733594D01*
X82350479Y-27722344D01*
X82349487Y-27723094D01*
X82343958Y-27715772D01*
X82308428Y-27683382D01*
X82306775Y-27681804D01*
X82292797Y-27667826D01*
X82289859Y-27665813D01*
X82284496Y-27661564D01*
X82260933Y-27640084D01*
X82251762Y-27636531D01*
X82231586Y-27625895D01*
X82223484Y-27620345D01*
X82223479Y-27620343D01*
X82192457Y-27613046D01*
X82185902Y-27611016D01*
X82156177Y-27599501D01*
X82156174Y-27599500D01*
X82156173Y-27599500D01*
X82156172Y-27599500D01*
X82146348Y-27599500D01*
X82123676Y-27596869D01*
X82117300Y-27595369D01*
X82110736Y-27591388D01*
X82096699Y-27597051D01*
X82082547Y-27599025D01*
X82075700Y-27599500D01*
X78465164Y-27599500D01*
X78451488Y-27597267D01*
X78451317Y-27598494D01*
X78440967Y-27597050D01*
X78436460Y-27594857D01*
X78427802Y-27597894D01*
X78411339Y-27598655D01*
X78394206Y-27599447D01*
X78391930Y-27599500D01*
X78372153Y-27599500D01*
X78368658Y-27600153D01*
X78361845Y-27600943D01*
X78330010Y-27602414D01*
X78330006Y-27602415D01*
X78321015Y-27606385D01*
X78299227Y-27613132D01*
X78289570Y-27614937D01*
X78289564Y-27614939D01*
X78262466Y-27631717D01*
X78256399Y-27634915D01*
X78227237Y-27647792D01*
X78227233Y-27647795D01*
X78220284Y-27654744D01*
X78202409Y-27668903D01*
X78194048Y-27674080D01*
X78174839Y-27699515D01*
X78170335Y-27704692D01*
X76563959Y-29311070D01*
X76509442Y-29338847D01*
X76493955Y-29340066D01*
X74447199Y-29340066D01*
X74389008Y-29321159D01*
X74353044Y-29271659D01*
X74350272Y-29224616D01*
X74350023Y-29224592D01*
X74350178Y-29223017D01*
X74350103Y-29221744D01*
X74350499Y-29219751D01*
X74350500Y-29219746D01*
X74350500Y-28180253D01*
X74350498Y-28180241D01*
X74342982Y-28142456D01*
X74338867Y-28121769D01*
X74294552Y-28055448D01*
X74251421Y-28026628D01*
X74228233Y-28011134D01*
X74228231Y-28011133D01*
X74228228Y-28011132D01*
X74228227Y-28011132D01*
X74169758Y-27999501D01*
X74169748Y-27999500D01*
X74169747Y-27999500D01*
X71991359Y-27999500D01*
X71933168Y-27980593D01*
X71897204Y-27931093D01*
X71893367Y-27914588D01*
X71885165Y-27857544D01*
X71877176Y-27840049D01*
X71825377Y-27726627D01*
X71731128Y-27617857D01*
X71731127Y-27617856D01*
X71731126Y-27617855D01*
X71610057Y-27540049D01*
X71610054Y-27540047D01*
X71610053Y-27540047D01*
X71610050Y-27540046D01*
X71471964Y-27499500D01*
X71471961Y-27499500D01*
X71328039Y-27499500D01*
X71328035Y-27499500D01*
X71189949Y-27540046D01*
X71189942Y-27540049D01*
X71068873Y-27617855D01*
X70974622Y-27726628D01*
X70914834Y-27857543D01*
X70894353Y-27999997D01*
X70894353Y-28000002D01*
X70914834Y-28142456D01*
X70972583Y-28268907D01*
X70974623Y-28273373D01*
X71016307Y-28321479D01*
X71068873Y-28382144D01*
X71189942Y-28459950D01*
X71189947Y-28459953D01*
X71296403Y-28491211D01*
X71328035Y-28500499D01*
X71328036Y-28500499D01*
X71328039Y-28500500D01*
X71350500Y-28500500D01*
X71408691Y-28519407D01*
X71444655Y-28568907D01*
X71449500Y-28599500D01*
X71449500Y-29219751D01*
X71449897Y-29221744D01*
X71449787Y-29222668D01*
X71449977Y-29224592D01*
X71449555Y-29224633D01*
X71442711Y-29282506D01*
X71401181Y-29327439D01*
X71352801Y-29340066D01*
X70972420Y-29340066D01*
X70958744Y-29337833D01*
X70958573Y-29339060D01*
X70949489Y-29337792D01*
X70909142Y-29339658D01*
X70901462Y-29340013D01*
X70899186Y-29340066D01*
X70879409Y-29340066D01*
X70875914Y-29340719D01*
X70869101Y-29341509D01*
X70837266Y-29342980D01*
X70837262Y-29342981D01*
X70828271Y-29346951D01*
X70806483Y-29353698D01*
X70796826Y-29355503D01*
X70796820Y-29355505D01*
X70769722Y-29372283D01*
X70763655Y-29375481D01*
X70734493Y-29388358D01*
X70734489Y-29388361D01*
X70727540Y-29395310D01*
X70709665Y-29409469D01*
X70701304Y-29414646D01*
X70682092Y-29440085D01*
X70677589Y-29445260D01*
X70628438Y-29494413D01*
X70573922Y-29522192D01*
X70558433Y-29523411D01*
X70277607Y-29523411D01*
X70219416Y-29504504D01*
X70183452Y-29455004D01*
X70179615Y-29410322D01*
X70197815Y-29283733D01*
X70197815Y-29283727D01*
X70177333Y-29141273D01*
X70117545Y-29010358D01*
X70117545Y-29010357D01*
X70031638Y-28911214D01*
X70007821Y-28854854D01*
X70021680Y-28795259D01*
X70031633Y-28781559D01*
X70125377Y-28673373D01*
X70185165Y-28542457D01*
X70202920Y-28418967D01*
X70205647Y-28400002D01*
X70205647Y-28399997D01*
X70185165Y-28257543D01*
X70181492Y-28249500D01*
X70125377Y-28126627D01*
X70031128Y-28017857D01*
X70031127Y-28017856D01*
X70031126Y-28017855D01*
X69910057Y-27940049D01*
X69910054Y-27940047D01*
X69910053Y-27940047D01*
X69910050Y-27940046D01*
X69771964Y-27899500D01*
X69771961Y-27899500D01*
X69628039Y-27899500D01*
X69628035Y-27899500D01*
X69489949Y-27940046D01*
X69489942Y-27940049D01*
X69368873Y-28017855D01*
X69274622Y-28126628D01*
X69214834Y-28257543D01*
X69194353Y-28399997D01*
X69194353Y-28400002D01*
X69214834Y-28542456D01*
X69260504Y-28642457D01*
X69274623Y-28673373D01*
X69360529Y-28772515D01*
X69384346Y-28828874D01*
X69370487Y-28888469D01*
X69360529Y-28902175D01*
X69266791Y-29010356D01*
X69207002Y-29141273D01*
X69186521Y-29283727D01*
X69186521Y-29283732D01*
X69207002Y-29426186D01*
X69266791Y-29557103D01*
X69319346Y-29617755D01*
X69343164Y-29674114D01*
X69329306Y-29733709D01*
X69319347Y-29747416D01*
X69250712Y-29826626D01*
X69190923Y-29957543D01*
X69170442Y-30099997D01*
X69170442Y-30100002D01*
X69190923Y-30242456D01*
X69250712Y-30373373D01*
X69304691Y-30435669D01*
X69328509Y-30492028D01*
X69314650Y-30551624D01*
X69268409Y-30591691D01*
X69229872Y-30599500D01*
X68365164Y-30599500D01*
X68351488Y-30597267D01*
X68351317Y-30598494D01*
X68342233Y-30597226D01*
X68301886Y-30599092D01*
X68294206Y-30599447D01*
X68291930Y-30599500D01*
X68272153Y-30599500D01*
X68268658Y-30600153D01*
X68261845Y-30600943D01*
X68230009Y-30602414D01*
X68221005Y-30606389D01*
X68199226Y-30613132D01*
X68189568Y-30614937D01*
X68189566Y-30614938D01*
X68162471Y-30631714D01*
X68156403Y-30634913D01*
X68127234Y-30647793D01*
X68120280Y-30654747D01*
X68102403Y-30668907D01*
X68094048Y-30674080D01*
X68074839Y-30699515D01*
X68070335Y-30704692D01*
X67733592Y-31041435D01*
X67722361Y-31049550D01*
X67723090Y-31050515D01*
X67715771Y-31056041D01*
X67683372Y-31091580D01*
X67681796Y-31093231D01*
X67667830Y-31107198D01*
X67667817Y-31107213D01*
X67665813Y-31110138D01*
X67661561Y-31115504D01*
X67640084Y-31139065D01*
X67640083Y-31139067D01*
X67636529Y-31148240D01*
X67625896Y-31168412D01*
X67620346Y-31176515D01*
X67620342Y-31176524D01*
X67613045Y-31207545D01*
X67611016Y-31214098D01*
X67599500Y-31243824D01*
X67599500Y-31253651D01*
X67596870Y-31276318D01*
X67594621Y-31285879D01*
X67599025Y-31317452D01*
X67599500Y-31324298D01*
X67599500Y-32646105D01*
X67580593Y-32704296D01*
X67573258Y-32712289D01*
X67573509Y-32712506D01*
X67568872Y-32717856D01*
X67568872Y-32717857D01*
X67514511Y-32780593D01*
X67474622Y-32826628D01*
X67414834Y-32957543D01*
X67394353Y-33099997D01*
X67394353Y-33100002D01*
X67414834Y-33242456D01*
X67474622Y-33373370D01*
X67474623Y-33373373D01*
X67565464Y-33478210D01*
X67568873Y-33482144D01*
X67679170Y-33553027D01*
X67689947Y-33559953D01*
X67796403Y-33591211D01*
X67828035Y-33600499D01*
X67828036Y-33600499D01*
X67828039Y-33600500D01*
X67828041Y-33600500D01*
X67971959Y-33600500D01*
X67971961Y-33600500D01*
X68110053Y-33559953D01*
X68231128Y-33482143D01*
X68325377Y-33373373D01*
X68385165Y-33242457D01*
X68399543Y-33142456D01*
X68405647Y-33100002D01*
X68405647Y-33099997D01*
X68385165Y-32957543D01*
X68369013Y-32922175D01*
X68325377Y-32826627D01*
X68231128Y-32717857D01*
X68231127Y-32717856D01*
X68226491Y-32712506D01*
X68228524Y-32710743D01*
X68203067Y-32668505D01*
X68200500Y-32646105D01*
X68200500Y-31465479D01*
X68219407Y-31407288D01*
X68229496Y-31395475D01*
X68395475Y-31229496D01*
X68449992Y-31201719D01*
X68465479Y-31200500D01*
X68649243Y-31200500D01*
X68707434Y-31219407D01*
X68743398Y-31268907D01*
X68743398Y-31330093D01*
X68741552Y-31335278D01*
X68739916Y-31339499D01*
X68726616Y-31363374D01*
X68726348Y-31363728D01*
X68726344Y-31363736D01*
X68715398Y-31402202D01*
X68713945Y-31406536D01*
X68699500Y-31443825D01*
X68699500Y-31444272D01*
X68695722Y-31471361D01*
X68695599Y-31471790D01*
X68695599Y-31471794D01*
X68699289Y-31511615D01*
X68699500Y-31516184D01*
X68699500Y-54944272D01*
X68695722Y-54971361D01*
X68695599Y-54971790D01*
X68695599Y-54971794D01*
X68699289Y-55011615D01*
X68699500Y-55016184D01*
X68699500Y-55027845D01*
X68701641Y-55039305D01*
X68702272Y-55043831D01*
X68705964Y-55083656D01*
X68705965Y-55083661D01*
X68706167Y-55084066D01*
X68714855Y-55109987D01*
X68714937Y-55110428D01*
X68714940Y-55110436D01*
X68735990Y-55144433D01*
X68738216Y-55148428D01*
X68756042Y-55184228D01*
X68756369Y-55184526D01*
X68773842Y-55205567D01*
X68774079Y-55205950D01*
X68774081Y-55205952D01*
X68805995Y-55230052D01*
X68809509Y-55232970D01*
X68839067Y-55259916D01*
X68839483Y-55260077D01*
X68863377Y-55273385D01*
X68863736Y-55273656D01*
X68902200Y-55284599D01*
X68906518Y-55286046D01*
X68943827Y-55300500D01*
X68944273Y-55300500D01*
X68971364Y-55304279D01*
X68971793Y-55304401D01*
X69011614Y-55300711D01*
X69016184Y-55300500D01*
X69944273Y-55300500D01*
X69971364Y-55304279D01*
X69971793Y-55304401D01*
X69996297Y-55302130D01*
X70055984Y-55315588D01*
X70096361Y-55361558D01*
X70102529Y-55420021D01*
X70099500Y-55435246D01*
X70099500Y-56079614D01*
X70080593Y-56137805D01*
X70031093Y-56173769D01*
X69969907Y-56173769D01*
X69946978Y-56162899D01*
X69914168Y-56141813D01*
X69914162Y-56141811D01*
X69776076Y-56101265D01*
X69776073Y-56101265D01*
X69632151Y-56101265D01*
X69632147Y-56101265D01*
X69494061Y-56141811D01*
X69494054Y-56141814D01*
X69372985Y-56219620D01*
X69278734Y-56328393D01*
X69218946Y-56459308D01*
X69198465Y-56601762D01*
X69198465Y-56601767D01*
X69218946Y-56744221D01*
X69278735Y-56875138D01*
X69323700Y-56927032D01*
X69347517Y-56983391D01*
X69333658Y-57042986D01*
X69323700Y-57056692D01*
X69262154Y-57127721D01*
X69202365Y-57258638D01*
X69181884Y-57401092D01*
X69181884Y-57401097D01*
X69202365Y-57543551D01*
X69262154Y-57674468D01*
X69322559Y-57744180D01*
X69346377Y-57800539D01*
X69332518Y-57860135D01*
X69322560Y-57873841D01*
X69276415Y-57927096D01*
X69216626Y-58058013D01*
X69196145Y-58200467D01*
X69196145Y-58200472D01*
X69216626Y-58342926D01*
X69276415Y-58473843D01*
X69329987Y-58535669D01*
X69353805Y-58592028D01*
X69339946Y-58651623D01*
X69293706Y-58691691D01*
X69255168Y-58699500D01*
X61499500Y-58699500D01*
X61441309Y-58680593D01*
X61405345Y-58631093D01*
X61400500Y-58600500D01*
X61400500Y-58000002D01*
X67094352Y-58000002D01*
X67114834Y-58142456D01*
X67145888Y-58210453D01*
X67174623Y-58273373D01*
X67240724Y-58349658D01*
X67268873Y-58382144D01*
X67389942Y-58459950D01*
X67389947Y-58459953D01*
X67496403Y-58491211D01*
X67528035Y-58500499D01*
X67528036Y-58500499D01*
X67528039Y-58500500D01*
X67528041Y-58500500D01*
X67671959Y-58500500D01*
X67671961Y-58500500D01*
X67810053Y-58459953D01*
X67931128Y-58382143D01*
X68025377Y-58273373D01*
X68085165Y-58142457D01*
X68097306Y-58058013D01*
X68105647Y-58000002D01*
X68105647Y-57999997D01*
X68085165Y-57857543D01*
X68057150Y-57796200D01*
X68025377Y-57726627D01*
X67931128Y-57617857D01*
X67931127Y-57617856D01*
X67931126Y-57617855D01*
X67810057Y-57540049D01*
X67810054Y-57540047D01*
X67810053Y-57540047D01*
X67810050Y-57540046D01*
X67671964Y-57499500D01*
X67671961Y-57499500D01*
X67528039Y-57499500D01*
X67528035Y-57499500D01*
X67389949Y-57540046D01*
X67389942Y-57540049D01*
X67268873Y-57617855D01*
X67174622Y-57726628D01*
X67114834Y-57857543D01*
X67094352Y-57999997D01*
X67094352Y-58000002D01*
X61400500Y-58000002D01*
X61400500Y-57100002D01*
X63794352Y-57100002D01*
X63814834Y-57242456D01*
X63860912Y-57343350D01*
X63874623Y-57373373D01*
X63968872Y-57482143D01*
X63968873Y-57482144D01*
X64082736Y-57555319D01*
X64089947Y-57559953D01*
X64190743Y-57589549D01*
X64228035Y-57600499D01*
X64228036Y-57600499D01*
X64228039Y-57600500D01*
X64228041Y-57600500D01*
X64371959Y-57600500D01*
X64371961Y-57600500D01*
X64510053Y-57559953D01*
X64631128Y-57482143D01*
X64725377Y-57373373D01*
X64785165Y-57242457D01*
X64801661Y-57127722D01*
X64805647Y-57100002D01*
X65794352Y-57100002D01*
X65814834Y-57242456D01*
X65860912Y-57343350D01*
X65874623Y-57373373D01*
X65968872Y-57482143D01*
X65968873Y-57482144D01*
X66082736Y-57555319D01*
X66089947Y-57559953D01*
X66190743Y-57589549D01*
X66228035Y-57600499D01*
X66228036Y-57600499D01*
X66228039Y-57600500D01*
X66228041Y-57600500D01*
X66371959Y-57600500D01*
X66371961Y-57600500D01*
X66510053Y-57559953D01*
X66631128Y-57482143D01*
X66725377Y-57373373D01*
X66785165Y-57242457D01*
X66801661Y-57127722D01*
X66805647Y-57100002D01*
X66805647Y-57099997D01*
X66785165Y-56957543D01*
X66771231Y-56927032D01*
X66725377Y-56826627D01*
X66631128Y-56717857D01*
X66631127Y-56717856D01*
X66631126Y-56717855D01*
X66510057Y-56640049D01*
X66510054Y-56640047D01*
X66510053Y-56640047D01*
X66510050Y-56640046D01*
X66371964Y-56599500D01*
X66371961Y-56599500D01*
X66228039Y-56599500D01*
X66228035Y-56599500D01*
X66089949Y-56640046D01*
X66089942Y-56640049D01*
X65968873Y-56717855D01*
X65874622Y-56826628D01*
X65814834Y-56957543D01*
X65794352Y-57099997D01*
X65794352Y-57100002D01*
X64805647Y-57100002D01*
X64805647Y-57099997D01*
X64785165Y-56957543D01*
X64771231Y-56927032D01*
X64725377Y-56826627D01*
X64631128Y-56717857D01*
X64631127Y-56717856D01*
X64631126Y-56717855D01*
X64510057Y-56640049D01*
X64510054Y-56640047D01*
X64510053Y-56640047D01*
X64510050Y-56640046D01*
X64371964Y-56599500D01*
X64371961Y-56599500D01*
X64228039Y-56599500D01*
X64228035Y-56599500D01*
X64089949Y-56640046D01*
X64089942Y-56640049D01*
X63968873Y-56717855D01*
X63874622Y-56826628D01*
X63814834Y-56957543D01*
X63794352Y-57099997D01*
X63794352Y-57100002D01*
X61400500Y-57100002D01*
X61400500Y-49000002D01*
X61694352Y-49000002D01*
X61714834Y-49142456D01*
X61760504Y-49242457D01*
X61774623Y-49273373D01*
X61860840Y-49372873D01*
X61868873Y-49382144D01*
X61989942Y-49459950D01*
X61989947Y-49459953D01*
X62096403Y-49491211D01*
X62128035Y-49500499D01*
X62128036Y-49500499D01*
X62128039Y-49500500D01*
X62128041Y-49500500D01*
X62271959Y-49500500D01*
X62271961Y-49500500D01*
X62410053Y-49459953D01*
X62531128Y-49382143D01*
X62625377Y-49273373D01*
X62685165Y-49142457D01*
X62705300Y-49002415D01*
X62705647Y-49000002D01*
X62705647Y-48999997D01*
X62685165Y-48857543D01*
X62670818Y-48826127D01*
X62625377Y-48726627D01*
X62531128Y-48617857D01*
X62531127Y-48617856D01*
X62531126Y-48617855D01*
X62410057Y-48540049D01*
X62410054Y-48540047D01*
X62410053Y-48540047D01*
X62410050Y-48540046D01*
X62271964Y-48499500D01*
X62271961Y-48499500D01*
X62128039Y-48499500D01*
X62128035Y-48499500D01*
X61989949Y-48540046D01*
X61989942Y-48540049D01*
X61868873Y-48617855D01*
X61774622Y-48726628D01*
X61714834Y-48857543D01*
X61694352Y-48999997D01*
X61694352Y-49000002D01*
X61400500Y-49000002D01*
X61400500Y-46980002D01*
X62774352Y-46980002D01*
X62794834Y-47122456D01*
X62854622Y-47253371D01*
X62854623Y-47253373D01*
X62946975Y-47359954D01*
X62948873Y-47362144D01*
X63069942Y-47439950D01*
X63069947Y-47439953D01*
X63176403Y-47471211D01*
X63208035Y-47480499D01*
X63208036Y-47480499D01*
X63208039Y-47480500D01*
X63208041Y-47480500D01*
X63351959Y-47480500D01*
X63351961Y-47480500D01*
X63490053Y-47439953D01*
X63611128Y-47362143D01*
X63705377Y-47253373D01*
X63765165Y-47122457D01*
X63785647Y-46980000D01*
X63779998Y-46940713D01*
X63765165Y-46837543D01*
X63741834Y-46786456D01*
X63705377Y-46706627D01*
X63611128Y-46597857D01*
X63611127Y-46597856D01*
X63611126Y-46597855D01*
X63490057Y-46520049D01*
X63490054Y-46520047D01*
X63490053Y-46520047D01*
X63490050Y-46520046D01*
X63351964Y-46479500D01*
X63351961Y-46479500D01*
X63208039Y-46479500D01*
X63208035Y-46479500D01*
X63069949Y-46520046D01*
X63069942Y-46520049D01*
X62948873Y-46597855D01*
X62854622Y-46706628D01*
X62794834Y-46837543D01*
X62774352Y-46979997D01*
X62774352Y-46980002D01*
X61400500Y-46980002D01*
X61400500Y-45500002D01*
X62094352Y-45500002D01*
X62114834Y-45642456D01*
X62163949Y-45750000D01*
X62174623Y-45773373D01*
X62268872Y-45882143D01*
X62268873Y-45882144D01*
X62365058Y-45943958D01*
X62389947Y-45959953D01*
X62496083Y-45991117D01*
X62528035Y-46000499D01*
X62528036Y-46000499D01*
X62528039Y-46000500D01*
X62528041Y-46000500D01*
X62671959Y-46000500D01*
X62671961Y-46000500D01*
X62810053Y-45959953D01*
X62931128Y-45882143D01*
X63025377Y-45773373D01*
X63085165Y-45642457D01*
X63105647Y-45500000D01*
X63085165Y-45357543D01*
X63025377Y-45226627D01*
X62931128Y-45117857D01*
X62931127Y-45117856D01*
X62931126Y-45117855D01*
X62810057Y-45040049D01*
X62810054Y-45040047D01*
X62810053Y-45040047D01*
X62810050Y-45040046D01*
X62671964Y-44999500D01*
X62671961Y-44999500D01*
X62528039Y-44999500D01*
X62528035Y-44999500D01*
X62389949Y-45040046D01*
X62389942Y-45040049D01*
X62268873Y-45117855D01*
X62174622Y-45226628D01*
X62114834Y-45357543D01*
X62094352Y-45499997D01*
X62094352Y-45500002D01*
X61400500Y-45500002D01*
X61400500Y-33000002D01*
X61694352Y-33000002D01*
X61714834Y-33142456D01*
X61760504Y-33242457D01*
X61774623Y-33273373D01*
X61843324Y-33352659D01*
X61868873Y-33382144D01*
X61986197Y-33457543D01*
X61989947Y-33459953D01*
X62065527Y-33482145D01*
X62128035Y-33500499D01*
X62128036Y-33500499D01*
X62128039Y-33500500D01*
X62128041Y-33500500D01*
X62234521Y-33500500D01*
X62292712Y-33519407D01*
X62304525Y-33529496D01*
X64036559Y-35261530D01*
X64064336Y-35316047D01*
X64054765Y-35376479D01*
X64041375Y-35396364D01*
X63999123Y-35445126D01*
X63939334Y-35576043D01*
X63918852Y-35718497D01*
X63918852Y-35718502D01*
X63939334Y-35860956D01*
X63999122Y-35991871D01*
X63999123Y-35991873D01*
X64063908Y-36066639D01*
X64093373Y-36100644D01*
X64214442Y-36178450D01*
X64214447Y-36178453D01*
X64320903Y-36209711D01*
X64352535Y-36218999D01*
X64352536Y-36218999D01*
X64352539Y-36219000D01*
X64352541Y-36219000D01*
X64496459Y-36219000D01*
X64496461Y-36219000D01*
X64634553Y-36178453D01*
X64755628Y-36100643D01*
X64849877Y-35991873D01*
X64909665Y-35860957D01*
X64909664Y-35860957D01*
X64910447Y-35859245D01*
X64951819Y-35814168D01*
X65011786Y-35802017D01*
X65067442Y-35827435D01*
X65097528Y-35880712D01*
X65099500Y-35900372D01*
X65099500Y-36334520D01*
X65080593Y-36392711D01*
X65070504Y-36404524D01*
X63333590Y-38141437D01*
X63322361Y-38149550D01*
X63323090Y-38150515D01*
X63315771Y-38156041D01*
X63283372Y-38191580D01*
X63281796Y-38193231D01*
X63267830Y-38207198D01*
X63267817Y-38207213D01*
X63265813Y-38210138D01*
X63261561Y-38215504D01*
X63240084Y-38239065D01*
X63240083Y-38239067D01*
X63236529Y-38248240D01*
X63225896Y-38268412D01*
X63220346Y-38276515D01*
X63220342Y-38276524D01*
X63213045Y-38307545D01*
X63211016Y-38314098D01*
X63199500Y-38343824D01*
X63199500Y-38353651D01*
X63196870Y-38376318D01*
X63194621Y-38385879D01*
X63199025Y-38417452D01*
X63199500Y-38424298D01*
X63199500Y-43034835D01*
X63197280Y-43048513D01*
X63198494Y-43048683D01*
X63197226Y-43057766D01*
X63199447Y-43105783D01*
X63199500Y-43108069D01*
X63199500Y-43127842D01*
X63200152Y-43131332D01*
X63200943Y-43138149D01*
X63202414Y-43169987D01*
X63202415Y-43169994D01*
X63206384Y-43178982D01*
X63213133Y-43200773D01*
X63214939Y-43210433D01*
X63231717Y-43237533D01*
X63234915Y-43243600D01*
X63247369Y-43271803D01*
X63247794Y-43272765D01*
X63254745Y-43279716D01*
X63268907Y-43297596D01*
X63273801Y-43305500D01*
X63274081Y-43305952D01*
X63299511Y-43325156D01*
X63304690Y-43329662D01*
X63741436Y-43766407D01*
X63749537Y-43777647D01*
X63750516Y-43776909D01*
X63756044Y-43784230D01*
X63791569Y-43816616D01*
X63793223Y-43818195D01*
X63807201Y-43832172D01*
X63807203Y-43832174D01*
X63810128Y-43834178D01*
X63815505Y-43838437D01*
X63839063Y-43859913D01*
X63839064Y-43859913D01*
X63839067Y-43859916D01*
X63848233Y-43863467D01*
X63868412Y-43874103D01*
X63876520Y-43879657D01*
X63907558Y-43886957D01*
X63914096Y-43888982D01*
X63943827Y-43900500D01*
X63953652Y-43900500D01*
X63976316Y-43903129D01*
X63985881Y-43905379D01*
X64010494Y-43901945D01*
X64017453Y-43900975D01*
X64024299Y-43900500D01*
X64252917Y-43900500D01*
X64311108Y-43919407D01*
X64327733Y-43934667D01*
X64368872Y-43982143D01*
X64489947Y-44059953D01*
X64596403Y-44091211D01*
X64628035Y-44100499D01*
X64628036Y-44100499D01*
X64628039Y-44100500D01*
X64628041Y-44100500D01*
X64771959Y-44100500D01*
X64771961Y-44100500D01*
X64910053Y-44059953D01*
X65031128Y-43982143D01*
X65125377Y-43873373D01*
X65185165Y-43742457D01*
X65196315Y-43664907D01*
X65205647Y-43600002D01*
X65205647Y-43599997D01*
X65185165Y-43457543D01*
X65159113Y-43400498D01*
X65125377Y-43326627D01*
X65031128Y-43217857D01*
X65031127Y-43217856D01*
X65031126Y-43217855D01*
X64910057Y-43140049D01*
X64910054Y-43140047D01*
X64910053Y-43140047D01*
X64910050Y-43140046D01*
X64771964Y-43099500D01*
X64771961Y-43099500D01*
X64628039Y-43099500D01*
X64628035Y-43099500D01*
X64489949Y-43140046D01*
X64489942Y-43140049D01*
X64368876Y-43217854D01*
X64368875Y-43217855D01*
X64368872Y-43217857D01*
X64327796Y-43265262D01*
X64327736Y-43265331D01*
X64275340Y-43296927D01*
X64252917Y-43299500D01*
X64165478Y-43299500D01*
X64107287Y-43280593D01*
X64095480Y-43270509D01*
X63829494Y-43004524D01*
X63801718Y-42950008D01*
X63800499Y-42934521D01*
X63800499Y-40756267D01*
X63800499Y-38565474D01*
X63819406Y-38507287D01*
X63829489Y-38495480D01*
X65566405Y-36758564D01*
X65577664Y-36750493D01*
X65576905Y-36749487D01*
X65584221Y-36743961D01*
X65584228Y-36743958D01*
X65616632Y-36708411D01*
X65618186Y-36706783D01*
X65632174Y-36692797D01*
X65634181Y-36689865D01*
X65638440Y-36684490D01*
X65659916Y-36660933D01*
X65663466Y-36651767D01*
X65674107Y-36631581D01*
X65679657Y-36623480D01*
X65686956Y-36592443D01*
X65688980Y-36585908D01*
X65700500Y-36556173D01*
X65700500Y-36546348D01*
X65703129Y-36523683D01*
X65705379Y-36514119D01*
X65702102Y-36490632D01*
X65700975Y-36482546D01*
X65700500Y-36475699D01*
X65700500Y-32965167D01*
X65702731Y-32951494D01*
X65701505Y-32951323D01*
X65702770Y-32942242D01*
X65702773Y-32942235D01*
X65700551Y-32894207D01*
X65700499Y-32891925D01*
X65700499Y-32883382D01*
X65700500Y-32872156D01*
X65699846Y-32868662D01*
X65699056Y-32861856D01*
X65697585Y-32830008D01*
X65693615Y-32821017D01*
X65686864Y-32799215D01*
X65686828Y-32799025D01*
X65685061Y-32789567D01*
X65668276Y-32762458D01*
X65665084Y-32756401D01*
X65652206Y-32727235D01*
X65652205Y-32727233D01*
X65645256Y-32720284D01*
X65631090Y-32702399D01*
X65625920Y-32694048D01*
X65625918Y-32694047D01*
X65614647Y-32685536D01*
X65600482Y-32674839D01*
X65595309Y-32670337D01*
X62830546Y-29905575D01*
X62802769Y-29851058D01*
X62802558Y-29821482D01*
X62805647Y-29800000D01*
X62804216Y-29790049D01*
X62785165Y-29657543D01*
X62739295Y-29557103D01*
X62725377Y-29526627D01*
X62631128Y-29417857D01*
X62631127Y-29417856D01*
X62631126Y-29417855D01*
X62510057Y-29340049D01*
X62510054Y-29340047D01*
X62510053Y-29340047D01*
X62510050Y-29340046D01*
X62371964Y-29299500D01*
X62371961Y-29299500D01*
X62228039Y-29299500D01*
X62228035Y-29299500D01*
X62089949Y-29340046D01*
X62089942Y-29340049D01*
X61968873Y-29417855D01*
X61874622Y-29526628D01*
X61814834Y-29657543D01*
X61794352Y-29799997D01*
X61794352Y-29800002D01*
X61814834Y-29942456D01*
X61874622Y-30073371D01*
X61874623Y-30073373D01*
X61967234Y-30180253D01*
X61968873Y-30182144D01*
X62074463Y-30250002D01*
X62089947Y-30259953D01*
X62181585Y-30286860D01*
X62228035Y-30300499D01*
X62228036Y-30300499D01*
X62228039Y-30300500D01*
X62228041Y-30300500D01*
X62334521Y-30300500D01*
X62392712Y-30319407D01*
X62404525Y-30329496D01*
X65070504Y-32995475D01*
X65098281Y-33049992D01*
X65099500Y-33065479D01*
X65099500Y-35536627D01*
X65080593Y-35594818D01*
X65031093Y-35630782D01*
X64969907Y-35630782D01*
X64920407Y-35594818D01*
X64910447Y-35577754D01*
X64862649Y-35473094D01*
X64849877Y-35445127D01*
X64755628Y-35336357D01*
X64755627Y-35336356D01*
X64751563Y-35331666D01*
X64727746Y-35275306D01*
X64727489Y-35271407D01*
X64725053Y-35218714D01*
X64725000Y-35216428D01*
X64725000Y-35196660D01*
X64725000Y-35196656D01*
X64724346Y-35193164D01*
X64723556Y-35186359D01*
X64722085Y-35154508D01*
X64718115Y-35145517D01*
X64711364Y-35123715D01*
X64709561Y-35114068D01*
X64709561Y-35114067D01*
X64692776Y-35086958D01*
X64689584Y-35080901D01*
X64676706Y-35051735D01*
X64676705Y-35051733D01*
X64669756Y-35044784D01*
X64655590Y-35026899D01*
X64650419Y-35018548D01*
X64624983Y-34999339D01*
X64619806Y-34994834D01*
X62730546Y-33105575D01*
X62702769Y-33051058D01*
X62702558Y-33021482D01*
X62705647Y-33000000D01*
X62704997Y-32995481D01*
X62685165Y-32857543D01*
X62668177Y-32820345D01*
X62625377Y-32726627D01*
X62531128Y-32617857D01*
X62531127Y-32617856D01*
X62531126Y-32617855D01*
X62410057Y-32540049D01*
X62410054Y-32540047D01*
X62410053Y-32540047D01*
X62410050Y-32540046D01*
X62271964Y-32499500D01*
X62271961Y-32499500D01*
X62128039Y-32499500D01*
X62128035Y-32499500D01*
X61989949Y-32540046D01*
X61989942Y-32540049D01*
X61868873Y-32617855D01*
X61774622Y-32726628D01*
X61714834Y-32857543D01*
X61694352Y-32999997D01*
X61694352Y-33000002D01*
X61400500Y-33000002D01*
X61400500Y-28300002D01*
X61794352Y-28300002D01*
X61814834Y-28442456D01*
X61860504Y-28542457D01*
X61874623Y-28573373D01*
X61961271Y-28673371D01*
X61968873Y-28682144D01*
X62074463Y-28750002D01*
X62089947Y-28759953D01*
X62172621Y-28784228D01*
X62228035Y-28800499D01*
X62228036Y-28800499D01*
X62228039Y-28800500D01*
X62228041Y-28800500D01*
X62334521Y-28800500D01*
X62392712Y-28819407D01*
X62404525Y-28829496D01*
X66270503Y-32695474D01*
X66298280Y-32749991D01*
X66299499Y-32765478D01*
X66299499Y-36534520D01*
X66280592Y-36592711D01*
X66270503Y-36604524D01*
X64534090Y-38340937D01*
X64522861Y-38349050D01*
X64523590Y-38350015D01*
X64516271Y-38355541D01*
X64483872Y-38391080D01*
X64482296Y-38392731D01*
X64468330Y-38406698D01*
X64468317Y-38406713D01*
X64466313Y-38409638D01*
X64462061Y-38415004D01*
X64440584Y-38438565D01*
X64440583Y-38438567D01*
X64437029Y-38447740D01*
X64426396Y-38467912D01*
X64420846Y-38476015D01*
X64420842Y-38476024D01*
X64413545Y-38507045D01*
X64411516Y-38513597D01*
X64399999Y-38543326D01*
X64399999Y-38553157D01*
X64397371Y-38575812D01*
X64395392Y-38584230D01*
X64395121Y-38585381D01*
X64399477Y-38616616D01*
X64399524Y-38616949D01*
X64399999Y-38623795D01*
X64399999Y-41846105D01*
X64381092Y-41904296D01*
X64373759Y-41912289D01*
X64374009Y-41912506D01*
X64275122Y-42026628D01*
X64215334Y-42157543D01*
X64194852Y-42299997D01*
X64194852Y-42300002D01*
X64215334Y-42442456D01*
X64275122Y-42573371D01*
X64275123Y-42573373D01*
X64352659Y-42662855D01*
X64369373Y-42682144D01*
X64420741Y-42715156D01*
X64490447Y-42759953D01*
X64596903Y-42791211D01*
X64628535Y-42800499D01*
X64628536Y-42800499D01*
X64628539Y-42800500D01*
X64628541Y-42800500D01*
X64772459Y-42800500D01*
X64772461Y-42800500D01*
X64910553Y-42759953D01*
X65031628Y-42682143D01*
X65125877Y-42573373D01*
X65185665Y-42442457D01*
X65201396Y-42333043D01*
X65206147Y-42300002D01*
X65206147Y-42299997D01*
X65185665Y-42157543D01*
X65169416Y-42121963D01*
X65125877Y-42026627D01*
X65031628Y-41917857D01*
X65031627Y-41917856D01*
X65026991Y-41912506D01*
X65029027Y-41910741D01*
X65003573Y-41868531D01*
X65001000Y-41846113D01*
X65001000Y-39939401D01*
X65012074Y-39905317D01*
X65010158Y-39897579D01*
X65186736Y-39897579D01*
X65197992Y-39925313D01*
X65214834Y-40042456D01*
X65273211Y-40170281D01*
X65274623Y-40173373D01*
X65322869Y-40229052D01*
X65368873Y-40282144D01*
X65465458Y-40344215D01*
X65489947Y-40359953D01*
X65596403Y-40391211D01*
X65628035Y-40400499D01*
X65628036Y-40400499D01*
X65628039Y-40400500D01*
X65628041Y-40400500D01*
X65771959Y-40400500D01*
X65771961Y-40400500D01*
X65910053Y-40359953D01*
X66031128Y-40282143D01*
X66125377Y-40173373D01*
X66185165Y-40042457D01*
X66205647Y-39900000D01*
X66202007Y-39874686D01*
X66185165Y-39757543D01*
X66125377Y-39626628D01*
X66125377Y-39626627D01*
X66031128Y-39517857D01*
X66031127Y-39517856D01*
X66031126Y-39517855D01*
X65910057Y-39440049D01*
X65910054Y-39440047D01*
X65910053Y-39440047D01*
X65910050Y-39440046D01*
X65771964Y-39399500D01*
X65771961Y-39399500D01*
X65628039Y-39399500D01*
X65628035Y-39399500D01*
X65489949Y-39440046D01*
X65489942Y-39440049D01*
X65368873Y-39517855D01*
X65274622Y-39626628D01*
X65214834Y-39757543D01*
X65197992Y-39874686D01*
X65186736Y-39897579D01*
X65010158Y-39897579D01*
X65001000Y-39860597D01*
X65001000Y-39344548D01*
X65001000Y-38764975D01*
X65019906Y-38706788D01*
X65029989Y-38694981D01*
X65204968Y-38520002D01*
X65894352Y-38520002D01*
X65914834Y-38662456D01*
X65961656Y-38764979D01*
X65974623Y-38793373D01*
X66068872Y-38902143D01*
X66068873Y-38902144D01*
X66189942Y-38979950D01*
X66189947Y-38979953D01*
X66296403Y-39011211D01*
X66328035Y-39020499D01*
X66328036Y-39020499D01*
X66328039Y-39020500D01*
X66328041Y-39020500D01*
X66471959Y-39020500D01*
X66471961Y-39020500D01*
X66610053Y-38979953D01*
X66731128Y-38902143D01*
X66825377Y-38793373D01*
X66885165Y-38662457D01*
X66902293Y-38543326D01*
X66905647Y-38520002D01*
X66905647Y-38519997D01*
X66885165Y-38377543D01*
X66872593Y-38350015D01*
X66825377Y-38246627D01*
X66731128Y-38137857D01*
X66731127Y-38137856D01*
X66731126Y-38137855D01*
X66610057Y-38060049D01*
X66610054Y-38060047D01*
X66610053Y-38060047D01*
X66594404Y-38055452D01*
X66471964Y-38019500D01*
X66471961Y-38019500D01*
X66328039Y-38019500D01*
X66328035Y-38019500D01*
X66189949Y-38060046D01*
X66189942Y-38060049D01*
X66068873Y-38137855D01*
X65974622Y-38246628D01*
X65914834Y-38377543D01*
X65894352Y-38519997D01*
X65894352Y-38520002D01*
X65204968Y-38520002D01*
X66766407Y-36958563D01*
X66777665Y-36950494D01*
X66776905Y-36949487D01*
X66784221Y-36943961D01*
X66784228Y-36943958D01*
X66816643Y-36908398D01*
X66818155Y-36906815D01*
X66832175Y-36892797D01*
X66834188Y-36889857D01*
X66838437Y-36884492D01*
X66859916Y-36860933D01*
X66863465Y-36851769D01*
X66874111Y-36831575D01*
X66879657Y-36823480D01*
X66886956Y-36792443D01*
X66888980Y-36785908D01*
X66900500Y-36756173D01*
X66900500Y-36746348D01*
X66903129Y-36723683D01*
X66905379Y-36714119D01*
X66901666Y-36687500D01*
X66900975Y-36682546D01*
X66900500Y-36675699D01*
X66900500Y-32665168D01*
X66902731Y-32651495D01*
X66901505Y-32651324D01*
X66902773Y-32642232D01*
X66900821Y-32600002D01*
X66900552Y-32594207D01*
X66900500Y-32591928D01*
X66900500Y-32572160D01*
X66900500Y-32572156D01*
X66899846Y-32568664D01*
X66899056Y-32561859D01*
X66897585Y-32530008D01*
X66893614Y-32521016D01*
X66886864Y-32499214D01*
X66885061Y-32489568D01*
X66885061Y-32489567D01*
X66868276Y-32462458D01*
X66865088Y-32456410D01*
X66852206Y-32427234D01*
X66852205Y-32427233D01*
X66852204Y-32427231D01*
X66845254Y-32420281D01*
X66831088Y-32402395D01*
X66825921Y-32394050D01*
X66825919Y-32394048D01*
X66800487Y-32374842D01*
X66795310Y-32370337D01*
X62830546Y-28405575D01*
X62802769Y-28351058D01*
X62802558Y-28321482D01*
X62805647Y-28300000D01*
X62805575Y-28299500D01*
X62785165Y-28157543D01*
X62767041Y-28117857D01*
X62725377Y-28026627D01*
X62631128Y-27917857D01*
X62631127Y-27917856D01*
X62631126Y-27917855D01*
X62510057Y-27840049D01*
X62510054Y-27840047D01*
X62510053Y-27840047D01*
X62510050Y-27840046D01*
X62371964Y-27799500D01*
X62371961Y-27799500D01*
X62228039Y-27799500D01*
X62228035Y-27799500D01*
X62089949Y-27840046D01*
X62089942Y-27840049D01*
X61968873Y-27917855D01*
X61874622Y-28026628D01*
X61814834Y-28157543D01*
X61794352Y-28299997D01*
X61794352Y-28300002D01*
X61400500Y-28300002D01*
X61400500Y-27399500D01*
X61419407Y-27341309D01*
X61468907Y-27305345D01*
X61499500Y-27300500D01*
X72281000Y-27300500D01*
X72339191Y-27319407D01*
G37*
%TD.AperFunction*%
%TA.AperFunction,Conductor*%
G36*
X73512713Y-55319407D02*
G01*
X73524525Y-55329496D01*
X73670503Y-55475473D01*
X73698281Y-55529990D01*
X73699500Y-55545477D01*
X73699500Y-56524746D01*
X73699501Y-56524758D01*
X73711132Y-56583227D01*
X73711134Y-56583233D01*
X73752705Y-56645447D01*
X73769314Y-56704335D01*
X73752706Y-56755450D01*
X73711603Y-56816964D01*
X73700000Y-56875299D01*
X73700000Y-57169999D01*
X73700001Y-57170000D01*
X74751000Y-57170000D01*
X74809191Y-57188907D01*
X74845155Y-57238407D01*
X74850000Y-57269000D01*
X74850000Y-58144999D01*
X74850001Y-58145000D01*
X75319697Y-58145000D01*
X75319700Y-58144999D01*
X75378036Y-58133396D01*
X75444189Y-58089193D01*
X75444193Y-58089189D01*
X75488396Y-58023036D01*
X75499999Y-57964700D01*
X75500000Y-57964697D01*
X75500000Y-57527731D01*
X75518907Y-57469540D01*
X75568407Y-57433576D01*
X75629593Y-57433576D01*
X75664650Y-57453629D01*
X75779433Y-57555319D01*
X75929954Y-57634318D01*
X75929957Y-57634319D01*
X75929999Y-57634329D01*
X75930000Y-57634329D01*
X75930000Y-57141110D01*
X75954457Y-57180610D01*
X76043962Y-57248201D01*
X76151840Y-57278895D01*
X76263521Y-57268546D01*
X76363922Y-57218552D01*
X76429999Y-57146069D01*
X76430000Y-57634329D01*
X76430041Y-57634319D01*
X76456634Y-57620363D01*
X76516946Y-57610062D01*
X76571795Y-57637179D01*
X76600229Y-57691356D01*
X76591388Y-57751899D01*
X76577463Y-57772853D01*
X76574622Y-57776131D01*
X76514834Y-57907046D01*
X76494353Y-58049500D01*
X76494353Y-58049505D01*
X76514834Y-58191959D01*
X76552015Y-58273373D01*
X76574623Y-58322876D01*
X76663547Y-58425500D01*
X76668873Y-58431647D01*
X76776011Y-58500500D01*
X76789947Y-58509456D01*
X76789951Y-58509457D01*
X76792116Y-58510446D01*
X76793585Y-58511794D01*
X76795903Y-58513284D01*
X76795645Y-58513685D01*
X76837194Y-58551818D01*
X76849345Y-58611785D01*
X76823928Y-58667441D01*
X76770651Y-58697528D01*
X76750990Y-58699500D01*
X73916338Y-58699500D01*
X73858147Y-58680593D01*
X73822183Y-58631093D01*
X73822183Y-58569907D01*
X73841519Y-58535669D01*
X73860915Y-58513284D01*
X73894663Y-58474337D01*
X73954451Y-58343421D01*
X73963385Y-58281283D01*
X73970772Y-58229911D01*
X73997768Y-58175003D01*
X74051882Y-58146450D01*
X74068764Y-58145000D01*
X74349999Y-58145000D01*
X74350000Y-58144999D01*
X74350000Y-57670001D01*
X74349999Y-57670000D01*
X73699999Y-57670000D01*
X73681951Y-57688048D01*
X73627434Y-57715825D01*
X73584057Y-57713034D01*
X73541250Y-57700464D01*
X73541247Y-57700464D01*
X73504682Y-57700464D01*
X73446491Y-57681557D01*
X73410527Y-57632057D01*
X73405682Y-57601464D01*
X73405682Y-57599999D01*
X73398968Y-57549003D01*
X73385044Y-57443238D01*
X73354026Y-57368354D01*
X73324537Y-57297161D01*
X73324537Y-57297160D01*
X73228286Y-57171723D01*
X73228285Y-57171722D01*
X73228282Y-57171718D01*
X73228277Y-57171714D01*
X73228276Y-57171713D01*
X73147135Y-57109452D01*
X73102841Y-57075464D01*
X73102840Y-57075463D01*
X73102838Y-57075462D01*
X72956766Y-57014957D01*
X72956758Y-57014955D01*
X72839362Y-56999500D01*
X72839361Y-56999500D01*
X72760639Y-56999500D01*
X72760637Y-56999500D01*
X72643241Y-57014955D01*
X72643233Y-57014957D01*
X72497161Y-57075462D01*
X72497160Y-57075462D01*
X72371723Y-57171713D01*
X72371713Y-57171723D01*
X72275462Y-57297160D01*
X72275462Y-57297161D01*
X72214957Y-57443233D01*
X72214955Y-57443241D01*
X72194318Y-57599999D01*
X72194318Y-57600000D01*
X72214955Y-57756758D01*
X72214957Y-57756766D01*
X72275462Y-57902838D01*
X72275462Y-57902839D01*
X72371713Y-58028276D01*
X72371718Y-58028282D01*
X72371722Y-58028285D01*
X72371723Y-58028286D01*
X72386009Y-58039248D01*
X72497159Y-58124536D01*
X72497160Y-58124536D01*
X72497161Y-58124537D01*
X72540424Y-58142457D01*
X72643238Y-58185044D01*
X72760639Y-58200500D01*
X72760640Y-58200500D01*
X72839359Y-58200500D01*
X72839361Y-58200500D01*
X72864272Y-58197220D01*
X72924431Y-58208369D01*
X72966549Y-58252751D01*
X72975186Y-58281283D01*
X72984120Y-58343420D01*
X73043909Y-58474337D01*
X73097053Y-58535669D01*
X73120871Y-58592028D01*
X73107012Y-58651623D01*
X73060772Y-58691691D01*
X73022234Y-58699500D01*
X70148416Y-58699500D01*
X70090225Y-58680593D01*
X70054261Y-58631093D01*
X70054261Y-58569907D01*
X70073597Y-58535669D01*
X70092993Y-58513284D01*
X70127169Y-58473843D01*
X70186957Y-58342927D01*
X70186956Y-58342927D01*
X70186958Y-58342925D01*
X70203206Y-58229912D01*
X70230201Y-58175004D01*
X70284316Y-58146450D01*
X70301198Y-58145000D01*
X70749999Y-58145000D01*
X70750000Y-58144999D01*
X71250000Y-58144999D01*
X71250001Y-58145000D01*
X71719697Y-58145000D01*
X71719700Y-58144999D01*
X71778036Y-58133396D01*
X71844189Y-58089193D01*
X71844193Y-58089189D01*
X71888396Y-58023036D01*
X71899999Y-57964700D01*
X71900000Y-57964697D01*
X71900000Y-57670001D01*
X71899999Y-57670000D01*
X71250001Y-57670000D01*
X71250000Y-57670001D01*
X71250000Y-58144999D01*
X70750000Y-58144999D01*
X70750000Y-57269000D01*
X70768907Y-57210809D01*
X70818407Y-57174845D01*
X70849000Y-57170000D01*
X71899999Y-57170000D01*
X71900000Y-57169999D01*
X71900000Y-56875302D01*
X71899999Y-56875299D01*
X71888396Y-56816963D01*
X71847294Y-56755451D01*
X71830685Y-56696563D01*
X71847292Y-56645450D01*
X71888867Y-56583231D01*
X71900500Y-56524748D01*
X71900500Y-55970503D01*
X71919407Y-55912312D01*
X71929490Y-55900505D01*
X72033249Y-55796746D01*
X72087764Y-55768971D01*
X72148196Y-55778542D01*
X72191461Y-55821807D01*
X72201404Y-55853829D01*
X72214955Y-55956759D01*
X72214957Y-55956766D01*
X72275462Y-56102838D01*
X72275462Y-56102839D01*
X72341997Y-56189549D01*
X72371718Y-56228282D01*
X72497159Y-56324536D01*
X72497160Y-56324536D01*
X72497161Y-56324537D01*
X72621710Y-56376127D01*
X72643238Y-56385044D01*
X72760639Y-56400500D01*
X72760640Y-56400500D01*
X72839360Y-56400500D01*
X72839361Y-56400500D01*
X72956762Y-56385044D01*
X73102841Y-56324536D01*
X73228282Y-56228282D01*
X73324536Y-56102841D01*
X73385044Y-55956762D01*
X73405682Y-55800000D01*
X73385044Y-55643238D01*
X73385042Y-55643233D01*
X73324537Y-55497161D01*
X73324537Y-55497160D01*
X73295844Y-55459767D01*
X73275420Y-55402091D01*
X73292798Y-55343426D01*
X73341339Y-55306178D01*
X73374386Y-55300500D01*
X73454522Y-55300500D01*
X73512713Y-55319407D01*
G37*
%TD.AperFunction*%
%TA.AperFunction,Conductor*%
G36*
X79216898Y-32334751D02*
G01*
X79233523Y-32350011D01*
X79274662Y-32397487D01*
X79395737Y-32475297D01*
X79448769Y-32490868D01*
X79490883Y-32515854D01*
X83070504Y-36095475D01*
X83098281Y-36149992D01*
X83099500Y-36165479D01*
X83099500Y-37434835D01*
X83097280Y-37448513D01*
X83098494Y-37448683D01*
X83097226Y-37457766D01*
X83099447Y-37505783D01*
X83099500Y-37508069D01*
X83099500Y-37527842D01*
X83100152Y-37531332D01*
X83100943Y-37538149D01*
X83102414Y-37569987D01*
X83102415Y-37569994D01*
X83106384Y-37578982D01*
X83113133Y-37600773D01*
X83114939Y-37610433D01*
X83131717Y-37637533D01*
X83134915Y-37643600D01*
X83135743Y-37645474D01*
X83147794Y-37672765D01*
X83154745Y-37679716D01*
X83168907Y-37697596D01*
X83174081Y-37705952D01*
X83199511Y-37725156D01*
X83204690Y-37729662D01*
X84041436Y-38566407D01*
X84049537Y-38577647D01*
X84050516Y-38576909D01*
X84056044Y-38584230D01*
X84091569Y-38616616D01*
X84093223Y-38618195D01*
X84107201Y-38632172D01*
X84107203Y-38632174D01*
X84110128Y-38634178D01*
X84115505Y-38638437D01*
X84139064Y-38659914D01*
X84139065Y-38659914D01*
X84139067Y-38659916D01*
X84148230Y-38663466D01*
X84168416Y-38674105D01*
X84176519Y-38679656D01*
X84207553Y-38686955D01*
X84214090Y-38688979D01*
X84243827Y-38700500D01*
X84253652Y-38700500D01*
X84276316Y-38703129D01*
X84285881Y-38705379D01*
X84310494Y-38701945D01*
X84317453Y-38700975D01*
X84324299Y-38700500D01*
X84884521Y-38700500D01*
X84942712Y-38719407D01*
X84954525Y-38729496D01*
X86620504Y-40395475D01*
X86648281Y-40449992D01*
X86649500Y-40465479D01*
X86649500Y-40698076D01*
X86630593Y-40756267D01*
X86581093Y-40792231D01*
X86536416Y-40796069D01*
X86527659Y-40794810D01*
X86525500Y-40794500D01*
X84224000Y-40794500D01*
X84199731Y-40797109D01*
X84180312Y-40799197D01*
X84180307Y-40799198D01*
X84128772Y-40810410D01*
X84118632Y-40812888D01*
X84118629Y-40812889D01*
X84037914Y-40855900D01*
X83985113Y-40901653D01*
X83985098Y-40901667D01*
X83967155Y-40919247D01*
X83967153Y-40919249D01*
X83922511Y-40999058D01*
X83922509Y-40999062D01*
X83902826Y-41066095D01*
X83902824Y-41066104D01*
X83897596Y-41102469D01*
X83894500Y-41124000D01*
X83894500Y-42976000D01*
X83895996Y-42989917D01*
X83883419Y-43049794D01*
X83838048Y-43090844D01*
X83797564Y-43099500D01*
X82980252Y-43099500D01*
X82980251Y-43099500D01*
X82980241Y-43099501D01*
X82921772Y-43111132D01*
X82921766Y-43111134D01*
X82855451Y-43155445D01*
X82855445Y-43155451D01*
X82811134Y-43221766D01*
X82811132Y-43221772D01*
X82799501Y-43280241D01*
X82799500Y-43280253D01*
X82799500Y-44184208D01*
X82780593Y-44242399D01*
X82731093Y-44278363D01*
X82672609Y-44279198D01*
X82571466Y-44249500D01*
X82571463Y-44249500D01*
X82427541Y-44249500D01*
X82427537Y-44249500D01*
X82327391Y-44278906D01*
X82266231Y-44277158D01*
X82217778Y-44239795D01*
X82200500Y-44183916D01*
X82200500Y-43280253D01*
X82200498Y-43280241D01*
X82192584Y-43240455D01*
X82188867Y-43221769D01*
X82144552Y-43155448D01*
X82144548Y-43155445D01*
X82078233Y-43111134D01*
X82078231Y-43111133D01*
X82078228Y-43111132D01*
X82078227Y-43111132D01*
X82019758Y-43099501D01*
X82019748Y-43099500D01*
X80980252Y-43099500D01*
X80980251Y-43099500D01*
X80980241Y-43099501D01*
X80921772Y-43111132D01*
X80921766Y-43111134D01*
X80855451Y-43155445D01*
X80855445Y-43155451D01*
X80811134Y-43221766D01*
X80811132Y-43221772D01*
X80799501Y-43280241D01*
X80799500Y-43280253D01*
X80799500Y-45119746D01*
X80799501Y-45119758D01*
X80811132Y-45178227D01*
X80811134Y-45178233D01*
X80855445Y-45244548D01*
X80855448Y-45244552D01*
X80921769Y-45288867D01*
X80966231Y-45297711D01*
X80980241Y-45300498D01*
X80980246Y-45300498D01*
X80980252Y-45300500D01*
X80980253Y-45300500D01*
X82019747Y-45300500D01*
X82019748Y-45300500D01*
X82078231Y-45288867D01*
X82144552Y-45244552D01*
X82150226Y-45236060D01*
X82198275Y-45198181D01*
X82259413Y-45195779D01*
X82286064Y-45207778D01*
X82289444Y-45209950D01*
X82289449Y-45209953D01*
X82376833Y-45235611D01*
X82427537Y-45250499D01*
X82427538Y-45250499D01*
X82427541Y-45250500D01*
X82427543Y-45250500D01*
X82571461Y-45250500D01*
X82571463Y-45250500D01*
X82709555Y-45209953D01*
X82713634Y-45207331D01*
X82772807Y-45191775D01*
X82829824Y-45213971D01*
X82849473Y-45235611D01*
X82855444Y-45244547D01*
X82855445Y-45244548D01*
X82855448Y-45244552D01*
X82921769Y-45288867D01*
X82966231Y-45297711D01*
X82980241Y-45300498D01*
X82980246Y-45300498D01*
X82980252Y-45300500D01*
X82980253Y-45300500D01*
X84019747Y-45300500D01*
X84019748Y-45300500D01*
X84078231Y-45288867D01*
X84144552Y-45244552D01*
X84188867Y-45178231D01*
X84200500Y-45119748D01*
X84200500Y-44816083D01*
X84219407Y-44757892D01*
X84268907Y-44721928D01*
X84327388Y-44721093D01*
X84427541Y-44750500D01*
X84427543Y-44750500D01*
X84571461Y-44750500D01*
X84571463Y-44750500D01*
X84672609Y-44720801D01*
X84733769Y-44722548D01*
X84782222Y-44759911D01*
X84799500Y-44815791D01*
X84799500Y-45119746D01*
X84799501Y-45119758D01*
X84811132Y-45178227D01*
X84811134Y-45178233D01*
X84855445Y-45244548D01*
X84855448Y-45244552D01*
X84921769Y-45288867D01*
X84966231Y-45297711D01*
X84980241Y-45300498D01*
X84980246Y-45300498D01*
X84980252Y-45300500D01*
X85260458Y-45300500D01*
X85318649Y-45319407D01*
X85354613Y-45368907D01*
X85354613Y-45430093D01*
X85335279Y-45464329D01*
X85326736Y-45474187D01*
X85324622Y-45476628D01*
X85264834Y-45607543D01*
X85247511Y-45728030D01*
X85220515Y-45782938D01*
X85166401Y-45811491D01*
X85125827Y-45810064D01*
X85084997Y-45800000D01*
X84915004Y-45800000D01*
X84749955Y-45840681D01*
X84749947Y-45840684D01*
X84713413Y-45859858D01*
X84713412Y-45859859D01*
X85007070Y-46153518D01*
X85007071Y-46153518D01*
X85283549Y-46429996D01*
X85311326Y-46484513D01*
X85301755Y-46544945D01*
X85283549Y-46570004D01*
X84713413Y-47140140D01*
X84749952Y-47159317D01*
X84749955Y-47159318D01*
X84915002Y-47199999D01*
X84915008Y-47200000D01*
X85084992Y-47200000D01*
X85084997Y-47199999D01*
X85250044Y-47159318D01*
X85255644Y-47157195D01*
X85256130Y-47158476D01*
X85309796Y-47149306D01*
X85364646Y-47176418D01*
X85393085Y-47230592D01*
X85394500Y-47247268D01*
X85394500Y-47350500D01*
X85375593Y-47408691D01*
X85326093Y-47444655D01*
X85295500Y-47449500D01*
X84695710Y-47449500D01*
X84637519Y-47430593D01*
X84614237Y-47406741D01*
X84528183Y-47282071D01*
X84503519Y-47260221D01*
X84435544Y-47200000D01*
X84400852Y-47169266D01*
X84250225Y-47090210D01*
X84250224Y-47090209D01*
X84250223Y-47090209D01*
X84085058Y-47049500D01*
X84085056Y-47049500D01*
X83914944Y-47049500D01*
X83914941Y-47049500D01*
X83749776Y-47090209D01*
X83599146Y-47169267D01*
X83471818Y-47282069D01*
X83471816Y-47282072D01*
X83451822Y-47311039D01*
X83385763Y-47406740D01*
X83337149Y-47443888D01*
X83304290Y-47449500D01*
X82695710Y-47449500D01*
X82637519Y-47430593D01*
X82614237Y-47406741D01*
X82528183Y-47282071D01*
X82503519Y-47260221D01*
X82435544Y-47200000D01*
X82400852Y-47169266D01*
X82345358Y-47140140D01*
X82713413Y-47140140D01*
X82749952Y-47159317D01*
X82749955Y-47159318D01*
X82915002Y-47199999D01*
X82915008Y-47200000D01*
X83084992Y-47200000D01*
X83084997Y-47199999D01*
X83250043Y-47159318D01*
X83286585Y-47140139D01*
X83000000Y-46853553D01*
X82713413Y-47140140D01*
X82345358Y-47140140D01*
X82250225Y-47090210D01*
X82250224Y-47090209D01*
X82250223Y-47090209D01*
X82085058Y-47049500D01*
X82085056Y-47049500D01*
X81914944Y-47049500D01*
X81914941Y-47049500D01*
X81749776Y-47090209D01*
X81599146Y-47169267D01*
X81471818Y-47282069D01*
X81471816Y-47282072D01*
X81451822Y-47311039D01*
X81385763Y-47406740D01*
X81337149Y-47443888D01*
X81304290Y-47449500D01*
X80695710Y-47449500D01*
X80637519Y-47430593D01*
X80614237Y-47406741D01*
X80528183Y-47282071D01*
X80503519Y-47260221D01*
X80435544Y-47200000D01*
X80400852Y-47169266D01*
X80345358Y-47140140D01*
X80713413Y-47140140D01*
X80749952Y-47159317D01*
X80749955Y-47159318D01*
X80915002Y-47199999D01*
X80915008Y-47200000D01*
X81084992Y-47200000D01*
X81084997Y-47199999D01*
X81250043Y-47159318D01*
X81286585Y-47140139D01*
X81000000Y-46853553D01*
X80713413Y-47140140D01*
X80345358Y-47140140D01*
X80250225Y-47090210D01*
X80250224Y-47090209D01*
X80250223Y-47090209D01*
X80085058Y-47049500D01*
X80085056Y-47049500D01*
X79914944Y-47049500D01*
X79914941Y-47049500D01*
X79749776Y-47090209D01*
X79599146Y-47169267D01*
X79471818Y-47282069D01*
X79471816Y-47282072D01*
X79451822Y-47311039D01*
X79385763Y-47406740D01*
X79337149Y-47443888D01*
X79304290Y-47449500D01*
X78695710Y-47449500D01*
X78637519Y-47430593D01*
X78614237Y-47406741D01*
X78528183Y-47282071D01*
X78503519Y-47260221D01*
X78435544Y-47200000D01*
X78400852Y-47169266D01*
X78345358Y-47140140D01*
X78713413Y-47140140D01*
X78749952Y-47159317D01*
X78749955Y-47159318D01*
X78915002Y-47199999D01*
X78915008Y-47200000D01*
X79084992Y-47200000D01*
X79084997Y-47199999D01*
X79250043Y-47159318D01*
X79286585Y-47140139D01*
X79000000Y-46853553D01*
X78713413Y-47140140D01*
X78345358Y-47140140D01*
X78250225Y-47090210D01*
X78250224Y-47090209D01*
X78250223Y-47090209D01*
X78085058Y-47049500D01*
X78085056Y-47049500D01*
X77914944Y-47049500D01*
X77914941Y-47049500D01*
X77749776Y-47090209D01*
X77599146Y-47169267D01*
X77471818Y-47282069D01*
X77471816Y-47282072D01*
X77418058Y-47359954D01*
X77375182Y-47422070D01*
X77316155Y-47577715D01*
X77314860Y-47581129D01*
X77294355Y-47749998D01*
X77294355Y-47750001D01*
X77298261Y-47782171D01*
X77314860Y-47918872D01*
X77375182Y-48077930D01*
X77462480Y-48204402D01*
X77471816Y-48217927D01*
X77471818Y-48217930D01*
X77471824Y-48217935D01*
X77599148Y-48330734D01*
X77749775Y-48409790D01*
X77914944Y-48450500D01*
X77914947Y-48450500D01*
X77948807Y-48450500D01*
X78006998Y-48469407D01*
X78042962Y-48518907D01*
X78042962Y-48580093D01*
X78006998Y-48629593D01*
X77989971Y-48639531D01*
X77868873Y-48717355D01*
X77774621Y-48826128D01*
X77761056Y-48855833D01*
X77719683Y-48900911D01*
X77659716Y-48913061D01*
X77604061Y-48887642D01*
X77589531Y-48870948D01*
X77528183Y-48782071D01*
X77400852Y-48669266D01*
X77250225Y-48590210D01*
X77250224Y-48590209D01*
X77250223Y-48590209D01*
X77085058Y-48549500D01*
X77085056Y-48549500D01*
X76914944Y-48549500D01*
X76914941Y-48549500D01*
X76749774Y-48590210D01*
X76749773Y-48590210D01*
X76674225Y-48629861D01*
X76613913Y-48640162D01*
X76600327Y-48637191D01*
X76471964Y-48599500D01*
X76471961Y-48599500D01*
X76328039Y-48599500D01*
X76328035Y-48599500D01*
X76189949Y-48640046D01*
X76189942Y-48640049D01*
X76068873Y-48717855D01*
X75974622Y-48826628D01*
X75914834Y-48957543D01*
X75894353Y-49099997D01*
X75894353Y-49100002D01*
X75914834Y-49242456D01*
X75972017Y-49367667D01*
X75974623Y-49373373D01*
X76063478Y-49475918D01*
X76068873Y-49482144D01*
X76183458Y-49555783D01*
X76189947Y-49559953D01*
X76295599Y-49590975D01*
X76328035Y-49600499D01*
X76328036Y-49600499D01*
X76328039Y-49600500D01*
X76338802Y-49600500D01*
X76396993Y-49619407D01*
X76420277Y-49643261D01*
X76471816Y-49717927D01*
X76471818Y-49717930D01*
X76478065Y-49723464D01*
X76599148Y-49830734D01*
X76749775Y-49909790D01*
X76914944Y-49950500D01*
X76914947Y-49950500D01*
X77085053Y-49950500D01*
X77085056Y-49950500D01*
X77250225Y-49909790D01*
X77400852Y-49830734D01*
X77528183Y-49717929D01*
X77624818Y-49577930D01*
X77665717Y-49470086D01*
X77704029Y-49422383D01*
X77763065Y-49406309D01*
X77820275Y-49428005D01*
X77833103Y-49440363D01*
X77868871Y-49481642D01*
X77868872Y-49481643D01*
X77981189Y-49553825D01*
X77989947Y-49559453D01*
X78052875Y-49577930D01*
X78128035Y-49599999D01*
X78128036Y-49599999D01*
X78128039Y-49600000D01*
X78128041Y-49600000D01*
X78271960Y-49600000D01*
X78271961Y-49600000D01*
X78301756Y-49591251D01*
X78362915Y-49592996D01*
X78411124Y-49630001D01*
X78471816Y-49717927D01*
X78471818Y-49717930D01*
X78478065Y-49723464D01*
X78599148Y-49830734D01*
X78749775Y-49909790D01*
X78914944Y-49950500D01*
X78914947Y-49950500D01*
X79085053Y-49950500D01*
X79085056Y-49950500D01*
X79250225Y-49909790D01*
X79400852Y-49830734D01*
X79528183Y-49717929D01*
X79624818Y-49577930D01*
X79685140Y-49418872D01*
X79704435Y-49259963D01*
X79705645Y-49250001D01*
X79705645Y-49249998D01*
X79699582Y-49200068D01*
X79685140Y-49081128D01*
X79624818Y-48922070D01*
X79528183Y-48782071D01*
X79400852Y-48669266D01*
X79250225Y-48590210D01*
X79250224Y-48590209D01*
X79250223Y-48590209D01*
X79085058Y-48549500D01*
X79085056Y-48549500D01*
X78914944Y-48549500D01*
X78914941Y-48549500D01*
X78749776Y-48590209D01*
X78599149Y-48669265D01*
X78599143Y-48669269D01*
X78595194Y-48672768D01*
X78539098Y-48697200D01*
X78479355Y-48683992D01*
X78476027Y-48681945D01*
X78410057Y-48639549D01*
X78410054Y-48639547D01*
X78410053Y-48639547D01*
X78409999Y-48639531D01*
X78265167Y-48597005D01*
X78265695Y-48595204D01*
X78219108Y-48572297D01*
X78190556Y-48518182D01*
X78199266Y-48457619D01*
X78241910Y-48413743D01*
X78247492Y-48411223D01*
X78250219Y-48409791D01*
X78250225Y-48409790D01*
X78400852Y-48330734D01*
X78528183Y-48217929D01*
X78614236Y-48093259D01*
X78662851Y-48056112D01*
X78695710Y-48050500D01*
X79304290Y-48050500D01*
X79362481Y-48069407D01*
X79385762Y-48093258D01*
X79462480Y-48204402D01*
X79471816Y-48217927D01*
X79471818Y-48217930D01*
X79471824Y-48217935D01*
X79599148Y-48330734D01*
X79749775Y-48409790D01*
X79914944Y-48450500D01*
X79914947Y-48450500D01*
X80001143Y-48450500D01*
X80059334Y-48469407D01*
X80095298Y-48518907D01*
X80099135Y-48563589D01*
X80078818Y-48704899D01*
X80078818Y-48704904D01*
X80099299Y-48847358D01*
X80152360Y-48963543D01*
X80159088Y-48978275D01*
X80248315Y-49081249D01*
X80253338Y-49087046D01*
X80257499Y-49089720D01*
X80296230Y-49137085D01*
X80302254Y-49184936D01*
X80294355Y-49249997D01*
X80294355Y-49250001D01*
X80300523Y-49300798D01*
X80314860Y-49418872D01*
X80375182Y-49577930D01*
X80465835Y-49709262D01*
X80471816Y-49717927D01*
X80471818Y-49717930D01*
X80478065Y-49723464D01*
X80599148Y-49830734D01*
X80749775Y-49909790D01*
X80914944Y-49950500D01*
X80914947Y-49950500D01*
X81085053Y-49950500D01*
X81085056Y-49950500D01*
X81250225Y-49909790D01*
X81400852Y-49830734D01*
X81528183Y-49717929D01*
X81624818Y-49577930D01*
X81685140Y-49418872D01*
X81699156Y-49303438D01*
X81724939Y-49247951D01*
X81778413Y-49218216D01*
X81825323Y-49220381D01*
X81926198Y-49250001D01*
X81926200Y-49250001D01*
X82070118Y-49250001D01*
X82070120Y-49250001D01*
X82174549Y-49219338D01*
X82235706Y-49221085D01*
X82284159Y-49258448D01*
X82300716Y-49302394D01*
X82309335Y-49373371D01*
X82314860Y-49418872D01*
X82375182Y-49577930D01*
X82465835Y-49709262D01*
X82471816Y-49717927D01*
X82471818Y-49717930D01*
X82478065Y-49723464D01*
X82599148Y-49830734D01*
X82749775Y-49909790D01*
X82914944Y-49950500D01*
X82914947Y-49950500D01*
X83085053Y-49950500D01*
X83085056Y-49950500D01*
X83250225Y-49909790D01*
X83400852Y-49830734D01*
X83528183Y-49717929D01*
X83615814Y-49590973D01*
X83664429Y-49553825D01*
X83692714Y-49548319D01*
X83708606Y-49547585D01*
X83717590Y-49543617D01*
X83739391Y-49536865D01*
X83749047Y-49535061D01*
X83776157Y-49518274D01*
X83782203Y-49515088D01*
X83811379Y-49502206D01*
X83818323Y-49495260D01*
X83836215Y-49481089D01*
X83844566Y-49475919D01*
X83863779Y-49450474D01*
X83868276Y-49445308D01*
X84024626Y-49288959D01*
X84079142Y-49261182D01*
X84094629Y-49259963D01*
X84207859Y-49259963D01*
X84266050Y-49278870D01*
X84302014Y-49328370D01*
X84306136Y-49347027D01*
X84314860Y-49418872D01*
X84375182Y-49577930D01*
X84465835Y-49709262D01*
X84471816Y-49717927D01*
X84471818Y-49717930D01*
X84478065Y-49723464D01*
X84599148Y-49830734D01*
X84749775Y-49909790D01*
X84914944Y-49950500D01*
X84914947Y-49950500D01*
X85085053Y-49950500D01*
X85085056Y-49950500D01*
X85250225Y-49909790D01*
X85400852Y-49830734D01*
X85528183Y-49717929D01*
X85614236Y-49593259D01*
X85662851Y-49556112D01*
X85695710Y-49550500D01*
X85884836Y-49550500D01*
X85898511Y-49552732D01*
X85898683Y-49551506D01*
X85907764Y-49552772D01*
X85907765Y-49552773D01*
X85907765Y-49552772D01*
X85907766Y-49552773D01*
X85916507Y-49552368D01*
X85955793Y-49550552D01*
X85958070Y-49550500D01*
X85977841Y-49550500D01*
X85977844Y-49550500D01*
X85981337Y-49549846D01*
X85988141Y-49549056D01*
X86019992Y-49547585D01*
X86028976Y-49543617D01*
X86050777Y-49536865D01*
X86060433Y-49535061D01*
X86087543Y-49518274D01*
X86093589Y-49515088D01*
X86122765Y-49502206D01*
X86129709Y-49495260D01*
X86147601Y-49481089D01*
X86155952Y-49475919D01*
X86175165Y-49450474D01*
X86179662Y-49445308D01*
X86279681Y-49345289D01*
X86382243Y-49242726D01*
X86436758Y-49214951D01*
X86497190Y-49224522D01*
X86540455Y-49267787D01*
X86550523Y-49300798D01*
X86564860Y-49418872D01*
X86621023Y-49566962D01*
X86625182Y-49577929D01*
X86625182Y-49577930D01*
X86712290Y-49704127D01*
X86729786Y-49762758D01*
X86709478Y-49820475D01*
X86684339Y-49843650D01*
X86568872Y-49917857D01*
X86474622Y-50026628D01*
X86414834Y-50157543D01*
X86394353Y-50299997D01*
X86394353Y-50300002D01*
X86414834Y-50442456D01*
X86474622Y-50573370D01*
X86474623Y-50573373D01*
X86568872Y-50682143D01*
X86568873Y-50682144D01*
X86611333Y-50709431D01*
X86689947Y-50759953D01*
X86772868Y-50784300D01*
X86823375Y-50818835D01*
X86843937Y-50876462D01*
X86826699Y-50935169D01*
X86810626Y-50953392D01*
X86721823Y-51032064D01*
X86721816Y-51032072D01*
X86642870Y-51146445D01*
X86625182Y-51172070D01*
X86564860Y-51331128D01*
X86564600Y-51333267D01*
X86551960Y-51437372D01*
X86544355Y-51500000D01*
X86564860Y-51668872D01*
X86625182Y-51827930D01*
X86721817Y-51967929D01*
X86849148Y-52080734D01*
X86999775Y-52159790D01*
X87164944Y-52200500D01*
X87203380Y-52200500D01*
X87261571Y-52219407D01*
X87297535Y-52268907D01*
X87301372Y-52313590D01*
X87298777Y-52331636D01*
X87298777Y-52331639D01*
X87319258Y-52474093D01*
X87379047Y-52605010D01*
X87387911Y-52615240D01*
X87411729Y-52671599D01*
X87397871Y-52731194D01*
X87351630Y-52771262D01*
X87340984Y-52775061D01*
X87312935Y-52783296D01*
X87289947Y-52790047D01*
X87289945Y-52790047D01*
X87289942Y-52790049D01*
X87168873Y-52867855D01*
X87074622Y-52976628D01*
X87014834Y-53107543D01*
X86994353Y-53249997D01*
X86994353Y-53250002D01*
X87014834Y-53392456D01*
X87071406Y-53516329D01*
X87074623Y-53523373D01*
X87168872Y-53632143D01*
X87168873Y-53632144D01*
X87206288Y-53656189D01*
X87289947Y-53709953D01*
X87396403Y-53741211D01*
X87428035Y-53750499D01*
X87428036Y-53750499D01*
X87428039Y-53750500D01*
X87428041Y-53750500D01*
X87571959Y-53750500D01*
X87571961Y-53750500D01*
X87710053Y-53709953D01*
X87831128Y-53632143D01*
X87925377Y-53523373D01*
X87985165Y-53392457D01*
X87992970Y-53338169D01*
X88005647Y-53250002D01*
X88005647Y-53249997D01*
X87985165Y-53107543D01*
X87977299Y-53090320D01*
X87925377Y-52976627D01*
X87916511Y-52966395D01*
X87892694Y-52910037D01*
X87906552Y-52850442D01*
X87952793Y-52810374D01*
X87963435Y-52806576D01*
X88014477Y-52791590D01*
X88135552Y-52713780D01*
X88229801Y-52605010D01*
X88289589Y-52474094D01*
X88299845Y-52402759D01*
X88310071Y-52331639D01*
X88310071Y-52331634D01*
X88289589Y-52189180D01*
X88286794Y-52183060D01*
X88229801Y-52058264D01*
X88135552Y-51949494D01*
X88135551Y-51949493D01*
X88135550Y-51949492D01*
X88014481Y-51871686D01*
X88014478Y-51871685D01*
X88014477Y-51871684D01*
X87976468Y-51860523D01*
X87925962Y-51825988D01*
X87905401Y-51768361D01*
X87911793Y-51730433D01*
X87935140Y-51668872D01*
X87955645Y-51500000D01*
X87935140Y-51331128D01*
X87874818Y-51172070D01*
X87778183Y-51032071D01*
X87689372Y-50953391D01*
X87658354Y-50900653D01*
X87664259Y-50839753D01*
X87704833Y-50793955D01*
X87727128Y-50784301D01*
X87810053Y-50759953D01*
X87931128Y-50682143D01*
X88025182Y-50573597D01*
X88077576Y-50542003D01*
X88138537Y-50547238D01*
X88174816Y-50573596D01*
X88268872Y-50682143D01*
X88268873Y-50682144D01*
X88311333Y-50709431D01*
X88389947Y-50759953D01*
X88496403Y-50791211D01*
X88528035Y-50800499D01*
X88528036Y-50800499D01*
X88528039Y-50800500D01*
X88528041Y-50800500D01*
X88634521Y-50800500D01*
X88692712Y-50819407D01*
X88704525Y-50829496D01*
X88745696Y-50870667D01*
X88773473Y-50925184D01*
X88763902Y-50985616D01*
X88741342Y-51014773D01*
X88721817Y-51032070D01*
X88642870Y-51146445D01*
X88625182Y-51172070D01*
X88564860Y-51331128D01*
X88564600Y-51333267D01*
X88551960Y-51437372D01*
X88544355Y-51500000D01*
X88564860Y-51668872D01*
X88625182Y-51827930D01*
X88721817Y-51967929D01*
X88849148Y-52080734D01*
X88999775Y-52159790D01*
X89094187Y-52183060D01*
X89146162Y-52215343D01*
X89169235Y-52272011D01*
X89154593Y-52331419D01*
X89124019Y-52362467D01*
X89061323Y-52402759D01*
X88967073Y-52511531D01*
X88907285Y-52642446D01*
X88886804Y-52784900D01*
X88886804Y-52784906D01*
X88889892Y-52806385D01*
X88879458Y-52866674D01*
X88861904Y-52890477D01*
X88633590Y-53118791D01*
X88622361Y-53126904D01*
X88623090Y-53127869D01*
X88615771Y-53133395D01*
X88583372Y-53168934D01*
X88581796Y-53170585D01*
X88567830Y-53184552D01*
X88567817Y-53184567D01*
X88565813Y-53187492D01*
X88561561Y-53192858D01*
X88540084Y-53216419D01*
X88540083Y-53216421D01*
X88536529Y-53225594D01*
X88525896Y-53245766D01*
X88520346Y-53253869D01*
X88520342Y-53253878D01*
X88513045Y-53284899D01*
X88511016Y-53291452D01*
X88499500Y-53321178D01*
X88499500Y-53331005D01*
X88496870Y-53353672D01*
X88494621Y-53363235D01*
X88497259Y-53382142D01*
X88499025Y-53394806D01*
X88499500Y-53401652D01*
X88499500Y-54159835D01*
X88497280Y-54173513D01*
X88498494Y-54173683D01*
X88497226Y-54182766D01*
X88499447Y-54230783D01*
X88499500Y-54233069D01*
X88499500Y-54254710D01*
X88480593Y-54312901D01*
X88431093Y-54348865D01*
X88369907Y-54348865D01*
X88355557Y-54342921D01*
X88349922Y-54340050D01*
X88349921Y-54340049D01*
X88349920Y-54340049D01*
X88320775Y-54335433D01*
X88251749Y-54324500D01*
X88251746Y-54324500D01*
X87748254Y-54324500D01*
X87748251Y-54324500D01*
X87650080Y-54340049D01*
X87650076Y-54340050D01*
X87531750Y-54400341D01*
X87437841Y-54494250D01*
X87377549Y-54612578D01*
X87377009Y-54615991D01*
X87375440Y-54619068D01*
X87375142Y-54619988D01*
X87374996Y-54619940D01*
X87349229Y-54670506D01*
X87294711Y-54698282D01*
X87279228Y-54699500D01*
X87216635Y-54699500D01*
X87202959Y-54697267D01*
X87202788Y-54698494D01*
X87193704Y-54697226D01*
X87153357Y-54699092D01*
X87145677Y-54699447D01*
X87143401Y-54699500D01*
X87123624Y-54699500D01*
X87120129Y-54700153D01*
X87113316Y-54700943D01*
X87081480Y-54702414D01*
X87072476Y-54706389D01*
X87050697Y-54713132D01*
X87041039Y-54714937D01*
X87041037Y-54714938D01*
X87013942Y-54731714D01*
X87007874Y-54734913D01*
X86978705Y-54747793D01*
X86971751Y-54754747D01*
X86953874Y-54768907D01*
X86945519Y-54774080D01*
X86945515Y-54774083D01*
X86926313Y-54799513D01*
X86921808Y-54804689D01*
X86233590Y-55492908D01*
X86222361Y-55501021D01*
X86223090Y-55501986D01*
X86215771Y-55507513D01*
X86189419Y-55536418D01*
X86169785Y-55553002D01*
X86068873Y-55617856D01*
X86068872Y-55617856D01*
X86068872Y-55617857D01*
X86032398Y-55659951D01*
X85974622Y-55726628D01*
X85914834Y-55857543D01*
X85894353Y-55999997D01*
X85894353Y-56000002D01*
X85914834Y-56142456D01*
X85974622Y-56273371D01*
X85974623Y-56273373D01*
X86018956Y-56324536D01*
X86068873Y-56382144D01*
X86105000Y-56405361D01*
X86189947Y-56459953D01*
X86296403Y-56491211D01*
X86328035Y-56500499D01*
X86328036Y-56500499D01*
X86328039Y-56500500D01*
X86328041Y-56500500D01*
X86471959Y-56500500D01*
X86471961Y-56500500D01*
X86610053Y-56459953D01*
X86731128Y-56382143D01*
X86825377Y-56273373D01*
X86885165Y-56142457D01*
X86894200Y-56079614D01*
X86905647Y-56000002D01*
X86905647Y-55999997D01*
X86885165Y-55857543D01*
X86861593Y-55805928D01*
X86854618Y-55745142D01*
X86881641Y-55694799D01*
X87217563Y-55358878D01*
X87272078Y-55331102D01*
X87332510Y-55340673D01*
X87375774Y-55383937D01*
X87431298Y-55492908D01*
X87437842Y-55505751D01*
X87531749Y-55599658D01*
X87650080Y-55659951D01*
X87716630Y-55670491D01*
X87748251Y-55675500D01*
X87748254Y-55675500D01*
X88251749Y-55675500D01*
X88280303Y-55670976D01*
X88349920Y-55659951D01*
X88468251Y-55599658D01*
X88562158Y-55505751D01*
X88622451Y-55387420D01*
X88635619Y-55304279D01*
X88638000Y-55289248D01*
X88638000Y-54726979D01*
X88656907Y-54668788D01*
X88706407Y-54632824D01*
X88767593Y-54632824D01*
X88807004Y-54656975D01*
X88908004Y-54757975D01*
X88935781Y-54812492D01*
X88937000Y-54827979D01*
X88937000Y-55289248D01*
X88952549Y-55387419D01*
X88952550Y-55387423D01*
X89006298Y-55492908D01*
X89012842Y-55505751D01*
X89106749Y-55599658D01*
X89225080Y-55659951D01*
X89291630Y-55670491D01*
X89323251Y-55675500D01*
X89323254Y-55675500D01*
X89826749Y-55675500D01*
X89855303Y-55670976D01*
X89924920Y-55659951D01*
X90043251Y-55599658D01*
X90137158Y-55505751D01*
X90197451Y-55387420D01*
X90210619Y-55304279D01*
X90213000Y-55289248D01*
X90213000Y-54710751D01*
X90204482Y-54656975D01*
X90197451Y-54612580D01*
X90137158Y-54494249D01*
X90043251Y-54400342D01*
X89974782Y-54365455D01*
X89924923Y-54340050D01*
X89924920Y-54340049D01*
X89895775Y-54335433D01*
X89826749Y-54324500D01*
X89826746Y-54324500D01*
X89814041Y-54324500D01*
X89755850Y-54305593D01*
X89719886Y-54256093D01*
X89719886Y-54194907D01*
X89739221Y-54160669D01*
X89739944Y-54159835D01*
X89824877Y-54061816D01*
X89884665Y-53930900D01*
X89904916Y-53790049D01*
X89905147Y-53788445D01*
X89905147Y-53788440D01*
X89884665Y-53645986D01*
X89829557Y-53525318D01*
X89824877Y-53515070D01*
X89730628Y-53406300D01*
X89730627Y-53406299D01*
X89670552Y-53367691D01*
X89631821Y-53320324D01*
X89628329Y-53259239D01*
X89661408Y-53207766D01*
X89670541Y-53201130D01*
X89723579Y-53167046D01*
X89817828Y-53058276D01*
X89877616Y-52927360D01*
X89894982Y-52806575D01*
X89898098Y-52784905D01*
X89898098Y-52784900D01*
X89877616Y-52642446D01*
X89851379Y-52584995D01*
X89817828Y-52511530D01*
X89723579Y-52402760D01*
X89723578Y-52402759D01*
X89723577Y-52402758D01*
X89602508Y-52324952D01*
X89602498Y-52324947D01*
X89569901Y-52315376D01*
X89519395Y-52280840D01*
X89498834Y-52223213D01*
X89516073Y-52164506D01*
X89551784Y-52132729D01*
X89650852Y-52080734D01*
X89778183Y-51967929D01*
X89862951Y-51845121D01*
X89911565Y-51807974D01*
X89939851Y-51802468D01*
X89981292Y-51800552D01*
X89983571Y-51800500D01*
X90003341Y-51800500D01*
X90003344Y-51800500D01*
X90006837Y-51799846D01*
X90013641Y-51799056D01*
X90045492Y-51797585D01*
X90054476Y-51793617D01*
X90076277Y-51786865D01*
X90085933Y-51785061D01*
X90085933Y-51785060D01*
X90092070Y-51782684D01*
X90127830Y-51776000D01*
X90271959Y-51776000D01*
X90271961Y-51776000D01*
X90410053Y-51735453D01*
X90531128Y-51657643D01*
X90531133Y-51657637D01*
X90535666Y-51653710D01*
X90592025Y-51629890D01*
X90651621Y-51643747D01*
X90691690Y-51689986D01*
X90699500Y-51728527D01*
X90699500Y-56613575D01*
X90689402Y-56644651D01*
X90699500Y-56685424D01*
X90699500Y-58600500D01*
X90680593Y-58658691D01*
X90631093Y-58694655D01*
X90600500Y-58699500D01*
X77249010Y-58699500D01*
X77190819Y-58680593D01*
X77154855Y-58631093D01*
X77154855Y-58569907D01*
X77190819Y-58520407D01*
X77207884Y-58510446D01*
X77210045Y-58509458D01*
X77210053Y-58509456D01*
X77331128Y-58431646D01*
X77425377Y-58322876D01*
X77485165Y-58191960D01*
X77494859Y-58124536D01*
X77505647Y-58049505D01*
X77505647Y-58049500D01*
X77485165Y-57907046D01*
X77471423Y-57876956D01*
X77425377Y-57776130D01*
X77389306Y-57734502D01*
X82894353Y-57734502D01*
X82914834Y-57876956D01*
X82926655Y-57902839D01*
X82974623Y-58007873D01*
X83041600Y-58085169D01*
X83068873Y-58116644D01*
X83189942Y-58194450D01*
X83189947Y-58194453D01*
X83296403Y-58225711D01*
X83328035Y-58234999D01*
X83328036Y-58234999D01*
X83328039Y-58235000D01*
X83328041Y-58235000D01*
X83471959Y-58235000D01*
X83471961Y-58235000D01*
X83610053Y-58194453D01*
X83731128Y-58116643D01*
X83825377Y-58007873D01*
X83885165Y-57876957D01*
X83898640Y-57783238D01*
X83905647Y-57734502D01*
X83905647Y-57734497D01*
X83885165Y-57592043D01*
X83870508Y-57559950D01*
X83825377Y-57461127D01*
X83731128Y-57352357D01*
X83731127Y-57352356D01*
X83731126Y-57352355D01*
X83610057Y-57274549D01*
X83610054Y-57274547D01*
X83610053Y-57274547D01*
X83610050Y-57274546D01*
X83471964Y-57234000D01*
X83471961Y-57234000D01*
X83328039Y-57234000D01*
X83328035Y-57234000D01*
X83189949Y-57274546D01*
X83189942Y-57274549D01*
X83068873Y-57352355D01*
X82974622Y-57461128D01*
X82914834Y-57592043D01*
X82894353Y-57734497D01*
X82894353Y-57734502D01*
X77389306Y-57734502D01*
X77331128Y-57667360D01*
X77331127Y-57667359D01*
X77331126Y-57667358D01*
X77210057Y-57589552D01*
X77210054Y-57589550D01*
X77210053Y-57589550D01*
X77210050Y-57589549D01*
X77071964Y-57549003D01*
X77071961Y-57549003D01*
X76928039Y-57549003D01*
X76928037Y-57549003D01*
X76928033Y-57549004D01*
X76827790Y-57578437D01*
X76766630Y-57576689D01*
X76718178Y-57539326D01*
X76700940Y-57480619D01*
X76718425Y-57427208D01*
X76804370Y-57302694D01*
X76804373Y-57302690D01*
X76864648Y-57143758D01*
X76864651Y-57143748D01*
X76879999Y-57017351D01*
X84120000Y-57017351D01*
X84135348Y-57143748D01*
X84135351Y-57143758D01*
X84195626Y-57302690D01*
X84195628Y-57302693D01*
X84292194Y-57442594D01*
X84292199Y-57442600D01*
X84419431Y-57555318D01*
X84569954Y-57634318D01*
X84569957Y-57634319D01*
X84569999Y-57634329D01*
X84570000Y-57634328D01*
X84570000Y-57141110D01*
X84594457Y-57180610D01*
X84683962Y-57248201D01*
X84791840Y-57278895D01*
X84903521Y-57268546D01*
X85003922Y-57218552D01*
X85070000Y-57146069D01*
X85070000Y-57634329D01*
X85070042Y-57634319D01*
X85070045Y-57634318D01*
X85146173Y-57594364D01*
X85206485Y-57584063D01*
X85261333Y-57611180D01*
X85289767Y-57665357D01*
X85290172Y-57696113D01*
X85282353Y-57750494D01*
X85282353Y-57750502D01*
X85302834Y-57892956D01*
X85309269Y-57907046D01*
X85362623Y-58023873D01*
X85419223Y-58089193D01*
X85456873Y-58132644D01*
X85574704Y-58208369D01*
X85577947Y-58210453D01*
X85684403Y-58241711D01*
X85716035Y-58250999D01*
X85716036Y-58250999D01*
X85716039Y-58251000D01*
X85716041Y-58251000D01*
X85859959Y-58251000D01*
X85859961Y-58251000D01*
X85998053Y-58210453D01*
X86119128Y-58132643D01*
X86160264Y-58085168D01*
X86212660Y-58053573D01*
X86235083Y-58051000D01*
X87279308Y-58051000D01*
X87337499Y-58069907D01*
X87373463Y-58119407D01*
X87377089Y-58134515D01*
X87377548Y-58137418D01*
X87377550Y-58137423D01*
X87414760Y-58210450D01*
X87437842Y-58255751D01*
X87531749Y-58349658D01*
X87650080Y-58409951D01*
X87716630Y-58420491D01*
X87748251Y-58425500D01*
X87748254Y-58425500D01*
X88251749Y-58425500D01*
X88280303Y-58420976D01*
X88349920Y-58409951D01*
X88468251Y-58349658D01*
X88562158Y-58255751D01*
X88622451Y-58137420D01*
X88635731Y-58053573D01*
X88638000Y-58039248D01*
X88638000Y-57464812D01*
X88656907Y-57406621D01*
X88706407Y-57370657D01*
X88737000Y-57365812D01*
X88795633Y-57365812D01*
X88853824Y-57384719D01*
X88865636Y-57394808D01*
X88908003Y-57437174D01*
X88935781Y-57491690D01*
X88937000Y-57507178D01*
X88937000Y-58039248D01*
X88941856Y-58069907D01*
X88951792Y-58132643D01*
X88952549Y-58137419D01*
X88952550Y-58137423D01*
X88989760Y-58210450D01*
X89012842Y-58255751D01*
X89106749Y-58349658D01*
X89225080Y-58409951D01*
X89291630Y-58420491D01*
X89323251Y-58425500D01*
X89323254Y-58425500D01*
X89826749Y-58425500D01*
X89855303Y-58420976D01*
X89924920Y-58409951D01*
X90043251Y-58349658D01*
X90137158Y-58255751D01*
X90197451Y-58137420D01*
X90210731Y-58053573D01*
X90213000Y-58039248D01*
X90213000Y-57460751D01*
X90203551Y-57401095D01*
X90197451Y-57362580D01*
X90141071Y-57251929D01*
X90131500Y-57191500D01*
X90159277Y-57136983D01*
X90201390Y-57111996D01*
X90210053Y-57109453D01*
X90331128Y-57031643D01*
X90425377Y-56922873D01*
X90485165Y-56791957D01*
X90497763Y-56704335D01*
X90502508Y-56671335D01*
X90512217Y-56651587D01*
X90502508Y-56627664D01*
X90485165Y-56507043D01*
X90429448Y-56385042D01*
X90425377Y-56376127D01*
X90331128Y-56267357D01*
X90331127Y-56267356D01*
X90331126Y-56267355D01*
X90210057Y-56189549D01*
X90210054Y-56189547D01*
X90210053Y-56189547D01*
X90210050Y-56189546D01*
X90071964Y-56149000D01*
X90071961Y-56149000D01*
X89928039Y-56149000D01*
X89928035Y-56149000D01*
X89789949Y-56189546D01*
X89789942Y-56189549D01*
X89668873Y-56267355D01*
X89574622Y-56376128D01*
X89514834Y-56507043D01*
X89494353Y-56649497D01*
X89494353Y-56649502D01*
X89514834Y-56791956D01*
X89577564Y-56929313D01*
X89576145Y-56929960D01*
X89589602Y-56981150D01*
X89567404Y-57038167D01*
X89515932Y-57071247D01*
X89490763Y-57074500D01*
X89436278Y-57074500D01*
X89378087Y-57055593D01*
X89366274Y-57045504D01*
X89291657Y-56970887D01*
X89263880Y-56916370D01*
X89263669Y-56886794D01*
X89266758Y-56865312D01*
X89260962Y-56825001D01*
X89246276Y-56722855D01*
X89222747Y-56671335D01*
X89186488Y-56591939D01*
X89092239Y-56483169D01*
X89092238Y-56483168D01*
X89092237Y-56483167D01*
X88971168Y-56405361D01*
X88971165Y-56405359D01*
X88971164Y-56405359D01*
X88954616Y-56400500D01*
X88833075Y-56364812D01*
X88833072Y-56364812D01*
X88689150Y-56364812D01*
X88689146Y-56364812D01*
X88551060Y-56405358D01*
X88551053Y-56405361D01*
X88429984Y-56483167D01*
X88335733Y-56591940D01*
X88275945Y-56722855D01*
X88255464Y-56865309D01*
X88255464Y-56865315D01*
X88269280Y-56961411D01*
X88258847Y-57021701D01*
X88214968Y-57064343D01*
X88171288Y-57074500D01*
X87748251Y-57074500D01*
X87650080Y-57090049D01*
X87650076Y-57090050D01*
X87531750Y-57150341D01*
X87437841Y-57244250D01*
X87377549Y-57362578D01*
X87376930Y-57366489D01*
X87349151Y-57421005D01*
X87294634Y-57448781D01*
X87279149Y-57450000D01*
X86235083Y-57450000D01*
X86176892Y-57431093D01*
X86160264Y-57415831D01*
X86119128Y-57368357D01*
X86080216Y-57343350D01*
X85998057Y-57290549D01*
X85998054Y-57290547D01*
X85998053Y-57290547D01*
X85998050Y-57290546D01*
X85859964Y-57250000D01*
X85859961Y-57250000D01*
X85716039Y-57250000D01*
X85716035Y-57250000D01*
X85623891Y-57277056D01*
X85562730Y-57275308D01*
X85514278Y-57237945D01*
X85497040Y-57179238D01*
X85503435Y-57146955D01*
X85504651Y-57143748D01*
X85519999Y-57017351D01*
X85520000Y-57017334D01*
X85520000Y-56825001D01*
X85519999Y-56825000D01*
X85120000Y-56825000D01*
X85120000Y-56325000D01*
X85519999Y-56325000D01*
X85520000Y-56324998D01*
X85520000Y-56132665D01*
X85519999Y-56132648D01*
X85504651Y-56006251D01*
X85504648Y-56006241D01*
X85444373Y-55847309D01*
X85444371Y-55847306D01*
X85347805Y-55707405D01*
X85347800Y-55707399D01*
X85220568Y-55594681D01*
X85070053Y-55515685D01*
X85070042Y-55515681D01*
X85070000Y-55515670D01*
X85070000Y-56008889D01*
X85045543Y-55969390D01*
X84956038Y-55901799D01*
X84848160Y-55871105D01*
X84736479Y-55881454D01*
X84636078Y-55931448D01*
X84570000Y-56003930D01*
X84570000Y-55515670D01*
X84569957Y-55515681D01*
X84569946Y-55515685D01*
X84419431Y-55594681D01*
X84419430Y-55594681D01*
X84292199Y-55707399D01*
X84292194Y-55707405D01*
X84195628Y-55847306D01*
X84195626Y-55847309D01*
X84135351Y-56006241D01*
X84135348Y-56006251D01*
X84120000Y-56132648D01*
X84120000Y-56324999D01*
X84120001Y-56325000D01*
X84520000Y-56325000D01*
X84520000Y-56825000D01*
X84120001Y-56825000D01*
X84120000Y-56825001D01*
X84120000Y-57017351D01*
X76879999Y-57017351D01*
X76880000Y-57017334D01*
X76880000Y-56825001D01*
X76879999Y-56825000D01*
X76480000Y-56825000D01*
X76480000Y-56325000D01*
X76879999Y-56325000D01*
X76880000Y-56324998D01*
X76880000Y-56132665D01*
X76879999Y-56132648D01*
X76864651Y-56006251D01*
X76864648Y-56006241D01*
X76804373Y-55847309D01*
X76804371Y-55847306D01*
X76707805Y-55707405D01*
X76707800Y-55707399D01*
X76580568Y-55594681D01*
X76430053Y-55515685D01*
X76430042Y-55515681D01*
X76430000Y-55515670D01*
X76430000Y-56008889D01*
X76405543Y-55969390D01*
X76316038Y-55901799D01*
X76208160Y-55871105D01*
X76096479Y-55881454D01*
X75996078Y-55931448D01*
X75930000Y-56003930D01*
X75930000Y-55515670D01*
X75929957Y-55515681D01*
X75929946Y-55515685D01*
X75779431Y-55594681D01*
X75779430Y-55594681D01*
X75665149Y-55695927D01*
X75609055Y-55720363D01*
X75549311Y-55707160D01*
X75508738Y-55661362D01*
X75500500Y-55621825D01*
X75500500Y-55435253D01*
X75500498Y-55435241D01*
X75490986Y-55387423D01*
X75488867Y-55376769D01*
X75444552Y-55310448D01*
X75438162Y-55306178D01*
X75378233Y-55266134D01*
X75378231Y-55266133D01*
X75378228Y-55266132D01*
X75378227Y-55266132D01*
X75319758Y-55254501D01*
X75319748Y-55254500D01*
X75319747Y-55254500D01*
X75213980Y-55254500D01*
X75155789Y-55235593D01*
X75119825Y-55186093D01*
X75119825Y-55124907D01*
X75139161Y-55090669D01*
X75145238Y-55083656D01*
X75175377Y-55048873D01*
X75235165Y-54917957D01*
X75241992Y-54870471D01*
X75255647Y-54775502D01*
X75255647Y-54775497D01*
X75235165Y-54633043D01*
X75228783Y-54619068D01*
X75175377Y-54502127D01*
X75081128Y-54393357D01*
X75081127Y-54393356D01*
X75081126Y-54393355D01*
X74960057Y-54315549D01*
X74960054Y-54315547D01*
X74960053Y-54315547D01*
X74960050Y-54315546D01*
X74821964Y-54275000D01*
X74821961Y-54275000D01*
X74678039Y-54275000D01*
X74678035Y-54275000D01*
X74539949Y-54315546D01*
X74539942Y-54315549D01*
X74418873Y-54393355D01*
X74324622Y-54502128D01*
X74264834Y-54633043D01*
X74244353Y-54775497D01*
X74244353Y-54775502D01*
X74264833Y-54917954D01*
X74290656Y-54974497D01*
X74297630Y-55035283D01*
X74267543Y-55088560D01*
X74211887Y-55113978D01*
X74151920Y-55101827D01*
X74130598Y-55085627D01*
X73878565Y-54833594D01*
X73870479Y-54822344D01*
X73869487Y-54823094D01*
X73863958Y-54815772D01*
X73828428Y-54783382D01*
X73826775Y-54781804D01*
X73812797Y-54767826D01*
X73809859Y-54765813D01*
X73804496Y-54761564D01*
X73780933Y-54740084D01*
X73771762Y-54736531D01*
X73751586Y-54725895D01*
X73743484Y-54720345D01*
X73743479Y-54720343D01*
X73712457Y-54713046D01*
X73705902Y-54711016D01*
X73676177Y-54699501D01*
X73676174Y-54699500D01*
X73676173Y-54699500D01*
X73676172Y-54699500D01*
X73666348Y-54699500D01*
X73643683Y-54696870D01*
X73634119Y-54694621D01*
X73634118Y-54694621D01*
X73602547Y-54699025D01*
X73595701Y-54699500D01*
X72470190Y-54699500D01*
X72456514Y-54697267D01*
X72456343Y-54698494D01*
X72447259Y-54697226D01*
X72406912Y-54699092D01*
X72399232Y-54699447D01*
X72396956Y-54699500D01*
X72377179Y-54699500D01*
X72373684Y-54700153D01*
X72366871Y-54700943D01*
X72335036Y-54702414D01*
X72335032Y-54702415D01*
X72326041Y-54706385D01*
X72304253Y-54713132D01*
X72294596Y-54714937D01*
X72294590Y-54714939D01*
X72267492Y-54731717D01*
X72261425Y-54734915D01*
X72232263Y-54747792D01*
X72232259Y-54747795D01*
X72225310Y-54754744D01*
X72207435Y-54768903D01*
X72199074Y-54774080D01*
X72179865Y-54799515D01*
X72175361Y-54804692D01*
X71754550Y-55225503D01*
X71700033Y-55253281D01*
X71684546Y-55254500D01*
X71049500Y-55254500D01*
X70991309Y-55235593D01*
X70955345Y-55186093D01*
X70950500Y-55155500D01*
X70950500Y-52261930D01*
X70969407Y-52203739D01*
X71018907Y-52167775D01*
X71025785Y-52165813D01*
X71050225Y-52159790D01*
X71200852Y-52080734D01*
X71328183Y-51967929D01*
X71424818Y-51827930D01*
X71485140Y-51668872D01*
X71505645Y-51500000D01*
X71485140Y-51331128D01*
X71424818Y-51172070D01*
X71328183Y-51032071D01*
X71262183Y-50973601D01*
X71231166Y-50920863D01*
X71237071Y-50859964D01*
X71277644Y-50814165D01*
X71327834Y-50800500D01*
X71421959Y-50800500D01*
X71421961Y-50800500D01*
X71560053Y-50759953D01*
X71681128Y-50682143D01*
X71775377Y-50573373D01*
X71779346Y-50564680D01*
X71784947Y-50552419D01*
X71826319Y-50507341D01*
X71886286Y-50495190D01*
X71941942Y-50520608D01*
X71965053Y-50552419D01*
X71974621Y-50573370D01*
X71974622Y-50573371D01*
X71974623Y-50573373D01*
X72068872Y-50682143D01*
X72068873Y-50682144D01*
X72111333Y-50709431D01*
X72189947Y-50759953D01*
X72300240Y-50792337D01*
X72342351Y-50817322D01*
X72348720Y-50823691D01*
X72376497Y-50878208D01*
X72366926Y-50938640D01*
X72344366Y-50967797D01*
X72271819Y-51032068D01*
X72271816Y-51032072D01*
X72192870Y-51146445D01*
X72175182Y-51172070D01*
X72114860Y-51331128D01*
X72114600Y-51333267D01*
X72101960Y-51437372D01*
X72094355Y-51500000D01*
X72114860Y-51668872D01*
X72175182Y-51827930D01*
X72271817Y-51967929D01*
X72399148Y-52080734D01*
X72549775Y-52159790D01*
X72714944Y-52200500D01*
X72714947Y-52200500D01*
X72885053Y-52200500D01*
X72885056Y-52200500D01*
X73050225Y-52159790D01*
X73087665Y-52140140D01*
X74513413Y-52140140D01*
X74549952Y-52159317D01*
X74549955Y-52159318D01*
X74715002Y-52199999D01*
X74715008Y-52200000D01*
X74884992Y-52200000D01*
X74884997Y-52199999D01*
X75050043Y-52159318D01*
X75086585Y-52140139D01*
X74800000Y-51853553D01*
X74513413Y-52140140D01*
X73087665Y-52140140D01*
X73200852Y-52080734D01*
X73328183Y-51967929D01*
X73419045Y-51836292D01*
X73467661Y-51799144D01*
X73514613Y-51794540D01*
X73520691Y-51795414D01*
X73520694Y-51795415D01*
X73520697Y-51795415D01*
X73664614Y-51795415D01*
X73664616Y-51795415D01*
X73802708Y-51754868D01*
X73923783Y-51677058D01*
X73950634Y-51646069D01*
X74003027Y-51614473D01*
X74063988Y-51619708D01*
X74110230Y-51659774D01*
X74118019Y-51675794D01*
X74159988Y-51786455D01*
X74159989Y-51786455D01*
X74446445Y-51500000D01*
X74446444Y-51499999D01*
X75153553Y-51499999D01*
X75451003Y-51797449D01*
X75478781Y-51851966D01*
X75480000Y-51867453D01*
X75480000Y-52144999D01*
X75480001Y-52145000D01*
X75880000Y-52145000D01*
X75880000Y-52645000D01*
X75480001Y-52645000D01*
X75480000Y-52645001D01*
X75480000Y-52987351D01*
X75495348Y-53113748D01*
X75495351Y-53113758D01*
X75555626Y-53272690D01*
X75555628Y-53272693D01*
X75652194Y-53412594D01*
X75652199Y-53412600D01*
X75779431Y-53525318D01*
X75929954Y-53604318D01*
X75929957Y-53604319D01*
X75929999Y-53604329D01*
X75930000Y-53604328D01*
X75930000Y-53111110D01*
X75954457Y-53150610D01*
X76043962Y-53218201D01*
X76151840Y-53248895D01*
X76263521Y-53238546D01*
X76363922Y-53188552D01*
X76430000Y-53116069D01*
X76430000Y-53604329D01*
X76430042Y-53604319D01*
X76430045Y-53604318D01*
X76580568Y-53525318D01*
X76580569Y-53525318D01*
X76707800Y-53412600D01*
X76707805Y-53412594D01*
X76804371Y-53272693D01*
X76804373Y-53272690D01*
X76864648Y-53113758D01*
X76864649Y-53113755D01*
X76867494Y-53090323D01*
X76893276Y-53034835D01*
X76946750Y-53005098D01*
X77007489Y-53012471D01*
X77052294Y-53054138D01*
X77057237Y-53064367D01*
X77107020Y-53184552D01*
X77107302Y-53185233D01*
X77199549Y-53305451D01*
X77319767Y-53397698D01*
X77459764Y-53455687D01*
X77572280Y-53470500D01*
X77572281Y-53470500D01*
X77647719Y-53470500D01*
X77647720Y-53470500D01*
X77760236Y-53455687D01*
X77900233Y-53397698D01*
X77995682Y-53324456D01*
X78053357Y-53304033D01*
X78112023Y-53321410D01*
X78130767Y-53338167D01*
X78152487Y-53363233D01*
X78168871Y-53382142D01*
X78168872Y-53382143D01*
X78274624Y-53450106D01*
X78289947Y-53459953D01*
X78396403Y-53491211D01*
X78428035Y-53500499D01*
X78428036Y-53500499D01*
X78428039Y-53500500D01*
X78428041Y-53500500D01*
X78571959Y-53500500D01*
X78571961Y-53500500D01*
X78710053Y-53459953D01*
X78831128Y-53382143D01*
X78925377Y-53273373D01*
X78985165Y-53142457D01*
X79004914Y-53005098D01*
X79005647Y-53000002D01*
X79005647Y-52999997D01*
X78985165Y-52857543D01*
X78924395Y-52724477D01*
X78917420Y-52663690D01*
X78947506Y-52610413D01*
X79003162Y-52584995D01*
X79033763Y-52586253D01*
X79080241Y-52595498D01*
X79080246Y-52595498D01*
X79080252Y-52595500D01*
X79080253Y-52595500D01*
X79332280Y-52595500D01*
X79390471Y-52614407D01*
X79426435Y-52663907D01*
X79426435Y-52725093D01*
X79422336Y-52735620D01*
X79419893Y-52740968D01*
X79414833Y-52752047D01*
X79394353Y-52894499D01*
X79394353Y-52894504D01*
X79414834Y-53036958D01*
X79457420Y-53130207D01*
X79474623Y-53167875D01*
X79553790Y-53259239D01*
X79568873Y-53276646D01*
X79689942Y-53354452D01*
X79689947Y-53354455D01*
X79784245Y-53382143D01*
X79828035Y-53395001D01*
X79828036Y-53395001D01*
X79828039Y-53395002D01*
X79828041Y-53395002D01*
X79971959Y-53395002D01*
X79971961Y-53395002D01*
X80110053Y-53354455D01*
X80231128Y-53276645D01*
X80231136Y-53276635D01*
X80235210Y-53273107D01*
X80291568Y-53249287D01*
X80351164Y-53263142D01*
X80374861Y-53283090D01*
X80388683Y-53299041D01*
X80456293Y-53342491D01*
X80496318Y-53368214D01*
X80509758Y-53376851D01*
X80610050Y-53406299D01*
X80647846Y-53417397D01*
X80647847Y-53417397D01*
X80647850Y-53417398D01*
X80647852Y-53417398D01*
X80791770Y-53417398D01*
X80791772Y-53417398D01*
X80929864Y-53376851D01*
X81050939Y-53299041D01*
X81145188Y-53190271D01*
X81204976Y-53059355D01*
X81213510Y-52999997D01*
X81225458Y-52916900D01*
X81225458Y-52916895D01*
X81204976Y-52774442D01*
X81187250Y-52735627D01*
X81180275Y-52674841D01*
X81210361Y-52621564D01*
X81266017Y-52596145D01*
X81277303Y-52595500D01*
X81419747Y-52595500D01*
X81419748Y-52595500D01*
X81466236Y-52586253D01*
X81480685Y-52583379D01*
X81519315Y-52583379D01*
X81580241Y-52595498D01*
X81580246Y-52595498D01*
X81580252Y-52595500D01*
X81580253Y-52595500D01*
X81919747Y-52595500D01*
X81919748Y-52595500D01*
X81919749Y-52595499D01*
X81919756Y-52595499D01*
X81956611Y-52588167D01*
X81966235Y-52586253D01*
X82026997Y-52593443D01*
X82071927Y-52634975D01*
X82083865Y-52694984D01*
X82075604Y-52724476D01*
X82014834Y-52857541D01*
X82014834Y-52857543D01*
X81994353Y-52999997D01*
X81994353Y-53000002D01*
X82014834Y-53142456D01*
X82074622Y-53273371D01*
X82074623Y-53273373D01*
X82168872Y-53382143D01*
X82199229Y-53401652D01*
X82217246Y-53413231D01*
X82255977Y-53460597D01*
X82259469Y-53521683D01*
X82238542Y-53561345D01*
X82156362Y-53656187D01*
X82096573Y-53787104D01*
X82076092Y-53929558D01*
X82076092Y-53929563D01*
X82096573Y-54072017D01*
X82136679Y-54159835D01*
X82156362Y-54202934D01*
X82205561Y-54259713D01*
X82250612Y-54311705D01*
X82334249Y-54365455D01*
X82371686Y-54389514D01*
X82478142Y-54420772D01*
X82509774Y-54430060D01*
X82509775Y-54430060D01*
X82509778Y-54430061D01*
X82509780Y-54430061D01*
X82653698Y-54430061D01*
X82653700Y-54430061D01*
X82791792Y-54389514D01*
X82912867Y-54311704D01*
X82966332Y-54250002D01*
X85494353Y-54250002D01*
X85514834Y-54392455D01*
X85514833Y-54392455D01*
X85574622Y-54523371D01*
X85574623Y-54523373D01*
X85657543Y-54619068D01*
X85668873Y-54632144D01*
X85784395Y-54706385D01*
X85789947Y-54709953D01*
X85892565Y-54740084D01*
X85928035Y-54750499D01*
X85928036Y-54750499D01*
X85928039Y-54750500D01*
X85928041Y-54750500D01*
X86071959Y-54750500D01*
X86071961Y-54750500D01*
X86210053Y-54709953D01*
X86331128Y-54632143D01*
X86425377Y-54523373D01*
X86485165Y-54392457D01*
X86485164Y-54392457D01*
X86485166Y-54392455D01*
X86505647Y-54250002D01*
X86505647Y-54249997D01*
X86485165Y-54107543D01*
X86425377Y-53976628D01*
X86425377Y-53976627D01*
X86331128Y-53867857D01*
X86331127Y-53867856D01*
X86331126Y-53867855D01*
X86210057Y-53790049D01*
X86210054Y-53790047D01*
X86210053Y-53790047D01*
X86210050Y-53790046D01*
X86071964Y-53749500D01*
X86071961Y-53749500D01*
X85928039Y-53749500D01*
X85928035Y-53749500D01*
X85789949Y-53790046D01*
X85789942Y-53790049D01*
X85668873Y-53867855D01*
X85574622Y-53976628D01*
X85514834Y-54107543D01*
X85494353Y-54249997D01*
X85494353Y-54250002D01*
X82966332Y-54250002D01*
X83007116Y-54202934D01*
X83066904Y-54072018D01*
X83080619Y-53976627D01*
X83087386Y-53929563D01*
X83087386Y-53929558D01*
X83066904Y-53787104D01*
X83031670Y-53709953D01*
X83007116Y-53656188D01*
X82912867Y-53547418D01*
X82912866Y-53547417D01*
X82912865Y-53547416D01*
X82864492Y-53516329D01*
X82825760Y-53468963D01*
X82822267Y-53407877D01*
X82843193Y-53368218D01*
X82869233Y-53338166D01*
X82921627Y-53306572D01*
X82982588Y-53311808D01*
X83004317Y-53324457D01*
X83099765Y-53397697D01*
X83099766Y-53397698D01*
X83124341Y-53407877D01*
X83239764Y-53455687D01*
X83352280Y-53470500D01*
X83352281Y-53470500D01*
X83427719Y-53470500D01*
X83427720Y-53470500D01*
X83540236Y-53455687D01*
X83680233Y-53397698D01*
X83800451Y-53305451D01*
X83892698Y-53185233D01*
X83942762Y-53064367D01*
X83982498Y-53017842D01*
X84041993Y-53003558D01*
X84098521Y-53026973D01*
X84130491Y-53079142D01*
X84132504Y-53090320D01*
X84135348Y-53113748D01*
X84135351Y-53113758D01*
X84195626Y-53272690D01*
X84195628Y-53272693D01*
X84292194Y-53412594D01*
X84292199Y-53412600D01*
X84419431Y-53525318D01*
X84569954Y-53604318D01*
X84569957Y-53604319D01*
X84570000Y-53604329D01*
X84570000Y-53111110D01*
X84594457Y-53150610D01*
X84683962Y-53218201D01*
X84791840Y-53248895D01*
X84903521Y-53238546D01*
X85003922Y-53188552D01*
X85070000Y-53116069D01*
X85070000Y-53604329D01*
X85070042Y-53604319D01*
X85070045Y-53604318D01*
X85220568Y-53525318D01*
X85220569Y-53525318D01*
X85347800Y-53412600D01*
X85347805Y-53412594D01*
X85444371Y-53272693D01*
X85444373Y-53272690D01*
X85504648Y-53113758D01*
X85504651Y-53113748D01*
X85519999Y-52987351D01*
X85520000Y-52987334D01*
X85520000Y-52645001D01*
X85519999Y-52645000D01*
X85120000Y-52645000D01*
X85120000Y-52145000D01*
X85519999Y-52145000D01*
X85520000Y-52144999D01*
X85520000Y-51802665D01*
X85519999Y-51802648D01*
X85504651Y-51676251D01*
X85504648Y-51676241D01*
X85444373Y-51517309D01*
X85444371Y-51517306D01*
X85347805Y-51377405D01*
X85347800Y-51377399D01*
X85220568Y-51264681D01*
X85070053Y-51185685D01*
X85070042Y-51185681D01*
X85070000Y-51185670D01*
X85069999Y-51678889D01*
X85045543Y-51639390D01*
X84956038Y-51571799D01*
X84848160Y-51541105D01*
X84736479Y-51551454D01*
X84636078Y-51601448D01*
X84570000Y-51673930D01*
X84570000Y-51185670D01*
X84569957Y-51185681D01*
X84569946Y-51185685D01*
X84419433Y-51264679D01*
X84364649Y-51313215D01*
X84308555Y-51337650D01*
X84248811Y-51324447D01*
X84208238Y-51278649D01*
X84200000Y-51239112D01*
X84200000Y-51225302D01*
X84199999Y-51225299D01*
X84188396Y-51166963D01*
X84144193Y-51100810D01*
X84144189Y-51100806D01*
X84078036Y-51056603D01*
X84019700Y-51045000D01*
X83950000Y-51045000D01*
X83950000Y-51971000D01*
X83931093Y-52029191D01*
X83881593Y-52065155D01*
X83851000Y-52070000D01*
X83499500Y-52070000D01*
X83441309Y-52051093D01*
X83405345Y-52001593D01*
X83400500Y-51971000D01*
X83400500Y-51660506D01*
X83419407Y-51602315D01*
X83429497Y-51590502D01*
X83450000Y-51569999D01*
X83450000Y-51045000D01*
X83380297Y-51045000D01*
X83320593Y-51056876D01*
X83281966Y-51056876D01*
X83219750Y-51044500D01*
X83219748Y-51044500D01*
X82580252Y-51044500D01*
X82580248Y-51044500D01*
X82519314Y-51056621D01*
X82480686Y-51056621D01*
X82419751Y-51044500D01*
X82419748Y-51044500D01*
X82080252Y-51044500D01*
X82080248Y-51044500D01*
X82019314Y-51056621D01*
X81980686Y-51056621D01*
X81919751Y-51044500D01*
X81919748Y-51044500D01*
X81580252Y-51044500D01*
X81580248Y-51044500D01*
X81519314Y-51056621D01*
X81480686Y-51056621D01*
X81419751Y-51044500D01*
X81419748Y-51044500D01*
X81080252Y-51044500D01*
X81080248Y-51044500D01*
X81019314Y-51056621D01*
X80980686Y-51056621D01*
X80919751Y-51044500D01*
X80919748Y-51044500D01*
X80580252Y-51044500D01*
X80580248Y-51044500D01*
X80519314Y-51056621D01*
X80480686Y-51056621D01*
X80419751Y-51044500D01*
X80419748Y-51044500D01*
X80080252Y-51044500D01*
X80080248Y-51044500D01*
X80019314Y-51056621D01*
X79980686Y-51056621D01*
X79919751Y-51044500D01*
X79919748Y-51044500D01*
X79580252Y-51044500D01*
X79580248Y-51044500D01*
X79519314Y-51056621D01*
X79480686Y-51056621D01*
X79419751Y-51044500D01*
X79419748Y-51044500D01*
X79080252Y-51044500D01*
X79080248Y-51044500D01*
X79019314Y-51056621D01*
X78980686Y-51056621D01*
X78919751Y-51044500D01*
X78919748Y-51044500D01*
X78580252Y-51044500D01*
X78580248Y-51044500D01*
X78519314Y-51056621D01*
X78480686Y-51056621D01*
X78419751Y-51044500D01*
X78419748Y-51044500D01*
X77780252Y-51044500D01*
X77780248Y-51044500D01*
X77718032Y-51056876D01*
X77679404Y-51056876D01*
X77619700Y-51045000D01*
X77550001Y-51045000D01*
X77550000Y-51045001D01*
X77550000Y-51971000D01*
X77531093Y-52029191D01*
X77481593Y-52065155D01*
X77451000Y-52070000D01*
X76859000Y-52070000D01*
X76800809Y-52051093D01*
X76764845Y-52001593D01*
X76760000Y-51971000D01*
X76760000Y-51669000D01*
X76778907Y-51610809D01*
X76828407Y-51574845D01*
X76859000Y-51570000D01*
X77049999Y-51570000D01*
X77050000Y-51569999D01*
X77050000Y-51045000D01*
X76980299Y-51045000D01*
X76921963Y-51056603D01*
X76855810Y-51100806D01*
X76855806Y-51100810D01*
X76811603Y-51166963D01*
X76800000Y-51225299D01*
X76800000Y-51239112D01*
X76781093Y-51297303D01*
X76731593Y-51333267D01*
X76670407Y-51333267D01*
X76635351Y-51313215D01*
X76580566Y-51264679D01*
X76430053Y-51185685D01*
X76430042Y-51185681D01*
X76430000Y-51185670D01*
X76430000Y-51678889D01*
X76405543Y-51639390D01*
X76316038Y-51571799D01*
X76208160Y-51541105D01*
X76096479Y-51551454D01*
X75996078Y-51601448D01*
X75930000Y-51673930D01*
X75930000Y-51185670D01*
X75929957Y-51185681D01*
X75929946Y-51185685D01*
X75779431Y-51264681D01*
X75779430Y-51264681D01*
X75647711Y-51381376D01*
X75646027Y-51379475D01*
X75602286Y-51405156D01*
X75541391Y-51399204D01*
X75495625Y-51358595D01*
X75486781Y-51336846D01*
X75486775Y-51336849D01*
X75486675Y-51336586D01*
X75484873Y-51332154D01*
X75484647Y-51331240D01*
X75440009Y-51213542D01*
X75153553Y-51499999D01*
X74446444Y-51499999D01*
X74149941Y-51203496D01*
X74127480Y-51201181D01*
X74081929Y-51160330D01*
X74077514Y-51151787D01*
X74040472Y-51070678D01*
X74018032Y-51021542D01*
X73923783Y-50912772D01*
X73923782Y-50912771D01*
X73923781Y-50912770D01*
X73841448Y-50859858D01*
X74513413Y-50859858D01*
X74800000Y-51146445D01*
X75086586Y-50859859D01*
X75050043Y-50840681D01*
X75050042Y-50840680D01*
X74884997Y-50800000D01*
X74715004Y-50800000D01*
X74549955Y-50840681D01*
X74549947Y-50840684D01*
X74513413Y-50859858D01*
X73841448Y-50859858D01*
X73802712Y-50834964D01*
X73802709Y-50834962D01*
X73802708Y-50834962D01*
X73802705Y-50834961D01*
X73664619Y-50794415D01*
X73664616Y-50794415D01*
X73550623Y-50794415D01*
X73492432Y-50775508D01*
X73456468Y-50726008D01*
X73456468Y-50664822D01*
X73475804Y-50630584D01*
X73484865Y-50620126D01*
X73525377Y-50573373D01*
X73585165Y-50442457D01*
X73605647Y-50300000D01*
X73585165Y-50157543D01*
X73525377Y-50026627D01*
X73431128Y-49917857D01*
X73388000Y-49890140D01*
X74513413Y-49890140D01*
X74549952Y-49909317D01*
X74549955Y-49909318D01*
X74715002Y-49949999D01*
X74715008Y-49950000D01*
X74884992Y-49950000D01*
X74884997Y-49949999D01*
X75050043Y-49909318D01*
X75086585Y-49890139D01*
X74800000Y-49603553D01*
X74513413Y-49890140D01*
X73388000Y-49890140D01*
X73349855Y-49865626D01*
X73311124Y-49818260D01*
X73307632Y-49757174D01*
X73325660Y-49723464D01*
X73324781Y-49722857D01*
X73334165Y-49709262D01*
X73424818Y-49577930D01*
X73485140Y-49418872D01*
X73504435Y-49259963D01*
X73505645Y-49250001D01*
X74094859Y-49250001D01*
X74115348Y-49418749D01*
X74115349Y-49418750D01*
X74159988Y-49536454D01*
X74446444Y-49249999D01*
X75153553Y-49249999D01*
X75440010Y-49536456D01*
X75484649Y-49418754D01*
X75484651Y-49418749D01*
X75505141Y-49250001D01*
X75505141Y-49249998D01*
X75484651Y-49081250D01*
X75484649Y-49081244D01*
X75440009Y-48963542D01*
X75153553Y-49249999D01*
X74446444Y-49249999D01*
X74446445Y-49249998D01*
X74159989Y-48963543D01*
X74115349Y-49081249D01*
X74115348Y-49081250D01*
X74094859Y-49249998D01*
X74094859Y-49250001D01*
X73505645Y-49250001D01*
X73505645Y-49249998D01*
X73499582Y-49200068D01*
X73485140Y-49081128D01*
X73424818Y-48922070D01*
X73328183Y-48782071D01*
X73200852Y-48669266D01*
X73087661Y-48609858D01*
X74513413Y-48609858D01*
X74800000Y-48896445D01*
X75086586Y-48609859D01*
X75050043Y-48590681D01*
X75050042Y-48590680D01*
X74884997Y-48550000D01*
X74715004Y-48550000D01*
X74549955Y-48590681D01*
X74549947Y-48590684D01*
X74513413Y-48609858D01*
X73087661Y-48609858D01*
X73050225Y-48590210D01*
X73050224Y-48590209D01*
X73050223Y-48590209D01*
X72885058Y-48549500D01*
X72885056Y-48549500D01*
X72714944Y-48549500D01*
X72714941Y-48549500D01*
X72549775Y-48590209D01*
X72549773Y-48590210D01*
X72431086Y-48652502D01*
X72370774Y-48662803D01*
X72331555Y-48648126D01*
X72264430Y-48604987D01*
X72225699Y-48557621D01*
X72222207Y-48496535D01*
X72247948Y-48451701D01*
X73292588Y-47407061D01*
X73334697Y-47382078D01*
X73410053Y-47359953D01*
X73531128Y-47282143D01*
X73625377Y-47173373D01*
X73640554Y-47140140D01*
X76713413Y-47140140D01*
X76749952Y-47159317D01*
X76749955Y-47159318D01*
X76915002Y-47199999D01*
X76915008Y-47200000D01*
X77084992Y-47200000D01*
X77084997Y-47199999D01*
X77250043Y-47159318D01*
X77286585Y-47140139D01*
X77000000Y-46853553D01*
X76713413Y-47140140D01*
X73640554Y-47140140D01*
X73685165Y-47042457D01*
X73696107Y-46966354D01*
X73705647Y-46900002D01*
X73705647Y-46899997D01*
X73685165Y-46757543D01*
X73681719Y-46749997D01*
X73625377Y-46626627D01*
X73531128Y-46517857D01*
X73531127Y-46517856D01*
X73531126Y-46517855D01*
X73438823Y-46458536D01*
X73400092Y-46411170D01*
X73396598Y-46350084D01*
X73429678Y-46298612D01*
X73438812Y-46291975D01*
X73557111Y-46215950D01*
X73557112Y-46215948D01*
X73557720Y-46215558D01*
X73598556Y-46200658D01*
X73613335Y-46198749D01*
X73613337Y-46198748D01*
X73613340Y-46198748D01*
X73627209Y-46195102D01*
X73662017Y-46185953D01*
X73662028Y-46185949D01*
X73662033Y-46185948D01*
X73669078Y-46183626D01*
X73685896Y-46178086D01*
X73761178Y-46126156D01*
X73802548Y-46081079D01*
X73838074Y-46027498D01*
X73843863Y-46014819D01*
X73859096Y-45991117D01*
X73896010Y-45948515D01*
X73917303Y-45930064D01*
X73964794Y-45899544D01*
X73989091Y-45888242D01*
X73992242Y-45887269D01*
X74052383Y-45857176D01*
X74101883Y-45821212D01*
X74129628Y-45796971D01*
X74176536Y-45718461D01*
X74195443Y-45660270D01*
X74205500Y-45596768D01*
X74205500Y-44099000D01*
X74202970Y-44066856D01*
X74198125Y-44036263D01*
X74198116Y-44036206D01*
X74197353Y-44031718D01*
X74197352Y-44031713D01*
X74161408Y-43947617D01*
X74125444Y-43898117D01*
X74101203Y-43870372D01*
X74022693Y-43823464D01*
X74022691Y-43823463D01*
X74022689Y-43823462D01*
X73964499Y-43804556D01*
X73964500Y-43804556D01*
X73901003Y-43794500D01*
X73901000Y-43794500D01*
X71328018Y-43794500D01*
X71269827Y-43775593D01*
X71233863Y-43726093D01*
X71233863Y-43664907D01*
X71237965Y-43654373D01*
X71262796Y-43600002D01*
X71284374Y-43552753D01*
X71298063Y-43457543D01*
X71304856Y-43410298D01*
X71304856Y-43410294D01*
X71299743Y-43374735D01*
X71310176Y-43314446D01*
X71354053Y-43271803D01*
X71369597Y-43269568D01*
X71320407Y-43269568D01*
X71317446Y-43267417D01*
X71384552Y-43267417D01*
X71414616Y-43263095D01*
X71468730Y-43291648D01*
X71480050Y-43305643D01*
X71505805Y-43344188D01*
X71505810Y-43344193D01*
X71571963Y-43388396D01*
X71630299Y-43399999D01*
X71630303Y-43400000D01*
X72649999Y-43400000D01*
X72650000Y-43399998D01*
X72650000Y-42950001D01*
X72649999Y-42950000D01*
X71450001Y-42950000D01*
X71450000Y-42950001D01*
X71450000Y-43175413D01*
X71431093Y-43233604D01*
X71384552Y-43267417D01*
X71317446Y-43267417D01*
X71270907Y-43233604D01*
X71260947Y-43216540D01*
X71238587Y-43167581D01*
X71224586Y-43136923D01*
X71130337Y-43028153D01*
X71130336Y-43028152D01*
X71130335Y-43028151D01*
X71009266Y-42950345D01*
X71009263Y-42950343D01*
X71009262Y-42950343D01*
X71009259Y-42950342D01*
X70871173Y-42909796D01*
X70871170Y-42909796D01*
X70727248Y-42909796D01*
X70727244Y-42909796D01*
X70589158Y-42950342D01*
X70589151Y-42950345D01*
X70468081Y-43028152D01*
X70464326Y-43031406D01*
X70407965Y-43055219D01*
X70348371Y-43041357D01*
X70308306Y-42995114D01*
X70300500Y-42956582D01*
X70300500Y-42449999D01*
X71450000Y-42449999D01*
X71450001Y-42450000D01*
X72649999Y-42450000D01*
X72650000Y-42449998D01*
X72650000Y-42000001D01*
X72649999Y-42000000D01*
X71630299Y-42000000D01*
X71571963Y-42011603D01*
X71505810Y-42055806D01*
X71505806Y-42055810D01*
X71461603Y-42121963D01*
X71450000Y-42180299D01*
X71450000Y-42449999D01*
X70300500Y-42449999D01*
X70300500Y-41265937D01*
X70319407Y-41207746D01*
X70368907Y-41171782D01*
X70427389Y-41170947D01*
X70528039Y-41200500D01*
X70528041Y-41200500D01*
X70671959Y-41200500D01*
X70671961Y-41200500D01*
X70810053Y-41159953D01*
X70931128Y-41082143D01*
X70972264Y-41034668D01*
X71024660Y-41003073D01*
X71047083Y-41000500D01*
X71350500Y-41000500D01*
X71408691Y-41019407D01*
X71444655Y-41068907D01*
X71449500Y-41099500D01*
X71449500Y-41219746D01*
X71449501Y-41219758D01*
X71461132Y-41278227D01*
X71461134Y-41278233D01*
X71491500Y-41323678D01*
X71505448Y-41344552D01*
X71571769Y-41388867D01*
X71616231Y-41397711D01*
X71630241Y-41400498D01*
X71630246Y-41400498D01*
X71630252Y-41400500D01*
X71630253Y-41400500D01*
X74169747Y-41400500D01*
X74169748Y-41400500D01*
X74228231Y-41388867D01*
X74294552Y-41344552D01*
X74338867Y-41278231D01*
X74350500Y-41219748D01*
X74350500Y-40180252D01*
X74349899Y-40177233D01*
X74343299Y-40144050D01*
X74338867Y-40121769D01*
X74294552Y-40055448D01*
X74275110Y-40042457D01*
X74228233Y-40011134D01*
X74228231Y-40011133D01*
X74228228Y-40011132D01*
X74228227Y-40011132D01*
X74169758Y-39999501D01*
X74169748Y-39999500D01*
X74169747Y-39999500D01*
X72546217Y-39999500D01*
X72488026Y-39980593D01*
X72452062Y-39931093D01*
X72452062Y-39869907D01*
X72471398Y-39835669D01*
X72485877Y-39818957D01*
X72525377Y-39773373D01*
X72585165Y-39642457D01*
X72605647Y-39500000D01*
X72605647Y-39499500D01*
X72605776Y-39499101D01*
X72606655Y-39492991D01*
X72607712Y-39493143D01*
X72624554Y-39441309D01*
X72674054Y-39405345D01*
X72704647Y-39400500D01*
X73884521Y-39400500D01*
X73942712Y-39419407D01*
X73954525Y-39429496D01*
X74970504Y-40445475D01*
X74998281Y-40499992D01*
X74999500Y-40515479D01*
X74999500Y-42199605D01*
X74980593Y-42257796D01*
X74931093Y-42293760D01*
X74872614Y-42294596D01*
X74865466Y-42292497D01*
X74865457Y-42292496D01*
X74721535Y-42292496D01*
X74721531Y-42292496D01*
X74583445Y-42333042D01*
X74583438Y-42333045D01*
X74502523Y-42385046D01*
X74443348Y-42400601D01*
X74386331Y-42378402D01*
X74353252Y-42326929D01*
X74350000Y-42301762D01*
X74350000Y-42180302D01*
X74349999Y-42180299D01*
X74338396Y-42121963D01*
X74294193Y-42055810D01*
X74294189Y-42055806D01*
X74228036Y-42011603D01*
X74169700Y-42000000D01*
X73150000Y-42000000D01*
X73150000Y-43399999D01*
X73150001Y-43400000D01*
X74169697Y-43400000D01*
X74169700Y-43399999D01*
X74228036Y-43388396D01*
X74294189Y-43344193D01*
X74294193Y-43344189D01*
X74338396Y-43278036D01*
X74338396Y-43278034D01*
X74342240Y-43258710D01*
X74372134Y-43205325D01*
X74427698Y-43179707D01*
X74487708Y-43191641D01*
X74492861Y-43194736D01*
X74583438Y-43252946D01*
X74583443Y-43252949D01*
X74721535Y-43293496D01*
X74728329Y-43295491D01*
X74727299Y-43298998D01*
X74768462Y-43318502D01*
X74797795Y-43372197D01*
X74799500Y-43390489D01*
X74799500Y-45119746D01*
X74799501Y-45119758D01*
X74811132Y-45178227D01*
X74811134Y-45178233D01*
X74855445Y-45244548D01*
X74855448Y-45244552D01*
X74921769Y-45288867D01*
X74966231Y-45297711D01*
X74980241Y-45300498D01*
X74980246Y-45300498D01*
X74980252Y-45300500D01*
X74980253Y-45300500D01*
X76019744Y-45300500D01*
X76019748Y-45300500D01*
X76019751Y-45300499D01*
X76020799Y-45300396D01*
X76021273Y-45300500D01*
X76024612Y-45300500D01*
X76024612Y-45301232D01*
X76080564Y-45313501D01*
X76121212Y-45359233D01*
X76127216Y-45420123D01*
X76122179Y-45435218D01*
X76121111Y-45438855D01*
X76100630Y-45581309D01*
X76100630Y-45581314D01*
X76121111Y-45723768D01*
X76176303Y-45844619D01*
X76180900Y-45854685D01*
X76262204Y-45948515D01*
X76275150Y-45963456D01*
X76358538Y-46017046D01*
X76397269Y-46064412D01*
X76400763Y-46125497D01*
X76386492Y-46156567D01*
X76375629Y-46172304D01*
X76375626Y-46172311D01*
X76315351Y-46331241D01*
X76315348Y-46331250D01*
X76294859Y-46499998D01*
X76294859Y-46500001D01*
X76315348Y-46668749D01*
X76315349Y-46668750D01*
X76359989Y-46786455D01*
X76646448Y-46499998D01*
X77353553Y-46499998D01*
X77640010Y-46786455D01*
X77684649Y-46668754D01*
X77684651Y-46668749D01*
X77705141Y-46500001D01*
X78294859Y-46500001D01*
X78315348Y-46668749D01*
X78315349Y-46668750D01*
X78359989Y-46786455D01*
X78646445Y-46500000D01*
X78646444Y-46499999D01*
X79353553Y-46499999D01*
X79640010Y-46786456D01*
X79684649Y-46668754D01*
X79684651Y-46668749D01*
X79705141Y-46500001D01*
X80294859Y-46500001D01*
X80315348Y-46668749D01*
X80315349Y-46668750D01*
X80359988Y-46786454D01*
X80646444Y-46499999D01*
X81353553Y-46499999D01*
X81640010Y-46786456D01*
X81684649Y-46668754D01*
X81684651Y-46668749D01*
X81705141Y-46500001D01*
X82294859Y-46500001D01*
X82315348Y-46668749D01*
X82315349Y-46668750D01*
X82359988Y-46786454D01*
X82646444Y-46499999D01*
X83353553Y-46499999D01*
X83640010Y-46786456D01*
X83684649Y-46668754D01*
X83684651Y-46668749D01*
X83705141Y-46500001D01*
X84294859Y-46500001D01*
X84315348Y-46668749D01*
X84315349Y-46668750D01*
X84359989Y-46786455D01*
X84646445Y-46500000D01*
X84359989Y-46213544D01*
X84315349Y-46331249D01*
X84315348Y-46331250D01*
X84294859Y-46499998D01*
X84294859Y-46500001D01*
X83705141Y-46500001D01*
X83705141Y-46499998D01*
X83684651Y-46331250D01*
X83684649Y-46331244D01*
X83640009Y-46213542D01*
X83353553Y-46499999D01*
X82646444Y-46499999D01*
X82646445Y-46499998D01*
X82359989Y-46213543D01*
X82315349Y-46331249D01*
X82315348Y-46331250D01*
X82294859Y-46499998D01*
X82294859Y-46500001D01*
X81705141Y-46500001D01*
X81705141Y-46499998D01*
X81684651Y-46331250D01*
X81684649Y-46331244D01*
X81640009Y-46213542D01*
X81353553Y-46499999D01*
X80646444Y-46499999D01*
X80646445Y-46499998D01*
X80359989Y-46213543D01*
X80315349Y-46331249D01*
X80315348Y-46331250D01*
X80294859Y-46499998D01*
X80294859Y-46500001D01*
X79705141Y-46500001D01*
X79705141Y-46499998D01*
X79684651Y-46331250D01*
X79684649Y-46331244D01*
X79640009Y-46213542D01*
X79353553Y-46499999D01*
X78646444Y-46499999D01*
X78359989Y-46213544D01*
X78315349Y-46331249D01*
X78315348Y-46331250D01*
X78294859Y-46499998D01*
X78294859Y-46500001D01*
X77705141Y-46500001D01*
X77705141Y-46499998D01*
X77684651Y-46331250D01*
X77684649Y-46331245D01*
X77640009Y-46213543D01*
X77353553Y-46499998D01*
X76646448Y-46499998D01*
X76992930Y-46153518D01*
X77286586Y-45859859D01*
X77286584Y-45859858D01*
X78713413Y-45859858D01*
X79000000Y-46146445D01*
X79286586Y-45859859D01*
X79286584Y-45859858D01*
X80713413Y-45859858D01*
X81000000Y-46146445D01*
X81286586Y-45859859D01*
X81286584Y-45859858D01*
X82713413Y-45859858D01*
X83000000Y-46146445D01*
X83286586Y-45859859D01*
X83250043Y-45840681D01*
X83250042Y-45840680D01*
X83084997Y-45800000D01*
X82915004Y-45800000D01*
X82749955Y-45840681D01*
X82749947Y-45840684D01*
X82713413Y-45859858D01*
X81286584Y-45859858D01*
X81250043Y-45840681D01*
X81250042Y-45840680D01*
X81084997Y-45800000D01*
X80915004Y-45800000D01*
X80749955Y-45840681D01*
X80749947Y-45840684D01*
X80713413Y-45859858D01*
X79286584Y-45859858D01*
X79250043Y-45840681D01*
X79250042Y-45840680D01*
X79084997Y-45800000D01*
X78915004Y-45800000D01*
X78749955Y-45840681D01*
X78749947Y-45840684D01*
X78713413Y-45859858D01*
X77286584Y-45859858D01*
X77250043Y-45840681D01*
X77250044Y-45840681D01*
X77167696Y-45820384D01*
X77115721Y-45788100D01*
X77092649Y-45731431D01*
X77093397Y-45710172D01*
X77111924Y-45581314D01*
X77111924Y-45581309D01*
X77091442Y-45438855D01*
X77089448Y-45432062D01*
X77091208Y-45431544D01*
X77085278Y-45379835D01*
X77115367Y-45326560D01*
X77171024Y-45301145D01*
X77182305Y-45300500D01*
X78019747Y-45300500D01*
X78019748Y-45300500D01*
X78078231Y-45288867D01*
X78144552Y-45244552D01*
X78188867Y-45178231D01*
X78200500Y-45119748D01*
X78200499Y-43362492D01*
X78219406Y-43304302D01*
X78268906Y-43268338D01*
X78271609Y-43267503D01*
X78279006Y-43265331D01*
X78279231Y-43265265D01*
X78400306Y-43187455D01*
X78441442Y-43139980D01*
X78493838Y-43108385D01*
X78516261Y-43105812D01*
X78713567Y-43105812D01*
X78771758Y-43124719D01*
X78807722Y-43174219D01*
X78810664Y-43224128D01*
X78799500Y-43280243D01*
X78799500Y-45119746D01*
X78799501Y-45119758D01*
X78811132Y-45178227D01*
X78811134Y-45178233D01*
X78855445Y-45244548D01*
X78855448Y-45244552D01*
X78921769Y-45288867D01*
X78966231Y-45297711D01*
X78980241Y-45300498D01*
X78980246Y-45300498D01*
X78980252Y-45300500D01*
X78980253Y-45300500D01*
X80019747Y-45300500D01*
X80019748Y-45300500D01*
X80078231Y-45288867D01*
X80144552Y-45244552D01*
X80188867Y-45178231D01*
X80200500Y-45119748D01*
X80200500Y-43280252D01*
X80200098Y-43278233D01*
X80192584Y-43240455D01*
X80188867Y-43221769D01*
X80144552Y-43155448D01*
X80144548Y-43155445D01*
X80078233Y-43111134D01*
X80078231Y-43111133D01*
X80078228Y-43111132D01*
X80078227Y-43111132D01*
X80019758Y-43099501D01*
X80019748Y-43099500D01*
X80019747Y-43099500D01*
X79364478Y-43099500D01*
X79306287Y-43080593D01*
X79270323Y-43031093D01*
X79270323Y-42969907D01*
X79294474Y-42930496D01*
X79932474Y-42292496D01*
X80666407Y-41558563D01*
X80677665Y-41550494D01*
X80676905Y-41549487D01*
X80684221Y-41543961D01*
X80684228Y-41543958D01*
X80716643Y-41508398D01*
X80718155Y-41506815D01*
X80732175Y-41492797D01*
X80734188Y-41489857D01*
X80738437Y-41484492D01*
X80759916Y-41460933D01*
X80763465Y-41451769D01*
X80774111Y-41431575D01*
X80779657Y-41423480D01*
X80786956Y-41392443D01*
X80788980Y-41385908D01*
X80800500Y-41356173D01*
X80800500Y-41346348D01*
X80803129Y-41323683D01*
X80805379Y-41314119D01*
X80800973Y-41282533D01*
X80800499Y-41275714D01*
X80800499Y-34965173D01*
X80802731Y-34951498D01*
X80801504Y-34951327D01*
X80802773Y-34942233D01*
X80801964Y-34924750D01*
X80800552Y-34894207D01*
X80800500Y-34891928D01*
X80800500Y-34872160D01*
X80800500Y-34872156D01*
X80799846Y-34868664D01*
X80799056Y-34861859D01*
X80797585Y-34830008D01*
X80793614Y-34821016D01*
X80786864Y-34799214D01*
X80785760Y-34793310D01*
X80785061Y-34789567D01*
X80768276Y-34762458D01*
X80765088Y-34756410D01*
X80752206Y-34727234D01*
X80752205Y-34727233D01*
X80752204Y-34727231D01*
X80745254Y-34720281D01*
X80731088Y-34702395D01*
X80725921Y-34694050D01*
X80725919Y-34694048D01*
X80700487Y-34674842D01*
X80695310Y-34670337D01*
X78958565Y-32933594D01*
X78950479Y-32922344D01*
X78949487Y-32923094D01*
X78943958Y-32915772D01*
X78908428Y-32883382D01*
X78906775Y-32881804D01*
X78892797Y-32867826D01*
X78889859Y-32865813D01*
X78884496Y-32861564D01*
X78860933Y-32840084D01*
X78851762Y-32836531D01*
X78831586Y-32825895D01*
X78823484Y-32820345D01*
X78823479Y-32820343D01*
X78792457Y-32813046D01*
X78785902Y-32811016D01*
X78756177Y-32799501D01*
X78756174Y-32799500D01*
X78756173Y-32799500D01*
X78756172Y-32799500D01*
X78746348Y-32799500D01*
X78723683Y-32796870D01*
X78714119Y-32794621D01*
X78714118Y-32794621D01*
X78682547Y-32799025D01*
X78675701Y-32799500D01*
X74449500Y-32799500D01*
X74391309Y-32780593D01*
X74355345Y-32731093D01*
X74350500Y-32700500D01*
X74350500Y-32413207D01*
X74369407Y-32355016D01*
X74418907Y-32319052D01*
X74477388Y-32318217D01*
X74577694Y-32347669D01*
X74577696Y-32347669D01*
X74721615Y-32347669D01*
X74721616Y-32347669D01*
X74721617Y-32347668D01*
X74721621Y-32347668D01*
X74793274Y-32326628D01*
X74815150Y-32320204D01*
X74829385Y-32317141D01*
X74832056Y-32316768D01*
X74835301Y-32316317D01*
X74842132Y-32315844D01*
X78267737Y-32315844D01*
X79158707Y-32315844D01*
X79216898Y-32334751D01*
G37*
%TD.AperFunction*%
%TA.AperFunction,Conductor*%
G36*
X90645445Y-45976268D02*
G01*
X90688710Y-46019533D01*
X90699500Y-46064478D01*
X90699500Y-50822472D01*
X90680593Y-50880663D01*
X90631093Y-50916627D01*
X90569907Y-50916627D01*
X90535671Y-50897293D01*
X90531127Y-50893356D01*
X90410057Y-50815549D01*
X90410054Y-50815548D01*
X90410053Y-50815547D01*
X90382081Y-50807333D01*
X90362537Y-50801595D01*
X90312030Y-50767059D01*
X90291469Y-50709431D01*
X90308708Y-50650725D01*
X90315597Y-50641789D01*
X90374880Y-50573373D01*
X90434668Y-50442457D01*
X90455150Y-50300000D01*
X90434668Y-50157543D01*
X90374880Y-50026627D01*
X90280631Y-49917857D01*
X90280630Y-49917856D01*
X90280629Y-49917855D01*
X90159560Y-49840049D01*
X90159557Y-49840047D01*
X90159556Y-49840047D01*
X90159553Y-49840046D01*
X90021467Y-49799500D01*
X90021464Y-49799500D01*
X89914982Y-49799500D01*
X89856791Y-49780593D01*
X89844978Y-49770504D01*
X89842330Y-49767856D01*
X89814553Y-49713339D01*
X89824124Y-49652907D01*
X89830845Y-49641634D01*
X89874818Y-49577930D01*
X89935140Y-49418872D01*
X89954435Y-49259963D01*
X89955645Y-49250001D01*
X89955645Y-49249998D01*
X89949582Y-49200068D01*
X89935140Y-49081128D01*
X89874818Y-48922070D01*
X89778183Y-48782071D01*
X89650852Y-48669266D01*
X89500225Y-48590210D01*
X89500224Y-48590209D01*
X89500223Y-48590209D01*
X89335058Y-48549500D01*
X89335056Y-48549500D01*
X89164944Y-48549500D01*
X89164941Y-48549500D01*
X88999776Y-48590209D01*
X88849146Y-48669267D01*
X88721818Y-48782069D01*
X88721816Y-48782072D01*
X88625180Y-48922072D01*
X88620049Y-48935604D01*
X88581736Y-48983310D01*
X88527482Y-48999500D01*
X88428039Y-48999500D01*
X88428038Y-48999500D01*
X88428030Y-48999501D01*
X88418106Y-49002415D01*
X88356946Y-49000665D01*
X88308495Y-48963299D01*
X88291261Y-48904591D01*
X88292228Y-48893335D01*
X88297374Y-48857543D01*
X88305647Y-48800000D01*
X88303069Y-48782072D01*
X88285165Y-48657543D01*
X88280864Y-48648126D01*
X88225377Y-48526627D01*
X88181508Y-48475999D01*
X88157690Y-48419640D01*
X88171548Y-48360045D01*
X88204213Y-48326995D01*
X88205952Y-48325919D01*
X88225165Y-48300474D01*
X88229662Y-48295308D01*
X89402514Y-47122456D01*
X90530497Y-45994472D01*
X90585013Y-45966697D01*
X90645445Y-45976268D01*
G37*
%TD.AperFunction*%
%TA.AperFunction,Conductor*%
G36*
X90067441Y-41895663D02*
G01*
X90097528Y-41948940D01*
X90099500Y-41968600D01*
X90099500Y-45534520D01*
X90080593Y-45592711D01*
X90070504Y-45604524D01*
X88623183Y-47051845D01*
X88568666Y-47079622D01*
X88508234Y-47070051D01*
X88464969Y-47026786D01*
X88455398Y-46966354D01*
X88463124Y-46940719D01*
X88485165Y-46892457D01*
X88485165Y-46892455D01*
X88485166Y-46892454D01*
X88505647Y-46750002D01*
X88505647Y-46749997D01*
X88485165Y-46607543D01*
X88425377Y-46476627D01*
X88420868Y-46471424D01*
X88387603Y-46433032D01*
X88363786Y-46376673D01*
X88377645Y-46317078D01*
X88392415Y-46298203D01*
X88812883Y-45877737D01*
X88820240Y-45869547D01*
X88840327Y-45844619D01*
X88877490Y-45773574D01*
X88897175Y-45706535D01*
X88905500Y-45648637D01*
X88905500Y-44037053D01*
X88905363Y-44030120D01*
X88905362Y-44030114D01*
X88894639Y-43968553D01*
X88894638Y-43968550D01*
X88894637Y-43968549D01*
X88894637Y-43968545D01*
X88872319Y-43902336D01*
X88845937Y-43850131D01*
X88640235Y-43556272D01*
X88622355Y-43497759D01*
X88642283Y-43439909D01*
X88692408Y-43404822D01*
X88721340Y-43400500D01*
X89369747Y-43400500D01*
X89369748Y-43400500D01*
X89428231Y-43388867D01*
X89494552Y-43344552D01*
X89538867Y-43278231D01*
X89550500Y-43219748D01*
X89550500Y-42257026D01*
X89569407Y-42198835D01*
X89618907Y-42162871D01*
X89621560Y-42162051D01*
X89681200Y-42144540D01*
X89802275Y-42066730D01*
X89896524Y-41957960D01*
X89910447Y-41927472D01*
X89951818Y-41882396D01*
X90011785Y-41870245D01*
X90067441Y-41895663D01*
G37*
%TD.AperFunction*%
%TA.AperFunction,Conductor*%
G36*
X78392712Y-34519407D02*
G01*
X78404524Y-34529496D01*
X78870503Y-34995474D01*
X78898281Y-35049991D01*
X78899500Y-35065478D01*
X78899500Y-40943324D01*
X78880593Y-41001515D01*
X78870504Y-41013328D01*
X78370489Y-41513342D01*
X78315972Y-41541119D01*
X78255540Y-41531548D01*
X78250034Y-41528386D01*
X78248901Y-41527869D01*
X78248900Y-41527868D01*
X78248897Y-41527867D01*
X78110811Y-41487321D01*
X78110808Y-41487321D01*
X77966886Y-41487321D01*
X77966882Y-41487321D01*
X77828796Y-41527867D01*
X77828789Y-41527870D01*
X77707720Y-41605676D01*
X77613469Y-41714449D01*
X77553681Y-41845364D01*
X77533200Y-41987818D01*
X77533200Y-41987823D01*
X77553681Y-42130277D01*
X77613470Y-42261194D01*
X77689759Y-42349237D01*
X77713577Y-42405596D01*
X77699718Y-42465192D01*
X77689760Y-42478898D01*
X77643801Y-42531938D01*
X77584012Y-42662855D01*
X77563531Y-42805309D01*
X77563531Y-42805314D01*
X77584012Y-42947768D01*
X77589312Y-42959373D01*
X77596287Y-43020160D01*
X77566201Y-43073437D01*
X77510545Y-43098855D01*
X77499259Y-43099500D01*
X76980252Y-43099500D01*
X76980251Y-43099500D01*
X76980241Y-43099501D01*
X76921772Y-43111132D01*
X76921766Y-43111134D01*
X76855451Y-43155445D01*
X76855445Y-43155451D01*
X76811134Y-43221766D01*
X76811132Y-43221772D01*
X76799501Y-43280241D01*
X76799500Y-43280253D01*
X76799500Y-44984169D01*
X76780593Y-45042360D01*
X76731093Y-45078324D01*
X76685657Y-45078973D01*
X76685248Y-45081820D01*
X76678239Y-45080812D01*
X76678238Y-45080812D01*
X76534316Y-45080812D01*
X76534312Y-45080812D01*
X76396226Y-45121358D01*
X76396219Y-45121361D01*
X76353023Y-45149122D01*
X76293848Y-45164677D01*
X76236831Y-45142478D01*
X76203752Y-45091005D01*
X76200500Y-45065838D01*
X76200500Y-43280253D01*
X76200498Y-43280241D01*
X76192584Y-43240455D01*
X76188867Y-43221769D01*
X76144552Y-43155448D01*
X76121404Y-43139981D01*
X76076498Y-43109975D01*
X76038619Y-43061925D01*
X76036217Y-43000787D01*
X76041443Y-42986543D01*
X76100323Y-42857616D01*
X76120805Y-42715159D01*
X76116058Y-42682144D01*
X76100323Y-42572702D01*
X76069318Y-42504812D01*
X76040535Y-42441786D01*
X75946286Y-42333016D01*
X75946285Y-42333015D01*
X75946284Y-42333014D01*
X75825215Y-42255208D01*
X75825212Y-42255206D01*
X75825211Y-42255206D01*
X75825208Y-42255205D01*
X75687113Y-42214657D01*
X75685402Y-42214411D01*
X75684108Y-42213774D01*
X75680325Y-42212664D01*
X75680517Y-42212008D01*
X75630497Y-42187410D01*
X75601948Y-42133293D01*
X75600500Y-42116420D01*
X75600500Y-41841345D01*
X75600500Y-41565933D01*
X75619406Y-41507746D01*
X75668906Y-41471782D01*
X75727390Y-41470947D01*
X75783155Y-41487321D01*
X75823244Y-41499092D01*
X75873751Y-41533628D01*
X75894313Y-41591255D01*
X75894353Y-41594082D01*
X75894353Y-41600002D01*
X75914834Y-41742456D01*
X75967394Y-41857544D01*
X75974623Y-41873373D01*
X76057137Y-41968600D01*
X76068873Y-41982144D01*
X76138092Y-42026628D01*
X76189947Y-42059953D01*
X76296403Y-42091211D01*
X76328035Y-42100499D01*
X76328036Y-42100499D01*
X76328039Y-42100500D01*
X76328041Y-42100500D01*
X76471959Y-42100500D01*
X76471961Y-42100500D01*
X76610053Y-42059953D01*
X76731128Y-41982143D01*
X76825377Y-41873373D01*
X76885165Y-41742457D01*
X76903080Y-41617857D01*
X76905647Y-41600002D01*
X76905647Y-41599999D01*
X76900749Y-41565937D01*
X76896641Y-41537365D01*
X76907073Y-41477078D01*
X76941105Y-41439996D01*
X77031128Y-41382143D01*
X77125377Y-41273373D01*
X77185165Y-41142457D01*
X77193497Y-41084503D01*
X77205647Y-41000002D01*
X77205647Y-40999997D01*
X77185165Y-40857543D01*
X77164772Y-40812889D01*
X77125377Y-40726627D01*
X77031128Y-40617857D01*
X77031127Y-40617856D01*
X77031126Y-40617855D01*
X76910057Y-40540049D01*
X76910054Y-40540047D01*
X76910053Y-40540047D01*
X76910050Y-40540046D01*
X76771964Y-40499500D01*
X76771961Y-40499500D01*
X76628039Y-40499500D01*
X76628035Y-40499500D01*
X76489949Y-40540046D01*
X76489942Y-40540049D01*
X76368872Y-40617856D01*
X76364830Y-40621359D01*
X76308471Y-40645176D01*
X76248876Y-40631317D01*
X76235170Y-40621359D01*
X76231127Y-40617856D01*
X76110057Y-40540049D01*
X76110054Y-40540047D01*
X76110053Y-40540047D01*
X76110050Y-40540046D01*
X75971964Y-40499500D01*
X75971961Y-40499500D01*
X75828039Y-40499500D01*
X75828035Y-40499500D01*
X75727391Y-40529052D01*
X75666230Y-40527304D01*
X75617778Y-40489941D01*
X75600500Y-40434062D01*
X75600500Y-40415168D01*
X75602731Y-40401495D01*
X75601505Y-40401324D01*
X75602773Y-40392232D01*
X75601281Y-40359953D01*
X75600552Y-40344207D01*
X75600500Y-40341928D01*
X75600500Y-40322160D01*
X75600500Y-40322156D01*
X75599846Y-40318664D01*
X75599056Y-40311859D01*
X75597585Y-40280008D01*
X75593614Y-40271016D01*
X75586864Y-40249214D01*
X75585150Y-40240046D01*
X75585061Y-40239567D01*
X75568276Y-40212458D01*
X75565088Y-40206410D01*
X75552206Y-40177234D01*
X75552205Y-40177233D01*
X75552204Y-40177231D01*
X75545254Y-40170281D01*
X75531088Y-40152395D01*
X75525921Y-40144050D01*
X75525919Y-40144048D01*
X75500487Y-40124842D01*
X75495310Y-40120337D01*
X75000475Y-39625502D01*
X75579012Y-39625502D01*
X75599493Y-39767956D01*
X75656156Y-39892028D01*
X75659282Y-39898873D01*
X75739709Y-39991691D01*
X75753532Y-40007644D01*
X75874601Y-40085450D01*
X75874606Y-40085453D01*
X75981062Y-40116711D01*
X76012694Y-40125999D01*
X76012695Y-40125999D01*
X76012698Y-40126000D01*
X76012700Y-40126000D01*
X76156618Y-40126000D01*
X76156620Y-40126000D01*
X76294712Y-40085453D01*
X76415787Y-40007643D01*
X76510036Y-39898873D01*
X76569824Y-39767957D01*
X76590306Y-39625500D01*
X76583945Y-39581260D01*
X76594378Y-39520972D01*
X76628416Y-39483885D01*
X76631128Y-39482143D01*
X76725377Y-39373373D01*
X76785165Y-39242457D01*
X76791992Y-39194971D01*
X76805647Y-39100002D01*
X76805647Y-39099997D01*
X76785165Y-38957543D01*
X76731999Y-38841127D01*
X76725024Y-38780340D01*
X76731999Y-38758873D01*
X76750023Y-38719407D01*
X76785165Y-38642457D01*
X76802771Y-38520002D01*
X76805647Y-38500002D01*
X76805647Y-38499997D01*
X76785165Y-38357543D01*
X76765324Y-38314098D01*
X76725377Y-38226627D01*
X76631128Y-38117857D01*
X76631127Y-38117856D01*
X76631126Y-38117855D01*
X76510057Y-38040049D01*
X76510054Y-38040047D01*
X76510053Y-38040047D01*
X76510050Y-38040046D01*
X76371964Y-37999500D01*
X76371961Y-37999500D01*
X76228039Y-37999500D01*
X76228035Y-37999500D01*
X76089949Y-38040046D01*
X76089942Y-38040049D01*
X75968873Y-38117855D01*
X75874622Y-38226628D01*
X75814834Y-38357543D01*
X75794353Y-38499997D01*
X75794353Y-38500002D01*
X75814833Y-38642454D01*
X75868001Y-38758874D01*
X75874975Y-38819660D01*
X75868001Y-38841126D01*
X75814833Y-38957545D01*
X75794353Y-39099997D01*
X75794353Y-39100002D01*
X75800713Y-39144239D01*
X75790280Y-39204529D01*
X75756248Y-39241610D01*
X75753533Y-39243354D01*
X75659281Y-39352128D01*
X75599493Y-39483043D01*
X75579012Y-39625497D01*
X75579012Y-39625502D01*
X75000475Y-39625502D01*
X74379496Y-39004524D01*
X74351719Y-38950007D01*
X74350500Y-38934520D01*
X74350500Y-38180253D01*
X74350498Y-38180241D01*
X74347243Y-38163877D01*
X74338867Y-38121769D01*
X74337915Y-38120345D01*
X74294554Y-38055451D01*
X74294552Y-38055448D01*
X74286363Y-38049976D01*
X74228233Y-38011134D01*
X74228231Y-38011133D01*
X74228228Y-38011132D01*
X74228227Y-38011132D01*
X74169758Y-37999501D01*
X74169748Y-37999500D01*
X71630252Y-37999500D01*
X71630251Y-37999500D01*
X71630241Y-37999501D01*
X71571772Y-38011132D01*
X71571766Y-38011134D01*
X71505451Y-38055445D01*
X71505444Y-38055452D01*
X71473812Y-38102792D01*
X71462801Y-38111472D01*
X71461855Y-38118139D01*
X71449500Y-38180249D01*
X71449500Y-39219746D01*
X71449501Y-39219758D01*
X71461132Y-39278227D01*
X71461133Y-39278231D01*
X71505448Y-39344552D01*
X71505451Y-39344554D01*
X71505452Y-39344555D01*
X71555082Y-39377717D01*
X71592962Y-39425766D01*
X71598074Y-39474119D01*
X71594483Y-39499101D01*
X71594353Y-39500002D01*
X71614834Y-39642456D01*
X71674623Y-39773373D01*
X71728602Y-39835669D01*
X71752420Y-39892028D01*
X71738561Y-39951624D01*
X71692320Y-39991691D01*
X71653783Y-39999500D01*
X71630252Y-39999500D01*
X71630251Y-39999500D01*
X71630241Y-39999501D01*
X71571772Y-40011132D01*
X71571766Y-40011134D01*
X71505451Y-40055445D01*
X71505445Y-40055451D01*
X71461134Y-40121766D01*
X71461132Y-40121772D01*
X71449501Y-40180241D01*
X71449500Y-40180253D01*
X71449500Y-40300500D01*
X71430593Y-40358691D01*
X71381093Y-40394655D01*
X71350500Y-40399500D01*
X71047083Y-40399500D01*
X70988892Y-40380593D01*
X70972264Y-40365331D01*
X70967604Y-40359953D01*
X70931128Y-40317857D01*
X70898182Y-40296684D01*
X70810057Y-40240049D01*
X70810054Y-40240047D01*
X70810053Y-40240047D01*
X70808422Y-40239568D01*
X70671964Y-40199500D01*
X70671961Y-40199500D01*
X70528039Y-40199500D01*
X70528035Y-40199500D01*
X70427391Y-40229052D01*
X70366230Y-40227304D01*
X70317778Y-40189941D01*
X70300500Y-40134062D01*
X70300500Y-38144131D01*
X70319407Y-38085940D01*
X70368907Y-38049976D01*
X70430093Y-38049976D01*
X70474318Y-38079298D01*
X70528161Y-38141437D01*
X70531373Y-38145144D01*
X70627939Y-38207203D01*
X70652447Y-38222953D01*
X70733078Y-38246628D01*
X70790535Y-38263499D01*
X70790536Y-38263499D01*
X70790539Y-38263500D01*
X70790541Y-38263500D01*
X70934459Y-38263500D01*
X70934461Y-38263500D01*
X71072553Y-38222953D01*
X71193628Y-38145143D01*
X71287877Y-38036373D01*
X71287878Y-38036369D01*
X71289937Y-38033994D01*
X71296883Y-38029804D01*
X71301444Y-38006664D01*
X71347665Y-37905457D01*
X71368147Y-37763000D01*
X71361314Y-37715478D01*
X71347665Y-37620543D01*
X71333482Y-37589488D01*
X71287877Y-37489627D01*
X71193628Y-37380857D01*
X71193627Y-37380856D01*
X71193626Y-37380855D01*
X71072557Y-37303049D01*
X71072554Y-37303048D01*
X71072553Y-37303047D01*
X71038232Y-37292969D01*
X70987726Y-37258434D01*
X70967165Y-37200807D01*
X70984403Y-37142100D01*
X71012602Y-37114696D01*
X71125495Y-37042144D01*
X71125494Y-37042144D01*
X71125497Y-37042143D01*
X71219746Y-36933373D01*
X71243142Y-36882143D01*
X71260447Y-36844252D01*
X71301819Y-36799174D01*
X71361785Y-36787023D01*
X71417442Y-36812441D01*
X71447528Y-36865718D01*
X71449500Y-36885378D01*
X71449500Y-37219746D01*
X71449501Y-37219758D01*
X71461132Y-37278227D01*
X71461134Y-37278233D01*
X71505111Y-37344048D01*
X71505448Y-37344552D01*
X71571769Y-37388867D01*
X71616231Y-37397711D01*
X71630241Y-37400498D01*
X71630246Y-37400498D01*
X71630252Y-37400500D01*
X71630253Y-37400500D01*
X74169747Y-37400500D01*
X74169748Y-37400500D01*
X74228231Y-37388867D01*
X74294552Y-37344552D01*
X74338867Y-37278231D01*
X74350500Y-37219748D01*
X74350500Y-37219732D01*
X74350711Y-37217596D01*
X74351110Y-37216681D01*
X74351450Y-37214977D01*
X74351823Y-37215051D01*
X74375224Y-37161536D01*
X74428007Y-37130590D01*
X74468552Y-37130190D01*
X74505294Y-37137499D01*
X74505303Y-37137500D01*
X76024999Y-37137500D01*
X76025000Y-37137499D01*
X76025000Y-36719992D01*
X76175000Y-36719992D01*
X76213197Y-36772565D01*
X76259162Y-36787500D01*
X76290838Y-36787500D01*
X76336803Y-36772565D01*
X76375000Y-36719992D01*
X76375000Y-36655008D01*
X76336803Y-36602435D01*
X76290838Y-36587500D01*
X76259162Y-36587500D01*
X76213197Y-36602435D01*
X76175000Y-36655008D01*
X76175000Y-36719992D01*
X76025000Y-36719992D01*
X76025000Y-36187500D01*
X76525000Y-36187500D01*
X76525000Y-37137499D01*
X76525001Y-37137500D01*
X78044697Y-37137500D01*
X78044700Y-37137499D01*
X78103036Y-37125896D01*
X78169189Y-37081693D01*
X78169193Y-37081689D01*
X78213396Y-37015536D01*
X78224999Y-36957200D01*
X78225000Y-36957197D01*
X78225000Y-36726759D01*
X78226008Y-36712668D01*
X78229627Y-36687500D01*
X78229627Y-36687498D01*
X78226008Y-36662330D01*
X78225000Y-36648240D01*
X78225000Y-36187500D01*
X76525000Y-36187500D01*
X76025000Y-36187500D01*
X74432243Y-36187500D01*
X74374052Y-36168593D01*
X74340779Y-36126385D01*
X74338867Y-36121769D01*
X74294554Y-36055451D01*
X74294552Y-36055448D01*
X74294548Y-36055445D01*
X74228233Y-36011134D01*
X74228231Y-36011133D01*
X74228228Y-36011132D01*
X74228227Y-36011132D01*
X74169758Y-35999501D01*
X74169748Y-35999500D01*
X74169747Y-35999500D01*
X73866714Y-35999500D01*
X73808523Y-35980593D01*
X73772559Y-35931093D01*
X73768722Y-35886411D01*
X73781145Y-35800003D01*
X73781145Y-35799997D01*
X73760663Y-35657543D01*
X73707269Y-35540627D01*
X73700294Y-35479840D01*
X73730380Y-35426563D01*
X73786036Y-35401145D01*
X73797322Y-35400500D01*
X74169747Y-35400500D01*
X74169748Y-35400500D01*
X74169749Y-35400499D01*
X74169755Y-35400499D01*
X74200998Y-35394284D01*
X74206683Y-35393153D01*
X74267444Y-35400343D01*
X74312375Y-35441875D01*
X74324999Y-35490250D01*
X74324999Y-35687498D01*
X74325001Y-35687500D01*
X76024999Y-35687500D01*
X76025000Y-35687499D01*
X76025000Y-35219992D01*
X76175000Y-35219992D01*
X76213197Y-35272565D01*
X76259162Y-35287500D01*
X76290838Y-35287500D01*
X76336803Y-35272565D01*
X76375000Y-35219992D01*
X76375000Y-35155008D01*
X76336803Y-35102435D01*
X76290838Y-35087500D01*
X76259162Y-35087500D01*
X76213197Y-35102435D01*
X76175000Y-35155008D01*
X76175000Y-35219992D01*
X76025000Y-35219992D01*
X76025000Y-34737500D01*
X76525000Y-34737500D01*
X76525000Y-35687499D01*
X76525001Y-35687500D01*
X78224999Y-35687500D01*
X78225000Y-35687499D01*
X78225000Y-35226759D01*
X78226008Y-35212668D01*
X78229627Y-35187500D01*
X78229627Y-35187498D01*
X78226008Y-35162330D01*
X78225000Y-35148240D01*
X78225000Y-34917802D01*
X78224999Y-34917799D01*
X78213396Y-34859463D01*
X78169193Y-34793310D01*
X78169189Y-34793306D01*
X78103036Y-34749103D01*
X78044700Y-34737500D01*
X76525000Y-34737500D01*
X76025000Y-34737500D01*
X74505294Y-34737500D01*
X74468812Y-34744757D01*
X74408051Y-34737564D01*
X74363122Y-34696031D01*
X74350500Y-34647659D01*
X74350500Y-34599500D01*
X74369407Y-34541309D01*
X74418907Y-34505345D01*
X74449500Y-34500500D01*
X78334521Y-34500500D01*
X78392712Y-34519407D01*
G37*
%TD.AperFunction*%
%TA.AperFunction,Conductor*%
G36*
X71432435Y-33231939D02*
G01*
X71454232Y-33270537D01*
X71457403Y-33269224D01*
X71461132Y-33278227D01*
X71461133Y-33278231D01*
X71505448Y-33344552D01*
X71571769Y-33388867D01*
X71616231Y-33397711D01*
X71630241Y-33400498D01*
X71630246Y-33400498D01*
X71630252Y-33400500D01*
X73243827Y-33400500D01*
X73253652Y-33400500D01*
X73276316Y-33403129D01*
X73285881Y-33405379D01*
X73310494Y-33401945D01*
X73317453Y-33400975D01*
X73324299Y-33400500D01*
X78534521Y-33400500D01*
X78592712Y-33419407D01*
X78604525Y-33429496D01*
X80170504Y-34995475D01*
X80198281Y-35049992D01*
X80199500Y-35065479D01*
X80199500Y-41134521D01*
X80180593Y-41192712D01*
X80170504Y-41204525D01*
X78899213Y-42475816D01*
X78844696Y-42503593D01*
X78829209Y-42504812D01*
X78516261Y-42504812D01*
X78458070Y-42485905D01*
X78441447Y-42470649D01*
X78418262Y-42443892D01*
X78394447Y-42387535D01*
X78408306Y-42327940D01*
X78418260Y-42314238D01*
X78461105Y-42264792D01*
X78486660Y-42245914D01*
X78486179Y-42245212D01*
X78493746Y-42240028D01*
X78493746Y-42240027D01*
X78493748Y-42240027D01*
X78500694Y-42233079D01*
X78518580Y-42218912D01*
X78526935Y-42213740D01*
X78546148Y-42188295D01*
X78550645Y-42183129D01*
X78906730Y-41827044D01*
X79366405Y-41367368D01*
X79377664Y-41359297D01*
X79376905Y-41358291D01*
X79384221Y-41352765D01*
X79384228Y-41352762D01*
X79416632Y-41317215D01*
X79418186Y-41315587D01*
X79432174Y-41301601D01*
X79434181Y-41298669D01*
X79438440Y-41293294D01*
X79459916Y-41269737D01*
X79463466Y-41260571D01*
X79474107Y-41240385D01*
X79479657Y-41232284D01*
X79486956Y-41201247D01*
X79488980Y-41194712D01*
X79500500Y-41164977D01*
X79500500Y-41155152D01*
X79503129Y-41132487D01*
X79505379Y-41122923D01*
X79500975Y-41091350D01*
X79500500Y-41084503D01*
X79500500Y-34965168D01*
X79502731Y-34951495D01*
X79501505Y-34951324D01*
X79502773Y-34942232D01*
X79500553Y-34894215D01*
X79500500Y-34891928D01*
X79500500Y-34872160D01*
X79500500Y-34872156D01*
X79499846Y-34868664D01*
X79499056Y-34861859D01*
X79497585Y-34830008D01*
X79493614Y-34821016D01*
X79486864Y-34799214D01*
X79485760Y-34793310D01*
X79485061Y-34789567D01*
X79468276Y-34762458D01*
X79465088Y-34756410D01*
X79452206Y-34727234D01*
X79452205Y-34727233D01*
X79452204Y-34727231D01*
X79445254Y-34720281D01*
X79431088Y-34702395D01*
X79425921Y-34694051D01*
X79425920Y-34694049D01*
X79400489Y-34674844D01*
X79395310Y-34670338D01*
X78758565Y-34033594D01*
X78750479Y-34022344D01*
X78749487Y-34023094D01*
X78743958Y-34015772D01*
X78736639Y-34009100D01*
X78708423Y-33983377D01*
X78706775Y-33981804D01*
X78692797Y-33967826D01*
X78689859Y-33965813D01*
X78684496Y-33961564D01*
X78660933Y-33940084D01*
X78651762Y-33936531D01*
X78631586Y-33925895D01*
X78623484Y-33920345D01*
X78623479Y-33920343D01*
X78592457Y-33913046D01*
X78585902Y-33911016D01*
X78556177Y-33899501D01*
X78556174Y-33899500D01*
X78556173Y-33899500D01*
X78556172Y-33899500D01*
X78546348Y-33899500D01*
X78523683Y-33896870D01*
X78514119Y-33894621D01*
X78514118Y-33894621D01*
X78482547Y-33899025D01*
X78475701Y-33899500D01*
X73465165Y-33899500D01*
X73451489Y-33897267D01*
X73451318Y-33898494D01*
X73442234Y-33897226D01*
X73401887Y-33899092D01*
X73394207Y-33899447D01*
X73391931Y-33899500D01*
X73372153Y-33899500D01*
X73368658Y-33900153D01*
X73361845Y-33900943D01*
X73330011Y-33902414D01*
X73330007Y-33902415D01*
X73321013Y-33906386D01*
X73299228Y-33913132D01*
X73289571Y-33914937D01*
X73289565Y-33914940D01*
X73262465Y-33931718D01*
X73256396Y-33934917D01*
X73227238Y-33947792D01*
X73227230Y-33947797D01*
X73220282Y-33954745D01*
X73202409Y-33968902D01*
X73186254Y-33978907D01*
X73185523Y-33977727D01*
X73138769Y-33998892D01*
X73127812Y-33999500D01*
X71630252Y-33999500D01*
X71630251Y-33999500D01*
X71630241Y-33999501D01*
X71571772Y-34011132D01*
X71571766Y-34011134D01*
X71505451Y-34055445D01*
X71505445Y-34055451D01*
X71461134Y-34121766D01*
X71461132Y-34121772D01*
X71449501Y-34180241D01*
X71449500Y-34180253D01*
X71449500Y-35219746D01*
X71449501Y-35219758D01*
X71461132Y-35278227D01*
X71461134Y-35278233D01*
X71497177Y-35332174D01*
X71505448Y-35344552D01*
X71571769Y-35388867D01*
X71571777Y-35388868D01*
X71573904Y-35389750D01*
X71576830Y-35392248D01*
X71579876Y-35394284D01*
X71579635Y-35394644D01*
X71620433Y-35429484D01*
X71634720Y-35488978D01*
X71626079Y-35522343D01*
X71564333Y-35657545D01*
X71543853Y-35799997D01*
X71543853Y-35800004D01*
X71565116Y-35947900D01*
X71554682Y-36008189D01*
X71522128Y-36044302D01*
X71505450Y-36055446D01*
X71505445Y-36055451D01*
X71461134Y-36121766D01*
X71461132Y-36121772D01*
X71449501Y-36180241D01*
X71449500Y-36180253D01*
X71449500Y-36434621D01*
X71430593Y-36492812D01*
X71381093Y-36528776D01*
X71319907Y-36528776D01*
X71270407Y-36492812D01*
X71260447Y-36475748D01*
X71224264Y-36396520D01*
X71219746Y-36386627D01*
X71125497Y-36277857D01*
X71125496Y-36277856D01*
X71125495Y-36277855D01*
X71004426Y-36200049D01*
X71004423Y-36200047D01*
X71004422Y-36200047D01*
X71004419Y-36200046D01*
X70866333Y-36159500D01*
X70866330Y-36159500D01*
X70722408Y-36159500D01*
X70722404Y-36159500D01*
X70584318Y-36200046D01*
X70584311Y-36200049D01*
X70457284Y-36281685D01*
X70456377Y-36280274D01*
X70407970Y-36300730D01*
X70348375Y-36286870D01*
X70308308Y-36240629D01*
X70300500Y-36202093D01*
X70300500Y-33553027D01*
X70319407Y-33494836D01*
X70368907Y-33458872D01*
X70430093Y-33458872D01*
X70464334Y-33478210D01*
X70468869Y-33482140D01*
X70468872Y-33482143D01*
X70468874Y-33482144D01*
X70468875Y-33482145D01*
X70497434Y-33500499D01*
X70589947Y-33559953D01*
X70696403Y-33591211D01*
X70728035Y-33600499D01*
X70728036Y-33600499D01*
X70728039Y-33600500D01*
X70728041Y-33600500D01*
X70871959Y-33600500D01*
X70871961Y-33600500D01*
X71010053Y-33559953D01*
X71131128Y-33482143D01*
X71225377Y-33373373D01*
X71253209Y-33312429D01*
X71275441Y-33263750D01*
X71316813Y-33218672D01*
X71376779Y-33206521D01*
X71432435Y-33231939D01*
G37*
%TD.AperFunction*%
%TA.AperFunction,Conductor*%
G36*
X86608691Y-28119407D02*
G01*
X86644655Y-28168907D01*
X86649500Y-28199500D01*
X86649500Y-29219746D01*
X86649501Y-29219758D01*
X86661132Y-29278227D01*
X86661134Y-29278233D01*
X86704398Y-29342981D01*
X86705448Y-29344552D01*
X86771769Y-29388867D01*
X86816231Y-29397711D01*
X86830241Y-29400498D01*
X86830246Y-29400498D01*
X86830252Y-29400500D01*
X88988892Y-29400500D01*
X89047083Y-29419407D01*
X89083047Y-29468907D01*
X89086884Y-29513589D01*
X89067737Y-29646763D01*
X89067737Y-29646769D01*
X89088218Y-29789223D01*
X89120255Y-29859373D01*
X89127230Y-29920160D01*
X89097144Y-29973437D01*
X89041488Y-29998855D01*
X89030202Y-29999500D01*
X86830252Y-29999500D01*
X86830251Y-29999500D01*
X86830241Y-29999501D01*
X86771772Y-30011132D01*
X86771766Y-30011134D01*
X86705451Y-30055445D01*
X86705445Y-30055451D01*
X86661134Y-30121766D01*
X86661132Y-30121772D01*
X86649501Y-30180241D01*
X86649500Y-30180253D01*
X86649500Y-30925672D01*
X86630593Y-30983863D01*
X86581093Y-31019827D01*
X86549791Y-31022536D01*
X86549791Y-31024571D01*
X86398785Y-31024571D01*
X86260699Y-31065117D01*
X86260692Y-31065120D01*
X86139623Y-31142926D01*
X86045372Y-31251699D01*
X85985584Y-31382614D01*
X85965103Y-31525068D01*
X85965103Y-31525073D01*
X85985584Y-31667527D01*
X86045372Y-31798442D01*
X86045373Y-31798444D01*
X86137240Y-31904465D01*
X86139623Y-31907215D01*
X86245099Y-31975000D01*
X86260697Y-31985024D01*
X86349614Y-32011132D01*
X86398785Y-32025570D01*
X86398786Y-32025570D01*
X86398789Y-32025571D01*
X86398791Y-32025571D01*
X86542714Y-32025571D01*
X86545837Y-32025122D01*
X86548432Y-32025571D01*
X86549792Y-32025571D01*
X86549792Y-32025806D01*
X86606126Y-32035555D01*
X86648769Y-32079434D01*
X86657476Y-32139996D01*
X86657031Y-32142388D01*
X86653966Y-32157801D01*
X86649500Y-32180251D01*
X86649500Y-33219746D01*
X86649501Y-33219758D01*
X86661132Y-33278227D01*
X86661134Y-33278233D01*
X86710865Y-33352659D01*
X86707440Y-33354947D01*
X86726488Y-33392331D01*
X86718764Y-33448936D01*
X86714836Y-33457537D01*
X86714833Y-33457547D01*
X86694353Y-33599997D01*
X86694353Y-33600002D01*
X86714834Y-33742456D01*
X86728953Y-33773371D01*
X86774623Y-33873373D01*
X86775692Y-33874607D01*
X86776223Y-33875864D01*
X86778451Y-33879330D01*
X86777851Y-33879715D01*
X86799510Y-33930966D01*
X86785652Y-33990561D01*
X86755875Y-34021753D01*
X86705451Y-34055445D01*
X86705445Y-34055451D01*
X86661134Y-34121766D01*
X86661132Y-34121772D01*
X86649501Y-34180241D01*
X86649500Y-34180253D01*
X86649500Y-34700500D01*
X86630593Y-34758691D01*
X86581093Y-34794655D01*
X86550500Y-34799500D01*
X86317493Y-34799500D01*
X86259302Y-34780593D01*
X86223338Y-34731093D01*
X86223338Y-34669907D01*
X86227440Y-34659373D01*
X86235165Y-34642456D01*
X86255647Y-34500002D01*
X86255647Y-34499997D01*
X86235165Y-34357543D01*
X86175377Y-34226628D01*
X86175377Y-34226627D01*
X86081128Y-34117857D01*
X86081127Y-34117856D01*
X86081126Y-34117855D01*
X86052331Y-34099350D01*
X86013599Y-34051984D01*
X86010106Y-33990898D01*
X86043186Y-33939426D01*
X86052311Y-33932795D01*
X86131128Y-33882143D01*
X86225377Y-33773373D01*
X86285165Y-33642457D01*
X86305575Y-33500500D01*
X86305647Y-33500002D01*
X86305647Y-33499997D01*
X86285165Y-33357543D01*
X86246725Y-33273373D01*
X86225377Y-33226627D01*
X86215156Y-33214831D01*
X86191338Y-33158472D01*
X86205196Y-33098877D01*
X86215158Y-33085167D01*
X86225375Y-33073375D01*
X86225374Y-33073375D01*
X86225377Y-33073373D01*
X86285165Y-32942457D01*
X86293837Y-32882143D01*
X86305647Y-32800002D01*
X86305647Y-32799997D01*
X86285165Y-32657543D01*
X86267040Y-32617855D01*
X86225377Y-32526627D01*
X86131128Y-32417857D01*
X86131127Y-32417856D01*
X86131126Y-32417855D01*
X86010057Y-32340049D01*
X86010054Y-32340047D01*
X86010053Y-32340047D01*
X86010050Y-32340046D01*
X85871964Y-32299500D01*
X85871961Y-32299500D01*
X85772280Y-32299500D01*
X85714089Y-32280593D01*
X85682226Y-32241625D01*
X85675377Y-32226628D01*
X85675377Y-32226627D01*
X85581128Y-32117857D01*
X85581127Y-32117856D01*
X85581126Y-32117855D01*
X85460057Y-32040049D01*
X85460054Y-32040047D01*
X85460053Y-32040047D01*
X85460050Y-32040046D01*
X85321964Y-31999500D01*
X85321961Y-31999500D01*
X85178039Y-31999500D01*
X85178035Y-31999500D01*
X85039949Y-32040046D01*
X85039942Y-32040049D01*
X84918873Y-32117855D01*
X84824622Y-32226628D01*
X84764834Y-32357543D01*
X84744353Y-32499997D01*
X84744353Y-32500002D01*
X84764834Y-32642456D01*
X84810504Y-32742457D01*
X84824623Y-32773373D01*
X84907202Y-32868675D01*
X84918873Y-32882144D01*
X85034490Y-32956446D01*
X85039947Y-32959953D01*
X85146403Y-32991211D01*
X85178035Y-33000499D01*
X85178036Y-33000499D01*
X85178039Y-33000500D01*
X85178041Y-33000500D01*
X85277719Y-33000500D01*
X85335910Y-33019407D01*
X85367771Y-33058372D01*
X85374621Y-33073370D01*
X85374622Y-33073373D01*
X85384843Y-33085168D01*
X85408661Y-33141527D01*
X85394802Y-33201123D01*
X85384847Y-33214826D01*
X85374623Y-33226626D01*
X85314834Y-33357543D01*
X85294353Y-33499997D01*
X85294353Y-33500002D01*
X85314834Y-33642456D01*
X85360504Y-33742457D01*
X85374623Y-33773373D01*
X85468872Y-33882143D01*
X85497669Y-33900650D01*
X85536399Y-33948014D01*
X85539893Y-34009100D01*
X85506814Y-34060573D01*
X85497669Y-34067217D01*
X85418872Y-34117857D01*
X85324622Y-34226628D01*
X85264834Y-34357543D01*
X85244353Y-34499997D01*
X85244353Y-34500002D01*
X85264834Y-34642456D01*
X85272560Y-34659373D01*
X85279535Y-34720160D01*
X85249449Y-34773437D01*
X85193793Y-34798855D01*
X85182507Y-34799500D01*
X85065479Y-34799500D01*
X85007288Y-34780593D01*
X84995475Y-34770504D01*
X82930546Y-32705575D01*
X82902769Y-32651058D01*
X82902558Y-32621482D01*
X82905647Y-32600000D01*
X82904815Y-32594215D01*
X82885165Y-32457543D01*
X82847396Y-32374842D01*
X82825377Y-32326627D01*
X82731128Y-32217857D01*
X82731127Y-32217856D01*
X82731126Y-32217855D01*
X82610057Y-32140049D01*
X82610054Y-32140047D01*
X82610053Y-32140047D01*
X82610050Y-32140046D01*
X82471964Y-32099500D01*
X82471961Y-32099500D01*
X82328039Y-32099500D01*
X82328035Y-32099500D01*
X82189949Y-32140046D01*
X82189942Y-32140049D01*
X82068873Y-32217855D01*
X81974622Y-32326628D01*
X81914834Y-32457543D01*
X81894353Y-32599997D01*
X81894353Y-32600002D01*
X81914834Y-32742456D01*
X81969227Y-32861558D01*
X81974623Y-32873373D01*
X82068872Y-32982143D01*
X82068873Y-32982144D01*
X82187487Y-33058372D01*
X82189947Y-33059953D01*
X82296403Y-33091211D01*
X82328035Y-33100499D01*
X82328036Y-33100499D01*
X82328039Y-33100500D01*
X82328041Y-33100500D01*
X82434521Y-33100500D01*
X82492712Y-33119407D01*
X82504525Y-33129496D01*
X84641436Y-35266407D01*
X84649537Y-35277647D01*
X84650516Y-35276909D01*
X84656044Y-35284230D01*
X84691569Y-35316616D01*
X84693223Y-35318195D01*
X84704338Y-35329309D01*
X84707203Y-35332174D01*
X84710128Y-35334178D01*
X84715505Y-35338437D01*
X84739064Y-35359914D01*
X84739065Y-35359914D01*
X84739067Y-35359916D01*
X84748225Y-35363463D01*
X84768412Y-35374103D01*
X84776519Y-35379657D01*
X84807552Y-35386955D01*
X84814095Y-35388982D01*
X84827782Y-35394284D01*
X84843821Y-35400498D01*
X84843827Y-35400500D01*
X84853652Y-35400500D01*
X84876316Y-35403129D01*
X84885881Y-35405379D01*
X84910494Y-35401945D01*
X84917453Y-35400975D01*
X84924299Y-35400500D01*
X86830252Y-35400500D01*
X87432280Y-35400500D01*
X87490471Y-35419407D01*
X87526435Y-35468907D01*
X87526435Y-35530093D01*
X87522336Y-35540620D01*
X87519893Y-35545968D01*
X87514833Y-35557047D01*
X87494353Y-35699499D01*
X87494353Y-35699504D01*
X87514834Y-35841958D01*
X87522788Y-35859375D01*
X87529762Y-35920161D01*
X87499675Y-35973438D01*
X87444018Y-35998855D01*
X87432734Y-35999500D01*
X86830252Y-35999500D01*
X86830251Y-35999500D01*
X86830241Y-35999501D01*
X86771772Y-36011132D01*
X86771766Y-36011134D01*
X86705451Y-36055445D01*
X86705445Y-36055451D01*
X86677460Y-36097334D01*
X86629410Y-36135213D01*
X86568271Y-36137615D01*
X86537506Y-36121029D01*
X86537085Y-36121685D01*
X86410057Y-36040049D01*
X86410054Y-36040047D01*
X86410053Y-36040047D01*
X86410050Y-36040046D01*
X86271964Y-35999500D01*
X86271961Y-35999500D01*
X86128039Y-35999500D01*
X86128035Y-35999500D01*
X85989949Y-36040046D01*
X85989942Y-36040049D01*
X85868873Y-36117855D01*
X85774622Y-36226628D01*
X85714834Y-36357543D01*
X85694353Y-36499997D01*
X85694353Y-36500002D01*
X85714834Y-36642456D01*
X85764174Y-36750493D01*
X85774623Y-36773373D01*
X85854640Y-36865718D01*
X85868873Y-36882144D01*
X85989942Y-36959950D01*
X85989947Y-36959953D01*
X86096403Y-36991211D01*
X86128035Y-37000499D01*
X86128036Y-37000499D01*
X86128039Y-37000500D01*
X86128041Y-37000500D01*
X86271959Y-37000500D01*
X86271961Y-37000500D01*
X86410053Y-36959953D01*
X86496978Y-36904089D01*
X86556151Y-36888535D01*
X86613168Y-36910734D01*
X86646247Y-36962206D01*
X86649500Y-36987374D01*
X86649500Y-37219746D01*
X86649501Y-37219758D01*
X86661132Y-37278227D01*
X86661134Y-37278233D01*
X86705111Y-37344048D01*
X86705448Y-37344552D01*
X86771769Y-37388867D01*
X86816231Y-37397711D01*
X86830241Y-37400498D01*
X86830246Y-37400498D01*
X86830252Y-37400500D01*
X86830253Y-37400500D01*
X89369747Y-37400500D01*
X89369748Y-37400500D01*
X89428231Y-37388867D01*
X89494552Y-37344552D01*
X89537694Y-37279985D01*
X89585744Y-37242107D01*
X89646882Y-37239705D01*
X89690012Y-37264984D01*
X90070503Y-37645474D01*
X90098281Y-37699991D01*
X90099500Y-37715478D01*
X90099500Y-41400573D01*
X90080593Y-41458764D01*
X90031093Y-41494728D01*
X89969907Y-41494728D01*
X89920407Y-41458764D01*
X89910447Y-41441700D01*
X89902124Y-41423476D01*
X89896524Y-41411214D01*
X89802275Y-41302444D01*
X89802274Y-41302443D01*
X89802273Y-41302442D01*
X89681204Y-41224636D01*
X89681202Y-41224635D01*
X89681200Y-41224634D01*
X89623685Y-41207746D01*
X89621608Y-41207136D01*
X89571101Y-41172599D01*
X89550540Y-41114972D01*
X89550500Y-41112146D01*
X89550500Y-40180253D01*
X89550498Y-40180241D01*
X89543299Y-40144050D01*
X89538867Y-40121769D01*
X89494552Y-40055448D01*
X89475110Y-40042457D01*
X89428233Y-40011134D01*
X89428231Y-40011133D01*
X89428228Y-40011132D01*
X89428227Y-40011132D01*
X89369758Y-39999501D01*
X89369748Y-39999500D01*
X89369747Y-39999500D01*
X87115479Y-39999500D01*
X87057288Y-39980593D01*
X87045475Y-39970504D01*
X85308565Y-38233594D01*
X85300479Y-38222344D01*
X85299487Y-38223094D01*
X85293958Y-38215772D01*
X85269232Y-38193231D01*
X85258423Y-38183377D01*
X85256775Y-38181804D01*
X85242797Y-38167826D01*
X85239859Y-38165813D01*
X85234496Y-38161564D01*
X85210933Y-38140084D01*
X85201762Y-38136531D01*
X85181586Y-38125895D01*
X85173484Y-38120345D01*
X85173479Y-38120343D01*
X85142457Y-38113046D01*
X85135902Y-38111016D01*
X85106177Y-38099501D01*
X85106174Y-38099500D01*
X85106173Y-38099500D01*
X85106172Y-38099500D01*
X85096348Y-38099500D01*
X85073683Y-38096870D01*
X85064119Y-38094621D01*
X85064118Y-38094621D01*
X85032547Y-38099025D01*
X85025701Y-38099500D01*
X84465479Y-38099500D01*
X84407288Y-38080593D01*
X84395475Y-38070504D01*
X83729496Y-37404524D01*
X83701719Y-37350007D01*
X83700500Y-37334520D01*
X83700500Y-36815937D01*
X83719407Y-36757746D01*
X83768907Y-36721782D01*
X83827389Y-36720947D01*
X83928039Y-36750500D01*
X83928041Y-36750500D01*
X84071959Y-36750500D01*
X84071961Y-36750500D01*
X84210053Y-36709953D01*
X84261331Y-36676998D01*
X84320504Y-36661444D01*
X84374512Y-36681278D01*
X84382749Y-36687498D01*
X84399515Y-36700159D01*
X84404689Y-36704661D01*
X86566436Y-38866407D01*
X86574537Y-38877647D01*
X86575516Y-38876909D01*
X86581044Y-38884230D01*
X86616569Y-38916616D01*
X86618223Y-38918195D01*
X86620504Y-38920475D01*
X86648281Y-38974992D01*
X86649500Y-38990479D01*
X86649500Y-39219746D01*
X86649501Y-39219758D01*
X86661132Y-39278227D01*
X86661133Y-39278231D01*
X86705448Y-39344552D01*
X86771769Y-39388867D01*
X86809258Y-39396324D01*
X86830241Y-39400498D01*
X86830246Y-39400498D01*
X86830252Y-39400500D01*
X86830253Y-39400500D01*
X89369747Y-39400500D01*
X89369748Y-39400500D01*
X89428231Y-39388867D01*
X89494552Y-39344552D01*
X89538867Y-39278231D01*
X89550500Y-39219748D01*
X89550500Y-38180252D01*
X89538867Y-38121769D01*
X89537915Y-38120345D01*
X89494554Y-38055451D01*
X89494552Y-38055448D01*
X89486363Y-38049976D01*
X89428233Y-38011134D01*
X89428231Y-38011133D01*
X89428228Y-38011132D01*
X89428227Y-38011132D01*
X89369758Y-37999501D01*
X89369748Y-37999500D01*
X86830252Y-37999500D01*
X86830251Y-37999500D01*
X86830241Y-37999501D01*
X86771772Y-38011132D01*
X86771767Y-38011134D01*
X86713039Y-38050375D01*
X86654151Y-38066983D01*
X86596747Y-38045805D01*
X86588034Y-38038063D01*
X84929496Y-36379525D01*
X84901719Y-36325008D01*
X84900500Y-36309521D01*
X84900500Y-36066639D01*
X84902731Y-36052966D01*
X84901505Y-36052795D01*
X84902773Y-36043703D01*
X84901065Y-36006769D01*
X84900552Y-35995678D01*
X84900500Y-35993399D01*
X84900500Y-35973631D01*
X84900500Y-35973627D01*
X84899846Y-35970135D01*
X84899056Y-35963330D01*
X84897585Y-35931479D01*
X84893615Y-35922488D01*
X84886864Y-35900686D01*
X84886805Y-35900372D01*
X84885061Y-35891038D01*
X84868276Y-35863929D01*
X84865084Y-35857872D01*
X84852206Y-35828706D01*
X84852205Y-35828704D01*
X84845256Y-35821755D01*
X84831090Y-35803870D01*
X84825919Y-35795519D01*
X84800483Y-35776310D01*
X84795306Y-35771805D01*
X84507094Y-35483594D01*
X84499008Y-35472344D01*
X84498016Y-35473094D01*
X84492487Y-35465772D01*
X84469840Y-35445126D01*
X84456952Y-35433377D01*
X84455304Y-35431804D01*
X84441326Y-35417826D01*
X84438388Y-35415813D01*
X84433025Y-35411564D01*
X84409462Y-35390084D01*
X84400291Y-35386531D01*
X84380115Y-35375895D01*
X84372013Y-35370345D01*
X84372008Y-35370343D01*
X84340986Y-35363046D01*
X84334431Y-35361016D01*
X84304706Y-35349501D01*
X84304703Y-35349500D01*
X84304702Y-35349500D01*
X84304701Y-35349500D01*
X84294877Y-35349500D01*
X84272212Y-35346870D01*
X84262648Y-35344621D01*
X84262647Y-35344621D01*
X84231076Y-35349025D01*
X84224230Y-35349500D01*
X83940479Y-35349500D01*
X83882288Y-35330593D01*
X83870475Y-35320504D01*
X80998549Y-32448578D01*
X80970772Y-32394061D01*
X80980343Y-32333629D01*
X80993734Y-32313743D01*
X81001727Y-32304518D01*
X81050377Y-32248373D01*
X81110165Y-32117457D01*
X81119081Y-32055445D01*
X81130647Y-31975002D01*
X81130647Y-31974997D01*
X81110165Y-31832543D01*
X81056413Y-31714844D01*
X81050377Y-31701627D01*
X80956128Y-31592857D01*
X80956127Y-31592856D01*
X80956126Y-31592855D01*
X80835057Y-31515049D01*
X80835054Y-31515047D01*
X80835053Y-31515047D01*
X80835050Y-31515046D01*
X80696964Y-31474500D01*
X80696961Y-31474500D01*
X80590479Y-31474500D01*
X80532288Y-31455593D01*
X80520475Y-31445504D01*
X80208565Y-31133594D01*
X80200479Y-31122344D01*
X80199487Y-31123094D01*
X80193958Y-31115772D01*
X80169232Y-31093231D01*
X80158423Y-31083377D01*
X80156775Y-31081804D01*
X80142797Y-31067826D01*
X80139859Y-31065813D01*
X80134496Y-31061564D01*
X80110933Y-31040084D01*
X80101762Y-31036531D01*
X80081586Y-31025895D01*
X80073484Y-31020345D01*
X80073479Y-31020343D01*
X80042457Y-31013046D01*
X80035902Y-31011016D01*
X80006177Y-30999501D01*
X80006174Y-30999500D01*
X80006173Y-30999500D01*
X80006172Y-30999500D01*
X79996348Y-30999500D01*
X79973683Y-30996870D01*
X79964119Y-30994621D01*
X79964118Y-30994621D01*
X79932547Y-30999025D01*
X79925701Y-30999500D01*
X75365479Y-30999500D01*
X75307288Y-30980593D01*
X75295475Y-30970504D01*
X75158065Y-30833094D01*
X75149979Y-30821844D01*
X75148987Y-30822594D01*
X75143459Y-30815274D01*
X75143458Y-30815272D01*
X75143455Y-30815269D01*
X75110664Y-30785375D01*
X75087306Y-30753339D01*
X75074879Y-30726127D01*
X74980630Y-30617357D01*
X74980629Y-30617356D01*
X74980628Y-30617355D01*
X74859559Y-30539549D01*
X74859556Y-30539547D01*
X74859555Y-30539547D01*
X74859552Y-30539546D01*
X74721466Y-30499000D01*
X74721463Y-30499000D01*
X74577541Y-30499000D01*
X74577537Y-30499000D01*
X74477391Y-30528406D01*
X74416231Y-30526658D01*
X74367778Y-30489295D01*
X74350500Y-30433416D01*
X74350500Y-30180253D01*
X74350498Y-30180241D01*
X74345361Y-30154416D01*
X74338867Y-30121769D01*
X74329363Y-30107545D01*
X74321026Y-30095068D01*
X74304417Y-30036179D01*
X74325595Y-29978776D01*
X74376468Y-29944783D01*
X74403341Y-29941066D01*
X76594270Y-29941066D01*
X76607945Y-29943298D01*
X76608117Y-29942072D01*
X76617198Y-29943338D01*
X76617199Y-29943339D01*
X76617199Y-29943338D01*
X76617200Y-29943339D01*
X76625941Y-29942934D01*
X76665227Y-29941118D01*
X76667504Y-29941066D01*
X76686815Y-29941066D01*
X76745006Y-29959973D01*
X76780970Y-30009473D01*
X76780970Y-30070659D01*
X76776869Y-30081192D01*
X76764833Y-30107545D01*
X76744353Y-30249997D01*
X76744353Y-30250002D01*
X76764834Y-30392456D01*
X76821231Y-30515945D01*
X76824623Y-30523373D01*
X76915827Y-30628629D01*
X76918873Y-30632144D01*
X77039942Y-30709950D01*
X77039947Y-30709953D01*
X77146403Y-30741211D01*
X77178035Y-30750499D01*
X77178036Y-30750499D01*
X77178039Y-30750500D01*
X77178041Y-30750500D01*
X77321959Y-30750500D01*
X77321961Y-30750500D01*
X77460053Y-30709953D01*
X77581128Y-30632143D01*
X77675377Y-30523373D01*
X77735165Y-30392457D01*
X77748386Y-30300500D01*
X77755647Y-30250002D01*
X77755647Y-30249997D01*
X77735165Y-30107543D01*
X77702574Y-30036179D01*
X77686052Y-30000002D01*
X84244353Y-30000002D01*
X84264834Y-30142456D01*
X84310504Y-30242457D01*
X84324623Y-30273373D01*
X84378926Y-30336042D01*
X84418873Y-30382144D01*
X84539942Y-30459950D01*
X84539947Y-30459953D01*
X84639878Y-30489295D01*
X84678035Y-30500499D01*
X84678036Y-30500499D01*
X84678039Y-30500500D01*
X84678041Y-30500500D01*
X84821959Y-30500500D01*
X84821961Y-30500500D01*
X84960053Y-30459953D01*
X85081128Y-30382143D01*
X85175377Y-30273373D01*
X85235165Y-30142457D01*
X85241992Y-30094971D01*
X85255647Y-30000002D01*
X85255647Y-29999997D01*
X85235165Y-29857543D01*
X85221046Y-29826627D01*
X85175377Y-29726627D01*
X85081128Y-29617857D01*
X85081127Y-29617856D01*
X85081126Y-29617855D01*
X84960057Y-29540049D01*
X84960054Y-29540047D01*
X84960053Y-29540047D01*
X84960050Y-29540046D01*
X84821964Y-29499500D01*
X84821961Y-29499500D01*
X84678039Y-29499500D01*
X84678035Y-29499500D01*
X84539949Y-29540046D01*
X84539942Y-29540049D01*
X84418873Y-29617855D01*
X84324622Y-29726628D01*
X84264834Y-29857543D01*
X84244353Y-29999997D01*
X84244353Y-30000002D01*
X77686052Y-30000002D01*
X77675377Y-29976627D01*
X77581128Y-29867857D01*
X77581127Y-29867856D01*
X77581126Y-29867855D01*
X77460057Y-29790049D01*
X77460054Y-29790047D01*
X77460053Y-29790047D01*
X77460050Y-29790046D01*
X77321964Y-29749500D01*
X77321961Y-29749500D01*
X77214478Y-29749500D01*
X77156287Y-29730593D01*
X77120323Y-29681093D01*
X77120323Y-29619907D01*
X77144474Y-29580496D01*
X77714613Y-29010358D01*
X78495474Y-28229496D01*
X78549992Y-28201719D01*
X78565479Y-28200500D01*
X78847108Y-28200500D01*
X78905299Y-28219407D01*
X78941263Y-28268907D01*
X78941263Y-28330093D01*
X78921927Y-28364331D01*
X78824623Y-28476626D01*
X78764834Y-28607543D01*
X78744353Y-28749997D01*
X78744353Y-28750002D01*
X78764834Y-28892456D01*
X78814177Y-29000499D01*
X78824623Y-29023373D01*
X78871836Y-29077860D01*
X78918873Y-29132144D01*
X78939282Y-29145260D01*
X79039947Y-29209953D01*
X79146403Y-29241211D01*
X79178035Y-29250499D01*
X79178036Y-29250499D01*
X79178039Y-29250500D01*
X79178041Y-29250500D01*
X79321959Y-29250500D01*
X79321961Y-29250500D01*
X79460053Y-29209953D01*
X79581128Y-29132143D01*
X79675377Y-29023373D01*
X79735165Y-28892457D01*
X79745842Y-28818195D01*
X79755647Y-28750002D01*
X79755647Y-28749997D01*
X79735165Y-28607543D01*
X79731492Y-28599500D01*
X79675377Y-28476627D01*
X79581128Y-28367857D01*
X79578073Y-28364331D01*
X79554255Y-28307972D01*
X79568114Y-28248376D01*
X79614355Y-28208309D01*
X79652892Y-28200500D01*
X81934521Y-28200500D01*
X81992712Y-28219407D01*
X82004525Y-28229496D01*
X82541436Y-28766407D01*
X82549537Y-28777647D01*
X82550516Y-28776909D01*
X82556044Y-28784230D01*
X82591569Y-28816616D01*
X82593223Y-28818195D01*
X82600947Y-28825918D01*
X82607203Y-28832174D01*
X82610128Y-28834178D01*
X82615505Y-28838437D01*
X82639064Y-28859914D01*
X82639065Y-28859914D01*
X82639067Y-28859916D01*
X82648230Y-28863466D01*
X82668416Y-28874105D01*
X82676519Y-28879656D01*
X82707553Y-28886955D01*
X82714090Y-28888979D01*
X82743827Y-28900500D01*
X82753652Y-28900500D01*
X82776316Y-28903129D01*
X82785881Y-28905379D01*
X82810494Y-28901945D01*
X82817453Y-28900975D01*
X82824299Y-28900500D01*
X83834836Y-28900500D01*
X83848511Y-28902732D01*
X83848683Y-28901506D01*
X83857764Y-28902772D01*
X83857765Y-28902773D01*
X83857765Y-28902772D01*
X83857766Y-28902773D01*
X83870701Y-28902175D01*
X83905793Y-28900552D01*
X83908070Y-28900500D01*
X83927841Y-28900500D01*
X83927844Y-28900500D01*
X83931337Y-28899846D01*
X83938141Y-28899056D01*
X83969992Y-28897585D01*
X83978976Y-28893617D01*
X84000777Y-28886865D01*
X84010433Y-28885061D01*
X84037543Y-28868274D01*
X84043589Y-28865088D01*
X84072765Y-28852206D01*
X84079709Y-28845260D01*
X84097601Y-28831089D01*
X84105952Y-28825919D01*
X84125165Y-28800474D01*
X84129662Y-28795308D01*
X84174973Y-28749997D01*
X84345783Y-28579186D01*
X84400298Y-28551411D01*
X84460730Y-28560982D01*
X84503995Y-28604247D01*
X84513777Y-28635103D01*
X84514834Y-28642456D01*
X84563947Y-28749997D01*
X84574623Y-28773373D01*
X84652688Y-28863465D01*
X84668873Y-28882144D01*
X84701528Y-28903130D01*
X84789947Y-28959953D01*
X84896403Y-28991211D01*
X84928035Y-29000499D01*
X84928036Y-29000499D01*
X84928039Y-29000500D01*
X84928041Y-29000500D01*
X85071959Y-29000500D01*
X85071961Y-29000500D01*
X85210053Y-28959953D01*
X85331128Y-28882143D01*
X85425377Y-28773373D01*
X85485165Y-28642457D01*
X85505575Y-28500500D01*
X85505647Y-28500002D01*
X85505647Y-28499997D01*
X85485165Y-28357543D01*
X85431771Y-28240627D01*
X85424796Y-28179840D01*
X85454882Y-28126563D01*
X85510538Y-28101145D01*
X85521824Y-28100500D01*
X86550500Y-28100500D01*
X86608691Y-28119407D01*
G37*
%TD.AperFunction*%
%TA.AperFunction,Conductor*%
G36*
X90658691Y-27319407D02*
G01*
X90694655Y-27368907D01*
X90699500Y-27399500D01*
X90699500Y-37185520D01*
X90680593Y-37243711D01*
X90631093Y-37279675D01*
X90569907Y-37279675D01*
X90530496Y-37255524D01*
X89808565Y-36533594D01*
X89800479Y-36522344D01*
X89799487Y-36523094D01*
X89793958Y-36515772D01*
X89758428Y-36483382D01*
X89756775Y-36481804D01*
X89742797Y-36467826D01*
X89739859Y-36465813D01*
X89734496Y-36461564D01*
X89710933Y-36440084D01*
X89701762Y-36436531D01*
X89681586Y-36425895D01*
X89673484Y-36420345D01*
X89673479Y-36420343D01*
X89642457Y-36413046D01*
X89635902Y-36411016D01*
X89613737Y-36402430D01*
X89566306Y-36363779D01*
X89550500Y-36310115D01*
X89550500Y-36180253D01*
X89550498Y-36180241D01*
X89539404Y-36124471D01*
X89538867Y-36121769D01*
X89494552Y-36055448D01*
X89494548Y-36055445D01*
X89428233Y-36011134D01*
X89428231Y-36011133D01*
X89428228Y-36011132D01*
X89428227Y-36011132D01*
X89369758Y-35999501D01*
X89369748Y-35999500D01*
X89369747Y-35999500D01*
X88567266Y-35999500D01*
X88509075Y-35980593D01*
X88473111Y-35931093D01*
X88473111Y-35869907D01*
X88477212Y-35859375D01*
X88485165Y-35841958D01*
X88505647Y-35699504D01*
X88505647Y-35699499D01*
X88485166Y-35557047D01*
X88484101Y-35554717D01*
X88477666Y-35540626D01*
X88470691Y-35479842D01*
X88500777Y-35426564D01*
X88556433Y-35401146D01*
X88567720Y-35400500D01*
X89369747Y-35400500D01*
X89369748Y-35400500D01*
X89428231Y-35388867D01*
X89494552Y-35344552D01*
X89538867Y-35278231D01*
X89550500Y-35219748D01*
X89550500Y-34180252D01*
X89538867Y-34121769D01*
X89494552Y-34055448D01*
X89489368Y-34051984D01*
X89428233Y-34011134D01*
X89428231Y-34011133D01*
X89428228Y-34011132D01*
X89428227Y-34011132D01*
X89369758Y-33999501D01*
X89369748Y-33999500D01*
X89369747Y-33999500D01*
X87721824Y-33999500D01*
X87663633Y-33980593D01*
X87627669Y-33931093D01*
X87627669Y-33869907D01*
X87631771Y-33859373D01*
X87685165Y-33742456D01*
X87705647Y-33600002D01*
X87705647Y-33599996D01*
X87693224Y-33513589D01*
X87703657Y-33453299D01*
X87747536Y-33410657D01*
X87791216Y-33400500D01*
X89369747Y-33400500D01*
X89369748Y-33400500D01*
X89428231Y-33388867D01*
X89494552Y-33344552D01*
X89538867Y-33278231D01*
X89550500Y-33219748D01*
X89550500Y-32180252D01*
X89540464Y-32129802D01*
X89547655Y-32069041D01*
X89562737Y-32045663D01*
X89625377Y-31973373D01*
X89685165Y-31842457D01*
X89705647Y-31700000D01*
X89692862Y-31611080D01*
X89698541Y-31561228D01*
X89700500Y-31556173D01*
X89700500Y-31546348D01*
X89703129Y-31523683D01*
X89705379Y-31514119D01*
X89700975Y-31482546D01*
X89700500Y-31475699D01*
X89700500Y-30655726D01*
X89704279Y-30628635D01*
X89704401Y-30628207D01*
X89700711Y-30588384D01*
X89700500Y-30583815D01*
X89700500Y-30572157D01*
X89699224Y-30565333D01*
X89698354Y-30560678D01*
X89697727Y-30556185D01*
X89694035Y-30516340D01*
X89693837Y-30515943D01*
X89685140Y-30489992D01*
X89685060Y-30489564D01*
X89672982Y-30470060D01*
X89664006Y-30455562D01*
X89661785Y-30451575D01*
X89643958Y-30415771D01*
X89643956Y-30415769D01*
X89643628Y-30415470D01*
X89626154Y-30394427D01*
X89625919Y-30394048D01*
X89610154Y-30382143D01*
X89593999Y-30369943D01*
X89590485Y-30367025D01*
X89582799Y-30360017D01*
X89552537Y-30306840D01*
X89550500Y-30286860D01*
X89550500Y-30246267D01*
X89569407Y-30188076D01*
X89618907Y-30152112D01*
X89638444Y-30149017D01*
X89638338Y-30148274D01*
X89645341Y-30147267D01*
X89645345Y-30147267D01*
X89783437Y-30106720D01*
X89904512Y-30028910D01*
X89998761Y-29920140D01*
X90058549Y-29789224D01*
X90079031Y-29646767D01*
X90079030Y-29646763D01*
X90058549Y-29504310D01*
X90022871Y-29426187D01*
X89998761Y-29373394D01*
X89904512Y-29264624D01*
X89904511Y-29264623D01*
X89904510Y-29264622D01*
X89783441Y-29186816D01*
X89783438Y-29186814D01*
X89783437Y-29186814D01*
X89783434Y-29186813D01*
X89645348Y-29146267D01*
X89638338Y-29145260D01*
X89638697Y-29142757D01*
X89591309Y-29127360D01*
X89555345Y-29077860D01*
X89550500Y-29047267D01*
X89550500Y-28180253D01*
X89550498Y-28180241D01*
X89542982Y-28142456D01*
X89538867Y-28121769D01*
X89494552Y-28055448D01*
X89451421Y-28026628D01*
X89428233Y-28011134D01*
X89428231Y-28011133D01*
X89428228Y-28011132D01*
X89428227Y-28011132D01*
X89369758Y-27999501D01*
X89369748Y-27999500D01*
X89369747Y-27999500D01*
X88191216Y-27999500D01*
X88133025Y-27980593D01*
X88097061Y-27931093D01*
X88093224Y-27886411D01*
X88105647Y-27800003D01*
X88105647Y-27799997D01*
X88085165Y-27657543D01*
X88073675Y-27632384D01*
X88031541Y-27540126D01*
X88024567Y-27479340D01*
X88054653Y-27426063D01*
X88110309Y-27400645D01*
X88121595Y-27400000D01*
X88619999Y-27400000D01*
X88620000Y-27400000D01*
X88620000Y-27399500D01*
X88638907Y-27341309D01*
X88688407Y-27305345D01*
X88719000Y-27300500D01*
X90600500Y-27300500D01*
X90658691Y-27319407D01*
G37*
%TD.AperFunction*%
%TD*%
%TA.AperFunction,Conductor*%
%TO.N,+PWR*%
G36*
X86592539Y-41019685D02*
G01*
X86638294Y-41072489D01*
X86649500Y-41124000D01*
X86649500Y-41219752D01*
X86661131Y-41278229D01*
X86661132Y-41278230D01*
X86693743Y-41327035D01*
X86714621Y-41393712D01*
X86696137Y-41461092D01*
X86644158Y-41507783D01*
X86625577Y-41514903D01*
X86539948Y-41540046D01*
X86418873Y-41617856D01*
X86324623Y-41726626D01*
X86324622Y-41726628D01*
X86264834Y-41857543D01*
X86244353Y-41999999D01*
X86264834Y-42142456D01*
X86324622Y-42273371D01*
X86324623Y-42273373D01*
X86418872Y-42382143D01*
X86539947Y-42459953D01*
X86560433Y-42465968D01*
X86619210Y-42503738D01*
X86648237Y-42567293D01*
X86649500Y-42584945D01*
X86649500Y-43219752D01*
X86661131Y-43278229D01*
X86661132Y-43278230D01*
X86705447Y-43344552D01*
X86771769Y-43388867D01*
X86771770Y-43388868D01*
X86830247Y-43400499D01*
X86830250Y-43400500D01*
X88215789Y-43400500D01*
X88282828Y-43420185D01*
X88317374Y-43453391D01*
X88677585Y-43967978D01*
X88699903Y-44034187D01*
X88700000Y-44039087D01*
X88700000Y-45648637D01*
X88680315Y-45715676D01*
X88663681Y-45736318D01*
X88184516Y-46215482D01*
X88123193Y-46248967D01*
X88079190Y-46250539D01*
X88071963Y-46249500D01*
X88071961Y-46249500D01*
X87928039Y-46249500D01*
X87928036Y-46249500D01*
X87789949Y-46290045D01*
X87668873Y-46367856D01*
X87574623Y-46476626D01*
X87574622Y-46476628D01*
X87514834Y-46607543D01*
X87494353Y-46750000D01*
X87494353Y-46750001D01*
X87505084Y-46824645D01*
X87495140Y-46893803D01*
X87470027Y-46929971D01*
X87463757Y-46936241D01*
X87402434Y-46969726D01*
X87332742Y-46964742D01*
X87276809Y-46922870D01*
X87263287Y-46900081D01*
X87237853Y-46844389D01*
X87143604Y-46735619D01*
X87022529Y-46657809D01*
X87022527Y-46657808D01*
X87022525Y-46657807D01*
X87022526Y-46657807D01*
X86884439Y-46617262D01*
X86884437Y-46617262D01*
X86740515Y-46617262D01*
X86740512Y-46617262D01*
X86602425Y-46657807D01*
X86481349Y-46735618D01*
X86387099Y-46844388D01*
X86387098Y-46844390D01*
X86327310Y-46975305D01*
X86306829Y-47117761D01*
X86327310Y-47260218D01*
X86387098Y-47391133D01*
X86387099Y-47391135D01*
X86481348Y-47499905D01*
X86602423Y-47577715D01*
X86602425Y-47577715D01*
X86606820Y-47580540D01*
X86652575Y-47633344D01*
X86662519Y-47702502D01*
X86633494Y-47766058D01*
X86627462Y-47772537D01*
X86236319Y-48163681D01*
X86174996Y-48197166D01*
X86148638Y-48200000D01*
X85724000Y-48200000D01*
X85656961Y-48180315D01*
X85611206Y-48127511D01*
X85600000Y-48076000D01*
X85600000Y-46902524D01*
X85619685Y-46835485D01*
X85621931Y-46832111D01*
X85624818Y-46827930D01*
X85685140Y-46668872D01*
X85705645Y-46500000D01*
X85692221Y-46389446D01*
X85703681Y-46320523D01*
X85750585Y-46268737D01*
X85815317Y-46250500D01*
X85821962Y-46250500D01*
X85821962Y-46250499D01*
X85960053Y-46209953D01*
X86081128Y-46132143D01*
X86175377Y-46023373D01*
X86235165Y-45892457D01*
X86255647Y-45750000D01*
X86235165Y-45607543D01*
X86175377Y-45476627D01*
X86171693Y-45468560D01*
X86174387Y-45467329D01*
X86158892Y-45414587D01*
X86178566Y-45347544D01*
X86231363Y-45301781D01*
X86300520Y-45291826D01*
X86364080Y-45320841D01*
X86376605Y-45333364D01*
X86418872Y-45382143D01*
X86539947Y-45459953D01*
X86539950Y-45459954D01*
X86539949Y-45459954D01*
X86678036Y-45500499D01*
X86678038Y-45500500D01*
X86678039Y-45500500D01*
X86821962Y-45500500D01*
X86821962Y-45500499D01*
X86960053Y-45459953D01*
X87081128Y-45382143D01*
X87175377Y-45273373D01*
X87235165Y-45142457D01*
X87255647Y-45000000D01*
X87235165Y-44857543D01*
X87175377Y-44726627D01*
X87081128Y-44617857D01*
X86960053Y-44540047D01*
X86960051Y-44540046D01*
X86960049Y-44540045D01*
X86960050Y-44540045D01*
X86821963Y-44499500D01*
X86821961Y-44499500D01*
X86678039Y-44499500D01*
X86678036Y-44499500D01*
X86539949Y-44540045D01*
X86418872Y-44617857D01*
X86418211Y-44618620D01*
X86417362Y-44619165D01*
X86412172Y-44623663D01*
X86411525Y-44622916D01*
X86359432Y-44656393D01*
X86289563Y-44656391D01*
X86230785Y-44618616D01*
X86201762Y-44555059D01*
X86200500Y-44537415D01*
X86200500Y-43280249D01*
X86200499Y-43280247D01*
X86188868Y-43221770D01*
X86188867Y-43221769D01*
X86144552Y-43155447D01*
X86078230Y-43111132D01*
X86078229Y-43111131D01*
X86019752Y-43099500D01*
X86019748Y-43099500D01*
X84980252Y-43099500D01*
X84980250Y-43099500D01*
X84978208Y-43099701D01*
X84972128Y-43100000D01*
X84224000Y-43100000D01*
X84156961Y-43080315D01*
X84111206Y-43027511D01*
X84100000Y-42976000D01*
X84100000Y-41124000D01*
X84119685Y-41056961D01*
X84172489Y-41011206D01*
X84224000Y-41000000D01*
X86525500Y-41000000D01*
X86592539Y-41019685D01*
G37*
%TD.AperFunction*%
%TD*%
%TA.AperFunction,Conductor*%
%TO.N,MOT A*%
G36*
X73959191Y-44018907D02*
G01*
X73995155Y-44068407D01*
X74000000Y-44099000D01*
X74000000Y-45596768D01*
X73981093Y-45654959D01*
X73931593Y-45690923D01*
X73928893Y-45691757D01*
X73890452Y-45703044D01*
X73890442Y-45703049D01*
X73769373Y-45780855D01*
X73712023Y-45847042D01*
X73675123Y-45889627D01*
X73651146Y-45942127D01*
X73609776Y-45987204D01*
X73561094Y-46000000D01*
X73028380Y-46000000D01*
X72970189Y-45981093D01*
X72938327Y-45942127D01*
X72931977Y-45928224D01*
X72924877Y-45912677D01*
X72924876Y-45912676D01*
X72924877Y-45912676D01*
X72924179Y-45911871D01*
X72923832Y-45911051D01*
X72921049Y-45906720D01*
X72921798Y-45906238D01*
X72900363Y-45855511D01*
X72900000Y-45847042D01*
X72900000Y-45839008D01*
X72918907Y-45780817D01*
X72924184Y-45774173D01*
X72924302Y-45774036D01*
X72924877Y-45773373D01*
X72984665Y-45642457D01*
X73005147Y-45500000D01*
X72984665Y-45357543D01*
X72924877Y-45226627D01*
X72924179Y-45225821D01*
X72923832Y-45225001D01*
X72921049Y-45220670D01*
X72921798Y-45220188D01*
X72900363Y-45169461D01*
X72900000Y-45160992D01*
X72900000Y-45000001D01*
X72900000Y-45000000D01*
X72899999Y-45000000D01*
X72582019Y-45000000D01*
X72575024Y-44999500D01*
X72571461Y-44999500D01*
X72427539Y-44999500D01*
X72423976Y-44999500D01*
X72416981Y-45000000D01*
X71800001Y-45000000D01*
X71800000Y-45000000D01*
X71300003Y-45499997D01*
X70828996Y-45971004D01*
X70774479Y-45998781D01*
X70758992Y-46000000D01*
X70399500Y-46000000D01*
X70341309Y-45981093D01*
X70305345Y-45931593D01*
X70300500Y-45901000D01*
X70300500Y-44099000D01*
X70319407Y-44040809D01*
X70368907Y-44004845D01*
X70399500Y-44000000D01*
X73901000Y-44000000D01*
X73959191Y-44018907D01*
G37*
%TD.AperFunction*%
%TD*%
%TA.AperFunction,Conductor*%
%TO.N,MOT B*%
G36*
X72755564Y-45418907D02*
G01*
X72791528Y-45468407D01*
X72795372Y-45484964D01*
X72795517Y-45485971D01*
X72795508Y-45514088D01*
X72787488Y-45569871D01*
X72779550Y-45596908D01*
X72731481Y-45702165D01*
X72730066Y-45705016D01*
X72723467Y-45717305D01*
X72723463Y-45717315D01*
X72704557Y-45775501D01*
X72704556Y-45775507D01*
X72694500Y-45839004D01*
X72694500Y-45849313D01*
X72694592Y-45853594D01*
X72694594Y-45853658D01*
X72695052Y-45864314D01*
X72711067Y-45935492D01*
X72711068Y-45935495D01*
X72711069Y-45935498D01*
X72718632Y-45953396D01*
X72718637Y-45953463D01*
X72722398Y-45962349D01*
X72722573Y-45964380D01*
X72731598Y-45984140D01*
X72732159Y-45985417D01*
X72734793Y-45991643D01*
X72742961Y-46010973D01*
X72748909Y-46022048D01*
X72751396Y-46027493D01*
X72779239Y-46072209D01*
X72779243Y-46072215D01*
X72783361Y-46077250D01*
X72796776Y-46098794D01*
X72800604Y-46107177D01*
X72800605Y-46107178D01*
X72800606Y-46107180D01*
X72875820Y-46193983D01*
X72899637Y-46250339D01*
X72900000Y-46258811D01*
X72900000Y-46445672D01*
X72881093Y-46503863D01*
X72873315Y-46512338D01*
X72873509Y-46512506D01*
X72774619Y-46626631D01*
X72774618Y-46626633D01*
X72774474Y-46626950D01*
X72774277Y-46627163D01*
X72770795Y-46632583D01*
X72769856Y-46631979D01*
X72733097Y-46672023D01*
X72673129Y-46684166D01*
X72617476Y-46658742D01*
X72609607Y-46650644D01*
X72581629Y-46618355D01*
X72581627Y-46618354D01*
X72460557Y-46540547D01*
X72460554Y-46540545D01*
X72460553Y-46540545D01*
X72460550Y-46540544D01*
X72322464Y-46499998D01*
X72322461Y-46499998D01*
X72178539Y-46499998D01*
X72178535Y-46499998D01*
X72040449Y-46540544D01*
X72040442Y-46540547D01*
X71919373Y-46618353D01*
X71825122Y-46727126D01*
X71765334Y-46858041D01*
X71744853Y-47000495D01*
X71744853Y-47000500D01*
X71765334Y-47142954D01*
X71825122Y-47273869D01*
X71825123Y-47273871D01*
X71832291Y-47282143D01*
X71919373Y-47382642D01*
X71929573Y-47389197D01*
X72040447Y-47460451D01*
X72149986Y-47492614D01*
X72200493Y-47527150D01*
X72221055Y-47584777D01*
X72203817Y-47643484D01*
X72192099Y-47657608D01*
X72092032Y-47757675D01*
X72037515Y-47785452D01*
X71977083Y-47775881D01*
X71933818Y-47732616D01*
X71931986Y-47728822D01*
X71906295Y-47672567D01*
X71812046Y-47563797D01*
X71812045Y-47563796D01*
X71812044Y-47563795D01*
X71690975Y-47485989D01*
X71690972Y-47485987D01*
X71690971Y-47485987D01*
X71690968Y-47485986D01*
X71552882Y-47445440D01*
X71552879Y-47445440D01*
X71408957Y-47445440D01*
X71408953Y-47445440D01*
X71270867Y-47485986D01*
X71270860Y-47485989D01*
X71149791Y-47563795D01*
X71055540Y-47672568D01*
X70995752Y-47803483D01*
X70975271Y-47945937D01*
X70975271Y-47945942D01*
X70995752Y-48088396D01*
X71028395Y-48159873D01*
X71035370Y-48220660D01*
X71005284Y-48273937D01*
X70949628Y-48299355D01*
X70938342Y-48300000D01*
X70399500Y-48300000D01*
X70341309Y-48281093D01*
X70305345Y-48231593D01*
X70300500Y-48201000D01*
X70300500Y-46499000D01*
X70319407Y-46440809D01*
X70368907Y-46404845D01*
X70399500Y-46400000D01*
X70799999Y-46400000D01*
X70800000Y-46400000D01*
X71771004Y-45428996D01*
X71825521Y-45401219D01*
X71841008Y-45400000D01*
X72697373Y-45400000D01*
X72755564Y-45418907D01*
G37*
%TD.AperFunction*%
%TD*%
M02*
