%TF.GenerationSoftware,KiCad,Pcbnew,7.0.5*%
%TF.CreationDate,2023-08-19T21:38:06+03:00*%
%TF.ProjectId,models-heart,6d6f6465-6c73-42d6-9865-6172742e6b69,rev?*%
%TF.SameCoordinates,Original*%
%TF.FileFunction,Legend,Bot*%
%TF.FilePolarity,Positive*%
%FSLAX46Y46*%
G04 Gerber Fmt 4.6, Leading zero omitted, Abs format (unit mm)*
G04 Created by KiCad (PCBNEW 7.0.5) date 2023-08-19 21:38:06*
%MOMM*%
%LPD*%
G01*
G04 APERTURE LIST*
%ADD10C,0.100000*%
%ADD11C,0.000000*%
%ADD12C,0.500000*%
%ADD13C,0.150000*%
%ADD14C,0.120000*%
G04 APERTURE END LIST*
D10*
X71400000Y-53000000D02*
G75*
G03*
X71400000Y-53000000I-600000J0D01*
G01*
X88100000Y-53000000D02*
X87800000Y-53000000D01*
X71450000Y-45250000D02*
X72250000Y-45250000D01*
X77000000Y-47800000D02*
X77200000Y-47800000D01*
X87600000Y-53000000D02*
X86800000Y-53000000D01*
D11*
G36*
X65416852Y-42678429D02*
G01*
X65431920Y-42709571D01*
X65441198Y-42722997D01*
X65451896Y-42735315D01*
X65478325Y-42757588D01*
X65512752Y-42778318D01*
X65556722Y-42799432D01*
X65611779Y-42822859D01*
X65761336Y-42884358D01*
X65801501Y-42900522D01*
X65839116Y-42913496D01*
X65874350Y-42923432D01*
X65907368Y-42930477D01*
X65938338Y-42934784D01*
X65967425Y-42936500D01*
X65994796Y-42935777D01*
X66020619Y-42932764D01*
X66045058Y-42927611D01*
X66068281Y-42920468D01*
X66090454Y-42911484D01*
X66111744Y-42900810D01*
X66132317Y-42888596D01*
X66152340Y-42874991D01*
X66171980Y-42860145D01*
X66191402Y-42844208D01*
X66230261Y-42809662D01*
X66270250Y-42772550D01*
X66312700Y-42734073D01*
X66358944Y-42695428D01*
X66383905Y-42676418D01*
X66410314Y-42657816D01*
X66438338Y-42639771D01*
X66468142Y-42622434D01*
X66499894Y-42605955D01*
X66533760Y-42590483D01*
X66569907Y-42576168D01*
X66608501Y-42563161D01*
X67127173Y-43081221D01*
X67116053Y-43107807D01*
X67103536Y-43134443D01*
X67089762Y-43161100D01*
X67074874Y-43187747D01*
X67059013Y-43214353D01*
X67042322Y-43240888D01*
X67007014Y-43293625D01*
X66860921Y-43495668D01*
X66836136Y-43530799D01*
X66813701Y-43561559D01*
X66776205Y-43612879D01*
X66761307Y-43634897D01*
X66754855Y-43645314D01*
X66749083Y-43655457D01*
X66743999Y-43665419D01*
X66739614Y-43675289D01*
X66735939Y-43685160D01*
X66732982Y-43695121D01*
X66730755Y-43705265D01*
X66729268Y-43715682D01*
X66728530Y-43726463D01*
X66728552Y-43737699D01*
X66729344Y-43749482D01*
X66730916Y-43761902D01*
X66733278Y-43775051D01*
X66736440Y-43789019D01*
X66740413Y-43803899D01*
X66745206Y-43819779D01*
X66750830Y-43836753D01*
X66757295Y-43854910D01*
X66772788Y-43895141D01*
X66791765Y-43941200D01*
X66809967Y-43985566D01*
X66824891Y-44025607D01*
X66848009Y-44093865D01*
X66857751Y-44122660D01*
X66867317Y-44148282D01*
X66877480Y-44171020D01*
X66883028Y-44181398D01*
X66889016Y-44191163D01*
X66895541Y-44200352D01*
X66902700Y-44208999D01*
X66910589Y-44217143D01*
X66919306Y-44224817D01*
X66928947Y-44232059D01*
X66939609Y-44238904D01*
X66951390Y-44245389D01*
X66964386Y-44251550D01*
X66978693Y-44257422D01*
X66994409Y-44263042D01*
X67011631Y-44268445D01*
X67030456Y-44273668D01*
X67073299Y-44283718D01*
X67123715Y-44293480D01*
X67417197Y-44343559D01*
X67489859Y-44356888D01*
X67559886Y-44371189D01*
X67626105Y-44386785D01*
X67687339Y-44404000D01*
X67687339Y-45153459D01*
X67657418Y-45162288D01*
X67626105Y-45170667D01*
X67559886Y-45186216D01*
X67489859Y-45200388D01*
X67417197Y-45213468D01*
X67123715Y-45260525D01*
X67073299Y-45270325D01*
X67030456Y-45280485D01*
X67011631Y-45285786D01*
X66994409Y-45291282D01*
X66978693Y-45297007D01*
X66964386Y-45302995D01*
X66951390Y-45309282D01*
X66939609Y-45315902D01*
X66928947Y-45322890D01*
X66919306Y-45330281D01*
X66910589Y-45338109D01*
X66902700Y-45346410D01*
X66895541Y-45355218D01*
X66889016Y-45364568D01*
X66883028Y-45374495D01*
X66877480Y-45385034D01*
X66867317Y-45408084D01*
X66857751Y-45433998D01*
X66848009Y-45463054D01*
X66824891Y-45531703D01*
X66809967Y-45571854D01*
X66791765Y-45616259D01*
X66776338Y-45655278D01*
X66763697Y-45691522D01*
X66753731Y-45725189D01*
X66746327Y-45756479D01*
X66741375Y-45785591D01*
X66738763Y-45812725D01*
X66738380Y-45838078D01*
X66740114Y-45861852D01*
X66743854Y-45884244D01*
X66749488Y-45905454D01*
X66756905Y-45925682D01*
X66765994Y-45945126D01*
X66776642Y-45963985D01*
X66788740Y-45982460D01*
X66802174Y-46000749D01*
X66816834Y-46019050D01*
X66849386Y-46056491D01*
X66885504Y-46096375D01*
X66924297Y-46140296D01*
X66964872Y-46189848D01*
X66985550Y-46217234D01*
X67006339Y-46246625D01*
X67027128Y-46278220D01*
X67047805Y-46312220D01*
X67068260Y-46348822D01*
X67088381Y-46388226D01*
X67108056Y-46430632D01*
X67127173Y-46476238D01*
X66608501Y-46994298D01*
X66572283Y-46981927D01*
X66538096Y-46968225D01*
X66505805Y-46953338D01*
X66475274Y-46937412D01*
X66446366Y-46920593D01*
X66418945Y-46903028D01*
X66392875Y-46884861D01*
X66368021Y-46866240D01*
X66321412Y-46828218D01*
X66278030Y-46790129D01*
X66236785Y-46753144D01*
X66196589Y-46718431D01*
X66156352Y-46687158D01*
X66135878Y-46673176D01*
X66114986Y-46660493D01*
X66093539Y-46649255D01*
X66071401Y-46639606D01*
X66048436Y-46631695D01*
X66024509Y-46625666D01*
X65999482Y-46621666D01*
X65973220Y-46619840D01*
X65945586Y-46620336D01*
X65916445Y-46623298D01*
X65885660Y-46628874D01*
X65853096Y-46637208D01*
X65818616Y-46648448D01*
X65782083Y-46662739D01*
X65553868Y-46759444D01*
X65533094Y-46768995D01*
X65514142Y-46778910D01*
X65496912Y-46789247D01*
X65481301Y-46800066D01*
X65467206Y-46811426D01*
X65454527Y-46823387D01*
X65443161Y-46836008D01*
X65433006Y-46849349D01*
X65423961Y-46863469D01*
X65415922Y-46878427D01*
X65408789Y-46894284D01*
X65402460Y-46911098D01*
X65396832Y-46928929D01*
X65391804Y-46947836D01*
X65387273Y-46967879D01*
X65383138Y-46989117D01*
X65375648Y-47035417D01*
X65368517Y-47087211D01*
X65352072Y-47209184D01*
X65341127Y-47280315D01*
X65327280Y-47358842D01*
X65319013Y-47401027D01*
X65309714Y-47445241D01*
X65299283Y-47491541D01*
X65287616Y-47539987D01*
X64526897Y-47553802D01*
X64392042Y-46825065D01*
X64335870Y-46808568D01*
X64284504Y-46792166D01*
X64194987Y-46760031D01*
X64121092Y-46729424D01*
X64060416Y-46701108D01*
X63969122Y-46654409D01*
X63933701Y-46637552D01*
X63901897Y-46626044D01*
X63886601Y-46622533D01*
X63871308Y-46620646D01*
X63855720Y-46620478D01*
X63839535Y-46622124D01*
X63822453Y-46625680D01*
X63804175Y-46631242D01*
X63784400Y-46638904D01*
X63762828Y-46648763D01*
X63713093Y-46675451D01*
X63652570Y-46712070D01*
X63489553Y-46818157D01*
X63452131Y-46843858D01*
X63417101Y-46868992D01*
X63383610Y-46893316D01*
X63350808Y-46916589D01*
X63334399Y-46927754D01*
X63317844Y-46938566D01*
X63301035Y-46948993D01*
X63283867Y-46959005D01*
X63266232Y-46968572D01*
X63248026Y-46977663D01*
X63229140Y-46986248D01*
X63209469Y-46994298D01*
X62687339Y-46476238D01*
X62697891Y-46448020D01*
X62709998Y-46420324D01*
X62723512Y-46393103D01*
X62738288Y-46366312D01*
X62754179Y-46339906D01*
X62771036Y-46313838D01*
X62788715Y-46288064D01*
X62807066Y-46262538D01*
X62845204Y-46212048D01*
X62884273Y-46162002D01*
X62923099Y-46112038D01*
X62960507Y-46061790D01*
X62993440Y-46013981D01*
X63007014Y-45992881D01*
X63018770Y-45973477D01*
X63028791Y-45955642D01*
X63037161Y-45939247D01*
X63043961Y-45924162D01*
X63049276Y-45910258D01*
X63053187Y-45897406D01*
X63055778Y-45885478D01*
X63057133Y-45874344D01*
X63057333Y-45863875D01*
X63056461Y-45853943D01*
X63054602Y-45844418D01*
X63051836Y-45835171D01*
X63048249Y-45826073D01*
X63038938Y-45807810D01*
X63027333Y-45788595D01*
X63014097Y-45767397D01*
X62999893Y-45743184D01*
X62985386Y-45714923D01*
X62978226Y-45698952D01*
X62971238Y-45681583D01*
X62964506Y-45662686D01*
X62958113Y-45642132D01*
X62952142Y-45619792D01*
X62946675Y-45595537D01*
X64153453Y-45080931D01*
X64174453Y-45104985D01*
X64198756Y-45136082D01*
X64258484Y-45213899D01*
X64294517Y-45257867D01*
X64335069Y-45303373D01*
X64380443Y-45349040D01*
X64405033Y-45371504D01*
X64430942Y-45393493D01*
X64458209Y-45414835D01*
X64486872Y-45435356D01*
X64516968Y-45454886D01*
X64548535Y-45473253D01*
X64581612Y-45490284D01*
X64616236Y-45505807D01*
X64652446Y-45519651D01*
X64690279Y-45531643D01*
X64729773Y-45541611D01*
X64770967Y-45549383D01*
X64813898Y-45554788D01*
X64858604Y-45557654D01*
X64905124Y-45557807D01*
X64953495Y-45555077D01*
X65003755Y-45549291D01*
X65055942Y-45540277D01*
X65131009Y-45521577D01*
X65201255Y-45497447D01*
X65266685Y-45468243D01*
X65327300Y-45434324D01*
X65383103Y-45396047D01*
X65434097Y-45353768D01*
X65480284Y-45307845D01*
X65521667Y-45258636D01*
X65558248Y-45206498D01*
X65590030Y-45151787D01*
X65617015Y-45094862D01*
X65639205Y-45036079D01*
X65656605Y-44975797D01*
X65669215Y-44914372D01*
X65677038Y-44852161D01*
X65680078Y-44789522D01*
X65678336Y-44726813D01*
X65671815Y-44664389D01*
X65660517Y-44602610D01*
X65644446Y-44541832D01*
X65623603Y-44482412D01*
X65597992Y-44424708D01*
X65567614Y-44369076D01*
X65532472Y-44315875D01*
X65492569Y-44265462D01*
X65447908Y-44218194D01*
X65398490Y-44174427D01*
X65344319Y-44134521D01*
X65285396Y-44098831D01*
X65221725Y-44067715D01*
X65153308Y-44041531D01*
X65080147Y-44020635D01*
X65027674Y-44009690D01*
X64977200Y-44002000D01*
X64928678Y-43997399D01*
X64882059Y-43995724D01*
X64837296Y-43996808D01*
X64794343Y-44000487D01*
X64753151Y-44006596D01*
X64713673Y-44014969D01*
X64675861Y-44025442D01*
X64639668Y-44037849D01*
X64605047Y-44052026D01*
X64571950Y-44067807D01*
X64540329Y-44085028D01*
X64510137Y-44103522D01*
X64453850Y-44143675D01*
X64402710Y-44186943D01*
X64356336Y-44232008D01*
X64314348Y-44277548D01*
X64276367Y-44322243D01*
X64210905Y-44403817D01*
X64182664Y-44438055D01*
X64156911Y-44466167D01*
X62939760Y-43975737D01*
X62945531Y-43951129D01*
X62951772Y-43928385D01*
X62958404Y-43907383D01*
X62965349Y-43888004D01*
X62972530Y-43870128D01*
X62979868Y-43853634D01*
X62994707Y-43824312D01*
X63009241Y-43799079D01*
X63022849Y-43776972D01*
X63034907Y-43757030D01*
X63044791Y-43738293D01*
X63048724Y-43729075D01*
X63051880Y-43719798D01*
X63054181Y-43710342D01*
X63055550Y-43700585D01*
X63055908Y-43690409D01*
X63055177Y-43679692D01*
X63053281Y-43668316D01*
X63050140Y-43656159D01*
X63045677Y-43643101D01*
X63039815Y-43629023D01*
X63032474Y-43613804D01*
X63023578Y-43597324D01*
X63013049Y-43579463D01*
X63000808Y-43560100D01*
X62986778Y-43539116D01*
X62970880Y-43516391D01*
X62815279Y-43306577D01*
X62795783Y-43278620D01*
X62776986Y-43250480D01*
X62759101Y-43222220D01*
X62742341Y-43193899D01*
X62726917Y-43165577D01*
X62713044Y-43137317D01*
X62700933Y-43109178D01*
X62690798Y-43081221D01*
X63206012Y-42556253D01*
X63240295Y-42571745D01*
X63274425Y-42589523D01*
X63308414Y-42609284D01*
X63342271Y-42630725D01*
X63376007Y-42653541D01*
X63409631Y-42677431D01*
X63476586Y-42727213D01*
X63543216Y-42777643D01*
X63609603Y-42826292D01*
X63642731Y-42849190D01*
X63675829Y-42870732D01*
X63708906Y-42890614D01*
X63741973Y-42908534D01*
X63755850Y-42914841D01*
X63770851Y-42919571D01*
X63786906Y-42922804D01*
X63803943Y-42924622D01*
X63821893Y-42925108D01*
X63840683Y-42924341D01*
X63860243Y-42922405D01*
X63880502Y-42919381D01*
X63922833Y-42910393D01*
X63967109Y-42898031D01*
X64012763Y-42882947D01*
X64059227Y-42865794D01*
X64152318Y-42827891D01*
X64241843Y-42789542D01*
X64323264Y-42755969D01*
X64359517Y-42742606D01*
X64392042Y-42732394D01*
X64523439Y-42014018D01*
X65287616Y-42003656D01*
X65416852Y-42678429D01*
G37*
G36*
X66503190Y-36803964D02*
G01*
X66566483Y-36808790D01*
X66628868Y-36816738D01*
X66690266Y-36827728D01*
X66750598Y-36841684D01*
X66809784Y-36858525D01*
X66867746Y-36878175D01*
X66924405Y-36900554D01*
X66979680Y-36925583D01*
X67033494Y-36953186D01*
X67085766Y-36983283D01*
X67136419Y-37015795D01*
X67185372Y-37050645D01*
X67232546Y-37087753D01*
X67277863Y-37127042D01*
X67321243Y-37168434D01*
X67362607Y-37211849D01*
X67401876Y-37257209D01*
X67438971Y-37304436D01*
X67473812Y-37353451D01*
X67506321Y-37404177D01*
X67536418Y-37456534D01*
X67564025Y-37510444D01*
X67589061Y-37565829D01*
X67611449Y-37622610D01*
X67631108Y-37680709D01*
X67647960Y-37740048D01*
X67661925Y-37800547D01*
X67672925Y-37862130D01*
X67680880Y-37924717D01*
X67685711Y-37988229D01*
X67687339Y-38052589D01*
X67686427Y-38109979D01*
X67683691Y-38165624D01*
X67679131Y-38219579D01*
X67672745Y-38271901D01*
X67664533Y-38322643D01*
X67654494Y-38371863D01*
X67642628Y-38419616D01*
X67628934Y-38465957D01*
X67613412Y-38510942D01*
X67596061Y-38554627D01*
X67576879Y-38597068D01*
X67555868Y-38638320D01*
X67533025Y-38678438D01*
X67508351Y-38717479D01*
X67481844Y-38755498D01*
X67453504Y-38792550D01*
X67423331Y-38828692D01*
X67391324Y-38863979D01*
X67321803Y-38932211D01*
X67244939Y-38997690D01*
X67160725Y-39060862D01*
X67069156Y-39122173D01*
X66970228Y-39182067D01*
X66863934Y-39240989D01*
X66750271Y-39299386D01*
X66863934Y-39358352D01*
X66970228Y-39417703D01*
X67069156Y-39477903D01*
X67160725Y-39539420D01*
X67244939Y-39602717D01*
X67321803Y-39668260D01*
X67391324Y-39736515D01*
X67423331Y-39771805D01*
X67453504Y-39807947D01*
X67481844Y-39845000D01*
X67508351Y-39883022D01*
X67533025Y-39922071D01*
X67555868Y-39962205D01*
X67576879Y-40003482D01*
X67596061Y-40045961D01*
X67613412Y-40089700D01*
X67628934Y-40134756D01*
X67642628Y-40181189D01*
X67654494Y-40229056D01*
X67664533Y-40278416D01*
X67672745Y-40329326D01*
X67679131Y-40381844D01*
X67683691Y-40436030D01*
X67686427Y-40491941D01*
X67687339Y-40549636D01*
X67685711Y-40613682D01*
X67680880Y-40676900D01*
X67672925Y-40739212D01*
X67661925Y-40800537D01*
X67647960Y-40860798D01*
X67631108Y-40919914D01*
X67611449Y-40977808D01*
X67589061Y-41034399D01*
X67564025Y-41089610D01*
X67536418Y-41143360D01*
X67506321Y-41195570D01*
X67473812Y-41246163D01*
X67438971Y-41295058D01*
X67401876Y-41342177D01*
X67362607Y-41387440D01*
X67321243Y-41430769D01*
X67277863Y-41472084D01*
X67232546Y-41511307D01*
X67185372Y-41548358D01*
X67136419Y-41583158D01*
X67085766Y-41615628D01*
X67033494Y-41645690D01*
X66979680Y-41673264D01*
X66924405Y-41698271D01*
X66867746Y-41720632D01*
X66809784Y-41740268D01*
X66750598Y-41757100D01*
X66690266Y-41771049D01*
X66628868Y-41782036D01*
X66566483Y-41789981D01*
X66503190Y-41794806D01*
X66439068Y-41796432D01*
X66321728Y-41792818D01*
X66204408Y-41782125D01*
X66087105Y-41764582D01*
X65969818Y-41740417D01*
X65852547Y-41709857D01*
X65735290Y-41673130D01*
X65618045Y-41630464D01*
X65500812Y-41582085D01*
X65266374Y-41469104D01*
X65031967Y-41336007D01*
X64797580Y-41184616D01*
X64563204Y-41016753D01*
X64328827Y-40834238D01*
X64094440Y-40638893D01*
X63860033Y-40432540D01*
X63625596Y-40216998D01*
X63156589Y-39765639D01*
X62687339Y-39299386D01*
X63156589Y-38834124D01*
X63625596Y-38383230D01*
X63860033Y-38167762D01*
X64094440Y-37961395D01*
X64328827Y-37765967D01*
X64563204Y-37583313D01*
X64797580Y-37415270D01*
X65031967Y-37263674D01*
X65266374Y-37130362D01*
X65500812Y-37017171D01*
X65618045Y-36968694D01*
X65735290Y-36925936D01*
X65852547Y-36889127D01*
X65969818Y-36858495D01*
X66087105Y-36834271D01*
X66204408Y-36816683D01*
X66321728Y-36805963D01*
X66439068Y-36802338D01*
X66503190Y-36803964D01*
G37*
D10*
X73200000Y-47800000D02*
X72400000Y-47800000D01*
X87050000Y-55100000D02*
X86600000Y-55100000D01*
X86950000Y-56000000D01*
X86050000Y-54900000D01*
X86500000Y-54900000D01*
X86150000Y-54000000D01*
X87050000Y-55100000D01*
G36*
X87050000Y-55100000D02*
G01*
X86600000Y-55100000D01*
X86950000Y-56000000D01*
X86050000Y-54900000D01*
X86500000Y-54900000D01*
X86150000Y-54000000D01*
X87050000Y-55100000D01*
G37*
X73400000Y-47800000D02*
G75*
G03*
X73400000Y-47800000I-600000J0D01*
G01*
X72250000Y-45500000D02*
X72250000Y-45250000D01*
X80300000Y-46500000D02*
X79700000Y-46500000D01*
X82300000Y-46500000D02*
X81700000Y-46500000D01*
X88600000Y-46800000D02*
X88600000Y-48700000D01*
X90000000Y-47800000D02*
G75*
G03*
X90000000Y-47800000I-600000J0D01*
G01*
D12*
X69700000Y-58700000D02*
X69700000Y-27300000D01*
D10*
X88200000Y-53400000D02*
X88200000Y-52500000D01*
X72700000Y-53400000D02*
X72700000Y-52600000D01*
X87800000Y-53000000D02*
G75*
G03*
X87800000Y-53000000I-600000J0D01*
G01*
X89000000Y-47800000D02*
X89800000Y-47800000D01*
X86650000Y-57750000D02*
X86450000Y-57750000D01*
X86450000Y-57250000D01*
X86650000Y-57250000D01*
X86650000Y-57750000D01*
G36*
X86650000Y-57750000D02*
G01*
X86450000Y-57750000D01*
X86450000Y-57250000D01*
X86650000Y-57250000D01*
X86650000Y-57750000D01*
G37*
X75400000Y-53000000D02*
G75*
G03*
X75400000Y-53000000I-600000J0D01*
G01*
X86600000Y-46600000D02*
X86800000Y-46600000D01*
X86200000Y-58000000D02*
X86900000Y-58000000D01*
X86900000Y-57450000D01*
X87050000Y-57450000D01*
X87050000Y-58150000D01*
X86050000Y-58150000D01*
X86050000Y-57450000D01*
X86200000Y-57450000D01*
X86200000Y-58000000D01*
G36*
X86200000Y-58000000D02*
G01*
X86900000Y-58000000D01*
X86900000Y-57450000D01*
X87050000Y-57450000D01*
X87050000Y-58150000D01*
X86050000Y-58150000D01*
X86050000Y-57450000D01*
X86200000Y-57450000D01*
X86200000Y-58000000D01*
G37*
X77000000Y-47800000D02*
G75*
G03*
X77000000Y-47800000I-600000J0D01*
G01*
D12*
X69700000Y-50300000D02*
X91000000Y-50300000D01*
D10*
X89900000Y-53000000D02*
G75*
G03*
X89900000Y-53000000I-600000J0D01*
G01*
X86900000Y-47800000D02*
X87700000Y-47800000D01*
X70500000Y-53250000D02*
X71050000Y-53250000D01*
X71050000Y-52750000D01*
X71100000Y-52750000D01*
X71100000Y-53300000D01*
X70450000Y-53300000D01*
X70450000Y-52750000D01*
X70500000Y-52750000D01*
X70500000Y-53250000D01*
G36*
X70500000Y-53250000D02*
G01*
X71050000Y-53250000D01*
X71050000Y-52750000D01*
X71100000Y-52750000D01*
X71100000Y-53300000D01*
X70450000Y-53300000D01*
X70450000Y-52750000D01*
X70500000Y-52750000D01*
X70500000Y-53250000D01*
G37*
X70800000Y-53050000D02*
X70750000Y-53050000D01*
X70750000Y-52600000D01*
X70800000Y-52600000D01*
X70800000Y-53050000D01*
G36*
X70800000Y-53050000D02*
G01*
X70750000Y-53050000D01*
X70750000Y-52600000D01*
X70800000Y-52600000D01*
X70800000Y-53050000D01*
G37*
X84300000Y-46500000D02*
X83700000Y-46500000D01*
X84750000Y-48050000D02*
X85250000Y-48050000D01*
X88200000Y-47800000D02*
X87900000Y-47800000D01*
X89300000Y-53400000D02*
X89300000Y-52600000D01*
X85000000Y-48550000D02*
X85250000Y-48050000D01*
X88200000Y-48200000D02*
X88200000Y-47300000D01*
X88500000Y-52000000D02*
X88500000Y-53900000D01*
X75300000Y-47800000D02*
G75*
G03*
X75300000Y-47800000I-600000J0D01*
G01*
X72800000Y-48200000D02*
X72800000Y-47400000D01*
X88500000Y-53000000D02*
X88700000Y-53000000D01*
X88600000Y-47800000D02*
X88800000Y-47800000D01*
X89400000Y-47400000D02*
X89400000Y-48200000D01*
X86400000Y-46400000D02*
X87000000Y-46400000D01*
X73100000Y-53000000D02*
X72300000Y-53000000D01*
X72250000Y-47250000D02*
X72250000Y-47000000D01*
X86200000Y-46200000D02*
X87200000Y-46200000D01*
X82700000Y-47750000D02*
X83300000Y-47750000D01*
D11*
G36*
X65349772Y-32582744D02*
G01*
X65412507Y-32590375D01*
X65474986Y-32600551D01*
X65537121Y-32613287D01*
X65598823Y-32628597D01*
X65660003Y-32646495D01*
X65720572Y-32666995D01*
X65780443Y-32690110D01*
X65839526Y-32715855D01*
X65897732Y-32744243D01*
X65954974Y-32775288D01*
X66000149Y-32801974D01*
X66044715Y-32830116D01*
X66088390Y-32859554D01*
X66130890Y-32890124D01*
X66171932Y-32921667D01*
X66211231Y-32954018D01*
X66248503Y-32987018D01*
X66266291Y-33003709D01*
X66283466Y-33020503D01*
X66342116Y-33081487D01*
X66397372Y-33146382D01*
X66449082Y-33214889D01*
X66497094Y-33286710D01*
X66541258Y-33361546D01*
X66581419Y-33439099D01*
X66617427Y-33519070D01*
X66649130Y-33601161D01*
X66676376Y-33685074D01*
X66699012Y-33770509D01*
X66716887Y-33857168D01*
X66729849Y-33944754D01*
X66737745Y-34032966D01*
X66740425Y-34121508D01*
X66737735Y-34210080D01*
X66729524Y-34298383D01*
X66721956Y-34354246D01*
X66712256Y-34410326D01*
X66700478Y-34466436D01*
X66686680Y-34522390D01*
X66670916Y-34578000D01*
X66653243Y-34633078D01*
X66633716Y-34687438D01*
X66612391Y-34740892D01*
X66589323Y-34793254D01*
X66564569Y-34844336D01*
X66538184Y-34893950D01*
X66510223Y-34941910D01*
X66497851Y-34961266D01*
X66480743Y-34988029D01*
X66449799Y-35032119D01*
X66417447Y-35073993D01*
X66383743Y-35113464D01*
X66355844Y-35144588D01*
X66331065Y-35171422D01*
X66308313Y-35195180D01*
X66286492Y-35217076D01*
X66264509Y-35238324D01*
X66241270Y-35260139D01*
X66203937Y-35294441D01*
X66186648Y-35310326D01*
X66181797Y-35314976D01*
X66176369Y-35319837D01*
X66170434Y-35324882D01*
X66164064Y-35330077D01*
X66150300Y-35340803D01*
X66135645Y-35351771D01*
X66105929Y-35373465D01*
X66092004Y-35383705D01*
X66079455Y-35393216D01*
X66065327Y-35403273D01*
X66051361Y-35412805D01*
X66037394Y-35421932D01*
X66023266Y-35430775D01*
X66008813Y-35439457D01*
X65993874Y-35448098D01*
X65978287Y-35456820D01*
X65961890Y-35465744D01*
X65906534Y-35495730D01*
X65850672Y-35523500D01*
X65794284Y-35549024D01*
X65737348Y-35572270D01*
X65679845Y-35593210D01*
X65621754Y-35611813D01*
X65563056Y-35628048D01*
X65503729Y-35641885D01*
X65443754Y-35653293D01*
X65383111Y-35662243D01*
X65321779Y-35668703D01*
X65308363Y-35669555D01*
X65259737Y-35672644D01*
X65205905Y-35673837D01*
X65196967Y-35674035D01*
X65133446Y-35672846D01*
X65069774Y-35669084D01*
X65069156Y-35669047D01*
X65004075Y-35662607D01*
X64929891Y-35652036D01*
X64856537Y-35637864D01*
X64784136Y-35620170D01*
X64712808Y-35599037D01*
X64642676Y-35574543D01*
X64573861Y-35546772D01*
X64506484Y-35515803D01*
X64440668Y-35481718D01*
X64376533Y-35444597D01*
X64314201Y-35404521D01*
X64253794Y-35361572D01*
X64195433Y-35315831D01*
X64170742Y-35294540D01*
X64139240Y-35267377D01*
X64085337Y-35216293D01*
X64033844Y-35162659D01*
X64008996Y-35134186D01*
X64350548Y-35134186D01*
X64363389Y-35145654D01*
X64378393Y-35157937D01*
X64395291Y-35170878D01*
X64413816Y-35184319D01*
X64454668Y-35212077D01*
X64498802Y-35239957D01*
X64544071Y-35266703D01*
X64588327Y-35291061D01*
X64629422Y-35311777D01*
X64648114Y-35320377D01*
X64665209Y-35327595D01*
X64713794Y-35347198D01*
X64761488Y-35364615D01*
X64809019Y-35379927D01*
X64857118Y-35393216D01*
X64881608Y-35399127D01*
X64906513Y-35404562D01*
X64931925Y-35409532D01*
X64957935Y-35414046D01*
X65012112Y-35421749D01*
X65069774Y-35427753D01*
X65308363Y-35427753D01*
X65331294Y-35427614D01*
X65355820Y-35425993D01*
X65381673Y-35423025D01*
X65408585Y-35418849D01*
X65436288Y-35413600D01*
X65464512Y-35407415D01*
X65492989Y-35400431D01*
X65521451Y-35392784D01*
X65577255Y-35376048D01*
X65629777Y-35358301D01*
X65676870Y-35340634D01*
X65716385Y-35324141D01*
X65739938Y-35314154D01*
X65762660Y-35303662D01*
X65784613Y-35292724D01*
X65805856Y-35281401D01*
X65826451Y-35269755D01*
X65846458Y-35257846D01*
X65865939Y-35245734D01*
X65884953Y-35233481D01*
X65921828Y-35208792D01*
X65957567Y-35184265D01*
X65992659Y-35160386D01*
X66027588Y-35137640D01*
X66025524Y-35133117D01*
X66023228Y-35128615D01*
X66017991Y-35119676D01*
X66011975Y-35110828D01*
X66005274Y-35102077D01*
X65997987Y-35093427D01*
X65990207Y-35084883D01*
X65982033Y-35076450D01*
X65973560Y-35068133D01*
X65956102Y-35051870D01*
X65938603Y-35036132D01*
X65921834Y-35020962D01*
X65913964Y-35013601D01*
X65906565Y-35006398D01*
X65543494Y-34640302D01*
X65532344Y-34644347D01*
X65522045Y-34648700D01*
X65512313Y-34653347D01*
X65502865Y-34658272D01*
X65462236Y-34680452D01*
X65449951Y-34686541D01*
X65436248Y-34692817D01*
X65420843Y-34699265D01*
X65403453Y-34705869D01*
X65383793Y-34712616D01*
X65361581Y-34719489D01*
X65336532Y-34726473D01*
X65308363Y-34733553D01*
X65308363Y-35427753D01*
X65069774Y-35427753D01*
X65069774Y-34730099D01*
X65049812Y-34727156D01*
X65031319Y-34723549D01*
X65014143Y-34719346D01*
X64998132Y-34714611D01*
X64983134Y-34709411D01*
X64968997Y-34703812D01*
X64955570Y-34697878D01*
X64942699Y-34691677D01*
X64930234Y-34685273D01*
X64918022Y-34678732D01*
X64893749Y-34665504D01*
X64881385Y-34658948D01*
X64868667Y-34652519D01*
X64855442Y-34646281D01*
X64841558Y-34640302D01*
X64350548Y-35134186D01*
X64008996Y-35134186D01*
X63984884Y-35106556D01*
X63938579Y-35048065D01*
X63895049Y-34987268D01*
X63854416Y-34924244D01*
X63816802Y-34859075D01*
X63782329Y-34791842D01*
X63751117Y-34722625D01*
X63723289Y-34651507D01*
X63698966Y-34578567D01*
X63678270Y-34503887D01*
X63661322Y-34427547D01*
X63648244Y-34349629D01*
X63639157Y-34270214D01*
X63637490Y-34243124D01*
X63880285Y-34243124D01*
X63880957Y-34267583D01*
X63882899Y-34292933D01*
X63886007Y-34319011D01*
X63890173Y-34345656D01*
X63895291Y-34372706D01*
X63901255Y-34399998D01*
X63907959Y-34427372D01*
X63915296Y-34454664D01*
X63931444Y-34508359D01*
X63948848Y-34559787D01*
X63966657Y-34607654D01*
X63984020Y-34650664D01*
X63994019Y-34674189D01*
X64004524Y-34696884D01*
X64015475Y-34718811D01*
X64026810Y-34740029D01*
X64038470Y-34760599D01*
X64050394Y-34780583D01*
X64062520Y-34800041D01*
X64074788Y-34819033D01*
X64099506Y-34855864D01*
X64124061Y-34891561D01*
X64147969Y-34926611D01*
X64170742Y-34961500D01*
X64184767Y-34952766D01*
X64206603Y-34935178D01*
X64235064Y-34910002D01*
X64268965Y-34878502D01*
X64348347Y-34801589D01*
X64435265Y-34714558D01*
X64520238Y-34627526D01*
X64593784Y-34550613D01*
X64646421Y-34493937D01*
X64661936Y-34476349D01*
X64668667Y-34467616D01*
X64661199Y-34450790D01*
X64654309Y-34436296D01*
X64647925Y-34423715D01*
X64641977Y-34412626D01*
X64631104Y-34393246D01*
X64621122Y-34374797D01*
X64616288Y-34364871D01*
X64611465Y-34353919D01*
X64606580Y-34341520D01*
X64601564Y-34327254D01*
X64596345Y-34310701D01*
X64590853Y-34291442D01*
X64585016Y-34269056D01*
X64578764Y-34243124D01*
X63880285Y-34243124D01*
X63637490Y-34243124D01*
X63634183Y-34189381D01*
X63633553Y-34119377D01*
X64804883Y-34119377D01*
X64805231Y-34139646D01*
X64806624Y-34159562D01*
X64809032Y-34179105D01*
X64812421Y-34198258D01*
X64816759Y-34217005D01*
X64822014Y-34235326D01*
X64828153Y-34253205D01*
X64835144Y-34270623D01*
X64842956Y-34287563D01*
X64851555Y-34304008D01*
X64860909Y-34319939D01*
X64870987Y-34335338D01*
X64881755Y-34350189D01*
X64893182Y-34364473D01*
X64905234Y-34378173D01*
X64917881Y-34391271D01*
X64931090Y-34403749D01*
X64944827Y-34415590D01*
X64959062Y-34426775D01*
X64973761Y-34437288D01*
X64988893Y-34447110D01*
X65004425Y-34456223D01*
X65020325Y-34464611D01*
X65036560Y-34472255D01*
X65053099Y-34479138D01*
X65069909Y-34485241D01*
X65086957Y-34490548D01*
X65104212Y-34495040D01*
X65121641Y-34498700D01*
X65143205Y-34502297D01*
X65164449Y-34504695D01*
X65185355Y-34505926D01*
X65205905Y-34506025D01*
X65226083Y-34505027D01*
X65245871Y-34502964D01*
X65265254Y-34499873D01*
X65284212Y-34495785D01*
X65302730Y-34490737D01*
X65320790Y-34484761D01*
X65338375Y-34477893D01*
X65353469Y-34471070D01*
X65706011Y-34471070D01*
X66203937Y-34958045D01*
X66229992Y-34927402D01*
X66256128Y-34892762D01*
X66282102Y-34854580D01*
X66307671Y-34813313D01*
X66332592Y-34769414D01*
X66356621Y-34723340D01*
X66379515Y-34675546D01*
X66401032Y-34626487D01*
X66420928Y-34576619D01*
X66438960Y-34526397D01*
X66454885Y-34476276D01*
X66468459Y-34426711D01*
X66479441Y-34378158D01*
X66487585Y-34331072D01*
X66492651Y-34285909D01*
X66494393Y-34243124D01*
X65802830Y-34243124D01*
X65792713Y-34279266D01*
X65787772Y-34295532D01*
X65782840Y-34310795D01*
X65777867Y-34325209D01*
X65772804Y-34338924D01*
X65767599Y-34352093D01*
X65762201Y-34364868D01*
X65756560Y-34377399D01*
X65750625Y-34389840D01*
X65744346Y-34402341D01*
X65737672Y-34415055D01*
X65722936Y-34441727D01*
X65706011Y-34471070D01*
X65353469Y-34471070D01*
X65355469Y-34470166D01*
X65372053Y-34461614D01*
X65388111Y-34452271D01*
X65403626Y-34442172D01*
X65418581Y-34431352D01*
X65432958Y-34419843D01*
X65446740Y-34407680D01*
X65459911Y-34394897D01*
X65472454Y-34381529D01*
X65484350Y-34367609D01*
X65495584Y-34353172D01*
X65506137Y-34338252D01*
X65515994Y-34322883D01*
X65525136Y-34307099D01*
X65533547Y-34290934D01*
X65541210Y-34274423D01*
X65548107Y-34257599D01*
X65554221Y-34240497D01*
X65559536Y-34223151D01*
X65564035Y-34205596D01*
X65567699Y-34187864D01*
X65570987Y-34166638D01*
X65573093Y-34145714D01*
X65574052Y-34125109D01*
X65573899Y-34104839D01*
X65572666Y-34084924D01*
X65570388Y-34065381D01*
X65567101Y-34046228D01*
X65562836Y-34027481D01*
X65557630Y-34009160D01*
X65551516Y-33991281D01*
X65546952Y-33979905D01*
X65544528Y-33973863D01*
X65536700Y-33956922D01*
X65528067Y-33940478D01*
X65518663Y-33924547D01*
X65508522Y-33909147D01*
X65497678Y-33894297D01*
X65486166Y-33880012D01*
X65474019Y-33866313D01*
X65461272Y-33853215D01*
X65447959Y-33840737D01*
X65434114Y-33828896D01*
X65419771Y-33817711D01*
X65404965Y-33807198D01*
X65389730Y-33797376D01*
X65374099Y-33788263D01*
X65358108Y-33779875D01*
X65351691Y-33776869D01*
X65709469Y-33776869D01*
X65736646Y-33829485D01*
X65749160Y-33854153D01*
X65760904Y-33879186D01*
X65766475Y-33892181D01*
X65771838Y-33905676D01*
X65776989Y-33919809D01*
X65781921Y-33934716D01*
X65786631Y-33950533D01*
X65791113Y-33967398D01*
X65795362Y-33985447D01*
X65799372Y-34004816D01*
X66497851Y-34004816D01*
X66494207Y-33953378D01*
X66487342Y-33901561D01*
X66477519Y-33849633D01*
X66465002Y-33797862D01*
X66450053Y-33746515D01*
X66432936Y-33695862D01*
X66413915Y-33646170D01*
X66393252Y-33597707D01*
X66371212Y-33550742D01*
X66348057Y-33505543D01*
X66324052Y-33462377D01*
X66299459Y-33421513D01*
X66274542Y-33383219D01*
X66249564Y-33347764D01*
X66224788Y-33315415D01*
X66200479Y-33286440D01*
X65709469Y-33776869D01*
X65351691Y-33776869D01*
X65341790Y-33772231D01*
X65325179Y-33765348D01*
X65308310Y-33759245D01*
X65291217Y-33753938D01*
X65273934Y-33749446D01*
X65256496Y-33745786D01*
X65235235Y-33742806D01*
X65214257Y-33740967D01*
X65193581Y-33740238D01*
X65173224Y-33740585D01*
X65153208Y-33741977D01*
X65133549Y-33744382D01*
X65114268Y-33747767D01*
X65095383Y-33752100D01*
X65076914Y-33757348D01*
X65058879Y-33763480D01*
X65041297Y-33770464D01*
X65024187Y-33778266D01*
X65007569Y-33786855D01*
X64991461Y-33796198D01*
X64975883Y-33806264D01*
X64960853Y-33817019D01*
X64946390Y-33828432D01*
X64932513Y-33840471D01*
X64919242Y-33853103D01*
X64906595Y-33866296D01*
X64894591Y-33880017D01*
X64883249Y-33894235D01*
X64872589Y-33908917D01*
X64862629Y-33924031D01*
X64853388Y-33939545D01*
X64844886Y-33955426D01*
X64841558Y-33962393D01*
X64837140Y-33971642D01*
X64830171Y-33988161D01*
X64823998Y-34004951D01*
X64818638Y-34021979D01*
X64814112Y-34039214D01*
X64810438Y-34056622D01*
X64807454Y-34077847D01*
X64805613Y-34098772D01*
X64804883Y-34119377D01*
X63633553Y-34119377D01*
X63633444Y-34107214D01*
X63637060Y-34023791D01*
X63638875Y-34004816D01*
X63880285Y-34004816D01*
X64578764Y-34004816D01*
X64582813Y-33984953D01*
X64587165Y-33966690D01*
X64591802Y-33949843D01*
X64596701Y-33934230D01*
X64601844Y-33919670D01*
X64607210Y-33905979D01*
X64612778Y-33892977D01*
X64618529Y-33880481D01*
X64630496Y-33856278D01*
X64642950Y-33831913D01*
X64655727Y-33805929D01*
X64662187Y-33791875D01*
X64668667Y-33776869D01*
X64661428Y-33766146D01*
X64651601Y-33753577D01*
X64639515Y-33739419D01*
X64625499Y-33723930D01*
X64592994Y-33689993D01*
X64556720Y-33653830D01*
X64426620Y-33528201D01*
X64299113Y-33396959D01*
X64260449Y-33358685D01*
X64242077Y-33341121D01*
X64224824Y-33325187D01*
X64209051Y-33311316D01*
X64195115Y-33299945D01*
X64183379Y-33291508D01*
X64178447Y-33288526D01*
X64174200Y-33286440D01*
X64123521Y-33355461D01*
X64097736Y-33391651D01*
X64072194Y-33429338D01*
X64047301Y-33468806D01*
X64035224Y-33489297D01*
X64023461Y-33510339D01*
X64012062Y-33531968D01*
X64001079Y-33554219D01*
X63990562Y-33577127D01*
X63980562Y-33600729D01*
X63962496Y-33645999D01*
X63944957Y-33693495D01*
X63928472Y-33742852D01*
X63913567Y-33793707D01*
X63906872Y-33819582D01*
X63900769Y-33845695D01*
X63895325Y-33872000D01*
X63890605Y-33898452D01*
X63886675Y-33925005D01*
X63883601Y-33951613D01*
X63881450Y-33978232D01*
X63880285Y-34004816D01*
X63638875Y-34004816D01*
X63645154Y-33939195D01*
X63654341Y-33873520D01*
X63666293Y-33808655D01*
X63680940Y-33744680D01*
X63698210Y-33681676D01*
X63718033Y-33619725D01*
X63740339Y-33558907D01*
X63765055Y-33499303D01*
X63792111Y-33440995D01*
X63821437Y-33384062D01*
X63852961Y-33328587D01*
X63886612Y-33274649D01*
X63922320Y-33222330D01*
X63960013Y-33171712D01*
X63999621Y-33122874D01*
X64007668Y-33113754D01*
X64347090Y-33113754D01*
X64841558Y-33604183D01*
X64848043Y-33601437D01*
X64854538Y-33598409D01*
X64861054Y-33595137D01*
X64867600Y-33591663D01*
X64880823Y-33584270D01*
X64894290Y-33576553D01*
X64908080Y-33568836D01*
X64915123Y-33565079D01*
X64922276Y-33561443D01*
X64929551Y-33557969D01*
X64936958Y-33554697D01*
X64944507Y-33551668D01*
X64952208Y-33548923D01*
X64965485Y-33543756D01*
X64979330Y-33538670D01*
X64993661Y-33533745D01*
X65008397Y-33529064D01*
X65023458Y-33524706D01*
X65038761Y-33520754D01*
X65054227Y-33517286D01*
X65069774Y-33514386D01*
X65069774Y-32820186D01*
X65308363Y-32820186D01*
X65308363Y-33510932D01*
X65322865Y-33514493D01*
X65336571Y-33518051D01*
X65349514Y-33521600D01*
X65361729Y-33525138D01*
X65373251Y-33528662D01*
X65384112Y-33532166D01*
X65394348Y-33535647D01*
X65403993Y-33539102D01*
X65421645Y-33545916D01*
X65437342Y-33552579D01*
X65451357Y-33559060D01*
X65463964Y-33565328D01*
X65505782Y-33587670D01*
X65515452Y-33592420D01*
X65525354Y-33596776D01*
X65530478Y-33598797D01*
X65535763Y-33600707D01*
X65541243Y-33602504D01*
X65546952Y-33604183D01*
X65551920Y-33597474D01*
X65557683Y-33590341D01*
X65564146Y-33582843D01*
X65571211Y-33575042D01*
X65586764Y-33558772D01*
X65603574Y-33542016D01*
X65667976Y-33479848D01*
X65788999Y-33358968D01*
X65919964Y-33232044D01*
X65957264Y-33194444D01*
X65974341Y-33176600D01*
X65989822Y-33159839D01*
X66003298Y-33144495D01*
X66014358Y-33130901D01*
X66022591Y-33119391D01*
X66025520Y-33114522D01*
X66027588Y-33110300D01*
X66023050Y-33107631D01*
X66018511Y-33104815D01*
X66013973Y-33101868D01*
X66009435Y-33098805D01*
X66000358Y-33092390D01*
X65991281Y-33085692D01*
X65973128Y-33071931D01*
X65964051Y-33065111D01*
X65954974Y-33058494D01*
X65944047Y-33051027D01*
X65934335Y-33044086D01*
X65916938Y-33031296D01*
X65908442Y-33025205D01*
X65899541Y-33019154D01*
X65894812Y-33016106D01*
X65889829Y-33013022D01*
X65884543Y-33009888D01*
X65878902Y-33006688D01*
X65859283Y-32994046D01*
X65839299Y-32981972D01*
X65818910Y-32970383D01*
X65798076Y-32959199D01*
X65776755Y-32948338D01*
X65754907Y-32937721D01*
X65732492Y-32927265D01*
X65709469Y-32916891D01*
X65667557Y-32900695D01*
X65620539Y-32883810D01*
X65569792Y-32867169D01*
X65516696Y-32851702D01*
X65489697Y-32844699D01*
X65462627Y-32838339D01*
X65435659Y-32832737D01*
X65408964Y-32828011D01*
X65382714Y-32824277D01*
X65357083Y-32821650D01*
X65332242Y-32820248D01*
X65308363Y-32820186D01*
X65069774Y-32820186D01*
X65069774Y-32816733D01*
X65014514Y-32821966D01*
X64960292Y-32829779D01*
X64907174Y-32840000D01*
X64855227Y-32852457D01*
X64804515Y-32866979D01*
X64755106Y-32883393D01*
X64707064Y-32901526D01*
X64660455Y-32921208D01*
X64615345Y-32942266D01*
X64571801Y-32964528D01*
X64529888Y-32987822D01*
X64489671Y-33011977D01*
X64451217Y-33036819D01*
X64414592Y-33062177D01*
X64379861Y-33087879D01*
X64347090Y-33113754D01*
X64007668Y-33113754D01*
X64041072Y-33075898D01*
X64084297Y-33030864D01*
X64130233Y-32986002D01*
X64177864Y-32943379D01*
X64227100Y-32903011D01*
X64277853Y-32864910D01*
X64330035Y-32829091D01*
X64383556Y-32795567D01*
X64438329Y-32764353D01*
X64494264Y-32735462D01*
X64551272Y-32708909D01*
X64609266Y-32684707D01*
X64727855Y-32643412D01*
X64849321Y-32611689D01*
X64972955Y-32589650D01*
X65098047Y-32577405D01*
X65223889Y-32575066D01*
X65349772Y-32582744D01*
G37*
D10*
X86700000Y-46200000D02*
X86700000Y-46000000D01*
D11*
G36*
X65403315Y-31641397D02*
G01*
X65562080Y-31659301D01*
X65719183Y-31687039D01*
X65874033Y-31724578D01*
X66026036Y-31771880D01*
X66174599Y-31828911D01*
X66319131Y-31895636D01*
X66459038Y-31972019D01*
X66593728Y-32058024D01*
X66722609Y-32153616D01*
X66795493Y-32213895D01*
X66823689Y-32237821D01*
X66849251Y-32260250D01*
X66874327Y-32283165D01*
X66901064Y-32308548D01*
X66931611Y-32338384D01*
X66968114Y-32374655D01*
X67012847Y-32422104D01*
X67056274Y-32469963D01*
X67098384Y-32518318D01*
X67139167Y-32567255D01*
X67178613Y-32616859D01*
X67216712Y-32667217D01*
X67253453Y-32718415D01*
X67288826Y-32770539D01*
X67322822Y-32823675D01*
X67355429Y-32877908D01*
X67386639Y-32933326D01*
X67416441Y-32990013D01*
X67444824Y-33048056D01*
X67471779Y-33107541D01*
X67497296Y-33168554D01*
X67521364Y-33231181D01*
X67543968Y-33293632D01*
X67565073Y-33356655D01*
X67584638Y-33420254D01*
X67602623Y-33484436D01*
X67618986Y-33549204D01*
X67633689Y-33614564D01*
X67646689Y-33680522D01*
X67657948Y-33747081D01*
X67667423Y-33814248D01*
X67675075Y-33882026D01*
X67680862Y-33950422D01*
X67684746Y-34019440D01*
X67686684Y-34089086D01*
X67686637Y-34159363D01*
X67684563Y-34230279D01*
X67680423Y-34301836D01*
X67672091Y-34393345D01*
X67660122Y-34485087D01*
X67644608Y-34576808D01*
X67625639Y-34668256D01*
X67603306Y-34759178D01*
X67577702Y-34849321D01*
X67548917Y-34938431D01*
X67517042Y-35026257D01*
X67482168Y-35112545D01*
X67444387Y-35197041D01*
X67403790Y-35279494D01*
X67360468Y-35359650D01*
X67314511Y-35437256D01*
X67266012Y-35512059D01*
X67215062Y-35583807D01*
X67161751Y-35652246D01*
X67134919Y-35684335D01*
X67100105Y-35724396D01*
X67059698Y-35769720D01*
X67016091Y-35817593D01*
X66971673Y-35865304D01*
X66928835Y-35910142D01*
X66889968Y-35949395D01*
X66857464Y-35980350D01*
X66854908Y-35982824D01*
X66852419Y-35985085D01*
X66849980Y-35987165D01*
X66847576Y-35989092D01*
X66845193Y-35990898D01*
X66842815Y-35992613D01*
X66838013Y-35995892D01*
X66827802Y-36002691D01*
X66825034Y-36004618D01*
X66822149Y-36006698D01*
X66819133Y-36008959D01*
X66815970Y-36011433D01*
X66723633Y-36088719D01*
X66627066Y-36161198D01*
X66526580Y-36228760D01*
X66422481Y-36291294D01*
X66315081Y-36348687D01*
X66204686Y-36400828D01*
X66091608Y-36447607D01*
X65976153Y-36488912D01*
X65858632Y-36524631D01*
X65739354Y-36554654D01*
X65618626Y-36578869D01*
X65496760Y-36597165D01*
X65374062Y-36609430D01*
X65250843Y-36615553D01*
X65220204Y-36615521D01*
X65127411Y-36615423D01*
X65004075Y-36608929D01*
X64904937Y-36600075D01*
X64808418Y-36587802D01*
X64714381Y-36572169D01*
X64622689Y-36553237D01*
X64533206Y-36531068D01*
X64445794Y-36505722D01*
X64360317Y-36477259D01*
X64276638Y-36445740D01*
X64194620Y-36411226D01*
X64114127Y-36373778D01*
X64035022Y-36333457D01*
X63957168Y-36290322D01*
X63880428Y-36244435D01*
X63804666Y-36195857D01*
X63729745Y-36144648D01*
X63655528Y-36090869D01*
X63632505Y-36074012D01*
X63610090Y-36057033D01*
X63588242Y-36039812D01*
X63566921Y-36022226D01*
X63546087Y-36004155D01*
X63525698Y-35985477D01*
X63505714Y-35966070D01*
X63486095Y-35945813D01*
X63410023Y-35869831D01*
X63403985Y-35863658D01*
X63398677Y-35858012D01*
X63389276Y-35847813D01*
X63384697Y-35843017D01*
X63382332Y-35840642D01*
X63379875Y-35838261D01*
X63377297Y-35835861D01*
X63374567Y-35833425D01*
X63371654Y-35830938D01*
X63368529Y-35828386D01*
X63327035Y-35786941D01*
X63324520Y-35784390D01*
X63322152Y-35781909D01*
X63319916Y-35779489D01*
X63317796Y-35777120D01*
X63313846Y-35772492D01*
X63310178Y-35767946D01*
X63306673Y-35763399D01*
X63303209Y-35758772D01*
X63295915Y-35748950D01*
X63218499Y-35657216D01*
X63145824Y-35560978D01*
X63078012Y-35460593D01*
X63015184Y-35356412D01*
X62957461Y-35248792D01*
X62904966Y-35138085D01*
X62857819Y-35024647D01*
X62816143Y-34908830D01*
X62780059Y-34790990D01*
X62749688Y-34671481D01*
X62725153Y-34550656D01*
X62706574Y-34428870D01*
X62694073Y-34306476D01*
X62687772Y-34183830D01*
X62687784Y-34112475D01*
X63452388Y-34112475D01*
X63453532Y-34181786D01*
X63457406Y-34250894D01*
X63463974Y-34319679D01*
X63473202Y-34388018D01*
X63485054Y-34455791D01*
X63499494Y-34522876D01*
X63516487Y-34589151D01*
X63535997Y-34654495D01*
X63557989Y-34718787D01*
X63582427Y-34781905D01*
X63609277Y-34843728D01*
X63638502Y-34904135D01*
X63670067Y-34963004D01*
X63703937Y-35020213D01*
X63740926Y-35076821D01*
X63779415Y-35132459D01*
X63799284Y-35159812D01*
X63819605Y-35186801D01*
X63840402Y-35213386D01*
X63861700Y-35239525D01*
X63883525Y-35265178D01*
X63905902Y-35290305D01*
X63928856Y-35314866D01*
X63952413Y-35338819D01*
X63976599Y-35362125D01*
X64001437Y-35384743D01*
X64026955Y-35406633D01*
X64053176Y-35427753D01*
X64107398Y-35470769D01*
X64161321Y-35511722D01*
X64215213Y-35550569D01*
X64269344Y-35587272D01*
X64323981Y-35621789D01*
X64379393Y-35654080D01*
X64435848Y-35684105D01*
X64493615Y-35711822D01*
X64552963Y-35737192D01*
X64614159Y-35760174D01*
X64677473Y-35780728D01*
X64743172Y-35798813D01*
X64811526Y-35814388D01*
X64882802Y-35827414D01*
X64957269Y-35837849D01*
X65035196Y-35845654D01*
X65128307Y-35851595D01*
X65220204Y-35852669D01*
X65310786Y-35849005D01*
X65399954Y-35840736D01*
X65487608Y-35827993D01*
X65573647Y-35810905D01*
X65657972Y-35789604D01*
X65740482Y-35764222D01*
X65821077Y-35734888D01*
X65899657Y-35701733D01*
X65976123Y-35664889D01*
X66050375Y-35624487D01*
X66122311Y-35580657D01*
X66191833Y-35533531D01*
X66258839Y-35483239D01*
X66323231Y-35429911D01*
X66384908Y-35373680D01*
X66443770Y-35314676D01*
X66499717Y-35253030D01*
X66552649Y-35188872D01*
X66602466Y-35122334D01*
X66649068Y-35053547D01*
X66692354Y-34982641D01*
X66732226Y-34909747D01*
X66768582Y-34834997D01*
X66801323Y-34758521D01*
X66830349Y-34680450D01*
X66855559Y-34600915D01*
X66876854Y-34520047D01*
X66894134Y-34437977D01*
X66907298Y-34354835D01*
X66916246Y-34270753D01*
X66921596Y-34177782D01*
X66922168Y-34086079D01*
X66918087Y-33995741D01*
X66909479Y-33906864D01*
X66896470Y-33819542D01*
X66879185Y-33733871D01*
X66857748Y-33649947D01*
X66832286Y-33567865D01*
X66802924Y-33487721D01*
X66769787Y-33409610D01*
X66733001Y-33333628D01*
X66692691Y-33259869D01*
X66648981Y-33188431D01*
X66601999Y-33119407D01*
X66551869Y-33052894D01*
X66498715Y-32988987D01*
X66442665Y-32927782D01*
X66383843Y-32869374D01*
X66322374Y-32813859D01*
X66258384Y-32761331D01*
X66191998Y-32711887D01*
X66123342Y-32665622D01*
X66052540Y-32622632D01*
X65979719Y-32583012D01*
X65905004Y-32546857D01*
X65828519Y-32514264D01*
X65750391Y-32485326D01*
X65670744Y-32460141D01*
X65589705Y-32438804D01*
X65507398Y-32421409D01*
X65423949Y-32408053D01*
X65339483Y-32398831D01*
X65246077Y-32393194D01*
X65153943Y-32392386D01*
X65063176Y-32396277D01*
X64973873Y-32404740D01*
X64886130Y-32417645D01*
X64800044Y-32434863D01*
X64715710Y-32456264D01*
X64633225Y-32481721D01*
X64552684Y-32511103D01*
X64474185Y-32544283D01*
X64397824Y-32581130D01*
X64323696Y-32621516D01*
X64251898Y-32665312D01*
X64182527Y-32712389D01*
X64115678Y-32762618D01*
X64051447Y-32815869D01*
X63989932Y-32872015D01*
X63931228Y-32930925D01*
X63875431Y-32992471D01*
X63822637Y-33056524D01*
X63772944Y-33122955D01*
X63726447Y-33191635D01*
X63683242Y-33262434D01*
X63643425Y-33335224D01*
X63607094Y-33409876D01*
X63574343Y-33486261D01*
X63545270Y-33564249D01*
X63519971Y-33643712D01*
X63498541Y-33724521D01*
X63481077Y-33806547D01*
X63467675Y-33889660D01*
X63458432Y-33973732D01*
X63454010Y-34043084D01*
X63452388Y-34112475D01*
X62687784Y-34112475D01*
X62687792Y-34061285D01*
X62694255Y-33939195D01*
X62703593Y-33845465D01*
X62717251Y-33749833D01*
X62735093Y-33652825D01*
X62756982Y-33554967D01*
X62782782Y-33456786D01*
X62812355Y-33358806D01*
X62845564Y-33261555D01*
X62882274Y-33165559D01*
X62922347Y-33071344D01*
X62965647Y-32979436D01*
X63012036Y-32890360D01*
X63061378Y-32804644D01*
X63113537Y-32722814D01*
X63168374Y-32645395D01*
X63225755Y-32572914D01*
X63285542Y-32505897D01*
X63437685Y-32347025D01*
X63487749Y-32299887D01*
X63537368Y-32254206D01*
X63587391Y-32209820D01*
X63638671Y-32166568D01*
X63665048Y-32145316D01*
X63692058Y-32124286D01*
X63719807Y-32103459D01*
X63748402Y-32082815D01*
X63777950Y-32062332D01*
X63808556Y-32041991D01*
X63840327Y-32021771D01*
X63873370Y-32001652D01*
X63923691Y-31972349D01*
X63973809Y-31944018D01*
X64024170Y-31916658D01*
X64075220Y-31890269D01*
X64127404Y-31864852D01*
X64181169Y-31840406D01*
X64236960Y-31816931D01*
X64295223Y-31794428D01*
X64449024Y-31742495D01*
X64605312Y-31700644D01*
X64763494Y-31668841D01*
X64922979Y-31647051D01*
X65083172Y-31635237D01*
X65243481Y-31633364D01*
X65403315Y-31641397D01*
G37*
D10*
X78300000Y-46500000D02*
X77700000Y-46500000D01*
X76000000Y-47800000D02*
X76800000Y-47800000D01*
X75200000Y-53000000D02*
X74400000Y-53000000D01*
X84700000Y-47750000D02*
X85300000Y-47750000D01*
X85000000Y-48550000D02*
X84750000Y-48050000D01*
X71450000Y-47250000D02*
X72250000Y-47250000D01*
X78700000Y-47750000D02*
X79300000Y-47750000D01*
X89700000Y-53000000D02*
X88900000Y-53000000D01*
X88300000Y-48200000D02*
X88300000Y-47300000D01*
X73300000Y-53000000D02*
G75*
G03*
X73300000Y-53000000I-600000J0D01*
G01*
X88100000Y-53400000D02*
X88100000Y-52500000D01*
X87900000Y-47800000D02*
G75*
G03*
X87900000Y-47800000I-600000J0D01*
G01*
X86700000Y-46000000D02*
X86050000Y-46000000D01*
X85700000Y-46500000D02*
X86050000Y-46000000D01*
X75100000Y-47800000D02*
X74300000Y-47800000D01*
X80700000Y-47750000D02*
X81300000Y-47750000D01*
X76400000Y-47400000D02*
X76400000Y-48200000D01*
D13*
X71642419Y-46539411D02*
X72742419Y-46539411D01*
X72742419Y-46539411D02*
X71956704Y-46172744D01*
X71956704Y-46172744D02*
X72742419Y-45806077D01*
X72742419Y-45806077D02*
X71642419Y-45806077D01*
D10*
X66505200Y-56034211D02*
X66671866Y-56034211D01*
X66671866Y-56034211D02*
X66671866Y-56548496D01*
X66671866Y-56548496D02*
X66505200Y-56548496D01*
X66671866Y-56148496D02*
X67371866Y-56148496D01*
X67371866Y-56148496D02*
X67371866Y-56291353D01*
X67371866Y-56291353D02*
X67338533Y-56348496D01*
X67338533Y-56348496D02*
X67305200Y-56377068D01*
X67305200Y-56377068D02*
X67238533Y-56405639D01*
X67238533Y-56405639D02*
X66671866Y-56462782D01*
X66871866Y-55691354D02*
X66671866Y-55834211D01*
X66671866Y-55577068D02*
X67138533Y-55577068D01*
X67138533Y-55577068D02*
X67138533Y-55748497D01*
X67138533Y-55748497D02*
X67105200Y-55805639D01*
X67105200Y-55805639D02*
X67038533Y-55834211D01*
X67038533Y-55834211D02*
X66971866Y-55834211D01*
X66971866Y-55834211D02*
X66905200Y-55805639D01*
X66905200Y-55805639D02*
X66871866Y-55748497D01*
X66871866Y-55748497D02*
X66871866Y-55577068D01*
X67138533Y-55291353D02*
X66671866Y-55291353D01*
X66938533Y-55234211D02*
X66671866Y-55062782D01*
X67138533Y-55062782D02*
X66871866Y-55291353D01*
X67138533Y-54862782D02*
X66671866Y-54719925D01*
X67138533Y-54577068D02*
X66671866Y-54719925D01*
X66671866Y-54719925D02*
X66505200Y-54777068D01*
X66505200Y-54777068D02*
X66471866Y-54805639D01*
X66471866Y-54805639D02*
X66438533Y-54862782D01*
X66905200Y-54348496D02*
X66905200Y-54177068D01*
X67138533Y-54348496D02*
X66671866Y-54348496D01*
X66671866Y-54062782D02*
X66705200Y-54119925D01*
X66705200Y-54119925D02*
X66738533Y-54148496D01*
X66738533Y-54148496D02*
X66805200Y-54177068D01*
X66805200Y-54177068D02*
X67005200Y-54177068D01*
X67005200Y-54177068D02*
X67071866Y-54148496D01*
X67071866Y-54148496D02*
X67105200Y-54119925D01*
X67105200Y-54119925D02*
X67138533Y-54062782D01*
X67138533Y-54062782D02*
X67138533Y-53977068D01*
X67138533Y-53977068D02*
X67105200Y-53919925D01*
X67105200Y-53919925D02*
X67071866Y-53891354D01*
X67071866Y-53891354D02*
X67005200Y-53862782D01*
X67005200Y-53862782D02*
X66805200Y-53862782D01*
X66805200Y-53862782D02*
X66738533Y-53891354D01*
X66738533Y-53891354D02*
X66705200Y-53919925D01*
X66705200Y-53919925D02*
X66671866Y-53977068D01*
X66671866Y-53977068D02*
X66671866Y-54062782D01*
X66671866Y-53148496D02*
X67371866Y-53148496D01*
X67138533Y-52862782D02*
X66438533Y-52862782D01*
X67105200Y-52862782D02*
X67138533Y-52805640D01*
X67138533Y-52805640D02*
X67138533Y-52691354D01*
X67138533Y-52691354D02*
X67105200Y-52634211D01*
X67105200Y-52634211D02*
X67071866Y-52605640D01*
X67071866Y-52605640D02*
X67005200Y-52577068D01*
X67005200Y-52577068D02*
X66805200Y-52577068D01*
X66805200Y-52577068D02*
X66738533Y-52605640D01*
X66738533Y-52605640D02*
X66705200Y-52634211D01*
X66705200Y-52634211D02*
X66671866Y-52691354D01*
X66671866Y-52691354D02*
X66671866Y-52805640D01*
X66671866Y-52805640D02*
X66705200Y-52862782D01*
X67138533Y-52377068D02*
X66671866Y-52234211D01*
X67138533Y-52091354D02*
X66671866Y-52234211D01*
X66671866Y-52234211D02*
X66505200Y-52291354D01*
X66505200Y-52291354D02*
X66471866Y-52319925D01*
X66471866Y-52319925D02*
X66438533Y-52377068D01*
X66705200Y-51605640D02*
X66671866Y-51662782D01*
X66671866Y-51662782D02*
X66671866Y-51777068D01*
X66671866Y-51777068D02*
X66705200Y-51834211D01*
X66705200Y-51834211D02*
X66738533Y-51862782D01*
X66738533Y-51862782D02*
X66805200Y-51891354D01*
X66805200Y-51891354D02*
X67005200Y-51891354D01*
X67005200Y-51891354D02*
X67071866Y-51862782D01*
X67071866Y-51862782D02*
X67105200Y-51834211D01*
X67105200Y-51834211D02*
X67138533Y-51777068D01*
X67138533Y-51777068D02*
X67138533Y-51662782D01*
X67138533Y-51662782D02*
X67105200Y-51605640D01*
X67138533Y-51348496D02*
X66671866Y-51348496D01*
X66671866Y-51348496D02*
X66671866Y-51205639D01*
X66671866Y-51205639D02*
X66705200Y-51148496D01*
X66705200Y-51148496D02*
X66771866Y-51119925D01*
X66771866Y-51119925D02*
X66871866Y-51119925D01*
X66871866Y-51119925D02*
X66938533Y-51148496D01*
X66938533Y-51148496D02*
X66971866Y-51205639D01*
X66971866Y-51205639D02*
X66971866Y-51348496D01*
X67138533Y-50605640D02*
X66671866Y-50605640D01*
X67138533Y-50862782D02*
X66671866Y-50862782D01*
X66671866Y-50862782D02*
X66671866Y-50548497D01*
X66671866Y-50548497D02*
X66505200Y-50548497D01*
X66671866Y-50319925D02*
X67138533Y-50319925D01*
X67371866Y-50319925D02*
X67338533Y-50348497D01*
X67338533Y-50348497D02*
X67305200Y-50319925D01*
X67305200Y-50319925D02*
X67338533Y-50291354D01*
X67338533Y-50291354D02*
X67371866Y-50319925D01*
X67371866Y-50319925D02*
X67305200Y-50319925D01*
X65778200Y-56434211D02*
X65778200Y-56377068D01*
X65978200Y-56548496D02*
X66011533Y-56491353D01*
X66011533Y-56491353D02*
X66011533Y-56377068D01*
X66011533Y-56377068D02*
X65978200Y-56319925D01*
X65978200Y-56319925D02*
X65911533Y-56291353D01*
X65911533Y-56291353D02*
X65878200Y-56291353D01*
X65878200Y-56291353D02*
X65811533Y-56319925D01*
X65811533Y-56319925D02*
X65778200Y-56377068D01*
X65778200Y-56377068D02*
X65744866Y-56319925D01*
X65744866Y-56319925D02*
X65678200Y-56291353D01*
X65678200Y-56291353D02*
X65644866Y-56291353D01*
X65644866Y-56291353D02*
X65578200Y-56319925D01*
X65578200Y-56319925D02*
X65544866Y-56377068D01*
X65544866Y-56377068D02*
X65544866Y-56491353D01*
X65544866Y-56491353D02*
X65578200Y-56548496D01*
X65544866Y-55777068D02*
X65911533Y-55777068D01*
X65911533Y-55777068D02*
X65978200Y-55805639D01*
X65978200Y-55805639D02*
X66011533Y-55862782D01*
X66011533Y-55862782D02*
X66011533Y-55977068D01*
X66011533Y-55977068D02*
X65978200Y-56034210D01*
X65578200Y-55777068D02*
X65544866Y-55834210D01*
X65544866Y-55834210D02*
X65544866Y-55977068D01*
X65544866Y-55977068D02*
X65578200Y-56034210D01*
X65578200Y-56034210D02*
X65644866Y-56062782D01*
X65644866Y-56062782D02*
X65711533Y-56062782D01*
X65711533Y-56062782D02*
X65778200Y-56034210D01*
X65778200Y-56034210D02*
X65811533Y-55977068D01*
X65811533Y-55977068D02*
X65811533Y-55834210D01*
X65811533Y-55834210D02*
X65844866Y-55777068D01*
X65544866Y-55034210D02*
X66011533Y-55034210D01*
X66011533Y-55034210D02*
X66011533Y-54777068D01*
X66011533Y-54777068D02*
X65544866Y-54777068D01*
X65544866Y-54491353D02*
X66011533Y-54491353D01*
X66244866Y-54491353D02*
X66211533Y-54519925D01*
X66211533Y-54519925D02*
X66178200Y-54491353D01*
X66178200Y-54491353D02*
X66211533Y-54462782D01*
X66211533Y-54462782D02*
X66244866Y-54491353D01*
X66244866Y-54491353D02*
X66178200Y-54491353D01*
X65944866Y-53919925D02*
X65978200Y-53948497D01*
X65978200Y-53948497D02*
X66011533Y-54005639D01*
X66011533Y-54005639D02*
X66011533Y-54119925D01*
X66011533Y-54119925D02*
X65978200Y-54177068D01*
X65978200Y-54177068D02*
X65944866Y-54205639D01*
X65944866Y-54205639D02*
X65878200Y-54234211D01*
X65878200Y-54234211D02*
X65678200Y-54234211D01*
X65678200Y-54234211D02*
X65611533Y-54205639D01*
X65611533Y-54205639D02*
X65578200Y-54177068D01*
X65578200Y-54177068D02*
X65544866Y-54119925D01*
X65544866Y-54119925D02*
X65544866Y-54034211D01*
X65544866Y-54034211D02*
X65578200Y-53977068D01*
X65578200Y-53977068D02*
X65611533Y-53948497D01*
X65611533Y-53948497D02*
X65678200Y-53919925D01*
X65678200Y-53919925D02*
X66111533Y-53919925D01*
X66111533Y-53919925D02*
X66178200Y-53948497D01*
X66178200Y-53948497D02*
X66211533Y-53977068D01*
X66211533Y-53977068D02*
X66244866Y-54034211D01*
X66244866Y-54034211D02*
X66244866Y-54148497D01*
X66244866Y-54148497D02*
X66211533Y-54205639D01*
X66011533Y-53748497D02*
X66011533Y-53462782D01*
X66011533Y-53605640D02*
X65544866Y-53605640D01*
X66011533Y-53262782D02*
X65311533Y-53262782D01*
X65978200Y-53262782D02*
X66011533Y-53205640D01*
X66011533Y-53205640D02*
X66011533Y-53091354D01*
X66011533Y-53091354D02*
X65978200Y-53034211D01*
X65978200Y-53034211D02*
X65944866Y-53005640D01*
X65944866Y-53005640D02*
X65878200Y-52977068D01*
X65878200Y-52977068D02*
X65678200Y-52977068D01*
X65678200Y-52977068D02*
X65611533Y-53005640D01*
X65611533Y-53005640D02*
X65578200Y-53034211D01*
X65578200Y-53034211D02*
X65544866Y-53091354D01*
X65544866Y-53091354D02*
X65544866Y-53205640D01*
X65544866Y-53205640D02*
X65578200Y-53262782D01*
X66011533Y-52719925D02*
X65544866Y-52719925D01*
X65544866Y-52719925D02*
X66011533Y-52434211D01*
X66011533Y-52434211D02*
X65544866Y-52434211D01*
X65544866Y-52148496D02*
X66011533Y-52148496D01*
X66011533Y-52148496D02*
X65644866Y-51977068D01*
X65644866Y-51977068D02*
X66011533Y-51805639D01*
X66011533Y-51805639D02*
X65544866Y-51805639D01*
X66011533Y-51519925D02*
X65544866Y-51519925D01*
X65811533Y-51462783D02*
X65544866Y-51291354D01*
X66011533Y-51291354D02*
X65744866Y-51519925D01*
X66011533Y-51091354D02*
X65544866Y-50948497D01*
X66011533Y-50805640D02*
X65544866Y-50948497D01*
X65544866Y-50948497D02*
X65378200Y-51005640D01*
X65378200Y-51005640D02*
X65344866Y-51034211D01*
X65344866Y-51034211D02*
X65311533Y-51091354D01*
X64417866Y-56491353D02*
X64884533Y-56491353D01*
X64884533Y-56491353D02*
X64884533Y-56234211D01*
X64884533Y-56234211D02*
X64417866Y-56234211D01*
X64417866Y-55948496D02*
X64884533Y-55948496D01*
X65117866Y-55948496D02*
X65084533Y-55977068D01*
X65084533Y-55977068D02*
X65051200Y-55948496D01*
X65051200Y-55948496D02*
X65084533Y-55919925D01*
X65084533Y-55919925D02*
X65117866Y-55948496D01*
X65117866Y-55948496D02*
X65051200Y-55948496D01*
X64817866Y-55377068D02*
X64851200Y-55405640D01*
X64851200Y-55405640D02*
X64884533Y-55462782D01*
X64884533Y-55462782D02*
X64884533Y-55577068D01*
X64884533Y-55577068D02*
X64851200Y-55634211D01*
X64851200Y-55634211D02*
X64817866Y-55662782D01*
X64817866Y-55662782D02*
X64751200Y-55691354D01*
X64751200Y-55691354D02*
X64551200Y-55691354D01*
X64551200Y-55691354D02*
X64484533Y-55662782D01*
X64484533Y-55662782D02*
X64451200Y-55634211D01*
X64451200Y-55634211D02*
X64417866Y-55577068D01*
X64417866Y-55577068D02*
X64417866Y-55491354D01*
X64417866Y-55491354D02*
X64451200Y-55434211D01*
X64451200Y-55434211D02*
X64484533Y-55405640D01*
X64484533Y-55405640D02*
X64551200Y-55377068D01*
X64551200Y-55377068D02*
X64984533Y-55377068D01*
X64984533Y-55377068D02*
X65051200Y-55405640D01*
X65051200Y-55405640D02*
X65084533Y-55434211D01*
X65084533Y-55434211D02*
X65117866Y-55491354D01*
X65117866Y-55491354D02*
X65117866Y-55605640D01*
X65117866Y-55605640D02*
X65084533Y-55662782D01*
X64884533Y-54462782D02*
X64417866Y-54462782D01*
X64884533Y-54691354D02*
X64717866Y-54691354D01*
X64717866Y-54691354D02*
X64651200Y-54662782D01*
X64651200Y-54662782D02*
X64617866Y-54605640D01*
X64617866Y-54605640D02*
X64617866Y-54462782D01*
X64417866Y-53891354D02*
X64784533Y-53891354D01*
X64784533Y-53891354D02*
X64851200Y-53919925D01*
X64851200Y-53919925D02*
X64884533Y-53977068D01*
X64884533Y-53977068D02*
X64884533Y-54091354D01*
X64884533Y-54091354D02*
X64851200Y-54148496D01*
X64451200Y-53891354D02*
X64417866Y-53948496D01*
X64417866Y-53948496D02*
X64417866Y-54091354D01*
X64417866Y-54091354D02*
X64451200Y-54148496D01*
X64451200Y-54148496D02*
X64517866Y-54177068D01*
X64517866Y-54177068D02*
X64584533Y-54177068D01*
X64584533Y-54177068D02*
X64651200Y-54148496D01*
X64651200Y-54148496D02*
X64684533Y-54091354D01*
X64684533Y-54091354D02*
X64684533Y-53948496D01*
X64684533Y-53948496D02*
X64717866Y-53891354D01*
X64451200Y-53348497D02*
X64417866Y-53405639D01*
X64417866Y-53405639D02*
X64417866Y-53519925D01*
X64417866Y-53519925D02*
X64451200Y-53577068D01*
X64451200Y-53577068D02*
X64484533Y-53605639D01*
X64484533Y-53605639D02*
X64551200Y-53634211D01*
X64551200Y-53634211D02*
X64751200Y-53634211D01*
X64751200Y-53634211D02*
X64817866Y-53605639D01*
X64817866Y-53605639D02*
X64851200Y-53577068D01*
X64851200Y-53577068D02*
X64884533Y-53519925D01*
X64884533Y-53519925D02*
X64884533Y-53405639D01*
X64884533Y-53405639D02*
X64851200Y-53348497D01*
X64884533Y-52634210D02*
X64184533Y-52634210D01*
X64851200Y-52634210D02*
X64884533Y-52577068D01*
X64884533Y-52577068D02*
X64884533Y-52462782D01*
X64884533Y-52462782D02*
X64851200Y-52405639D01*
X64851200Y-52405639D02*
X64817866Y-52377068D01*
X64817866Y-52377068D02*
X64751200Y-52348496D01*
X64751200Y-52348496D02*
X64551200Y-52348496D01*
X64551200Y-52348496D02*
X64484533Y-52377068D01*
X64484533Y-52377068D02*
X64451200Y-52405639D01*
X64451200Y-52405639D02*
X64417866Y-52462782D01*
X64417866Y-52462782D02*
X64417866Y-52577068D01*
X64417866Y-52577068D02*
X64451200Y-52634210D01*
X64417866Y-52005639D02*
X64451200Y-52062782D01*
X64451200Y-52062782D02*
X64484533Y-52091353D01*
X64484533Y-52091353D02*
X64551200Y-52119925D01*
X64551200Y-52119925D02*
X64751200Y-52119925D01*
X64751200Y-52119925D02*
X64817866Y-52091353D01*
X64817866Y-52091353D02*
X64851200Y-52062782D01*
X64851200Y-52062782D02*
X64884533Y-52005639D01*
X64884533Y-52005639D02*
X64884533Y-51919925D01*
X64884533Y-51919925D02*
X64851200Y-51862782D01*
X64851200Y-51862782D02*
X64817866Y-51834211D01*
X64817866Y-51834211D02*
X64751200Y-51805639D01*
X64751200Y-51805639D02*
X64551200Y-51805639D01*
X64551200Y-51805639D02*
X64484533Y-51834211D01*
X64484533Y-51834211D02*
X64451200Y-51862782D01*
X64451200Y-51862782D02*
X64417866Y-51919925D01*
X64417866Y-51919925D02*
X64417866Y-52005639D01*
X65151200Y-51262782D02*
X65117866Y-51291354D01*
X65117866Y-51291354D02*
X65084533Y-51348496D01*
X65084533Y-51348496D02*
X65084533Y-51462782D01*
X65084533Y-51462782D02*
X65051200Y-51519925D01*
X65051200Y-51519925D02*
X65017866Y-51548496D01*
X65017866Y-51548496D02*
X64951200Y-51577068D01*
X64951200Y-51577068D02*
X64551200Y-51577068D01*
X64551200Y-51577068D02*
X64484533Y-51548496D01*
X64484533Y-51548496D02*
X64451200Y-51519925D01*
X64451200Y-51519925D02*
X64417866Y-51462782D01*
X64417866Y-51462782D02*
X64417866Y-51377068D01*
X64417866Y-51377068D02*
X64451200Y-51319925D01*
X64451200Y-51319925D02*
X64484533Y-51291354D01*
X64484533Y-51291354D02*
X64551200Y-51262782D01*
X64551200Y-51262782D02*
X64751200Y-51262782D01*
X64751200Y-51262782D02*
X64817866Y-51291354D01*
X64817866Y-51291354D02*
X64851200Y-51319925D01*
X64851200Y-51319925D02*
X64884533Y-51377068D01*
X64884533Y-51377068D02*
X64884533Y-51491354D01*
X64884533Y-51491354D02*
X64851200Y-51548496D01*
X64851200Y-51548496D02*
X64817866Y-51577068D01*
X64417866Y-50919925D02*
X64451200Y-50977068D01*
X64451200Y-50977068D02*
X64484533Y-51005639D01*
X64484533Y-51005639D02*
X64551200Y-51034211D01*
X64551200Y-51034211D02*
X64751200Y-51034211D01*
X64751200Y-51034211D02*
X64817866Y-51005639D01*
X64817866Y-51005639D02*
X64851200Y-50977068D01*
X64851200Y-50977068D02*
X64884533Y-50919925D01*
X64884533Y-50919925D02*
X64884533Y-50834211D01*
X64884533Y-50834211D02*
X64851200Y-50777068D01*
X64851200Y-50777068D02*
X64817866Y-50748497D01*
X64817866Y-50748497D02*
X64751200Y-50719925D01*
X64751200Y-50719925D02*
X64551200Y-50719925D01*
X64551200Y-50719925D02*
X64484533Y-50748497D01*
X64484533Y-50748497D02*
X64451200Y-50777068D01*
X64451200Y-50777068D02*
X64417866Y-50834211D01*
X64417866Y-50834211D02*
X64417866Y-50919925D01*
X64884533Y-50548497D02*
X64884533Y-50262782D01*
X64884533Y-50405640D02*
X64417866Y-50405640D01*
X64884533Y-50062782D02*
X64417866Y-50062782D01*
X64417866Y-50062782D02*
X64884533Y-49777068D01*
X64884533Y-49777068D02*
X64417866Y-49777068D01*
X63524200Y-56491353D02*
X63524200Y-56234211D01*
X63757533Y-56491353D02*
X63290866Y-56491353D01*
X63757533Y-56234211D02*
X63290866Y-56234211D01*
X63290866Y-55691354D02*
X63657533Y-55691354D01*
X63657533Y-55691354D02*
X63724200Y-55719925D01*
X63724200Y-55719925D02*
X63757533Y-55777068D01*
X63757533Y-55777068D02*
X63757533Y-55891354D01*
X63757533Y-55891354D02*
X63724200Y-55948496D01*
X63324200Y-55691354D02*
X63290866Y-55748496D01*
X63290866Y-55748496D02*
X63290866Y-55891354D01*
X63290866Y-55891354D02*
X63324200Y-55948496D01*
X63324200Y-55948496D02*
X63390866Y-55977068D01*
X63390866Y-55977068D02*
X63457533Y-55977068D01*
X63457533Y-55977068D02*
X63524200Y-55948496D01*
X63524200Y-55948496D02*
X63557533Y-55891354D01*
X63557533Y-55891354D02*
X63557533Y-55748496D01*
X63557533Y-55748496D02*
X63590866Y-55691354D01*
X63690866Y-55119925D02*
X63724200Y-55148497D01*
X63724200Y-55148497D02*
X63757533Y-55205639D01*
X63757533Y-55205639D02*
X63757533Y-55319925D01*
X63757533Y-55319925D02*
X63724200Y-55377068D01*
X63724200Y-55377068D02*
X63690866Y-55405639D01*
X63690866Y-55405639D02*
X63624200Y-55434211D01*
X63624200Y-55434211D02*
X63424200Y-55434211D01*
X63424200Y-55434211D02*
X63357533Y-55405639D01*
X63357533Y-55405639D02*
X63324200Y-55377068D01*
X63324200Y-55377068D02*
X63290866Y-55319925D01*
X63290866Y-55319925D02*
X63290866Y-55234211D01*
X63290866Y-55234211D02*
X63324200Y-55177068D01*
X63324200Y-55177068D02*
X63357533Y-55148497D01*
X63357533Y-55148497D02*
X63424200Y-55119925D01*
X63424200Y-55119925D02*
X63857533Y-55119925D01*
X63857533Y-55119925D02*
X63924200Y-55148497D01*
X63924200Y-55148497D02*
X63957533Y-55177068D01*
X63957533Y-55177068D02*
X63990866Y-55234211D01*
X63990866Y-55234211D02*
X63990866Y-55348497D01*
X63990866Y-55348497D02*
X63957533Y-55405639D01*
X63290866Y-54405639D02*
X63757533Y-54405639D01*
X63757533Y-54405639D02*
X63757533Y-54148497D01*
X63757533Y-54148497D02*
X63290866Y-54148497D01*
X63757533Y-53862782D02*
X63057533Y-53862782D01*
X63724200Y-53862782D02*
X63757533Y-53805640D01*
X63757533Y-53805640D02*
X63757533Y-53691354D01*
X63757533Y-53691354D02*
X63724200Y-53634211D01*
X63724200Y-53634211D02*
X63690866Y-53605640D01*
X63690866Y-53605640D02*
X63624200Y-53577068D01*
X63624200Y-53577068D02*
X63424200Y-53577068D01*
X63424200Y-53577068D02*
X63357533Y-53605640D01*
X63357533Y-53605640D02*
X63324200Y-53634211D01*
X63324200Y-53634211D02*
X63290866Y-53691354D01*
X63290866Y-53691354D02*
X63290866Y-53805640D01*
X63290866Y-53805640D02*
X63324200Y-53862782D01*
X63290866Y-53234211D02*
X63324200Y-53291354D01*
X63324200Y-53291354D02*
X63357533Y-53319925D01*
X63357533Y-53319925D02*
X63424200Y-53348497D01*
X63424200Y-53348497D02*
X63624200Y-53348497D01*
X63624200Y-53348497D02*
X63690866Y-53319925D01*
X63690866Y-53319925D02*
X63724200Y-53291354D01*
X63724200Y-53291354D02*
X63757533Y-53234211D01*
X63757533Y-53234211D02*
X63757533Y-53148497D01*
X63757533Y-53148497D02*
X63724200Y-53091354D01*
X63724200Y-53091354D02*
X63690866Y-53062783D01*
X63690866Y-53062783D02*
X63624200Y-53034211D01*
X63624200Y-53034211D02*
X63424200Y-53034211D01*
X63424200Y-53034211D02*
X63357533Y-53062783D01*
X63357533Y-53062783D02*
X63324200Y-53091354D01*
X63324200Y-53091354D02*
X63290866Y-53148497D01*
X63290866Y-53148497D02*
X63290866Y-53234211D01*
X63524200Y-52805640D02*
X63524200Y-52605640D01*
X63324200Y-52519926D02*
X63290866Y-52577068D01*
X63290866Y-52577068D02*
X63290866Y-52691354D01*
X63290866Y-52691354D02*
X63324200Y-52748497D01*
X63324200Y-52748497D02*
X63357533Y-52777068D01*
X63357533Y-52777068D02*
X63424200Y-52805640D01*
X63424200Y-52805640D02*
X63624200Y-52805640D01*
X63624200Y-52805640D02*
X63690866Y-52777068D01*
X63690866Y-52777068D02*
X63724200Y-52748497D01*
X63724200Y-52748497D02*
X63757533Y-52691354D01*
X63757533Y-52691354D02*
X63757533Y-52577068D01*
X63757533Y-52577068D02*
X63724200Y-52519926D01*
X63757533Y-52262782D02*
X63290866Y-52262782D01*
X63557533Y-52205640D02*
X63290866Y-52034211D01*
X63757533Y-52034211D02*
X63490866Y-52262782D01*
X63757533Y-51862783D02*
X63757533Y-51577068D01*
X63757533Y-51719926D02*
X63290866Y-51719926D01*
X63290866Y-51291354D02*
X63324200Y-51348497D01*
X63324200Y-51348497D02*
X63357533Y-51377068D01*
X63357533Y-51377068D02*
X63424200Y-51405640D01*
X63424200Y-51405640D02*
X63624200Y-51405640D01*
X63624200Y-51405640D02*
X63690866Y-51377068D01*
X63690866Y-51377068D02*
X63724200Y-51348497D01*
X63724200Y-51348497D02*
X63757533Y-51291354D01*
X63757533Y-51291354D02*
X63757533Y-51205640D01*
X63757533Y-51205640D02*
X63724200Y-51148497D01*
X63724200Y-51148497D02*
X63690866Y-51119926D01*
X63690866Y-51119926D02*
X63624200Y-51091354D01*
X63624200Y-51091354D02*
X63424200Y-51091354D01*
X63424200Y-51091354D02*
X63357533Y-51119926D01*
X63357533Y-51119926D02*
X63324200Y-51148497D01*
X63324200Y-51148497D02*
X63290866Y-51205640D01*
X63290866Y-51205640D02*
X63290866Y-51291354D01*
X63290866Y-50834211D02*
X63757533Y-50834211D01*
X63757533Y-50834211D02*
X63390866Y-50662783D01*
X63390866Y-50662783D02*
X63757533Y-50491354D01*
X63757533Y-50491354D02*
X63290866Y-50491354D01*
D14*
%TO.C,TP26*%
X82700000Y-47750000D02*
G75*
G03*
X82700000Y-47750000I-700000J0D01*
G01*
%TO.C,TP3*%
X89950000Y-49250000D02*
G75*
G03*
X89950000Y-49250000I-700000J0D01*
G01*
%TO.C,TP5*%
X87950000Y-51500000D02*
G75*
G03*
X87950000Y-51500000I-700000J0D01*
G01*
%TO.C,TP23*%
X86700000Y-47750000D02*
G75*
G03*
X86700000Y-47750000I-700000J0D01*
G01*
%TO.C,D1*%
X87302500Y-57015000D02*
X89587500Y-57015000D01*
X87302500Y-58485000D02*
X87302500Y-57015000D01*
X89587500Y-58485000D02*
X87302500Y-58485000D01*
%TO.C,TP12*%
X71500000Y-51500000D02*
G75*
G03*
X71500000Y-51500000I-700000J0D01*
G01*
%TO.C,TP4*%
X87950000Y-49250000D02*
G75*
G03*
X87950000Y-49250000I-700000J0D01*
G01*
%TO.C,P1*%
X85170000Y-57600000D02*
X85170000Y-58750000D01*
X85170000Y-55500000D02*
X85170000Y-53700000D01*
X75830000Y-57600000D02*
X75830000Y-58750000D01*
X75830000Y-55500000D02*
X75830000Y-53700000D01*
%TO.C,TP27*%
X84700000Y-47750000D02*
G75*
G03*
X84700000Y-47750000I-700000J0D01*
G01*
%TO.C,TP1*%
X71500000Y-45250000D02*
G75*
G03*
X71500000Y-45250000I-700000J0D01*
G01*
%TO.C,TP2*%
X71500000Y-47250000D02*
G75*
G03*
X71500000Y-47250000I-700000J0D01*
G01*
%TO.C,TP9*%
X73500000Y-49250000D02*
G75*
G03*
X73500000Y-49250000I-700000J0D01*
G01*
%TO.C,TP10*%
X73500000Y-51500000D02*
G75*
G03*
X73500000Y-51500000I-700000J0D01*
G01*
%TO.C,TP20*%
X83700000Y-46500000D02*
G75*
G03*
X83700000Y-46500000I-700000J0D01*
G01*
%TO.C,TP16*%
X83700000Y-49250000D02*
G75*
G03*
X83700000Y-49250000I-700000J0D01*
G01*
%TO.C,U5*%
X88620000Y-44320000D02*
X88620000Y-43700000D01*
X88620000Y-27700000D02*
X89230000Y-27700000D01*
X88620000Y-27700000D02*
X88620000Y-20080000D01*
X88620000Y-20080000D02*
X72380000Y-20080000D01*
X86500000Y-44320000D02*
X88620000Y-44320000D01*
X72380000Y-44320000D02*
X74500000Y-44320000D01*
X72380000Y-43700000D02*
X72380000Y-44320000D01*
X72380000Y-20080000D02*
X72380000Y-27700000D01*
%TO.C,TP7*%
X75500000Y-49250000D02*
G75*
G03*
X75500000Y-49250000I-700000J0D01*
G01*
%TO.C,TP8*%
X75500000Y-51500000D02*
G75*
G03*
X75500000Y-51500000I-700000J0D01*
G01*
%TO.C,TP25*%
X80700000Y-47750000D02*
G75*
G03*
X80700000Y-47750000I-700000J0D01*
G01*
%TO.C,TP6*%
X89950000Y-51500000D02*
G75*
G03*
X89950000Y-51500000I-700000J0D01*
G01*
%TO.C,TP19*%
X85700000Y-46500000D02*
G75*
G03*
X85700000Y-46500000I-700000J0D01*
G01*
%TO.C,TP21*%
X81700000Y-46500000D02*
G75*
G03*
X81700000Y-46500000I-700000J0D01*
G01*
%TO.C,D2*%
X87302500Y-54265000D02*
X89587500Y-54265000D01*
X87302500Y-55735000D02*
X87302500Y-54265000D01*
X89587500Y-55735000D02*
X87302500Y-55735000D01*
%TO.C,TP24*%
X78700000Y-47750000D02*
G75*
G03*
X78700000Y-47750000I-700000J0D01*
G01*
%TO.C,TP14*%
X79700000Y-49250000D02*
G75*
G03*
X79700000Y-49250000I-700000J0D01*
G01*
%TO.C,SW1*%
X74550000Y-55150000D02*
X71050000Y-55150000D01*
X73750000Y-58900000D02*
X73750000Y-58250000D01*
X71850000Y-58900000D02*
X73750000Y-58900000D01*
X71850000Y-58250000D02*
X71850000Y-58900000D01*
X71050000Y-58250000D02*
X74550000Y-58250000D01*
%TO.C,TP22*%
X79700000Y-46500000D02*
G75*
G03*
X79700000Y-46500000I-700000J0D01*
G01*
%TO.C,TP15*%
X81700000Y-49250000D02*
G75*
G03*
X81700000Y-49250000I-700000J0D01*
G01*
%TO.C,TP18*%
X77700000Y-46500000D02*
G75*
G03*
X77700000Y-46500000I-700000J0D01*
G01*
%TO.C,TP11*%
X71500000Y-49250000D02*
G75*
G03*
X71500000Y-49250000I-700000J0D01*
G01*
%TO.C,TP17*%
X85700000Y-49250000D02*
G75*
G03*
X85700000Y-49250000I-700000J0D01*
G01*
%TO.C,TP13*%
X77700000Y-49250000D02*
G75*
G03*
X77700000Y-49250000I-700000J0D01*
G01*
%TD*%
M02*
