%TF.GenerationSoftware,KiCad,Pcbnew,7.0.5*%
%TF.CreationDate,2023-08-07T21:00:43+03:00*%
%TF.ProjectId,models-heart,6d6f6465-6c73-42d6-9865-6172742e6b69,rev?*%
%TF.SameCoordinates,Original*%
%TF.FileFunction,Copper,L2,Inr*%
%TF.FilePolarity,Positive*%
%FSLAX46Y46*%
G04 Gerber Fmt 4.6, Leading zero omitted, Abs format (unit mm)*
G04 Created by KiCad (PCBNEW 7.0.5) date 2023-08-07 21:00:43*
%MOMM*%
%LPD*%
G01*
G04 APERTURE LIST*
%TA.AperFunction,ComponentPad*%
%ADD10C,0.500000*%
%TD*%
%TA.AperFunction,ComponentPad*%
%ADD11O,1.000000X1.800000*%
%TD*%
%TA.AperFunction,ComponentPad*%
%ADD12O,1.000000X2.100000*%
%TD*%
%TA.AperFunction,ViaPad*%
%ADD13C,0.600000*%
%TD*%
G04 APERTURE END LIST*
D10*
%TO.N,GND*%
%TO.C,U6*%
X74775000Y-36687500D03*
X76275000Y-36687500D03*
X77775000Y-36687500D03*
X74775000Y-35187500D03*
X76275000Y-35187500D03*
X77775000Y-35187500D03*
%TD*%
D11*
%TO.N,GND*%
%TO.C,P1*%
X84820000Y-56575000D03*
D12*
X84820000Y-52395000D03*
D11*
X76180000Y-56575000D03*
D12*
X76180000Y-52395000D03*
%TD*%
D13*
%TO.N,+5V*%
X62600000Y-45500000D03*
X82700000Y-54865500D03*
X73469286Y-58200964D03*
X89399500Y-53788443D03*
X87804424Y-52600000D03*
X74750000Y-54775500D03*
X67600000Y-58000000D03*
X83438285Y-54865500D03*
X77000000Y-58049503D03*
X62200000Y-49000000D03*
X63280000Y-46980000D03*
X87200000Y-53200000D03*
X84137422Y-54849500D03*
X69701792Y-58200470D03*
X87213555Y-52611836D03*
X88200000Y-53200000D03*
%TO.N,GND*%
X75500000Y-48750000D03*
X86843484Y-56665226D03*
X74049503Y-50300000D03*
X67500000Y-29000000D03*
X80000000Y-49500000D03*
X74250000Y-51750000D03*
X79200000Y-45600000D03*
X62000000Y-54500000D03*
X81500000Y-37500000D03*
X71935108Y-57352888D03*
X75449503Y-50300000D03*
X84000000Y-50300000D03*
X66000000Y-29000000D03*
X66000000Y-34000000D03*
X62000000Y-56000000D03*
X62000000Y-31000000D03*
X73050000Y-33700000D03*
X62300000Y-57200000D03*
X67500000Y-55000000D03*
X83750000Y-39250000D03*
X83589859Y-46104315D03*
X66300000Y-47000000D03*
X71450000Y-52550000D03*
X76000000Y-28500000D03*
X90000000Y-47000000D03*
X67000500Y-50100000D03*
X81750000Y-35250000D03*
X80400000Y-50300000D03*
X75000000Y-48250000D03*
X78300000Y-50300000D03*
X80000000Y-54500000D03*
X69700000Y-55800000D03*
X76100000Y-50300000D03*
X87750000Y-39700498D03*
X74100500Y-46163000D03*
X81800000Y-50300000D03*
X85400000Y-50300000D03*
X63000000Y-50500000D03*
X90200000Y-28325500D03*
X64200000Y-54600000D03*
X70600000Y-41500000D03*
X66400000Y-53300000D03*
X74500000Y-48000000D03*
X67000000Y-49000000D03*
X82500000Y-50300000D03*
X81400000Y-57570550D03*
X66000000Y-30500000D03*
X77704973Y-45619892D03*
X81750000Y-30500000D03*
X77250000Y-50750000D03*
X63000000Y-32000000D03*
X79262767Y-57485765D03*
X76800000Y-50300000D03*
X82400000Y-41250000D03*
X78300000Y-45500000D03*
X78499502Y-44974689D03*
X71000000Y-35000000D03*
X64900000Y-52800000D03*
X77000000Y-57250000D03*
X84700000Y-50300000D03*
X81100000Y-50300000D03*
X75187000Y-58000000D03*
X71250000Y-53750000D03*
X81750000Y-29250000D03*
X79700000Y-50300000D03*
X77650694Y-50289261D03*
X89400000Y-45500000D03*
X80750000Y-54500000D03*
X75750000Y-27799500D03*
X71500000Y-54955498D03*
X78500498Y-44300000D03*
X65500000Y-50000000D03*
X83200000Y-50300000D03*
X74750000Y-50300000D03*
X62000000Y-51000000D03*
X79825500Y-37238589D03*
X62700000Y-52000000D03*
X81500000Y-54500000D03*
X65400000Y-49000000D03*
X79000000Y-50300000D03*
X71831081Y-43476874D03*
X62000000Y-53000000D03*
X72141151Y-56739279D03*
X86100497Y-50300000D03*
X69700000Y-27600497D03*
X62900000Y-53800000D03*
X89411956Y-37695645D03*
X87250000Y-55750000D03*
X83500000Y-28000000D03*
X90000000Y-33274500D03*
X67500000Y-45500000D03*
%TO.N,BAT +*%
X89949503Y-50300000D03*
X89025500Y-49100000D03*
X88427181Y-49708743D03*
X89125790Y-49673399D03*
X88561358Y-46690820D03*
X88600000Y-50300000D03*
X89250000Y-50300000D03*
X83400000Y-57734500D03*
X90000000Y-56649500D03*
X88365483Y-46161835D03*
X88000000Y-46750000D03*
X90200000Y-51275500D03*
%TO.N,+PWR (5V0 {slash} 3V3)*%
X82499502Y-44750000D03*
X86750000Y-45000000D03*
X84499502Y-44250000D03*
X70599500Y-43274500D03*
X87950500Y-43700000D03*
X71551089Y-48051089D03*
X86499132Y-44346955D03*
X70599500Y-44271086D03*
X87014364Y-46595986D03*
X71249825Y-44025824D03*
X86812476Y-47117762D03*
%TO.N,+3V3*%
X88500000Y-41750000D03*
X85800000Y-33500000D03*
X85250000Y-32500000D03*
X84750000Y-30000000D03*
X89471147Y-41684587D03*
X85800000Y-32800000D03*
X85000000Y-28500000D03*
X88000000Y-35699502D03*
X84000000Y-36250000D03*
X70862500Y-37763000D03*
X70794369Y-36660000D03*
X86750000Y-42000000D03*
X89573384Y-29646767D03*
%TO.N,ESP GPIO 0*%
X69700000Y-30900000D03*
X76400000Y-49100000D03*
X72049500Y-35800000D03*
X73275498Y-35800000D03*
X74793496Y-42792996D03*
X67900000Y-33100000D03*
X70800000Y-33100000D03*
%TO.N,ESP RST*%
X69676089Y-30100000D03*
X71150498Y-30900000D03*
X87600000Y-27800000D03*
%TO.N,Net-(D1-K)*%
X85788000Y-57750500D03*
%TO.N,Net-(D1-A)*%
X88761111Y-56865312D03*
%TO.N,Net-(D2-K)*%
X86400000Y-56000000D03*
%TO.N,Net-(D2-A)*%
X89392451Y-52784903D03*
%TO.N,+5V0 USB*%
X86200000Y-53000000D03*
X84017218Y-53606164D03*
X72400000Y-50300000D03*
X72820048Y-51861012D03*
X78500000Y-53000000D03*
X86100000Y-53600000D03*
X81162130Y-53775591D03*
X73500000Y-51300000D03*
X73453685Y-51905260D03*
X78193738Y-53545500D03*
X72250500Y-47000498D03*
X82500000Y-53000000D03*
X73100000Y-50300000D03*
X79054904Y-52892462D03*
X72800000Y-49250000D03*
X71900000Y-49350000D03*
X86000000Y-54250000D03*
%TO.N,/USB D+*%
X69687531Y-57401095D03*
X66300000Y-57100000D03*
X65700000Y-39900000D03*
X80719811Y-52916898D03*
%TO.N,/USB D-*%
X64300000Y-57100000D03*
X69704112Y-56601765D03*
X79900000Y-52894502D03*
X66400000Y-38520000D03*
%TO.N,RTS*%
X64424500Y-35718500D03*
X62200000Y-33000000D03*
%TO.N,ESP RxD*%
X69692168Y-29283730D03*
X71712041Y-30240566D03*
%TO.N,Net-(U3-TXD)*%
X62300000Y-29800000D03*
X64700000Y-43600000D03*
%TO.N,ESP TxD*%
X69700000Y-28400000D03*
X71400000Y-28000000D03*
%TO.N,Net-(U3-RXD)*%
X64700500Y-42300000D03*
X62300000Y-28300000D03*
%TO.N,Net-(U5-EN)*%
X87200000Y-33600000D03*
%TO.N,HEAD_LIGHT_PIN*%
X78200000Y-49099500D03*
X72100000Y-39500000D03*
X75615158Y-42715159D03*
%TO.N,ESP ADC*%
X89200000Y-31700000D03*
%TO.N,BAT -*%
X86900000Y-49700000D03*
X87614597Y-48114597D03*
X84500000Y-45200000D03*
X86900000Y-50300000D03*
X76606277Y-45581312D03*
X87556855Y-49686239D03*
X87600000Y-50300000D03*
%TO.N,MOTOR_A*%
X80625000Y-31975000D03*
X74649502Y-30999500D03*
%TO.N,MOTOR_B*%
X79605790Y-32015344D03*
X74649655Y-31847169D03*
%TO.N,RIGHT_TURN_LIGHT_PIN*%
X78038847Y-41987821D03*
X80584465Y-48704902D03*
%TO.N,LEFT_TURN_LIGHT_PIN*%
X78069178Y-42805312D03*
X82000000Y-48850000D03*
%TO.N,MOT A*%
X75900000Y-41000000D03*
X76700000Y-41000000D03*
X76400000Y-41600000D03*
X73437598Y-45035763D03*
X73225983Y-45833807D03*
%TO.N,MOT B*%
X72499500Y-45500000D03*
X76300000Y-39100000D03*
X76300000Y-38500000D03*
X76084659Y-39625500D03*
X72499500Y-46186050D03*
%TO.N,+PWR*%
X86200000Y-36500000D03*
X85200000Y-41500000D03*
X85750000Y-34500000D03*
X85200000Y-42100000D03*
X79250000Y-28750000D03*
X77793098Y-30700500D03*
X86470750Y-31525071D03*
X84574346Y-41787173D03*
X84750000Y-42500000D03*
X78800000Y-30000000D03*
X85800000Y-41800000D03*
X77250000Y-30250000D03*
%TO.N,+PWR SENSE*%
X82400000Y-32600000D03*
%TO.N,+PWR HOLD*%
X70600000Y-40700000D03*
%TO.N,BTN+*%
X70650000Y-50300000D03*
X71350000Y-50300000D03*
X73200000Y-46900000D03*
%TD*%
%TA.AperFunction,Conductor*%
%TO.N,GND*%
G36*
X72339191Y-27319407D02*
G01*
X72375155Y-27368907D01*
X72380000Y-27399499D01*
X72380000Y-27400000D01*
X87078405Y-27400000D01*
X87136596Y-27418907D01*
X87172560Y-27468407D01*
X87172560Y-27529593D01*
X87168458Y-27540127D01*
X87114834Y-27657543D01*
X87094353Y-27799997D01*
X87094353Y-27800002D01*
X87114834Y-27942456D01*
X87153275Y-28026628D01*
X87174623Y-28073373D01*
X87247556Y-28157543D01*
X87268873Y-28182144D01*
X87386197Y-28257543D01*
X87389947Y-28259953D01*
X87492436Y-28290046D01*
X87528035Y-28300499D01*
X87528036Y-28300499D01*
X87528039Y-28300500D01*
X87528041Y-28300500D01*
X87671959Y-28300500D01*
X87671961Y-28300500D01*
X87810053Y-28259953D01*
X87931128Y-28182143D01*
X88025377Y-28073373D01*
X88085165Y-27942457D01*
X88105647Y-27800000D01*
X88105575Y-27799500D01*
X88085165Y-27657543D01*
X88031542Y-27540127D01*
X88024567Y-27479340D01*
X88054653Y-27426063D01*
X88110309Y-27400645D01*
X88121595Y-27400000D01*
X88619999Y-27400000D01*
X88620000Y-27400000D01*
X88620000Y-27399500D01*
X88638907Y-27341309D01*
X88688407Y-27305345D01*
X88719000Y-27300500D01*
X90600500Y-27300500D01*
X90658691Y-27319407D01*
X90694655Y-27368907D01*
X90699500Y-27399500D01*
X90699500Y-50822472D01*
X90680593Y-50880663D01*
X90631093Y-50916627D01*
X90569907Y-50916627D01*
X90535671Y-50897293D01*
X90531127Y-50893356D01*
X90410057Y-50815549D01*
X90410054Y-50815548D01*
X90410053Y-50815547D01*
X90382081Y-50807333D01*
X90362537Y-50801595D01*
X90312030Y-50767059D01*
X90291469Y-50709431D01*
X90308708Y-50650725D01*
X90315597Y-50641789D01*
X90374880Y-50573373D01*
X90434668Y-50442457D01*
X90455150Y-50300000D01*
X90434668Y-50157543D01*
X90374880Y-50026627D01*
X90280631Y-49917857D01*
X90280630Y-49917856D01*
X90280629Y-49917855D01*
X90159560Y-49840049D01*
X90159557Y-49840047D01*
X90159556Y-49840047D01*
X90149540Y-49837106D01*
X90021467Y-49799500D01*
X90021464Y-49799500D01*
X89877542Y-49799500D01*
X89877538Y-49799500D01*
X89749466Y-49837106D01*
X89688306Y-49835359D01*
X89639853Y-49797996D01*
X89622615Y-49739289D01*
X89623583Y-49728027D01*
X89631437Y-49673401D01*
X89631437Y-49673396D01*
X89610955Y-49530942D01*
X89588441Y-49481644D01*
X89551167Y-49400026D01*
X89519183Y-49363114D01*
X89495367Y-49306756D01*
X89503952Y-49257156D01*
X89507221Y-49249997D01*
X89510665Y-49242457D01*
X89527787Y-49123371D01*
X89531147Y-49100002D01*
X89531147Y-49099997D01*
X89510665Y-48957543D01*
X89479840Y-48890046D01*
X89450877Y-48826627D01*
X89356628Y-48717857D01*
X89356627Y-48717856D01*
X89356626Y-48717855D01*
X89235557Y-48640049D01*
X89235554Y-48640047D01*
X89235553Y-48640047D01*
X89233857Y-48639549D01*
X89097464Y-48599500D01*
X89097461Y-48599500D01*
X88953539Y-48599500D01*
X88953535Y-48599500D01*
X88815449Y-48640046D01*
X88815442Y-48640049D01*
X88694373Y-48717855D01*
X88600122Y-48826628D01*
X88540334Y-48957543D01*
X88519853Y-49099997D01*
X88519853Y-49107080D01*
X88517092Y-49107080D01*
X88508723Y-49155443D01*
X88464845Y-49198085D01*
X88421164Y-49208243D01*
X88355216Y-49208243D01*
X88217130Y-49248789D01*
X88217123Y-49248792D01*
X88096053Y-49326599D01*
X88076585Y-49349066D01*
X88024188Y-49380661D01*
X87963227Y-49375423D01*
X87926948Y-49349065D01*
X87887983Y-49304096D01*
X87887982Y-49304095D01*
X87887981Y-49304094D01*
X87766912Y-49226288D01*
X87766909Y-49226286D01*
X87766908Y-49226286D01*
X87766905Y-49226285D01*
X87628819Y-49185739D01*
X87628816Y-49185739D01*
X87484894Y-49185739D01*
X87484890Y-49185739D01*
X87346804Y-49226285D01*
X87346798Y-49226287D01*
X87271242Y-49274844D01*
X87212067Y-49290397D01*
X87164197Y-49274843D01*
X87110053Y-49240047D01*
X87083138Y-49232144D01*
X86971964Y-49199500D01*
X86971961Y-49199500D01*
X86828039Y-49199500D01*
X86828035Y-49199500D01*
X86689949Y-49240046D01*
X86689942Y-49240049D01*
X86568873Y-49317855D01*
X86474622Y-49426628D01*
X86414834Y-49557543D01*
X86394353Y-49699997D01*
X86394353Y-49700002D01*
X86414833Y-49842454D01*
X86468001Y-49958874D01*
X86474975Y-50019660D01*
X86468001Y-50041126D01*
X86414833Y-50157545D01*
X86394353Y-50299997D01*
X86394353Y-50300002D01*
X86414834Y-50442456D01*
X86474622Y-50573370D01*
X86474623Y-50573373D01*
X86550500Y-50660940D01*
X86568873Y-50682144D01*
X86689729Y-50759813D01*
X86689947Y-50759953D01*
X86796403Y-50791211D01*
X86828035Y-50800499D01*
X86828036Y-50800499D01*
X86828039Y-50800500D01*
X86828041Y-50800500D01*
X86971959Y-50800500D01*
X86971961Y-50800500D01*
X87110053Y-50759953D01*
X87195682Y-50704923D01*
X87196477Y-50704412D01*
X87255652Y-50688857D01*
X87303523Y-50704412D01*
X87384046Y-50756161D01*
X87389947Y-50759953D01*
X87496403Y-50791211D01*
X87528035Y-50800499D01*
X87528036Y-50800499D01*
X87528039Y-50800500D01*
X87528041Y-50800500D01*
X87671959Y-50800500D01*
X87671961Y-50800500D01*
X87810053Y-50759953D01*
X87931128Y-50682143D01*
X88025182Y-50573597D01*
X88077576Y-50542003D01*
X88138537Y-50547238D01*
X88174816Y-50573596D01*
X88250500Y-50660940D01*
X88268873Y-50682144D01*
X88389729Y-50759813D01*
X88389947Y-50759953D01*
X88496403Y-50791211D01*
X88528035Y-50800499D01*
X88528036Y-50800499D01*
X88528039Y-50800500D01*
X88528041Y-50800500D01*
X88671959Y-50800500D01*
X88671961Y-50800500D01*
X88810053Y-50759953D01*
X88871478Y-50720477D01*
X88930651Y-50704923D01*
X88978521Y-50720477D01*
X89039947Y-50759953D01*
X89146403Y-50791211D01*
X89178035Y-50800499D01*
X89178036Y-50800499D01*
X89178039Y-50800500D01*
X89178041Y-50800500D01*
X89321959Y-50800500D01*
X89321961Y-50800500D01*
X89460053Y-50759953D01*
X89546230Y-50704569D01*
X89605402Y-50689016D01*
X89653272Y-50704570D01*
X89739450Y-50759953D01*
X89786964Y-50773904D01*
X89837471Y-50808440D01*
X89858033Y-50866067D01*
X89840795Y-50924774D01*
X89833893Y-50933724D01*
X89774623Y-51002126D01*
X89714834Y-51133043D01*
X89694353Y-51275497D01*
X89694353Y-51275502D01*
X89714834Y-51417956D01*
X89760208Y-51517309D01*
X89774623Y-51548873D01*
X89853056Y-51639390D01*
X89868873Y-51657644D01*
X89963653Y-51718555D01*
X89989947Y-51735453D01*
X90083094Y-51762803D01*
X90128035Y-51775999D01*
X90128036Y-51775999D01*
X90128039Y-51776000D01*
X90128041Y-51776000D01*
X90271959Y-51776000D01*
X90271961Y-51776000D01*
X90410053Y-51735453D01*
X90531128Y-51657643D01*
X90531133Y-51657637D01*
X90535666Y-51653710D01*
X90592025Y-51629890D01*
X90651621Y-51643747D01*
X90691690Y-51689986D01*
X90699500Y-51728527D01*
X90699500Y-56613575D01*
X90689402Y-56644651D01*
X90699500Y-56685424D01*
X90699500Y-58600500D01*
X90680593Y-58658691D01*
X90631093Y-58694655D01*
X90600500Y-58699500D01*
X77249010Y-58699500D01*
X77190819Y-58680593D01*
X77154855Y-58631093D01*
X77154855Y-58569907D01*
X77190819Y-58520407D01*
X77207884Y-58510446D01*
X77210045Y-58509458D01*
X77210053Y-58509456D01*
X77331128Y-58431646D01*
X77425377Y-58322876D01*
X77485165Y-58191960D01*
X77495994Y-58116643D01*
X77505647Y-58049505D01*
X77505647Y-58049500D01*
X77485165Y-57907046D01*
X77471423Y-57876956D01*
X77425377Y-57776130D01*
X77389306Y-57734502D01*
X82894353Y-57734502D01*
X82914834Y-57876956D01*
X82926655Y-57902839D01*
X82974623Y-58007873D01*
X83068872Y-58116643D01*
X83068873Y-58116644D01*
X83189942Y-58194450D01*
X83189947Y-58194453D01*
X83296403Y-58225711D01*
X83328035Y-58234999D01*
X83328036Y-58234999D01*
X83328039Y-58235000D01*
X83328041Y-58235000D01*
X83471959Y-58235000D01*
X83471961Y-58235000D01*
X83610053Y-58194453D01*
X83731128Y-58116643D01*
X83825377Y-58007873D01*
X83885165Y-57876957D01*
X83898640Y-57783238D01*
X83905647Y-57734502D01*
X83905647Y-57734497D01*
X83885165Y-57592043D01*
X83868393Y-57555318D01*
X83825377Y-57461127D01*
X83731128Y-57352357D01*
X83731127Y-57352356D01*
X83731126Y-57352355D01*
X83610057Y-57274549D01*
X83610054Y-57274547D01*
X83610053Y-57274547D01*
X83610050Y-57274546D01*
X83471964Y-57234000D01*
X83471961Y-57234000D01*
X83328039Y-57234000D01*
X83328035Y-57234000D01*
X83189949Y-57274546D01*
X83189942Y-57274549D01*
X83068873Y-57352355D01*
X82974622Y-57461128D01*
X82914834Y-57592043D01*
X82894353Y-57734497D01*
X82894353Y-57734502D01*
X77389306Y-57734502D01*
X77331128Y-57667360D01*
X77331127Y-57667359D01*
X77331126Y-57667358D01*
X77210057Y-57589552D01*
X77210054Y-57589550D01*
X77210053Y-57589550D01*
X77210050Y-57589549D01*
X77071964Y-57549003D01*
X77071961Y-57549003D01*
X76928039Y-57549003D01*
X76928037Y-57549003D01*
X76928033Y-57549004D01*
X76827790Y-57578437D01*
X76766630Y-57576689D01*
X76718178Y-57539326D01*
X76700940Y-57480619D01*
X76718425Y-57427208D01*
X76804370Y-57302694D01*
X76804373Y-57302690D01*
X76864648Y-57143758D01*
X76864651Y-57143748D01*
X76879999Y-57017351D01*
X84120000Y-57017351D01*
X84135348Y-57143748D01*
X84135351Y-57143758D01*
X84195626Y-57302690D01*
X84195628Y-57302693D01*
X84292194Y-57442594D01*
X84292199Y-57442600D01*
X84419431Y-57555318D01*
X84569954Y-57634318D01*
X84569957Y-57634319D01*
X84569999Y-57634329D01*
X84570000Y-57634328D01*
X84570000Y-57141110D01*
X84594457Y-57180610D01*
X84683962Y-57248201D01*
X84791840Y-57278895D01*
X84903521Y-57268546D01*
X85003922Y-57218552D01*
X85070000Y-57146069D01*
X85070000Y-57634329D01*
X85070042Y-57634319D01*
X85070045Y-57634318D01*
X85146173Y-57594364D01*
X85206485Y-57584063D01*
X85261333Y-57611180D01*
X85289767Y-57665357D01*
X85290172Y-57696113D01*
X85282353Y-57750494D01*
X85282353Y-57750502D01*
X85302834Y-57892956D01*
X85309269Y-57907046D01*
X85362623Y-58023873D01*
X85443008Y-58116643D01*
X85456873Y-58132644D01*
X85563185Y-58200966D01*
X85577947Y-58210453D01*
X85684403Y-58241711D01*
X85716035Y-58250999D01*
X85716036Y-58250999D01*
X85716039Y-58251000D01*
X85716041Y-58251000D01*
X85859959Y-58251000D01*
X85859961Y-58251000D01*
X85998053Y-58210453D01*
X86119128Y-58132643D01*
X86213377Y-58023873D01*
X86273165Y-57892957D01*
X86286453Y-57800539D01*
X86293647Y-57750502D01*
X86293647Y-57750494D01*
X86273165Y-57608043D01*
X86264719Y-57589549D01*
X86213377Y-57477127D01*
X86119128Y-57368357D01*
X86119127Y-57368356D01*
X86119126Y-57368355D01*
X85998057Y-57290549D01*
X85998054Y-57290547D01*
X85998053Y-57290547D01*
X85998050Y-57290546D01*
X85859964Y-57250000D01*
X85859961Y-57250000D01*
X85716039Y-57250000D01*
X85716035Y-57250000D01*
X85623891Y-57277056D01*
X85562730Y-57275308D01*
X85514278Y-57237945D01*
X85497040Y-57179238D01*
X85503435Y-57146955D01*
X85504651Y-57143748D01*
X85519999Y-57017351D01*
X85520000Y-57017334D01*
X85520000Y-56865314D01*
X88255464Y-56865314D01*
X88275945Y-57007768D01*
X88322384Y-57109453D01*
X88335734Y-57138685D01*
X88425652Y-57242457D01*
X88429984Y-57247456D01*
X88551053Y-57325262D01*
X88551058Y-57325265D01*
X88643319Y-57352355D01*
X88689146Y-57365811D01*
X88689147Y-57365811D01*
X88689150Y-57365812D01*
X88689152Y-57365812D01*
X88833070Y-57365812D01*
X88833072Y-57365812D01*
X88971164Y-57325265D01*
X89092239Y-57247455D01*
X89186488Y-57138685D01*
X89246276Y-57007769D01*
X89258482Y-56922871D01*
X89266758Y-56865314D01*
X89266758Y-56865309D01*
X89246276Y-56722855D01*
X89222747Y-56671335D01*
X89212776Y-56649502D01*
X89494353Y-56649502D01*
X89514834Y-56791956D01*
X89548334Y-56865309D01*
X89574623Y-56922873D01*
X89668384Y-57031080D01*
X89668873Y-57031644D01*
X89775241Y-57100002D01*
X89789947Y-57109453D01*
X89889503Y-57138685D01*
X89928035Y-57149999D01*
X89928036Y-57149999D01*
X89928039Y-57150000D01*
X89928041Y-57150000D01*
X90071959Y-57150000D01*
X90071961Y-57150000D01*
X90210053Y-57109453D01*
X90331128Y-57031643D01*
X90425377Y-56922873D01*
X90485165Y-56791957D01*
X90502508Y-56671335D01*
X90512217Y-56651587D01*
X90502508Y-56627664D01*
X90485165Y-56507043D01*
X90429448Y-56385042D01*
X90425377Y-56376127D01*
X90331128Y-56267357D01*
X90331127Y-56267356D01*
X90331126Y-56267355D01*
X90210057Y-56189549D01*
X90210054Y-56189547D01*
X90210053Y-56189547D01*
X90210050Y-56189546D01*
X90071964Y-56149000D01*
X90071961Y-56149000D01*
X89928039Y-56149000D01*
X89928035Y-56149000D01*
X89789949Y-56189546D01*
X89789942Y-56189549D01*
X89668873Y-56267355D01*
X89574622Y-56376128D01*
X89514834Y-56507043D01*
X89494353Y-56649497D01*
X89494353Y-56649502D01*
X89212776Y-56649502D01*
X89186488Y-56591939D01*
X89092239Y-56483169D01*
X89092238Y-56483168D01*
X89092237Y-56483167D01*
X88971168Y-56405361D01*
X88971165Y-56405359D01*
X88971164Y-56405359D01*
X88954616Y-56400500D01*
X88833075Y-56364812D01*
X88833072Y-56364812D01*
X88689150Y-56364812D01*
X88689146Y-56364812D01*
X88551060Y-56405358D01*
X88551053Y-56405361D01*
X88429984Y-56483167D01*
X88335733Y-56591940D01*
X88275945Y-56722855D01*
X88255464Y-56865309D01*
X88255464Y-56865314D01*
X85520000Y-56865314D01*
X85520000Y-56825001D01*
X85519999Y-56825000D01*
X85120000Y-56825000D01*
X85120000Y-56325000D01*
X85519999Y-56325000D01*
X85520000Y-56324998D01*
X85520000Y-56132665D01*
X85519999Y-56132648D01*
X85504651Y-56006251D01*
X85504648Y-56006241D01*
X85502282Y-56000002D01*
X85894353Y-56000002D01*
X85914834Y-56142456D01*
X85974622Y-56273371D01*
X85974623Y-56273373D01*
X86018956Y-56324536D01*
X86068873Y-56382144D01*
X86105000Y-56405361D01*
X86189947Y-56459953D01*
X86296403Y-56491211D01*
X86328035Y-56500499D01*
X86328036Y-56500499D01*
X86328039Y-56500500D01*
X86328041Y-56500500D01*
X86471959Y-56500500D01*
X86471961Y-56500500D01*
X86610053Y-56459953D01*
X86731128Y-56382143D01*
X86825377Y-56273373D01*
X86885165Y-56142457D01*
X86891992Y-56094971D01*
X86905647Y-56000002D01*
X86905647Y-55999997D01*
X86885165Y-55857543D01*
X86880490Y-55847306D01*
X86825377Y-55726627D01*
X86731128Y-55617857D01*
X86731127Y-55617856D01*
X86731126Y-55617855D01*
X86610057Y-55540049D01*
X86610054Y-55540047D01*
X86610053Y-55540047D01*
X86610050Y-55540046D01*
X86471964Y-55499500D01*
X86471961Y-55499500D01*
X86328039Y-55499500D01*
X86328035Y-55499500D01*
X86189949Y-55540046D01*
X86189942Y-55540049D01*
X86068873Y-55617855D01*
X85974622Y-55726628D01*
X85914834Y-55857543D01*
X85894353Y-55999997D01*
X85894353Y-56000002D01*
X85502282Y-56000002D01*
X85444373Y-55847309D01*
X85444371Y-55847306D01*
X85347805Y-55707405D01*
X85347800Y-55707399D01*
X85220568Y-55594681D01*
X85070053Y-55515685D01*
X85070042Y-55515681D01*
X85070000Y-55515670D01*
X85070000Y-56008889D01*
X85045543Y-55969390D01*
X84956038Y-55901799D01*
X84848160Y-55871105D01*
X84736479Y-55881454D01*
X84636078Y-55931448D01*
X84570000Y-56003930D01*
X84570000Y-55515670D01*
X84569957Y-55515681D01*
X84569946Y-55515685D01*
X84419431Y-55594681D01*
X84419430Y-55594681D01*
X84292199Y-55707399D01*
X84292194Y-55707405D01*
X84195628Y-55847306D01*
X84195626Y-55847309D01*
X84135351Y-56006241D01*
X84135348Y-56006251D01*
X84120000Y-56132648D01*
X84120000Y-56324999D01*
X84120001Y-56325000D01*
X84520000Y-56325000D01*
X84520000Y-56825000D01*
X84120001Y-56825000D01*
X84120000Y-56825001D01*
X84120000Y-57017351D01*
X76879999Y-57017351D01*
X76880000Y-57017334D01*
X76880000Y-56825001D01*
X76879999Y-56825000D01*
X76480000Y-56825000D01*
X76480000Y-56325000D01*
X76879999Y-56325000D01*
X76880000Y-56324998D01*
X76880000Y-56132665D01*
X76879999Y-56132648D01*
X76864651Y-56006251D01*
X76864648Y-56006241D01*
X76804373Y-55847309D01*
X76804371Y-55847306D01*
X76707805Y-55707405D01*
X76707800Y-55707399D01*
X76580568Y-55594681D01*
X76430053Y-55515685D01*
X76430042Y-55515681D01*
X76430000Y-55515670D01*
X76430000Y-56008889D01*
X76405543Y-55969390D01*
X76316038Y-55901799D01*
X76208160Y-55871105D01*
X76096479Y-55881454D01*
X75996078Y-55931448D01*
X75930000Y-56003930D01*
X75930000Y-55515670D01*
X75929957Y-55515681D01*
X75929946Y-55515685D01*
X75779431Y-55594681D01*
X75779430Y-55594681D01*
X75652199Y-55707399D01*
X75652194Y-55707405D01*
X75555628Y-55847306D01*
X75555626Y-55847309D01*
X75495351Y-56006241D01*
X75495348Y-56006251D01*
X75480000Y-56132648D01*
X75480000Y-56324998D01*
X75480001Y-56325000D01*
X75880000Y-56325000D01*
X75880000Y-56825000D01*
X75480001Y-56825000D01*
X75480000Y-56825001D01*
X75480000Y-57017351D01*
X75495348Y-57143748D01*
X75495351Y-57143758D01*
X75555626Y-57302690D01*
X75555628Y-57302693D01*
X75652194Y-57442594D01*
X75652199Y-57442600D01*
X75779431Y-57555318D01*
X75929954Y-57634318D01*
X75929957Y-57634319D01*
X75929999Y-57634329D01*
X75930000Y-57634328D01*
X75930000Y-57141110D01*
X75954457Y-57180610D01*
X76043962Y-57248201D01*
X76151840Y-57278895D01*
X76263521Y-57268546D01*
X76363922Y-57218552D01*
X76429999Y-57146069D01*
X76430000Y-57634329D01*
X76430041Y-57634319D01*
X76456634Y-57620363D01*
X76516946Y-57610062D01*
X76571795Y-57637179D01*
X76600229Y-57691356D01*
X76591388Y-57751899D01*
X76577463Y-57772853D01*
X76574622Y-57776131D01*
X76514834Y-57907046D01*
X76494353Y-58049500D01*
X76494353Y-58049505D01*
X76514834Y-58191959D01*
X76552015Y-58273373D01*
X76574623Y-58322876D01*
X76625978Y-58382143D01*
X76668873Y-58431647D01*
X76776011Y-58500500D01*
X76789947Y-58509456D01*
X76789951Y-58509457D01*
X76792116Y-58510446D01*
X76793585Y-58511794D01*
X76795903Y-58513284D01*
X76795645Y-58513685D01*
X76837194Y-58551818D01*
X76849345Y-58611785D01*
X76823928Y-58667441D01*
X76770651Y-58697528D01*
X76750990Y-58699500D01*
X73916338Y-58699500D01*
X73858147Y-58680593D01*
X73822183Y-58631093D01*
X73822183Y-58569907D01*
X73841519Y-58535669D01*
X73860915Y-58513284D01*
X73894663Y-58474337D01*
X73954451Y-58343421D01*
X73967739Y-58250999D01*
X73974933Y-58200966D01*
X73974933Y-58200961D01*
X73954451Y-58058507D01*
X73940649Y-58028286D01*
X73894663Y-57927591D01*
X73800414Y-57818821D01*
X73800413Y-57818820D01*
X73800412Y-57818819D01*
X73679343Y-57741013D01*
X73679340Y-57741011D01*
X73679339Y-57741011D01*
X73679336Y-57741010D01*
X73541250Y-57700464D01*
X73541247Y-57700464D01*
X73504682Y-57700464D01*
X73446491Y-57681557D01*
X73410527Y-57632057D01*
X73405682Y-57601464D01*
X73405682Y-57599999D01*
X73398968Y-57549003D01*
X73385044Y-57443238D01*
X73354027Y-57368357D01*
X73324537Y-57297161D01*
X73324537Y-57297160D01*
X73228286Y-57171723D01*
X73228285Y-57171722D01*
X73228282Y-57171718D01*
X73228277Y-57171714D01*
X73228276Y-57171713D01*
X73147136Y-57109453D01*
X73102841Y-57075464D01*
X73102840Y-57075463D01*
X73102838Y-57075462D01*
X72956766Y-57014957D01*
X72956758Y-57014955D01*
X72839362Y-56999500D01*
X72839361Y-56999500D01*
X72760639Y-56999500D01*
X72760637Y-56999500D01*
X72643241Y-57014955D01*
X72643233Y-57014957D01*
X72497161Y-57075462D01*
X72497160Y-57075462D01*
X72371723Y-57171713D01*
X72371713Y-57171723D01*
X72275462Y-57297160D01*
X72275462Y-57297161D01*
X72214957Y-57443233D01*
X72214955Y-57443241D01*
X72194318Y-57599999D01*
X72194318Y-57600000D01*
X72214955Y-57756758D01*
X72214957Y-57756766D01*
X72275462Y-57902838D01*
X72275462Y-57902839D01*
X72371713Y-58028276D01*
X72371718Y-58028282D01*
X72497159Y-58124536D01*
X72497160Y-58124536D01*
X72497161Y-58124537D01*
X72540424Y-58142457D01*
X72643238Y-58185044D01*
X72760639Y-58200500D01*
X72760640Y-58200500D01*
X72839359Y-58200500D01*
X72839361Y-58200500D01*
X72864272Y-58197220D01*
X72924431Y-58208369D01*
X72966549Y-58252751D01*
X72975186Y-58281283D01*
X72984120Y-58343420D01*
X73043909Y-58474337D01*
X73097053Y-58535669D01*
X73120871Y-58592028D01*
X73107012Y-58651623D01*
X73060772Y-58691691D01*
X73022234Y-58699500D01*
X70148416Y-58699500D01*
X70090225Y-58680593D01*
X70054261Y-58631093D01*
X70054261Y-58569907D01*
X70073597Y-58535669D01*
X70092993Y-58513284D01*
X70127169Y-58473843D01*
X70186957Y-58342927D01*
X70200174Y-58250999D01*
X70207439Y-58200472D01*
X70207439Y-58200467D01*
X70186957Y-58058013D01*
X70173376Y-58028276D01*
X70127169Y-57927097D01*
X70066763Y-57857384D01*
X70042945Y-57801025D01*
X70056804Y-57741429D01*
X70066755Y-57727730D01*
X70112908Y-57674468D01*
X70172696Y-57543552D01*
X70184547Y-57461127D01*
X70193178Y-57401097D01*
X70193178Y-57401092D01*
X70172696Y-57258638D01*
X70168751Y-57250000D01*
X70112908Y-57127722D01*
X70097078Y-57109453D01*
X70067942Y-57075827D01*
X70044125Y-57019468D01*
X70057984Y-56959873D01*
X70067943Y-56946166D01*
X70129489Y-56875138D01*
X70189277Y-56744222D01*
X70197731Y-56685424D01*
X70209759Y-56601767D01*
X70209759Y-56601762D01*
X70189277Y-56459308D01*
X70164639Y-56405359D01*
X70129489Y-56328392D01*
X70035240Y-56219622D01*
X70035239Y-56219621D01*
X70035238Y-56219620D01*
X69914169Y-56141814D01*
X69914166Y-56141812D01*
X69914165Y-56141812D01*
X69914162Y-56141811D01*
X69776076Y-56101265D01*
X69776073Y-56101265D01*
X69632151Y-56101265D01*
X69632147Y-56101265D01*
X69494061Y-56141811D01*
X69494054Y-56141814D01*
X69372985Y-56219620D01*
X69278734Y-56328393D01*
X69218946Y-56459308D01*
X69198465Y-56601762D01*
X69198465Y-56601767D01*
X69218946Y-56744221D01*
X69278735Y-56875138D01*
X69323700Y-56927032D01*
X69347517Y-56983391D01*
X69333658Y-57042986D01*
X69323700Y-57056692D01*
X69262154Y-57127721D01*
X69202365Y-57258638D01*
X69181884Y-57401092D01*
X69181884Y-57401097D01*
X69202365Y-57543551D01*
X69262154Y-57674468D01*
X69322559Y-57744180D01*
X69346377Y-57800539D01*
X69332518Y-57860135D01*
X69322560Y-57873841D01*
X69276415Y-57927096D01*
X69216626Y-58058013D01*
X69196145Y-58200467D01*
X69196145Y-58200472D01*
X69216626Y-58342926D01*
X69276415Y-58473843D01*
X69329987Y-58535669D01*
X69353805Y-58592028D01*
X69339946Y-58651623D01*
X69293706Y-58691691D01*
X69255168Y-58699500D01*
X61499500Y-58699500D01*
X61441309Y-58680593D01*
X61405345Y-58631093D01*
X61400500Y-58600500D01*
X61400500Y-58000002D01*
X67094352Y-58000002D01*
X67114834Y-58142456D01*
X67145888Y-58210453D01*
X67174623Y-58273373D01*
X67268872Y-58382143D01*
X67268873Y-58382144D01*
X67389942Y-58459950D01*
X67389947Y-58459953D01*
X67496403Y-58491211D01*
X67528035Y-58500499D01*
X67528036Y-58500499D01*
X67528039Y-58500500D01*
X67528041Y-58500500D01*
X67671959Y-58500500D01*
X67671961Y-58500500D01*
X67810053Y-58459953D01*
X67931128Y-58382143D01*
X68025377Y-58273373D01*
X68085165Y-58142457D01*
X68104515Y-58007873D01*
X68105647Y-58000002D01*
X68105647Y-57999997D01*
X68085165Y-57857543D01*
X68057150Y-57796200D01*
X68025377Y-57726627D01*
X67931128Y-57617857D01*
X67931127Y-57617856D01*
X67931126Y-57617855D01*
X67810057Y-57540049D01*
X67810054Y-57540047D01*
X67810053Y-57540047D01*
X67810050Y-57540046D01*
X67671964Y-57499500D01*
X67671961Y-57499500D01*
X67528039Y-57499500D01*
X67528035Y-57499500D01*
X67389949Y-57540046D01*
X67389942Y-57540049D01*
X67268873Y-57617855D01*
X67174622Y-57726628D01*
X67114834Y-57857543D01*
X67094352Y-57999997D01*
X67094352Y-58000002D01*
X61400500Y-58000002D01*
X61400500Y-57100002D01*
X63794352Y-57100002D01*
X63814834Y-57242456D01*
X63871170Y-57365812D01*
X63874623Y-57373373D01*
X63968872Y-57482143D01*
X63968873Y-57482144D01*
X64089942Y-57559950D01*
X64089947Y-57559953D01*
X64190743Y-57589549D01*
X64228035Y-57600499D01*
X64228036Y-57600499D01*
X64228039Y-57600500D01*
X64228041Y-57600500D01*
X64371959Y-57600500D01*
X64371961Y-57600500D01*
X64510053Y-57559953D01*
X64631128Y-57482143D01*
X64725377Y-57373373D01*
X64785165Y-57242457D01*
X64801661Y-57127722D01*
X64805647Y-57100002D01*
X65794352Y-57100002D01*
X65814834Y-57242456D01*
X65871170Y-57365812D01*
X65874623Y-57373373D01*
X65968872Y-57482143D01*
X65968873Y-57482144D01*
X66089942Y-57559950D01*
X66089947Y-57559953D01*
X66190743Y-57589549D01*
X66228035Y-57600499D01*
X66228036Y-57600499D01*
X66228039Y-57600500D01*
X66228041Y-57600500D01*
X66371959Y-57600500D01*
X66371961Y-57600500D01*
X66510053Y-57559953D01*
X66631128Y-57482143D01*
X66725377Y-57373373D01*
X66785165Y-57242457D01*
X66801661Y-57127722D01*
X66805647Y-57100002D01*
X66805647Y-57099997D01*
X66785165Y-56957543D01*
X66771231Y-56927032D01*
X66725377Y-56826627D01*
X66631128Y-56717857D01*
X66631127Y-56717856D01*
X66631126Y-56717855D01*
X66510057Y-56640049D01*
X66510054Y-56640047D01*
X66510053Y-56640047D01*
X66510050Y-56640046D01*
X66371964Y-56599500D01*
X66371961Y-56599500D01*
X66228039Y-56599500D01*
X66228035Y-56599500D01*
X66089949Y-56640046D01*
X66089942Y-56640049D01*
X65968873Y-56717855D01*
X65874622Y-56826628D01*
X65814834Y-56957543D01*
X65794352Y-57099997D01*
X65794352Y-57100002D01*
X64805647Y-57100002D01*
X64805647Y-57099997D01*
X64785165Y-56957543D01*
X64771231Y-56927032D01*
X64725377Y-56826627D01*
X64631128Y-56717857D01*
X64631127Y-56717856D01*
X64631126Y-56717855D01*
X64510057Y-56640049D01*
X64510054Y-56640047D01*
X64510053Y-56640047D01*
X64510050Y-56640046D01*
X64371964Y-56599500D01*
X64371961Y-56599500D01*
X64228039Y-56599500D01*
X64228035Y-56599500D01*
X64089949Y-56640046D01*
X64089942Y-56640049D01*
X63968873Y-56717855D01*
X63874622Y-56826628D01*
X63814834Y-56957543D01*
X63794352Y-57099997D01*
X63794352Y-57100002D01*
X61400500Y-57100002D01*
X61400500Y-55800000D01*
X72194318Y-55800000D01*
X72214955Y-55956758D01*
X72214957Y-55956766D01*
X72275462Y-56102838D01*
X72275462Y-56102839D01*
X72341997Y-56189549D01*
X72371718Y-56228282D01*
X72497159Y-56324536D01*
X72497160Y-56324536D01*
X72497161Y-56324537D01*
X72621710Y-56376127D01*
X72643238Y-56385044D01*
X72760639Y-56400500D01*
X72760640Y-56400500D01*
X72839360Y-56400500D01*
X72839361Y-56400500D01*
X72956762Y-56385044D01*
X73102841Y-56324536D01*
X73228282Y-56228282D01*
X73324536Y-56102841D01*
X73385044Y-55956762D01*
X73405682Y-55800000D01*
X73385044Y-55643238D01*
X73342301Y-55540047D01*
X73324537Y-55497161D01*
X73324537Y-55497160D01*
X73228286Y-55371723D01*
X73228285Y-55371722D01*
X73228282Y-55371718D01*
X73228277Y-55371714D01*
X73228276Y-55371713D01*
X73147136Y-55309453D01*
X73102841Y-55275464D01*
X73102840Y-55275463D01*
X73102838Y-55275462D01*
X72956766Y-55214957D01*
X72956758Y-55214955D01*
X72839362Y-55199500D01*
X72839361Y-55199500D01*
X72760639Y-55199500D01*
X72760637Y-55199500D01*
X72643241Y-55214955D01*
X72643233Y-55214957D01*
X72497161Y-55275462D01*
X72497160Y-55275462D01*
X72371723Y-55371713D01*
X72371713Y-55371723D01*
X72275462Y-55497160D01*
X72275462Y-55497161D01*
X72214957Y-55643233D01*
X72214955Y-55643241D01*
X72194318Y-55799999D01*
X72194318Y-55800000D01*
X61400500Y-55800000D01*
X61400500Y-54971794D01*
X68695599Y-54971794D01*
X68699289Y-55011615D01*
X68699500Y-55016184D01*
X68699500Y-55027845D01*
X68701641Y-55039305D01*
X68702272Y-55043831D01*
X68705964Y-55083656D01*
X68705965Y-55083661D01*
X68706167Y-55084066D01*
X68714855Y-55109987D01*
X68714937Y-55110428D01*
X68714940Y-55110436D01*
X68735990Y-55144433D01*
X68738213Y-55148424D01*
X68744442Y-55160931D01*
X68756042Y-55184228D01*
X68756369Y-55184526D01*
X68773842Y-55205567D01*
X68774079Y-55205950D01*
X68774081Y-55205952D01*
X68805995Y-55230052D01*
X68809509Y-55232970D01*
X68831132Y-55252683D01*
X68839067Y-55259916D01*
X68839483Y-55260077D01*
X68863377Y-55273385D01*
X68863736Y-55273656D01*
X68902200Y-55284599D01*
X68906518Y-55286046D01*
X68943827Y-55300500D01*
X68944273Y-55300500D01*
X68971364Y-55304279D01*
X68971793Y-55304401D01*
X69011614Y-55300711D01*
X69016184Y-55300500D01*
X69944273Y-55300500D01*
X69971364Y-55304279D01*
X69971793Y-55304401D01*
X70011614Y-55300711D01*
X70016184Y-55300500D01*
X70027844Y-55300500D01*
X70039315Y-55298355D01*
X70043819Y-55297726D01*
X70083660Y-55294035D01*
X70084054Y-55293838D01*
X70110000Y-55285141D01*
X70110433Y-55285061D01*
X70144434Y-55264008D01*
X70148410Y-55261792D01*
X70184228Y-55243958D01*
X70184519Y-55243638D01*
X70205576Y-55226151D01*
X70205952Y-55225919D01*
X70230049Y-55194007D01*
X70232973Y-55190487D01*
X70241963Y-55180624D01*
X70259916Y-55160933D01*
X70260076Y-55160521D01*
X70273395Y-55136609D01*
X70273656Y-55136264D01*
X70284605Y-55097778D01*
X70286043Y-55093487D01*
X70300500Y-55056173D01*
X70300500Y-55055726D01*
X70304279Y-55028635D01*
X70304401Y-55028207D01*
X70300711Y-54988384D01*
X70300500Y-54983815D01*
X70300500Y-54775502D01*
X74244353Y-54775502D01*
X74264834Y-54917956D01*
X74308647Y-55013891D01*
X74324623Y-55048873D01*
X74400347Y-55136264D01*
X74418873Y-55157644D01*
X74534020Y-55231644D01*
X74539947Y-55235453D01*
X74623810Y-55260077D01*
X74678035Y-55275999D01*
X74678036Y-55275999D01*
X74678039Y-55276000D01*
X74678041Y-55276000D01*
X74821959Y-55276000D01*
X74821961Y-55276000D01*
X74960053Y-55235453D01*
X75081128Y-55157643D01*
X75175377Y-55048873D01*
X75235165Y-54917957D01*
X75242707Y-54865502D01*
X82194353Y-54865502D01*
X82214834Y-55007956D01*
X82273431Y-55136264D01*
X82274623Y-55138873D01*
X82364030Y-55242055D01*
X82368873Y-55247644D01*
X82465050Y-55309453D01*
X82489947Y-55325453D01*
X82596403Y-55356711D01*
X82628035Y-55365999D01*
X82628036Y-55365999D01*
X82628039Y-55366000D01*
X82628041Y-55366000D01*
X82771959Y-55366000D01*
X82771961Y-55366000D01*
X82910053Y-55325453D01*
X83015619Y-55257609D01*
X83074794Y-55242055D01*
X83122665Y-55257610D01*
X83203335Y-55309453D01*
X83228232Y-55325453D01*
X83334688Y-55356711D01*
X83366320Y-55365999D01*
X83366321Y-55365999D01*
X83366324Y-55366000D01*
X83366326Y-55366000D01*
X83510244Y-55366000D01*
X83510246Y-55366000D01*
X83648338Y-55325453D01*
X83746780Y-55262188D01*
X83805952Y-55246634D01*
X83853824Y-55262189D01*
X83913766Y-55300711D01*
X83927369Y-55309453D01*
X84033825Y-55340711D01*
X84065457Y-55349999D01*
X84065458Y-55349999D01*
X84065461Y-55350000D01*
X84065463Y-55350000D01*
X84209381Y-55350000D01*
X84209383Y-55350000D01*
X84347475Y-55309453D01*
X84468550Y-55231643D01*
X84562799Y-55122873D01*
X84622587Y-54991957D01*
X84643069Y-54849500D01*
X84622587Y-54707043D01*
X84562799Y-54576127D01*
X84468550Y-54467357D01*
X84468549Y-54467356D01*
X84468548Y-54467355D01*
X84347479Y-54389549D01*
X84347476Y-54389547D01*
X84347475Y-54389547D01*
X84347472Y-54389546D01*
X84209386Y-54349000D01*
X84209383Y-54349000D01*
X84065461Y-54349000D01*
X84065457Y-54349000D01*
X83927371Y-54389546D01*
X83927364Y-54389549D01*
X83828928Y-54452810D01*
X83769753Y-54468365D01*
X83721882Y-54452810D01*
X83648342Y-54405549D01*
X83648339Y-54405547D01*
X83648338Y-54405547D01*
X83648335Y-54405546D01*
X83510249Y-54365000D01*
X83510246Y-54365000D01*
X83366324Y-54365000D01*
X83366320Y-54365000D01*
X83228234Y-54405546D01*
X83228232Y-54405547D01*
X83122665Y-54473390D01*
X83063489Y-54488943D01*
X83015619Y-54473389D01*
X82910057Y-54405549D01*
X82910054Y-54405547D01*
X82910053Y-54405547D01*
X82910050Y-54405546D01*
X82771964Y-54365000D01*
X82771961Y-54365000D01*
X82628039Y-54365000D01*
X82628035Y-54365000D01*
X82489949Y-54405546D01*
X82489942Y-54405549D01*
X82368873Y-54483355D01*
X82274622Y-54592128D01*
X82214834Y-54723043D01*
X82194353Y-54865497D01*
X82194353Y-54865502D01*
X75242707Y-54865502D01*
X75255647Y-54775500D01*
X75252052Y-54750499D01*
X75235165Y-54633043D01*
X75234754Y-54632143D01*
X75175377Y-54502127D01*
X75081128Y-54393357D01*
X75081127Y-54393356D01*
X75081126Y-54393355D01*
X74960057Y-54315549D01*
X74960054Y-54315547D01*
X74960053Y-54315547D01*
X74960050Y-54315546D01*
X74821964Y-54275000D01*
X74821961Y-54275000D01*
X74678039Y-54275000D01*
X74678035Y-54275000D01*
X74539949Y-54315546D01*
X74539942Y-54315549D01*
X74418873Y-54393355D01*
X74324622Y-54502128D01*
X74264834Y-54633043D01*
X74244353Y-54775497D01*
X74244353Y-54775502D01*
X70300500Y-54775502D01*
X70300500Y-52987351D01*
X75480000Y-52987351D01*
X75495348Y-53113748D01*
X75495351Y-53113758D01*
X75555626Y-53272690D01*
X75555628Y-53272693D01*
X75652194Y-53412594D01*
X75652199Y-53412600D01*
X75779431Y-53525318D01*
X75929954Y-53604318D01*
X75929957Y-53604319D01*
X75929999Y-53604329D01*
X75930000Y-53604328D01*
X75930000Y-53111110D01*
X75954457Y-53150610D01*
X76043962Y-53218201D01*
X76151840Y-53248895D01*
X76263521Y-53238546D01*
X76363922Y-53188552D01*
X76430000Y-53116069D01*
X76430000Y-53604329D01*
X76430042Y-53604319D01*
X76430045Y-53604318D01*
X76580568Y-53525318D01*
X76580569Y-53525318D01*
X76707800Y-53412600D01*
X76707805Y-53412594D01*
X76804371Y-53272693D01*
X76804373Y-53272690D01*
X76864648Y-53113758D01*
X76864649Y-53113755D01*
X76867494Y-53090323D01*
X76893276Y-53034835D01*
X76946750Y-53005098D01*
X77007489Y-53012471D01*
X77052294Y-53054138D01*
X77057237Y-53064367D01*
X77102978Y-53174795D01*
X77107302Y-53185233D01*
X77199549Y-53305451D01*
X77319767Y-53397698D01*
X77459764Y-53455687D01*
X77572280Y-53470500D01*
X77572281Y-53470500D01*
X77591524Y-53470500D01*
X77649715Y-53489407D01*
X77685679Y-53538907D01*
X77689516Y-53555412D01*
X77708571Y-53687955D01*
X77754464Y-53788443D01*
X77768361Y-53818873D01*
X77850353Y-53913497D01*
X77862611Y-53927644D01*
X77983680Y-54005450D01*
X77983685Y-54005453D01*
X78090141Y-54036711D01*
X78121773Y-54045999D01*
X78121774Y-54045999D01*
X78121777Y-54046000D01*
X78121779Y-54046000D01*
X78265697Y-54046000D01*
X78265699Y-54046000D01*
X78403791Y-54005453D01*
X78524866Y-53927643D01*
X78619115Y-53818873D01*
X78678903Y-53687957D01*
X78699385Y-53545500D01*
X78698082Y-53536441D01*
X78708513Y-53476155D01*
X78742549Y-53439069D01*
X78829149Y-53383414D01*
X78888323Y-53367860D01*
X78910559Y-53371708D01*
X78982943Y-53392962D01*
X78982944Y-53392962D01*
X79126863Y-53392962D01*
X79126865Y-53392962D01*
X79264957Y-53352415D01*
X79386032Y-53274605D01*
X79401748Y-53256467D01*
X79454142Y-53224870D01*
X79515103Y-53230105D01*
X79551388Y-53256467D01*
X79568871Y-53276644D01*
X79568872Y-53276645D01*
X79686772Y-53352415D01*
X79689947Y-53354455D01*
X79784245Y-53382143D01*
X79828035Y-53395001D01*
X79828036Y-53395001D01*
X79828039Y-53395002D01*
X79828041Y-53395002D01*
X79971959Y-53395002D01*
X79971961Y-53395002D01*
X80110053Y-53354455D01*
X80231128Y-53276645D01*
X80231136Y-53276635D01*
X80235210Y-53273107D01*
X80291568Y-53249287D01*
X80351164Y-53263142D01*
X80374861Y-53283090D01*
X80388683Y-53299041D01*
X80509758Y-53376851D01*
X80647850Y-53417398D01*
X80650772Y-53418256D01*
X80701279Y-53452792D01*
X80721841Y-53510419D01*
X80712934Y-53554373D01*
X80676964Y-53633134D01*
X80656483Y-53775588D01*
X80656483Y-53775593D01*
X80676964Y-53918047D01*
X80716882Y-54005453D01*
X80736753Y-54048964D01*
X80831002Y-54157734D01*
X80831003Y-54157735D01*
X80952072Y-54235541D01*
X80952077Y-54235544D01*
X81058533Y-54266802D01*
X81090165Y-54276090D01*
X81090166Y-54276090D01*
X81090169Y-54276091D01*
X81090171Y-54276091D01*
X81234089Y-54276091D01*
X81234091Y-54276091D01*
X81372183Y-54235544D01*
X81493258Y-54157734D01*
X81587507Y-54048964D01*
X81647295Y-53918048D01*
X81661554Y-53818873D01*
X81667777Y-53775593D01*
X81667777Y-53775588D01*
X81647295Y-53633134D01*
X81634140Y-53604329D01*
X81587507Y-53502218D01*
X81493258Y-53393448D01*
X81493257Y-53393447D01*
X81493256Y-53393446D01*
X81372187Y-53315640D01*
X81372184Y-53315639D01*
X81372183Y-53315638D01*
X81315655Y-53299040D01*
X81231167Y-53274232D01*
X81180661Y-53239696D01*
X81160099Y-53182069D01*
X81169004Y-53138120D01*
X81204976Y-53059355D01*
X81204976Y-53059353D01*
X81204977Y-53059352D01*
X81213510Y-53000002D01*
X81994353Y-53000002D01*
X82014834Y-53142456D01*
X82074622Y-53273371D01*
X82074623Y-53273373D01*
X82168871Y-53382142D01*
X82168873Y-53382144D01*
X82270162Y-53447238D01*
X82289947Y-53459953D01*
X82384858Y-53487821D01*
X82428035Y-53500499D01*
X82428036Y-53500499D01*
X82428039Y-53500500D01*
X82428041Y-53500500D01*
X82571959Y-53500500D01*
X82571961Y-53500500D01*
X82710053Y-53459953D01*
X82831128Y-53382143D01*
X82869231Y-53338168D01*
X82921626Y-53306572D01*
X82982587Y-53311807D01*
X83004314Y-53324454D01*
X83099767Y-53397698D01*
X83239764Y-53455687D01*
X83352280Y-53470500D01*
X83352281Y-53470500D01*
X83416824Y-53470500D01*
X83475015Y-53489407D01*
X83510979Y-53538907D01*
X83514816Y-53583587D01*
X83511837Y-53604319D01*
X83511571Y-53606166D01*
X83532052Y-53748620D01*
X83550238Y-53788440D01*
X83591841Y-53879537D01*
X83675969Y-53976627D01*
X83686091Y-53988308D01*
X83775862Y-54046000D01*
X83807165Y-54066117D01*
X83913621Y-54097375D01*
X83945253Y-54106663D01*
X83945254Y-54106663D01*
X83945257Y-54106664D01*
X83945259Y-54106664D01*
X84089177Y-54106664D01*
X84089179Y-54106664D01*
X84227271Y-54066117D01*
X84348346Y-53988307D01*
X84442595Y-53879537D01*
X84502383Y-53748621D01*
X84511105Y-53687956D01*
X84511504Y-53685184D01*
X84538499Y-53630276D01*
X84548171Y-53621553D01*
X84570000Y-53604328D01*
X84570000Y-53111110D01*
X84594457Y-53150610D01*
X84683962Y-53218201D01*
X84791840Y-53248895D01*
X84903521Y-53238546D01*
X85003922Y-53188552D01*
X85070000Y-53116069D01*
X85070000Y-53604329D01*
X85070042Y-53604319D01*
X85070045Y-53604318D01*
X85220568Y-53525318D01*
X85220569Y-53525318D01*
X85347800Y-53412600D01*
X85347805Y-53412594D01*
X85444371Y-53272693D01*
X85444373Y-53272690D01*
X85504648Y-53113758D01*
X85504651Y-53113748D01*
X85508989Y-53078019D01*
X85534771Y-53022532D01*
X85588245Y-52992796D01*
X85648984Y-53000170D01*
X85693789Y-53041837D01*
X85705259Y-53075861D01*
X85714834Y-53142454D01*
X85714834Y-53142455D01*
X85714835Y-53142457D01*
X85726064Y-53167045D01*
X85729604Y-53174795D01*
X85736579Y-53235582D01*
X85714372Y-53280753D01*
X85674622Y-53326628D01*
X85614834Y-53457543D01*
X85594353Y-53599997D01*
X85594353Y-53600002D01*
X85614833Y-53742452D01*
X85614834Y-53742454D01*
X85614834Y-53742455D01*
X85614835Y-53742457D01*
X85629967Y-53775591D01*
X85644558Y-53807541D01*
X85651532Y-53868328D01*
X85629324Y-53913497D01*
X85574623Y-53976626D01*
X85514834Y-54107543D01*
X85494353Y-54249997D01*
X85494353Y-54250000D01*
X85514834Y-54392456D01*
X85574622Y-54523371D01*
X85574623Y-54523373D01*
X85634199Y-54592128D01*
X85668873Y-54632144D01*
X85785419Y-54707043D01*
X85789947Y-54709953D01*
X85896403Y-54741211D01*
X85928035Y-54750499D01*
X85928036Y-54750499D01*
X85928039Y-54750500D01*
X85928041Y-54750500D01*
X86071959Y-54750500D01*
X86071961Y-54750500D01*
X86210053Y-54709953D01*
X86331128Y-54632143D01*
X86425377Y-54523373D01*
X86485165Y-54392457D01*
X86505647Y-54250000D01*
X86505416Y-54248396D01*
X86485165Y-54107544D01*
X86484763Y-54106664D01*
X86455441Y-54042459D01*
X86448467Y-53981674D01*
X86470676Y-53936502D01*
X86486667Y-53918047D01*
X86525377Y-53873373D01*
X86585165Y-53742457D01*
X86602548Y-53621553D01*
X86605647Y-53600002D01*
X86605647Y-53599998D01*
X86598186Y-53548110D01*
X86608619Y-53487821D01*
X86652496Y-53445178D01*
X86713059Y-53436470D01*
X86767173Y-53465022D01*
X86770997Y-53469189D01*
X86868870Y-53582142D01*
X86868872Y-53582143D01*
X86943768Y-53630276D01*
X86989947Y-53659953D01*
X87075877Y-53685184D01*
X87128035Y-53700499D01*
X87128036Y-53700499D01*
X87128039Y-53700500D01*
X87128041Y-53700500D01*
X87271959Y-53700500D01*
X87271961Y-53700500D01*
X87410053Y-53659953D01*
X87531128Y-53582143D01*
X87625182Y-53473597D01*
X87677576Y-53442003D01*
X87738537Y-53447238D01*
X87774816Y-53473596D01*
X87845710Y-53555412D01*
X87868873Y-53582144D01*
X87968214Y-53645986D01*
X87989947Y-53659953D01*
X88075877Y-53685184D01*
X88128035Y-53700499D01*
X88128036Y-53700499D01*
X88128039Y-53700500D01*
X88128041Y-53700500D01*
X88271959Y-53700500D01*
X88271961Y-53700500D01*
X88410053Y-53659953D01*
X88531128Y-53582143D01*
X88625377Y-53473373D01*
X88685165Y-53342457D01*
X88695136Y-53273107D01*
X88705647Y-53200002D01*
X88705647Y-53199997D01*
X88685165Y-53057543D01*
X88683610Y-53054138D01*
X88625377Y-52926627D01*
X88531128Y-52817857D01*
X88531127Y-52817856D01*
X88531126Y-52817855D01*
X88479855Y-52784905D01*
X88886804Y-52784905D01*
X88907285Y-52927359D01*
X88940953Y-53001080D01*
X88967074Y-53058276D01*
X89061323Y-53167046D01*
X89097462Y-53190271D01*
X89121398Y-53205654D01*
X89160129Y-53253020D01*
X89163621Y-53314106D01*
X89130542Y-53365578D01*
X89121398Y-53372222D01*
X89068372Y-53406300D01*
X88974122Y-53515071D01*
X88914334Y-53645986D01*
X88893853Y-53788440D01*
X88893853Y-53788445D01*
X88914334Y-53930899D01*
X88974122Y-54061814D01*
X88974123Y-54061816D01*
X89057236Y-54157734D01*
X89068373Y-54170587D01*
X89189442Y-54248393D01*
X89189447Y-54248396D01*
X89280053Y-54275000D01*
X89327535Y-54288942D01*
X89327536Y-54288942D01*
X89327539Y-54288943D01*
X89327541Y-54288943D01*
X89471459Y-54288943D01*
X89471461Y-54288943D01*
X89609553Y-54248396D01*
X89730628Y-54170586D01*
X89824877Y-54061816D01*
X89884665Y-53930900D01*
X89905147Y-53788443D01*
X89903299Y-53775593D01*
X89884665Y-53645986D01*
X89873507Y-53621553D01*
X89824877Y-53515070D01*
X89730628Y-53406300D01*
X89730627Y-53406299D01*
X89670552Y-53367691D01*
X89631821Y-53320324D01*
X89628329Y-53259239D01*
X89661408Y-53207766D01*
X89670541Y-53201130D01*
X89723579Y-53167046D01*
X89817828Y-53058276D01*
X89877616Y-52927360D01*
X89898098Y-52784903D01*
X89893728Y-52754510D01*
X89877616Y-52642446D01*
X89866386Y-52617856D01*
X89817828Y-52511530D01*
X89723579Y-52402760D01*
X89723578Y-52402759D01*
X89723577Y-52402758D01*
X89602508Y-52324952D01*
X89602505Y-52324950D01*
X89602504Y-52324950D01*
X89602501Y-52324949D01*
X89464415Y-52284403D01*
X89464412Y-52284403D01*
X89320490Y-52284403D01*
X89320486Y-52284403D01*
X89182400Y-52324949D01*
X89182393Y-52324952D01*
X89061324Y-52402758D01*
X88967073Y-52511531D01*
X88907285Y-52642446D01*
X88886804Y-52784900D01*
X88886804Y-52784905D01*
X88479855Y-52784905D01*
X88410057Y-52740049D01*
X88410054Y-52740048D01*
X88410053Y-52740047D01*
X88377108Y-52730373D01*
X88326602Y-52695838D01*
X88306041Y-52638211D01*
X88307009Y-52621293D01*
X88307504Y-52617856D01*
X88310071Y-52600000D01*
X88309856Y-52598507D01*
X88289589Y-52457543D01*
X88259794Y-52392302D01*
X88229801Y-52326627D01*
X88135552Y-52217857D01*
X88135551Y-52217856D01*
X88135550Y-52217855D01*
X88014481Y-52140049D01*
X88014478Y-52140047D01*
X88014477Y-52140047D01*
X88014474Y-52140046D01*
X87876388Y-52099500D01*
X87876385Y-52099500D01*
X87732463Y-52099500D01*
X87732459Y-52099500D01*
X87594372Y-52140046D01*
X87553301Y-52166440D01*
X87494125Y-52181992D01*
X87446257Y-52166439D01*
X87423608Y-52151883D01*
X87423605Y-52151882D01*
X87285519Y-52111336D01*
X87285516Y-52111336D01*
X87141594Y-52111336D01*
X87141590Y-52111336D01*
X87003504Y-52151882D01*
X87003497Y-52151885D01*
X86882428Y-52229691D01*
X86788177Y-52338464D01*
X86728389Y-52469380D01*
X86712857Y-52577406D01*
X86685861Y-52632314D01*
X86631746Y-52660867D01*
X86571184Y-52652159D01*
X86540046Y-52628149D01*
X86531127Y-52617856D01*
X86410057Y-52540049D01*
X86410054Y-52540047D01*
X86410053Y-52540047D01*
X86400456Y-52537229D01*
X86271964Y-52499500D01*
X86271961Y-52499500D01*
X86128039Y-52499500D01*
X86128035Y-52499500D01*
X85989949Y-52540046D01*
X85989942Y-52540049D01*
X85868873Y-52617855D01*
X85774622Y-52726628D01*
X85714835Y-52857541D01*
X85713989Y-52860423D01*
X85712574Y-52862490D01*
X85711893Y-52863984D01*
X85711634Y-52863865D01*
X85679452Y-52910928D01*
X85621824Y-52931488D01*
X85563117Y-52914248D01*
X85525756Y-52865794D01*
X85520000Y-52832528D01*
X85520000Y-52645001D01*
X85519999Y-52645000D01*
X85120000Y-52645000D01*
X85120000Y-52145000D01*
X85519999Y-52145000D01*
X85520000Y-52144999D01*
X85520000Y-51802665D01*
X85519999Y-51802648D01*
X85504651Y-51676251D01*
X85504648Y-51676241D01*
X85444373Y-51517309D01*
X85444371Y-51517306D01*
X85347805Y-51377405D01*
X85347800Y-51377399D01*
X85220568Y-51264681D01*
X85070053Y-51185685D01*
X85070042Y-51185681D01*
X85070000Y-51185670D01*
X85069999Y-51678889D01*
X85045543Y-51639390D01*
X84956038Y-51571799D01*
X84848160Y-51541105D01*
X84736479Y-51551454D01*
X84636078Y-51601448D01*
X84570000Y-51673930D01*
X84570000Y-51185670D01*
X84569957Y-51185681D01*
X84569946Y-51185685D01*
X84419431Y-51264681D01*
X84419430Y-51264681D01*
X84292199Y-51377399D01*
X84292194Y-51377405D01*
X84195628Y-51517306D01*
X84195626Y-51517309D01*
X84135351Y-51676241D01*
X84135348Y-51676251D01*
X84120000Y-51802648D01*
X84120000Y-52144999D01*
X84120001Y-52145000D01*
X84520000Y-52145000D01*
X84520000Y-52645000D01*
X84120000Y-52645000D01*
X84120000Y-52655815D01*
X84101093Y-52714006D01*
X84051593Y-52749970D01*
X83990407Y-52749970D01*
X83940907Y-52714006D01*
X83929536Y-52693701D01*
X83921663Y-52674696D01*
X83892698Y-52604767D01*
X83800451Y-52484549D01*
X83680233Y-52392302D01*
X83679412Y-52391962D01*
X83540238Y-52334314D01*
X83540240Y-52334314D01*
X83540236Y-52334313D01*
X83540234Y-52334312D01*
X83540232Y-52334312D01*
X83427720Y-52319500D01*
X83352280Y-52319500D01*
X83352279Y-52319500D01*
X83239767Y-52334312D01*
X83239761Y-52334314D01*
X83099768Y-52392301D01*
X82979551Y-52484547D01*
X82979546Y-52484552D01*
X82917466Y-52565455D01*
X82867041Y-52600110D01*
X82805877Y-52598507D01*
X82785402Y-52588470D01*
X82710057Y-52540049D01*
X82710054Y-52540047D01*
X82710053Y-52540047D01*
X82700456Y-52537229D01*
X82571964Y-52499500D01*
X82571961Y-52499500D01*
X82428039Y-52499500D01*
X82428035Y-52499500D01*
X82289949Y-52540046D01*
X82289942Y-52540049D01*
X82168873Y-52617855D01*
X82074622Y-52726628D01*
X82014834Y-52857543D01*
X81994353Y-52999997D01*
X81994353Y-53000002D01*
X81213510Y-53000002D01*
X81225458Y-52916900D01*
X81225458Y-52916895D01*
X81204976Y-52774441D01*
X81189350Y-52740226D01*
X81145188Y-52643525D01*
X81050939Y-52534755D01*
X81050938Y-52534754D01*
X81050937Y-52534753D01*
X80929868Y-52456947D01*
X80929865Y-52456945D01*
X80929864Y-52456945D01*
X80929861Y-52456944D01*
X80791775Y-52416398D01*
X80791772Y-52416398D01*
X80647850Y-52416398D01*
X80647846Y-52416398D01*
X80509760Y-52456944D01*
X80509753Y-52456947D01*
X80388682Y-52534754D01*
X80384592Y-52538299D01*
X80328231Y-52562112D01*
X80268636Y-52548250D01*
X80244947Y-52528307D01*
X80231127Y-52512358D01*
X80110057Y-52434551D01*
X80110054Y-52434549D01*
X80110053Y-52434549D01*
X80110050Y-52434548D01*
X79971964Y-52394002D01*
X79971961Y-52394002D01*
X79828039Y-52394002D01*
X79828035Y-52394002D01*
X79689949Y-52434548D01*
X79689942Y-52434551D01*
X79568876Y-52512356D01*
X79568870Y-52512361D01*
X79553154Y-52530498D01*
X79500758Y-52562094D01*
X79439797Y-52556857D01*
X79403517Y-52530497D01*
X79386033Y-52510320D01*
X79386031Y-52510318D01*
X79264961Y-52432511D01*
X79264958Y-52432509D01*
X79264957Y-52432509D01*
X79264954Y-52432508D01*
X79126868Y-52391962D01*
X79126865Y-52391962D01*
X78982943Y-52391962D01*
X78982939Y-52391962D01*
X78844853Y-52432508D01*
X78844846Y-52432511D01*
X78725756Y-52509046D01*
X78666581Y-52524601D01*
X78644342Y-52520752D01*
X78571964Y-52499500D01*
X78571961Y-52499500D01*
X78428039Y-52499500D01*
X78428035Y-52499500D01*
X78289949Y-52540046D01*
X78289947Y-52540047D01*
X78214597Y-52588471D01*
X78155421Y-52604024D01*
X78098405Y-52581825D01*
X78082532Y-52565454D01*
X78063036Y-52540047D01*
X78020451Y-52484549D01*
X77900233Y-52392302D01*
X77899412Y-52391962D01*
X77760238Y-52334314D01*
X77760240Y-52334314D01*
X77760236Y-52334313D01*
X77760234Y-52334312D01*
X77760232Y-52334312D01*
X77647720Y-52319500D01*
X77572280Y-52319500D01*
X77572279Y-52319500D01*
X77459767Y-52334312D01*
X77459761Y-52334314D01*
X77319768Y-52392301D01*
X77199551Y-52484547D01*
X77199547Y-52484551D01*
X77107301Y-52604768D01*
X77070464Y-52693701D01*
X77030727Y-52740226D01*
X76971232Y-52754510D01*
X76914705Y-52731095D01*
X76882735Y-52678926D01*
X76880000Y-52655815D01*
X76880000Y-52645000D01*
X76480000Y-52645000D01*
X76480000Y-52145000D01*
X76879999Y-52145000D01*
X76880000Y-52144999D01*
X76880000Y-51802665D01*
X76879999Y-51802648D01*
X76864651Y-51676251D01*
X76864648Y-51676241D01*
X76804373Y-51517309D01*
X76804371Y-51517306D01*
X76707805Y-51377405D01*
X76707800Y-51377399D01*
X76580568Y-51264681D01*
X76430053Y-51185685D01*
X76430042Y-51185681D01*
X76430000Y-51185670D01*
X76430000Y-51678889D01*
X76405543Y-51639390D01*
X76316038Y-51571799D01*
X76208160Y-51541105D01*
X76096479Y-51551454D01*
X75996078Y-51601448D01*
X75930000Y-51673930D01*
X75930000Y-51185670D01*
X75929957Y-51185681D01*
X75929946Y-51185685D01*
X75779431Y-51264681D01*
X75779430Y-51264681D01*
X75652199Y-51377399D01*
X75652194Y-51377405D01*
X75555628Y-51517306D01*
X75555626Y-51517309D01*
X75495351Y-51676241D01*
X75495348Y-51676251D01*
X75480000Y-51802648D01*
X75480000Y-52144999D01*
X75480001Y-52145000D01*
X75880000Y-52145000D01*
X75880000Y-52645000D01*
X75480001Y-52645000D01*
X75480000Y-52645001D01*
X75480000Y-52987351D01*
X70300500Y-52987351D01*
X70300500Y-50850316D01*
X70319407Y-50792125D01*
X70368907Y-50756161D01*
X70430093Y-50756161D01*
X70439471Y-50759813D01*
X70439946Y-50759952D01*
X70439947Y-50759953D01*
X70491193Y-50775000D01*
X70578035Y-50800499D01*
X70578036Y-50800499D01*
X70578039Y-50800500D01*
X70578041Y-50800500D01*
X70721959Y-50800500D01*
X70721961Y-50800500D01*
X70860053Y-50759953D01*
X70945682Y-50704923D01*
X70946477Y-50704412D01*
X71005652Y-50688857D01*
X71053523Y-50704412D01*
X71134046Y-50756161D01*
X71139947Y-50759953D01*
X71246403Y-50791211D01*
X71278035Y-50800499D01*
X71278036Y-50800499D01*
X71278039Y-50800500D01*
X71278041Y-50800500D01*
X71421959Y-50800500D01*
X71421961Y-50800500D01*
X71560053Y-50759953D01*
X71681128Y-50682143D01*
X71775377Y-50573373D01*
X71779346Y-50564680D01*
X71784947Y-50552419D01*
X71826319Y-50507341D01*
X71886286Y-50495190D01*
X71941942Y-50520608D01*
X71965053Y-50552419D01*
X71974621Y-50573370D01*
X71974622Y-50573371D01*
X71974623Y-50573373D01*
X72050500Y-50660940D01*
X72068873Y-50682144D01*
X72189729Y-50759813D01*
X72189947Y-50759953D01*
X72296403Y-50791211D01*
X72328035Y-50800499D01*
X72328036Y-50800499D01*
X72328039Y-50800500D01*
X72328041Y-50800500D01*
X72471959Y-50800500D01*
X72471961Y-50800500D01*
X72610053Y-50759953D01*
X72695682Y-50704923D01*
X72696477Y-50704412D01*
X72755652Y-50688857D01*
X72803523Y-50704412D01*
X72884046Y-50756161D01*
X72889947Y-50759953D01*
X72996403Y-50791211D01*
X73028035Y-50800499D01*
X73028036Y-50800499D01*
X73028039Y-50800500D01*
X73028041Y-50800500D01*
X73053783Y-50800500D01*
X73111974Y-50819407D01*
X73147938Y-50868907D01*
X73147938Y-50930093D01*
X73128602Y-50964331D01*
X73074623Y-51026626D01*
X73014834Y-51157544D01*
X72997844Y-51275710D01*
X72970848Y-51330618D01*
X72916733Y-51359171D01*
X72899090Y-51359429D01*
X72899090Y-51360512D01*
X72748083Y-51360512D01*
X72609997Y-51401058D01*
X72609990Y-51401061D01*
X72488921Y-51478867D01*
X72394670Y-51587640D01*
X72334882Y-51718555D01*
X72314401Y-51861009D01*
X72314401Y-51861014D01*
X72334882Y-52003468D01*
X72378739Y-52099500D01*
X72394671Y-52134385D01*
X72477255Y-52229693D01*
X72488921Y-52243156D01*
X72591178Y-52308872D01*
X72609995Y-52320965D01*
X72716451Y-52352223D01*
X72748083Y-52361511D01*
X72748084Y-52361511D01*
X72748087Y-52361512D01*
X72748089Y-52361512D01*
X72892007Y-52361512D01*
X72892009Y-52361512D01*
X73030101Y-52320965D01*
X73048917Y-52308871D01*
X73108089Y-52293317D01*
X73155963Y-52308872D01*
X73237873Y-52361512D01*
X73243632Y-52365213D01*
X73350088Y-52396471D01*
X73381720Y-52405759D01*
X73381721Y-52405759D01*
X73381724Y-52405760D01*
X73381726Y-52405760D01*
X73525644Y-52405760D01*
X73525646Y-52405760D01*
X73663738Y-52365213D01*
X73784813Y-52287403D01*
X73879062Y-52178633D01*
X73938850Y-52047717D01*
X73959332Y-51905260D01*
X73952970Y-51861014D01*
X73938850Y-51762803D01*
X73926038Y-51734750D01*
X73903977Y-51686444D01*
X73897003Y-51625658D01*
X73919213Y-51580485D01*
X73925377Y-51573373D01*
X73985165Y-51442457D01*
X73996947Y-51360512D01*
X74005647Y-51300002D01*
X74005647Y-51299997D01*
X73985165Y-51157543D01*
X73925377Y-51026628D01*
X73925377Y-51026627D01*
X73831128Y-50917857D01*
X73831127Y-50917856D01*
X73831126Y-50917855D01*
X73710057Y-50840049D01*
X73710054Y-50840047D01*
X73710053Y-50840047D01*
X73710050Y-50840046D01*
X73571964Y-50799500D01*
X73571961Y-50799500D01*
X73546217Y-50799500D01*
X73488026Y-50780593D01*
X73452062Y-50731093D01*
X73452062Y-50669907D01*
X73471398Y-50635669D01*
X73485877Y-50618957D01*
X73525377Y-50573373D01*
X73585165Y-50442457D01*
X73605647Y-50300000D01*
X73585165Y-50157543D01*
X73525377Y-50026627D01*
X73431128Y-49917857D01*
X73431127Y-49917856D01*
X73431126Y-49917855D01*
X73310057Y-49840049D01*
X73310054Y-49840048D01*
X73310053Y-49840047D01*
X73262812Y-49826176D01*
X73171166Y-49799266D01*
X73120659Y-49764730D01*
X73100098Y-49707103D01*
X73117336Y-49648396D01*
X73126812Y-49637772D01*
X73126491Y-49637494D01*
X73138727Y-49623373D01*
X73225377Y-49523373D01*
X73285165Y-49392457D01*
X73305647Y-49250000D01*
X73305473Y-49248792D01*
X73285165Y-49107543D01*
X73281721Y-49100002D01*
X75894353Y-49100002D01*
X75914834Y-49242456D01*
X75946003Y-49310705D01*
X75974623Y-49373373D01*
X76068439Y-49481643D01*
X76068873Y-49482144D01*
X76186197Y-49557543D01*
X76189947Y-49559953D01*
X76296403Y-49591211D01*
X76328035Y-49600499D01*
X76328036Y-49600499D01*
X76328039Y-49600500D01*
X76328041Y-49600500D01*
X76471959Y-49600500D01*
X76471961Y-49600500D01*
X76610053Y-49559953D01*
X76731128Y-49482143D01*
X76825377Y-49373373D01*
X76885165Y-49242457D01*
X76902287Y-49123371D01*
X76905647Y-49100002D01*
X76905647Y-49099997D01*
X76905576Y-49099502D01*
X77694353Y-49099502D01*
X77714834Y-49241956D01*
X77764176Y-49349997D01*
X77774623Y-49372873D01*
X77798152Y-49400027D01*
X77868873Y-49481644D01*
X77898214Y-49500500D01*
X77989947Y-49559453D01*
X78096403Y-49590711D01*
X78128035Y-49599999D01*
X78128036Y-49599999D01*
X78128039Y-49600000D01*
X78128041Y-49600000D01*
X78271959Y-49600000D01*
X78271961Y-49600000D01*
X78410053Y-49559453D01*
X78531128Y-49481643D01*
X78625377Y-49372873D01*
X78685165Y-49241957D01*
X78693248Y-49185739D01*
X78705647Y-49099502D01*
X78705647Y-49099497D01*
X78685165Y-48957043D01*
X78685164Y-48957043D01*
X78625377Y-48826127D01*
X78531128Y-48717357D01*
X78531127Y-48717356D01*
X78531126Y-48717355D01*
X78511752Y-48704904D01*
X80078818Y-48704904D01*
X80099299Y-48847358D01*
X80149620Y-48957543D01*
X80159088Y-48978275D01*
X80178166Y-49000292D01*
X80253338Y-49087046D01*
X80374407Y-49164852D01*
X80374412Y-49164855D01*
X80480868Y-49196113D01*
X80512500Y-49205401D01*
X80512501Y-49205401D01*
X80512504Y-49205402D01*
X80512506Y-49205402D01*
X80656424Y-49205402D01*
X80656426Y-49205402D01*
X80794518Y-49164855D01*
X80915593Y-49087045D01*
X81009842Y-48978275D01*
X81068423Y-48850002D01*
X81494353Y-48850002D01*
X81514834Y-48992456D01*
X81574622Y-49123371D01*
X81574623Y-49123373D01*
X81628663Y-49185739D01*
X81668873Y-49232144D01*
X81735316Y-49274844D01*
X81789947Y-49309953D01*
X81896403Y-49341211D01*
X81928035Y-49350499D01*
X81928036Y-49350499D01*
X81928039Y-49350500D01*
X81928041Y-49350500D01*
X82071959Y-49350500D01*
X82071961Y-49350500D01*
X82210053Y-49309953D01*
X82331128Y-49232143D01*
X82425377Y-49123373D01*
X82485165Y-48992457D01*
X82499889Y-48890046D01*
X82505647Y-48850002D01*
X82505647Y-48849997D01*
X82485165Y-48707543D01*
X82442945Y-48615096D01*
X82425377Y-48576627D01*
X82331128Y-48467857D01*
X82331127Y-48467856D01*
X82331126Y-48467855D01*
X82210057Y-48390049D01*
X82210054Y-48390047D01*
X82210053Y-48390047D01*
X82210050Y-48390046D01*
X82071964Y-48349500D01*
X82071961Y-48349500D01*
X81928039Y-48349500D01*
X81928035Y-48349500D01*
X81789949Y-48390046D01*
X81789942Y-48390049D01*
X81668873Y-48467855D01*
X81574622Y-48576628D01*
X81514834Y-48707543D01*
X81494353Y-48849997D01*
X81494353Y-48850002D01*
X81068423Y-48850002D01*
X81069630Y-48847359D01*
X81083700Y-48749500D01*
X81090112Y-48704904D01*
X81090112Y-48704899D01*
X81069630Y-48562445D01*
X81046153Y-48511039D01*
X81009842Y-48431529D01*
X80915593Y-48322759D01*
X80915592Y-48322758D01*
X80915591Y-48322757D01*
X80794522Y-48244951D01*
X80794519Y-48244949D01*
X80794518Y-48244949D01*
X80794515Y-48244948D01*
X80656429Y-48204402D01*
X80656426Y-48204402D01*
X80512504Y-48204402D01*
X80512500Y-48204402D01*
X80374414Y-48244948D01*
X80374407Y-48244951D01*
X80253338Y-48322757D01*
X80159087Y-48431530D01*
X80099299Y-48562445D01*
X80078818Y-48704899D01*
X80078818Y-48704904D01*
X78511752Y-48704904D01*
X78410057Y-48639549D01*
X78410054Y-48639547D01*
X78410053Y-48639547D01*
X78410050Y-48639546D01*
X78271964Y-48599000D01*
X78271961Y-48599000D01*
X78128039Y-48599000D01*
X78128035Y-48599000D01*
X77989949Y-48639546D01*
X77989942Y-48639549D01*
X77868873Y-48717355D01*
X77774622Y-48826128D01*
X77714834Y-48957043D01*
X77694353Y-49099497D01*
X77694353Y-49099502D01*
X76905576Y-49099502D01*
X76885165Y-48957543D01*
X76854340Y-48890046D01*
X76825377Y-48826627D01*
X76731128Y-48717857D01*
X76731127Y-48717856D01*
X76731126Y-48717855D01*
X76610057Y-48640049D01*
X76610054Y-48640047D01*
X76610053Y-48640047D01*
X76608357Y-48639549D01*
X76471964Y-48599500D01*
X76471961Y-48599500D01*
X76328039Y-48599500D01*
X76328035Y-48599500D01*
X76189949Y-48640046D01*
X76189942Y-48640049D01*
X76068873Y-48717855D01*
X75974622Y-48826628D01*
X75914834Y-48957543D01*
X75894353Y-49099997D01*
X75894353Y-49100002D01*
X73281721Y-49100002D01*
X73271046Y-49076627D01*
X73225377Y-48976627D01*
X73131128Y-48867857D01*
X73131127Y-48867856D01*
X73131126Y-48867855D01*
X73010057Y-48790049D01*
X73010054Y-48790047D01*
X73010053Y-48790047D01*
X73010050Y-48790046D01*
X72871964Y-48749500D01*
X72871961Y-48749500D01*
X72728039Y-48749500D01*
X72728035Y-48749500D01*
X72589949Y-48790046D01*
X72589942Y-48790049D01*
X72468872Y-48867856D01*
X72468870Y-48867858D01*
X72381494Y-48968696D01*
X72329098Y-49000292D01*
X72268137Y-48995056D01*
X72236713Y-48972226D01*
X72236481Y-48972495D01*
X72233356Y-48969787D01*
X72231858Y-48968699D01*
X72231128Y-48967857D01*
X72231127Y-48967856D01*
X72110057Y-48890049D01*
X72110054Y-48890047D01*
X72110053Y-48890047D01*
X72110050Y-48890046D01*
X71971964Y-48849500D01*
X71971961Y-48849500D01*
X71828039Y-48849500D01*
X71828035Y-48849500D01*
X71689949Y-48890046D01*
X71689942Y-48890049D01*
X71568873Y-48967855D01*
X71474622Y-49076628D01*
X71414834Y-49207543D01*
X71394353Y-49349997D01*
X71394353Y-49350002D01*
X71414834Y-49492456D01*
X71463948Y-49599999D01*
X71474623Y-49623373D01*
X71485278Y-49635670D01*
X71509095Y-49692029D01*
X71495236Y-49751624D01*
X71448995Y-49791692D01*
X71410458Y-49799500D01*
X71278035Y-49799500D01*
X71139949Y-49840046D01*
X71139947Y-49840047D01*
X71053523Y-49895588D01*
X70994347Y-49911141D01*
X70946477Y-49895588D01*
X70925547Y-49882137D01*
X70860053Y-49840047D01*
X70850037Y-49837106D01*
X70721964Y-49799500D01*
X70721961Y-49799500D01*
X70578039Y-49799500D01*
X70578035Y-49799500D01*
X70455913Y-49835359D01*
X70439951Y-49840046D01*
X70433153Y-49842042D01*
X70432742Y-49840642D01*
X70379834Y-49846710D01*
X70326559Y-49816620D01*
X70301145Y-49760962D01*
X70300500Y-49749683D01*
X70300500Y-48051091D01*
X71045442Y-48051091D01*
X71065923Y-48193545D01*
X71089399Y-48244949D01*
X71125712Y-48324462D01*
X71182543Y-48390049D01*
X71219962Y-48433233D01*
X71318783Y-48496741D01*
X71341036Y-48511042D01*
X71439816Y-48540046D01*
X71479124Y-48551588D01*
X71479125Y-48551588D01*
X71479128Y-48551589D01*
X71479130Y-48551589D01*
X71623048Y-48551589D01*
X71623050Y-48551589D01*
X71761142Y-48511042D01*
X71882217Y-48433232D01*
X71976466Y-48324462D01*
X72036254Y-48193546D01*
X72047605Y-48114599D01*
X87108950Y-48114599D01*
X87129431Y-48257053D01*
X87171651Y-48349500D01*
X87189220Y-48387970D01*
X87258440Y-48467855D01*
X87283470Y-48496741D01*
X87350856Y-48540047D01*
X87404544Y-48574550D01*
X87487814Y-48599000D01*
X87542632Y-48615096D01*
X87542633Y-48615096D01*
X87542636Y-48615097D01*
X87542638Y-48615097D01*
X87686556Y-48615097D01*
X87686558Y-48615097D01*
X87824650Y-48574550D01*
X87945725Y-48496740D01*
X88039974Y-48387970D01*
X88099762Y-48257054D01*
X88120244Y-48114597D01*
X88111113Y-48051091D01*
X88099762Y-47972140D01*
X88099761Y-47972139D01*
X88039974Y-47841224D01*
X87945725Y-47732454D01*
X87945724Y-47732453D01*
X87945723Y-47732452D01*
X87824654Y-47654646D01*
X87824651Y-47654644D01*
X87824650Y-47654644D01*
X87824647Y-47654643D01*
X87686561Y-47614097D01*
X87686558Y-47614097D01*
X87542636Y-47614097D01*
X87542632Y-47614097D01*
X87404546Y-47654643D01*
X87404539Y-47654646D01*
X87283470Y-47732452D01*
X87189219Y-47841225D01*
X87129431Y-47972140D01*
X87108950Y-48114594D01*
X87108950Y-48114599D01*
X72047605Y-48114599D01*
X72047605Y-48114597D01*
X72056736Y-48051091D01*
X72056736Y-48051086D01*
X72036254Y-47908632D01*
X71976466Y-47777717D01*
X71976466Y-47777716D01*
X71882217Y-47668946D01*
X71882216Y-47668945D01*
X71882215Y-47668944D01*
X71761146Y-47591138D01*
X71761143Y-47591136D01*
X71761142Y-47591136D01*
X71761139Y-47591135D01*
X71623053Y-47550589D01*
X71623050Y-47550589D01*
X71479128Y-47550589D01*
X71479124Y-47550589D01*
X71341038Y-47591135D01*
X71341031Y-47591138D01*
X71219962Y-47668944D01*
X71125711Y-47777717D01*
X71065923Y-47908632D01*
X71045442Y-48051086D01*
X71045442Y-48051091D01*
X70300500Y-48051091D01*
X70300500Y-47000500D01*
X71744853Y-47000500D01*
X71765334Y-47142954D01*
X71824982Y-47273563D01*
X71825123Y-47273871D01*
X71919372Y-47382641D01*
X71919373Y-47382642D01*
X72008551Y-47439953D01*
X72040447Y-47460451D01*
X72146903Y-47491709D01*
X72178535Y-47500997D01*
X72178536Y-47500997D01*
X72178539Y-47500998D01*
X72178541Y-47500998D01*
X72322459Y-47500998D01*
X72322461Y-47500998D01*
X72460553Y-47460451D01*
X72581628Y-47382641D01*
X72675877Y-47273871D01*
X72676018Y-47273561D01*
X72676211Y-47273351D01*
X72679705Y-47267915D01*
X72680645Y-47268519D01*
X72717387Y-47228483D01*
X72777353Y-47216329D01*
X72833010Y-47241743D01*
X72840892Y-47249853D01*
X72861704Y-47273871D01*
X72868872Y-47282143D01*
X72989947Y-47359953D01*
X73067220Y-47382642D01*
X73128035Y-47400499D01*
X73128036Y-47400499D01*
X73128039Y-47400500D01*
X73128041Y-47400500D01*
X73271959Y-47400500D01*
X73271961Y-47400500D01*
X73410053Y-47359953D01*
X73531128Y-47282143D01*
X73625377Y-47173373D01*
X73650773Y-47117764D01*
X86306829Y-47117764D01*
X86327310Y-47260218D01*
X86373859Y-47362144D01*
X86387099Y-47391135D01*
X86464533Y-47480499D01*
X86481349Y-47499906D01*
X86560214Y-47550589D01*
X86602423Y-47577715D01*
X86708879Y-47608973D01*
X86740511Y-47618261D01*
X86740512Y-47618261D01*
X86740515Y-47618262D01*
X86740517Y-47618262D01*
X86884435Y-47618262D01*
X86884437Y-47618262D01*
X87022529Y-47577715D01*
X87143604Y-47499905D01*
X87237853Y-47391135D01*
X87297641Y-47260219D01*
X87307547Y-47191319D01*
X87318123Y-47117764D01*
X87318122Y-47117763D01*
X87318123Y-47117762D01*
X87310996Y-47068193D01*
X87321429Y-47007904D01*
X87344166Y-46979277D01*
X87345485Y-46978133D01*
X87345492Y-46978129D01*
X87381129Y-46937000D01*
X87433525Y-46905404D01*
X87494486Y-46910639D01*
X87540727Y-46950707D01*
X87546002Y-46960704D01*
X87564175Y-47000495D01*
X87574623Y-47023373D01*
X87656410Y-47117761D01*
X87668873Y-47132144D01*
X87760953Y-47191320D01*
X87789947Y-47209953D01*
X87896403Y-47241211D01*
X87928035Y-47250499D01*
X87928036Y-47250499D01*
X87928039Y-47250500D01*
X87928041Y-47250500D01*
X88071959Y-47250500D01*
X88071961Y-47250500D01*
X88210053Y-47209953D01*
X88279523Y-47165306D01*
X88338697Y-47149752D01*
X88360935Y-47153600D01*
X88400804Y-47165307D01*
X88489393Y-47191319D01*
X88489394Y-47191319D01*
X88489397Y-47191320D01*
X88489399Y-47191320D01*
X88633317Y-47191320D01*
X88633319Y-47191320D01*
X88771411Y-47150773D01*
X88892486Y-47072963D01*
X88986735Y-46964193D01*
X89046523Y-46833277D01*
X89064732Y-46706628D01*
X89067005Y-46690822D01*
X89067005Y-46690817D01*
X89046523Y-46548363D01*
X89032590Y-46517855D01*
X88986735Y-46417447D01*
X88892486Y-46308677D01*
X88892485Y-46308676D01*
X88887849Y-46303326D01*
X88889744Y-46301683D01*
X88863980Y-46258959D01*
X88862415Y-46222445D01*
X88871130Y-46161836D01*
X88871130Y-46161832D01*
X88850648Y-46019378D01*
X88825109Y-45963456D01*
X88790860Y-45888462D01*
X88696611Y-45779692D01*
X88696610Y-45779691D01*
X88696609Y-45779690D01*
X88575540Y-45701884D01*
X88575537Y-45701882D01*
X88575536Y-45701882D01*
X88575533Y-45701881D01*
X88437447Y-45661335D01*
X88437444Y-45661335D01*
X88293522Y-45661335D01*
X88293518Y-45661335D01*
X88155432Y-45701881D01*
X88155425Y-45701884D01*
X88034356Y-45779690D01*
X87940105Y-45888463D01*
X87880317Y-46019378D01*
X87859836Y-46161832D01*
X87859836Y-46161834D01*
X87862484Y-46180255D01*
X87852049Y-46240543D01*
X87808169Y-46283185D01*
X87792390Y-46289329D01*
X87789947Y-46290046D01*
X87668872Y-46367856D01*
X87633233Y-46408986D01*
X87580836Y-46440581D01*
X87519875Y-46435345D01*
X87473635Y-46395277D01*
X87468361Y-46385281D01*
X87452287Y-46350084D01*
X87439741Y-46322613D01*
X87345492Y-46213843D01*
X87345491Y-46213842D01*
X87345490Y-46213841D01*
X87224421Y-46136035D01*
X87224418Y-46136033D01*
X87224417Y-46136033D01*
X87224414Y-46136032D01*
X87086328Y-46095486D01*
X87086325Y-46095486D01*
X86942403Y-46095486D01*
X86942399Y-46095486D01*
X86804313Y-46136032D01*
X86804306Y-46136035D01*
X86683237Y-46213841D01*
X86588986Y-46322614D01*
X86529198Y-46453529D01*
X86508717Y-46595983D01*
X86508717Y-46595989D01*
X86515843Y-46645554D01*
X86505410Y-46705843D01*
X86482692Y-46734453D01*
X86481353Y-46735613D01*
X86387098Y-46844390D01*
X86327310Y-46975305D01*
X86306829Y-47117759D01*
X86306829Y-47117764D01*
X73650773Y-47117764D01*
X73685165Y-47042457D01*
X73700327Y-46937001D01*
X73705647Y-46900002D01*
X73705647Y-46899997D01*
X73685165Y-46757543D01*
X73681571Y-46749674D01*
X73625377Y-46626627D01*
X73531128Y-46517857D01*
X73531127Y-46517856D01*
X73531126Y-46517855D01*
X73438823Y-46458536D01*
X73400092Y-46411170D01*
X73396598Y-46350084D01*
X73429678Y-46298612D01*
X73438800Y-46291983D01*
X73557111Y-46215950D01*
X73651360Y-46107180D01*
X73711148Y-45976264D01*
X73720290Y-45912677D01*
X73731630Y-45833809D01*
X73731630Y-45833804D01*
X73711148Y-45691350D01*
X73663305Y-45586590D01*
X73662700Y-45581314D01*
X76100630Y-45581314D01*
X76121111Y-45723768D01*
X76180899Y-45854683D01*
X76180900Y-45854685D01*
X76231150Y-45912677D01*
X76275150Y-45963456D01*
X76332792Y-46000500D01*
X76396224Y-46041265D01*
X76502680Y-46072523D01*
X76534312Y-46081811D01*
X76534313Y-46081811D01*
X76534316Y-46081812D01*
X76534318Y-46081812D01*
X76678236Y-46081812D01*
X76678238Y-46081812D01*
X76816330Y-46041265D01*
X76937405Y-45963455D01*
X77031654Y-45854685D01*
X77091442Y-45723769D01*
X77111165Y-45586590D01*
X77111924Y-45581314D01*
X77111924Y-45581309D01*
X77091442Y-45438855D01*
X77069526Y-45390867D01*
X77031654Y-45307939D01*
X76937405Y-45199169D01*
X76937404Y-45199168D01*
X76937403Y-45199167D01*
X76816334Y-45121361D01*
X76816331Y-45121359D01*
X76816330Y-45121359D01*
X76816327Y-45121358D01*
X76678241Y-45080812D01*
X76678238Y-45080812D01*
X76534316Y-45080812D01*
X76534312Y-45080812D01*
X76396226Y-45121358D01*
X76396219Y-45121361D01*
X76275150Y-45199167D01*
X76180899Y-45307940D01*
X76121111Y-45438855D01*
X76100630Y-45581309D01*
X76100630Y-45581314D01*
X73662700Y-45581314D01*
X73656330Y-45525803D01*
X73686416Y-45472526D01*
X73699823Y-45462186D01*
X73768726Y-45417906D01*
X73862975Y-45309136D01*
X73922763Y-45178220D01*
X73936768Y-45080812D01*
X73943245Y-45035765D01*
X73943245Y-45035760D01*
X73922763Y-44893306D01*
X73888306Y-44817857D01*
X73862975Y-44762390D01*
X73852241Y-44750002D01*
X81993855Y-44750002D01*
X82014336Y-44892456D01*
X82063222Y-44999500D01*
X82074125Y-45023373D01*
X82168374Y-45132143D01*
X82168375Y-45132144D01*
X82273965Y-45200002D01*
X82289449Y-45209953D01*
X82395905Y-45241211D01*
X82427537Y-45250499D01*
X82427538Y-45250499D01*
X82427541Y-45250500D01*
X82427543Y-45250500D01*
X82571461Y-45250500D01*
X82571463Y-45250500D01*
X82709555Y-45209953D01*
X82830630Y-45132143D01*
X82924879Y-45023373D01*
X82984667Y-44892457D01*
X82995393Y-44817855D01*
X83005149Y-44750002D01*
X83005149Y-44749997D01*
X82984667Y-44607543D01*
X82955857Y-44544459D01*
X82924879Y-44476627D01*
X82830630Y-44367857D01*
X82830629Y-44367856D01*
X82830628Y-44367855D01*
X82709559Y-44290049D01*
X82709556Y-44290047D01*
X82709555Y-44290047D01*
X82709552Y-44290046D01*
X82573176Y-44250002D01*
X83993855Y-44250002D01*
X84014336Y-44392456D01*
X84052777Y-44476628D01*
X84074125Y-44523373D01*
X84168374Y-44632143D01*
X84183015Y-44641552D01*
X84183519Y-44641876D01*
X84222250Y-44689243D01*
X84225742Y-44750328D01*
X84192663Y-44801800D01*
X84183519Y-44808444D01*
X84168872Y-44817856D01*
X84074622Y-44926628D01*
X84014834Y-45057543D01*
X83994353Y-45199997D01*
X83994353Y-45200002D01*
X84014834Y-45342456D01*
X84036943Y-45390867D01*
X84074623Y-45473373D01*
X84150061Y-45560434D01*
X84168873Y-45582144D01*
X84289942Y-45659950D01*
X84289947Y-45659953D01*
X84396403Y-45691211D01*
X84428035Y-45700499D01*
X84428036Y-45700499D01*
X84428039Y-45700500D01*
X84428041Y-45700500D01*
X84571959Y-45700500D01*
X84571961Y-45700500D01*
X84710053Y-45659953D01*
X84831128Y-45582143D01*
X84925377Y-45473373D01*
X84985165Y-45342457D01*
X84998386Y-45250500D01*
X85005647Y-45200002D01*
X85005647Y-45199997D01*
X84985165Y-45057543D01*
X84967125Y-45018042D01*
X84925377Y-44926627D01*
X84831128Y-44817857D01*
X84831127Y-44817856D01*
X84831126Y-44817855D01*
X84815981Y-44808122D01*
X84777251Y-44760755D01*
X84773759Y-44699670D01*
X84806839Y-44648198D01*
X84815969Y-44641564D01*
X84830630Y-44632143D01*
X84924879Y-44523373D01*
X84984667Y-44392457D01*
X84991209Y-44346957D01*
X85993485Y-44346957D01*
X86013966Y-44489411D01*
X86073754Y-44620326D01*
X86073755Y-44620328D01*
X86168004Y-44729098D01*
X86220028Y-44762531D01*
X86258757Y-44809895D01*
X86264495Y-44859903D01*
X86244353Y-44999997D01*
X86244353Y-45000002D01*
X86264834Y-45142456D01*
X86303275Y-45226628D01*
X86324623Y-45273373D01*
X86397556Y-45357543D01*
X86418873Y-45382144D01*
X86539942Y-45459950D01*
X86539947Y-45459953D01*
X86646403Y-45491211D01*
X86678035Y-45500499D01*
X86678036Y-45500499D01*
X86678039Y-45500500D01*
X86678041Y-45500500D01*
X86821959Y-45500500D01*
X86821961Y-45500500D01*
X86960053Y-45459953D01*
X87081128Y-45382143D01*
X87175377Y-45273373D01*
X87235165Y-45142457D01*
X87244028Y-45080812D01*
X87255647Y-45000002D01*
X87255647Y-44999997D01*
X87235165Y-44857543D01*
X87217040Y-44817855D01*
X87175377Y-44726627D01*
X87081128Y-44617857D01*
X87029104Y-44584423D01*
X86990374Y-44537058D01*
X86984637Y-44487051D01*
X87004779Y-44346957D01*
X87004779Y-44346952D01*
X86984297Y-44204498D01*
X86967757Y-44168281D01*
X86924509Y-44073582D01*
X86830260Y-43964812D01*
X86830259Y-43964811D01*
X86830258Y-43964810D01*
X86709189Y-43887004D01*
X86709186Y-43887002D01*
X86709185Y-43887002D01*
X86709182Y-43887001D01*
X86571096Y-43846455D01*
X86571093Y-43846455D01*
X86427171Y-43846455D01*
X86427167Y-43846455D01*
X86289081Y-43887001D01*
X86289074Y-43887004D01*
X86168005Y-43964810D01*
X86073754Y-44073583D01*
X86013966Y-44204498D01*
X85993485Y-44346952D01*
X85993485Y-44346957D01*
X84991209Y-44346957D01*
X85005149Y-44250000D01*
X85005077Y-44249500D01*
X84984667Y-44107543D01*
X84981450Y-44100499D01*
X84924879Y-43976627D01*
X84830630Y-43867857D01*
X84830629Y-43867856D01*
X84830628Y-43867855D01*
X84709559Y-43790049D01*
X84709556Y-43790047D01*
X84709555Y-43790047D01*
X84709552Y-43790046D01*
X84571466Y-43749500D01*
X84571463Y-43749500D01*
X84427541Y-43749500D01*
X84427537Y-43749500D01*
X84289451Y-43790046D01*
X84289444Y-43790049D01*
X84168375Y-43867855D01*
X84074124Y-43976628D01*
X84014336Y-44107543D01*
X83993855Y-44249997D01*
X83993855Y-44250002D01*
X82573176Y-44250002D01*
X82571466Y-44249500D01*
X82571463Y-44249500D01*
X82427541Y-44249500D01*
X82427537Y-44249500D01*
X82289451Y-44290046D01*
X82289444Y-44290049D01*
X82168375Y-44367855D01*
X82074124Y-44476628D01*
X82014336Y-44607543D01*
X81993855Y-44749997D01*
X81993855Y-44750002D01*
X73852241Y-44750002D01*
X73768726Y-44653620D01*
X73768725Y-44653619D01*
X73768724Y-44653618D01*
X73647655Y-44575812D01*
X73647652Y-44575810D01*
X73647651Y-44575810D01*
X73647648Y-44575809D01*
X73509562Y-44535263D01*
X73509559Y-44535263D01*
X73365637Y-44535263D01*
X73365633Y-44535263D01*
X73227547Y-44575809D01*
X73227540Y-44575812D01*
X73106471Y-44653618D01*
X73012220Y-44762391D01*
X72952432Y-44893306D01*
X72934498Y-45018042D01*
X72907502Y-45072950D01*
X72853388Y-45101503D01*
X72792825Y-45092795D01*
X72782983Y-45087237D01*
X72709557Y-45040049D01*
X72709554Y-45040047D01*
X72709553Y-45040047D01*
X72694970Y-45035765D01*
X72571464Y-44999500D01*
X72571461Y-44999500D01*
X72427539Y-44999500D01*
X72427535Y-44999500D01*
X72289449Y-45040046D01*
X72289442Y-45040049D01*
X72168373Y-45117855D01*
X72074122Y-45226628D01*
X72014334Y-45357543D01*
X71993853Y-45499997D01*
X71993853Y-45500002D01*
X72014334Y-45642456D01*
X72074123Y-45773373D01*
X72078300Y-45778194D01*
X72102117Y-45834553D01*
X72088258Y-45894148D01*
X72078306Y-45907848D01*
X72074123Y-45912675D01*
X72074123Y-45912676D01*
X72014334Y-46043593D01*
X71993853Y-46186047D01*
X71993853Y-46186052D01*
X72014334Y-46328506D01*
X72014334Y-46328508D01*
X72059486Y-46427375D01*
X72066461Y-46488161D01*
X72036375Y-46541438D01*
X72022957Y-46551785D01*
X71919372Y-46618355D01*
X71825122Y-46727126D01*
X71765334Y-46858041D01*
X71744853Y-47000495D01*
X71744853Y-47000500D01*
X70300500Y-47000500D01*
X70300500Y-44837170D01*
X70319407Y-44778979D01*
X70368907Y-44743015D01*
X70427390Y-44742180D01*
X70527539Y-44771586D01*
X70527541Y-44771586D01*
X70671459Y-44771586D01*
X70671461Y-44771586D01*
X70809553Y-44731039D01*
X70930628Y-44653229D01*
X71024877Y-44544459D01*
X71024877Y-44544457D01*
X71026767Y-44542277D01*
X71079163Y-44510680D01*
X71129478Y-44512117D01*
X71177860Y-44526323D01*
X71177861Y-44526323D01*
X71177864Y-44526324D01*
X71177866Y-44526324D01*
X71321784Y-44526324D01*
X71321786Y-44526324D01*
X71459878Y-44485777D01*
X71580953Y-44407967D01*
X71675202Y-44299197D01*
X71734990Y-44168281D01*
X71744735Y-44100500D01*
X71755472Y-44025826D01*
X71755472Y-44025821D01*
X71734990Y-43883367D01*
X71700593Y-43808050D01*
X71675202Y-43752451D01*
X71629755Y-43700002D01*
X87444853Y-43700002D01*
X87465334Y-43842456D01*
X87485678Y-43887002D01*
X87525123Y-43973373D01*
X87611954Y-44073582D01*
X87619373Y-44082144D01*
X87647936Y-44100500D01*
X87740447Y-44159953D01*
X87846903Y-44191211D01*
X87878535Y-44200499D01*
X87878536Y-44200499D01*
X87878539Y-44200500D01*
X87878541Y-44200500D01*
X88022459Y-44200500D01*
X88022461Y-44200500D01*
X88160553Y-44159953D01*
X88281628Y-44082143D01*
X88375877Y-43973373D01*
X88435665Y-43842457D01*
X88450043Y-43742456D01*
X88456147Y-43700002D01*
X88456147Y-43699997D01*
X88435665Y-43557543D01*
X88375877Y-43426628D01*
X88375877Y-43426627D01*
X88281628Y-43317857D01*
X88281627Y-43317856D01*
X88281626Y-43317855D01*
X88160557Y-43240049D01*
X88160554Y-43240047D01*
X88160553Y-43240047D01*
X88160550Y-43240046D01*
X88022464Y-43199500D01*
X88022461Y-43199500D01*
X87878539Y-43199500D01*
X87878535Y-43199500D01*
X87740449Y-43240046D01*
X87740442Y-43240049D01*
X87619373Y-43317855D01*
X87525122Y-43426628D01*
X87465334Y-43557543D01*
X87444853Y-43699997D01*
X87444853Y-43700002D01*
X71629755Y-43700002D01*
X71580953Y-43643681D01*
X71580952Y-43643680D01*
X71580951Y-43643679D01*
X71459882Y-43565873D01*
X71459879Y-43565871D01*
X71459878Y-43565871D01*
X71459875Y-43565870D01*
X71321789Y-43525324D01*
X71321786Y-43525324D01*
X71183337Y-43525324D01*
X71125146Y-43506417D01*
X71089182Y-43456917D01*
X71085345Y-43412235D01*
X71105147Y-43274503D01*
X71105147Y-43274497D01*
X71084665Y-43132043D01*
X71081071Y-43124174D01*
X71024877Y-43001127D01*
X70930628Y-42892357D01*
X70930627Y-42892356D01*
X70930626Y-42892355D01*
X70809557Y-42814549D01*
X70809554Y-42814547D01*
X70809553Y-42814547D01*
X70809550Y-42814546D01*
X70736165Y-42792998D01*
X74287849Y-42792998D01*
X74308330Y-42935452D01*
X74338324Y-43001128D01*
X74368119Y-43066369D01*
X74431960Y-43140046D01*
X74462369Y-43175140D01*
X74563365Y-43240046D01*
X74583443Y-43252949D01*
X74689899Y-43284207D01*
X74721531Y-43293495D01*
X74721532Y-43293495D01*
X74721535Y-43293496D01*
X74721537Y-43293496D01*
X74865455Y-43293496D01*
X74865457Y-43293496D01*
X75003549Y-43252949D01*
X75124624Y-43175139D01*
X75168785Y-43124173D01*
X75221181Y-43092577D01*
X75282142Y-43097812D01*
X75297128Y-43105720D01*
X75405100Y-43175109D01*
X75405105Y-43175112D01*
X75488164Y-43199500D01*
X75543193Y-43215658D01*
X75543194Y-43215658D01*
X75543197Y-43215659D01*
X75543199Y-43215659D01*
X75687117Y-43215659D01*
X75687119Y-43215659D01*
X75825211Y-43175112D01*
X75946286Y-43097302D01*
X76040535Y-42988532D01*
X76100323Y-42857616D01*
X76112435Y-42773372D01*
X76120805Y-42715161D01*
X76120805Y-42715156D01*
X76100323Y-42572702D01*
X76067349Y-42500500D01*
X76040535Y-42441786D01*
X75946286Y-42333016D01*
X75946285Y-42333015D01*
X75946284Y-42333014D01*
X75825215Y-42255208D01*
X75825212Y-42255206D01*
X75825211Y-42255206D01*
X75809184Y-42250500D01*
X75687122Y-42214659D01*
X75687119Y-42214659D01*
X75543197Y-42214659D01*
X75543193Y-42214659D01*
X75405107Y-42255205D01*
X75405100Y-42255208D01*
X75284030Y-42333015D01*
X75239867Y-42383982D01*
X75187470Y-42415577D01*
X75126509Y-42410341D01*
X75111525Y-42402434D01*
X75003553Y-42333045D01*
X75003550Y-42333043D01*
X75003549Y-42333043D01*
X75003454Y-42333015D01*
X74865460Y-42292496D01*
X74865457Y-42292496D01*
X74721535Y-42292496D01*
X74721531Y-42292496D01*
X74583445Y-42333042D01*
X74583438Y-42333045D01*
X74462369Y-42410851D01*
X74368118Y-42519624D01*
X74308330Y-42650539D01*
X74287849Y-42792993D01*
X74287849Y-42792998D01*
X70736165Y-42792998D01*
X70671464Y-42774000D01*
X70671461Y-42774000D01*
X70527539Y-42774000D01*
X70527535Y-42774000D01*
X70427391Y-42803405D01*
X70366230Y-42801657D01*
X70317778Y-42764294D01*
X70300500Y-42708415D01*
X70300500Y-41265937D01*
X70319407Y-41207746D01*
X70368907Y-41171782D01*
X70427389Y-41170947D01*
X70528039Y-41200500D01*
X70528041Y-41200500D01*
X70671959Y-41200500D01*
X70671961Y-41200500D01*
X70810053Y-41159953D01*
X70931128Y-41082143D01*
X71002303Y-41000002D01*
X75394353Y-41000002D01*
X75414834Y-41142456D01*
X75453275Y-41226628D01*
X75474623Y-41273373D01*
X75556493Y-41367857D01*
X75568873Y-41382144D01*
X75689942Y-41459950D01*
X75689947Y-41459953D01*
X75823244Y-41499092D01*
X75873751Y-41533628D01*
X75894313Y-41591255D01*
X75894353Y-41594082D01*
X75894353Y-41600002D01*
X75914834Y-41742456D01*
X75974622Y-41873371D01*
X75974623Y-41873373D01*
X76068872Y-41982143D01*
X76068873Y-41982144D01*
X76138092Y-42026628D01*
X76189947Y-42059953D01*
X76296403Y-42091211D01*
X76328035Y-42100499D01*
X76328036Y-42100499D01*
X76328039Y-42100500D01*
X76328041Y-42100500D01*
X76471959Y-42100500D01*
X76471961Y-42100500D01*
X76610053Y-42059953D01*
X76722290Y-41987823D01*
X77533200Y-41987823D01*
X77553681Y-42130277D01*
X77613470Y-42261194D01*
X77689759Y-42349237D01*
X77713577Y-42405596D01*
X77699718Y-42465192D01*
X77689760Y-42478898D01*
X77643801Y-42531938D01*
X77584012Y-42662855D01*
X77563531Y-42805309D01*
X77563531Y-42805314D01*
X77584012Y-42947768D01*
X77624939Y-43037383D01*
X77643801Y-43078685D01*
X77727378Y-43175139D01*
X77738051Y-43187456D01*
X77819883Y-43240046D01*
X77859125Y-43265265D01*
X77955269Y-43293495D01*
X77997213Y-43305811D01*
X77997214Y-43305811D01*
X77997217Y-43305812D01*
X77997219Y-43305812D01*
X78141137Y-43305812D01*
X78141139Y-43305812D01*
X78279231Y-43265265D01*
X78400306Y-43187455D01*
X78494555Y-43078685D01*
X78554343Y-42947769D01*
X78563778Y-42882144D01*
X78574825Y-42805314D01*
X78574825Y-42805309D01*
X78554343Y-42662855D01*
X78513477Y-42573373D01*
X78494555Y-42531939D01*
X78418264Y-42443894D01*
X78394447Y-42387536D01*
X78408306Y-42327941D01*
X78418256Y-42314243D01*
X78464224Y-42261194D01*
X78524012Y-42130278D01*
X78534124Y-42059950D01*
X78544494Y-41987823D01*
X78544494Y-41987818D01*
X78524012Y-41845364D01*
X78503066Y-41799500D01*
X78497437Y-41787175D01*
X84068699Y-41787175D01*
X84089180Y-41929629D01*
X84133479Y-42026628D01*
X84148969Y-42060546D01*
X84243218Y-42169316D01*
X84254220Y-42176386D01*
X84292950Y-42223751D01*
X84296444Y-42284837D01*
X84290750Y-42300795D01*
X84264834Y-42357543D01*
X84244353Y-42499997D01*
X84244353Y-42500002D01*
X84264834Y-42642456D01*
X84294957Y-42708415D01*
X84324623Y-42773373D01*
X84409831Y-42871709D01*
X84418873Y-42882144D01*
X84520988Y-42947769D01*
X84539947Y-42959953D01*
X84637279Y-42988532D01*
X84678035Y-43000499D01*
X84678036Y-43000499D01*
X84678039Y-43000500D01*
X84678041Y-43000500D01*
X84821959Y-43000500D01*
X84821961Y-43000500D01*
X84960053Y-42959953D01*
X85081128Y-42882143D01*
X85175377Y-42773373D01*
X85232814Y-42647602D01*
X85274184Y-42602528D01*
X85294970Y-42593743D01*
X85410053Y-42559953D01*
X85531128Y-42482143D01*
X85625377Y-42373373D01*
X85626934Y-42369964D01*
X85632228Y-42358373D01*
X85673600Y-42313296D01*
X85722281Y-42300500D01*
X85871959Y-42300500D01*
X85871961Y-42300500D01*
X86010053Y-42259953D01*
X86131128Y-42182143D01*
X86131131Y-42182139D01*
X86136481Y-42177505D01*
X86137740Y-42178958D01*
X86182056Y-42152225D01*
X86243018Y-42157450D01*
X86289266Y-42197510D01*
X86294549Y-42207522D01*
X86324621Y-42273370D01*
X86324622Y-42273371D01*
X86324623Y-42273373D01*
X86411273Y-42373373D01*
X86418873Y-42382144D01*
X86514960Y-42443895D01*
X86539947Y-42459953D01*
X86646403Y-42491211D01*
X86678035Y-42500499D01*
X86678036Y-42500499D01*
X86678039Y-42500500D01*
X86678041Y-42500500D01*
X86821959Y-42500500D01*
X86821961Y-42500500D01*
X86960053Y-42459953D01*
X87081128Y-42382143D01*
X87175377Y-42273373D01*
X87235165Y-42142457D01*
X87251819Y-42026627D01*
X87255647Y-42000002D01*
X87255647Y-41999997D01*
X87235165Y-41857543D01*
X87229603Y-41845364D01*
X87186052Y-41750002D01*
X87994353Y-41750002D01*
X88014834Y-41892456D01*
X88062786Y-41997454D01*
X88074623Y-42023373D01*
X88167255Y-42130277D01*
X88168873Y-42132144D01*
X88270585Y-42197510D01*
X88289947Y-42209953D01*
X88396403Y-42241211D01*
X88428035Y-42250499D01*
X88428036Y-42250499D01*
X88428039Y-42250500D01*
X88428041Y-42250500D01*
X88571959Y-42250500D01*
X88571961Y-42250500D01*
X88710053Y-42209953D01*
X88831128Y-42132143D01*
X88925377Y-42023373D01*
X88925378Y-42023369D01*
X88925380Y-42023368D01*
X88929205Y-42017417D01*
X88932147Y-42019307D01*
X88963340Y-41984899D01*
X89023231Y-41972380D01*
X89079043Y-41997454D01*
X89087370Y-42005971D01*
X89140017Y-42066728D01*
X89140019Y-42066730D01*
X89257852Y-42142457D01*
X89261094Y-42144540D01*
X89367550Y-42175798D01*
X89399182Y-42185086D01*
X89399183Y-42185086D01*
X89399186Y-42185087D01*
X89399188Y-42185087D01*
X89543106Y-42185087D01*
X89543108Y-42185087D01*
X89681200Y-42144540D01*
X89802275Y-42066730D01*
X89896524Y-41957960D01*
X89956312Y-41827044D01*
X89968474Y-41742456D01*
X89976794Y-41684589D01*
X89976794Y-41684584D01*
X89956312Y-41542130D01*
X89919767Y-41462109D01*
X89896524Y-41411214D01*
X89802275Y-41302444D01*
X89802274Y-41302443D01*
X89802273Y-41302442D01*
X89681204Y-41224636D01*
X89681201Y-41224634D01*
X89681200Y-41224634D01*
X89681197Y-41224633D01*
X89543111Y-41184087D01*
X89543108Y-41184087D01*
X89399186Y-41184087D01*
X89399182Y-41184087D01*
X89261096Y-41224633D01*
X89261089Y-41224636D01*
X89140020Y-41302442D01*
X89045766Y-41411218D01*
X89041942Y-41417170D01*
X89039120Y-41415356D01*
X89007051Y-41450115D01*
X88947052Y-41462109D01*
X88891463Y-41436546D01*
X88883776Y-41428615D01*
X88831129Y-41367858D01*
X88831127Y-41367856D01*
X88710057Y-41290049D01*
X88710054Y-41290047D01*
X88710053Y-41290047D01*
X88705217Y-41288627D01*
X88571964Y-41249500D01*
X88571961Y-41249500D01*
X88428039Y-41249500D01*
X88428035Y-41249500D01*
X88289949Y-41290046D01*
X88289942Y-41290049D01*
X88168873Y-41367855D01*
X88074622Y-41476628D01*
X88014834Y-41607543D01*
X87994353Y-41749997D01*
X87994353Y-41750002D01*
X87186052Y-41750002D01*
X87175377Y-41726627D01*
X87081128Y-41617857D01*
X87081127Y-41617856D01*
X87081126Y-41617855D01*
X86960057Y-41540049D01*
X86960054Y-41540047D01*
X86960053Y-41540047D01*
X86960050Y-41540046D01*
X86821964Y-41499500D01*
X86821961Y-41499500D01*
X86678039Y-41499500D01*
X86678035Y-41499500D01*
X86539949Y-41540046D01*
X86539942Y-41540049D01*
X86418872Y-41617856D01*
X86413519Y-41622495D01*
X86412262Y-41621045D01*
X86367915Y-41647781D01*
X86306955Y-41642538D01*
X86260719Y-41602465D01*
X86255456Y-41592491D01*
X86225377Y-41526627D01*
X86131128Y-41417857D01*
X86131127Y-41417856D01*
X86131126Y-41417855D01*
X86010057Y-41340049D01*
X86010054Y-41340047D01*
X86010053Y-41340047D01*
X86010050Y-41340046D01*
X85871964Y-41299500D01*
X85871961Y-41299500D01*
X85728039Y-41299500D01*
X85722280Y-41299500D01*
X85664089Y-41280593D01*
X85632226Y-41241625D01*
X85625377Y-41226627D01*
X85531128Y-41117857D01*
X85531127Y-41117856D01*
X85531126Y-41117855D01*
X85410057Y-41040049D01*
X85410054Y-41040047D01*
X85410053Y-41040047D01*
X85410050Y-41040046D01*
X85271964Y-40999500D01*
X85271961Y-40999500D01*
X85128039Y-40999500D01*
X85128035Y-40999500D01*
X84989949Y-41040046D01*
X84989942Y-41040049D01*
X84868873Y-41117855D01*
X84774620Y-41226630D01*
X84770904Y-41234768D01*
X84729530Y-41279843D01*
X84669563Y-41291991D01*
X84652964Y-41288627D01*
X84646307Y-41286673D01*
X84502385Y-41286673D01*
X84502381Y-41286673D01*
X84364295Y-41327219D01*
X84364288Y-41327222D01*
X84243219Y-41405028D01*
X84148968Y-41513801D01*
X84089180Y-41644716D01*
X84068699Y-41787170D01*
X84068699Y-41787175D01*
X78497437Y-41787175D01*
X78464224Y-41714448D01*
X78369975Y-41605678D01*
X78369974Y-41605677D01*
X78369973Y-41605676D01*
X78248904Y-41527870D01*
X78248901Y-41527868D01*
X78248900Y-41527868D01*
X78248897Y-41527867D01*
X78110811Y-41487321D01*
X78110808Y-41487321D01*
X77966886Y-41487321D01*
X77966882Y-41487321D01*
X77828796Y-41527867D01*
X77828789Y-41527870D01*
X77707720Y-41605676D01*
X77613469Y-41714449D01*
X77553681Y-41845364D01*
X77533200Y-41987818D01*
X77533200Y-41987823D01*
X76722290Y-41987823D01*
X76731128Y-41982143D01*
X76825377Y-41873373D01*
X76885165Y-41742457D01*
X76903080Y-41617855D01*
X76905647Y-41600002D01*
X76905647Y-41599999D01*
X76897027Y-41540049D01*
X76896641Y-41537365D01*
X76907073Y-41477078D01*
X76941105Y-41439996D01*
X77031128Y-41382143D01*
X77125377Y-41273373D01*
X77185165Y-41142457D01*
X77205647Y-41000000D01*
X77205575Y-40999500D01*
X77185165Y-40857543D01*
X77125377Y-40726628D01*
X77125377Y-40726627D01*
X77031128Y-40617857D01*
X77031127Y-40617856D01*
X77031126Y-40617855D01*
X76910057Y-40540049D01*
X76910054Y-40540047D01*
X76910053Y-40540047D01*
X76910050Y-40540046D01*
X76771964Y-40499500D01*
X76771961Y-40499500D01*
X76628039Y-40499500D01*
X76628035Y-40499500D01*
X76489949Y-40540046D01*
X76489942Y-40540049D01*
X76368872Y-40617856D01*
X76364830Y-40621359D01*
X76308471Y-40645176D01*
X76248876Y-40631317D01*
X76235170Y-40621359D01*
X76231127Y-40617856D01*
X76110057Y-40540049D01*
X76110054Y-40540047D01*
X76110053Y-40540047D01*
X76110050Y-40540046D01*
X75971964Y-40499500D01*
X75971961Y-40499500D01*
X75828039Y-40499500D01*
X75828035Y-40499500D01*
X75689949Y-40540046D01*
X75689942Y-40540049D01*
X75568873Y-40617855D01*
X75474622Y-40726628D01*
X75414834Y-40857543D01*
X75394353Y-40999997D01*
X75394353Y-41000002D01*
X71002303Y-41000002D01*
X71025377Y-40973373D01*
X71085165Y-40842457D01*
X71105647Y-40700000D01*
X71093836Y-40617855D01*
X71085165Y-40557543D01*
X71025377Y-40426628D01*
X71025377Y-40426627D01*
X70931128Y-40317857D01*
X70931127Y-40317856D01*
X70931126Y-40317855D01*
X70810057Y-40240049D01*
X70810054Y-40240047D01*
X70810053Y-40240047D01*
X70810050Y-40240046D01*
X70671964Y-40199500D01*
X70671961Y-40199500D01*
X70528039Y-40199500D01*
X70528035Y-40199500D01*
X70427391Y-40229052D01*
X70366230Y-40227304D01*
X70317778Y-40189941D01*
X70300500Y-40134062D01*
X70300500Y-39500002D01*
X71594353Y-39500002D01*
X71614834Y-39642456D01*
X71674622Y-39773371D01*
X71674623Y-39773373D01*
X71768872Y-39882143D01*
X71768873Y-39882144D01*
X71794901Y-39898871D01*
X71889947Y-39959953D01*
X71996403Y-39991211D01*
X72028035Y-40000499D01*
X72028036Y-40000499D01*
X72028039Y-40000500D01*
X72028041Y-40000500D01*
X72171959Y-40000500D01*
X72171961Y-40000500D01*
X72310053Y-39959953D01*
X72431128Y-39882143D01*
X72525377Y-39773373D01*
X72585165Y-39642457D01*
X72587603Y-39625502D01*
X75579012Y-39625502D01*
X75599493Y-39767956D01*
X75651642Y-39882144D01*
X75659282Y-39898873D01*
X75712208Y-39959953D01*
X75753532Y-40007644D01*
X75874601Y-40085450D01*
X75874606Y-40085453D01*
X75981062Y-40116711D01*
X76012694Y-40125999D01*
X76012695Y-40125999D01*
X76012698Y-40126000D01*
X76012700Y-40126000D01*
X76156618Y-40126000D01*
X76156620Y-40126000D01*
X76294712Y-40085453D01*
X76415787Y-40007643D01*
X76510036Y-39898873D01*
X76569824Y-39767957D01*
X76590306Y-39625500D01*
X76583945Y-39581260D01*
X76594378Y-39520972D01*
X76628416Y-39483885D01*
X76631128Y-39482143D01*
X76725377Y-39373373D01*
X76785165Y-39242457D01*
X76791992Y-39194971D01*
X76805647Y-39100002D01*
X76805647Y-39099997D01*
X76785165Y-38957543D01*
X76731999Y-38841127D01*
X76725024Y-38780340D01*
X76731999Y-38758873D01*
X76776031Y-38662457D01*
X76785165Y-38642457D01*
X76802771Y-38520002D01*
X76805647Y-38500002D01*
X76805647Y-38499997D01*
X76785165Y-38357543D01*
X76785164Y-38357542D01*
X76725377Y-38226627D01*
X76631128Y-38117857D01*
X76631127Y-38117856D01*
X76631126Y-38117855D01*
X76510057Y-38040049D01*
X76510054Y-38040047D01*
X76510053Y-38040047D01*
X76510050Y-38040046D01*
X76371964Y-37999500D01*
X76371961Y-37999500D01*
X76228039Y-37999500D01*
X76228035Y-37999500D01*
X76089949Y-38040046D01*
X76089942Y-38040049D01*
X75968873Y-38117855D01*
X75874622Y-38226628D01*
X75814834Y-38357543D01*
X75794353Y-38499997D01*
X75794353Y-38500002D01*
X75814833Y-38642454D01*
X75868001Y-38758874D01*
X75874975Y-38819660D01*
X75868001Y-38841126D01*
X75814833Y-38957545D01*
X75794353Y-39099997D01*
X75794353Y-39100002D01*
X75800713Y-39144239D01*
X75790280Y-39204529D01*
X75756248Y-39241610D01*
X75753533Y-39243354D01*
X75659281Y-39352128D01*
X75599493Y-39483043D01*
X75579012Y-39625497D01*
X75579012Y-39625502D01*
X72587603Y-39625502D01*
X72605647Y-39500000D01*
X72603079Y-39482141D01*
X72585165Y-39357543D01*
X72532606Y-39242456D01*
X72525377Y-39226627D01*
X72431128Y-39117857D01*
X72431127Y-39117856D01*
X72431126Y-39117855D01*
X72310057Y-39040049D01*
X72310054Y-39040047D01*
X72310053Y-39040047D01*
X72310050Y-39040046D01*
X72171964Y-38999500D01*
X72171961Y-38999500D01*
X72028039Y-38999500D01*
X72028035Y-38999500D01*
X71889949Y-39040046D01*
X71889942Y-39040049D01*
X71768873Y-39117855D01*
X71674622Y-39226628D01*
X71614834Y-39357543D01*
X71594353Y-39499997D01*
X71594353Y-39500002D01*
X70300500Y-39500002D01*
X70300500Y-38144131D01*
X70319407Y-38085940D01*
X70368907Y-38049976D01*
X70430093Y-38049976D01*
X70474318Y-38079298D01*
X70480073Y-38085940D01*
X70531373Y-38145144D01*
X70652442Y-38222950D01*
X70652447Y-38222953D01*
X70733078Y-38246628D01*
X70790535Y-38263499D01*
X70790536Y-38263499D01*
X70790539Y-38263500D01*
X70790541Y-38263500D01*
X70934459Y-38263500D01*
X70934461Y-38263500D01*
X71072553Y-38222953D01*
X71193628Y-38145143D01*
X71287877Y-38036373D01*
X71347665Y-37905457D01*
X71368147Y-37763000D01*
X71347665Y-37620543D01*
X71287877Y-37489627D01*
X71193628Y-37380857D01*
X71193627Y-37380856D01*
X71193626Y-37380855D01*
X71072557Y-37303049D01*
X71072554Y-37303048D01*
X71072553Y-37303047D01*
X71038232Y-37292969D01*
X70987726Y-37258434D01*
X70967165Y-37200807D01*
X70984403Y-37142100D01*
X70996554Y-37130292D01*
X74685759Y-37130292D01*
X74710302Y-37137500D01*
X74839701Y-37137500D01*
X74839701Y-37137499D01*
X74864239Y-37130293D01*
X74864238Y-37130292D01*
X76185759Y-37130292D01*
X76210302Y-37137500D01*
X76339701Y-37137500D01*
X76339701Y-37137499D01*
X76364239Y-37130293D01*
X76364238Y-37130292D01*
X77685759Y-37130292D01*
X77710302Y-37137500D01*
X77839701Y-37137500D01*
X77839701Y-37137499D01*
X77864239Y-37130293D01*
X77774999Y-37041053D01*
X77685759Y-37130292D01*
X76364238Y-37130292D01*
X76274999Y-37041053D01*
X76185759Y-37130292D01*
X74864238Y-37130292D01*
X74774999Y-37041053D01*
X74685759Y-37130292D01*
X70996554Y-37130292D01*
X71012602Y-37114696D01*
X71125495Y-37042144D01*
X71125494Y-37042144D01*
X71125497Y-37042143D01*
X71219746Y-36933373D01*
X71279534Y-36802457D01*
X71296062Y-36687501D01*
X74320373Y-36687501D01*
X74333077Y-36775867D01*
X74333078Y-36775867D01*
X74388954Y-36719992D01*
X74675000Y-36719992D01*
X74713197Y-36772565D01*
X74759162Y-36787500D01*
X74790838Y-36787500D01*
X74836803Y-36772565D01*
X74875000Y-36719992D01*
X74875000Y-36687499D01*
X75128553Y-36687499D01*
X75216921Y-36775867D01*
X75229627Y-36687501D01*
X75820373Y-36687501D01*
X75833077Y-36775867D01*
X75833078Y-36775867D01*
X75888954Y-36719992D01*
X76175000Y-36719992D01*
X76213197Y-36772565D01*
X76259162Y-36787500D01*
X76290838Y-36787500D01*
X76336803Y-36772565D01*
X76375000Y-36719992D01*
X76375000Y-36687499D01*
X76628553Y-36687499D01*
X76716921Y-36775867D01*
X76729627Y-36687501D01*
X77320373Y-36687501D01*
X77333077Y-36775867D01*
X77388952Y-36719992D01*
X77675000Y-36719992D01*
X77713197Y-36772565D01*
X77759162Y-36787500D01*
X77790838Y-36787500D01*
X77836803Y-36772565D01*
X77875000Y-36719992D01*
X77875000Y-36687499D01*
X78128553Y-36687499D01*
X78216921Y-36775867D01*
X78229627Y-36687501D01*
X78229627Y-36687497D01*
X78216921Y-36599130D01*
X78128553Y-36687499D01*
X77875000Y-36687499D01*
X77875000Y-36655008D01*
X77836803Y-36602435D01*
X77790838Y-36587500D01*
X77759162Y-36587500D01*
X77713197Y-36602435D01*
X77675000Y-36655008D01*
X77675000Y-36719992D01*
X77388952Y-36719992D01*
X77421445Y-36687499D01*
X77333078Y-36599131D01*
X77333077Y-36599131D01*
X77320373Y-36687496D01*
X77320373Y-36687501D01*
X76729627Y-36687501D01*
X76729627Y-36687497D01*
X76716921Y-36599130D01*
X76628553Y-36687499D01*
X76375000Y-36687499D01*
X76375000Y-36655008D01*
X76336803Y-36602435D01*
X76290838Y-36587500D01*
X76259162Y-36587500D01*
X76213197Y-36602435D01*
X76175000Y-36655008D01*
X76175000Y-36719992D01*
X75888954Y-36719992D01*
X75921446Y-36687500D01*
X75833077Y-36599131D01*
X75820373Y-36687496D01*
X75820373Y-36687501D01*
X75229627Y-36687501D01*
X75229627Y-36687497D01*
X75216921Y-36599130D01*
X75128553Y-36687499D01*
X74875000Y-36687499D01*
X74875000Y-36655008D01*
X74836803Y-36602435D01*
X74790838Y-36587500D01*
X74759162Y-36587500D01*
X74713197Y-36602435D01*
X74675000Y-36655008D01*
X74675000Y-36719992D01*
X74388954Y-36719992D01*
X74421446Y-36687500D01*
X74333077Y-36599131D01*
X74320373Y-36687496D01*
X74320373Y-36687501D01*
X71296062Y-36687501D01*
X71300016Y-36660000D01*
X71299298Y-36655008D01*
X71279534Y-36517543D01*
X71271521Y-36499997D01*
X71219746Y-36386627D01*
X71125497Y-36277857D01*
X71125496Y-36277856D01*
X71125495Y-36277855D01*
X71004426Y-36200049D01*
X71004423Y-36200047D01*
X71004422Y-36200047D01*
X71004269Y-36200002D01*
X70866333Y-36159500D01*
X70866330Y-36159500D01*
X70722408Y-36159500D01*
X70722404Y-36159500D01*
X70584318Y-36200046D01*
X70584311Y-36200049D01*
X70457284Y-36281685D01*
X70456377Y-36280274D01*
X70407970Y-36300730D01*
X70348375Y-36286870D01*
X70308308Y-36240629D01*
X70300500Y-36202093D01*
X70300500Y-35800002D01*
X71543853Y-35800002D01*
X71564334Y-35942456D01*
X71590386Y-35999500D01*
X71624123Y-36073373D01*
X71698713Y-36159455D01*
X71718373Y-36182144D01*
X71823963Y-36250002D01*
X71839447Y-36259953D01*
X71931119Y-36286870D01*
X71977535Y-36300499D01*
X71977536Y-36300499D01*
X71977539Y-36300500D01*
X71977541Y-36300500D01*
X72121459Y-36300500D01*
X72121461Y-36300500D01*
X72259553Y-36259953D01*
X72380628Y-36182143D01*
X72474877Y-36073373D01*
X72534665Y-35942457D01*
X72549114Y-35841959D01*
X72555147Y-35800002D01*
X72769851Y-35800002D01*
X72790332Y-35942456D01*
X72816384Y-35999500D01*
X72850121Y-36073373D01*
X72924711Y-36159455D01*
X72944371Y-36182144D01*
X73049961Y-36250002D01*
X73065445Y-36259953D01*
X73157117Y-36286870D01*
X73203533Y-36300499D01*
X73203534Y-36300499D01*
X73203537Y-36300500D01*
X73203539Y-36300500D01*
X73347457Y-36300500D01*
X73347459Y-36300500D01*
X73485551Y-36259953D01*
X73509276Y-36244706D01*
X74685758Y-36244706D01*
X74775000Y-36333947D01*
X74864239Y-36244706D01*
X76185758Y-36244706D01*
X76274999Y-36333945D01*
X76364238Y-36244706D01*
X77685758Y-36244706D01*
X77774999Y-36333945D01*
X77858942Y-36250002D01*
X83494353Y-36250002D01*
X83514834Y-36392456D01*
X83563947Y-36499997D01*
X83574623Y-36523373D01*
X83640267Y-36599131D01*
X83668873Y-36632144D01*
X83755009Y-36687500D01*
X83789947Y-36709953D01*
X83896403Y-36741211D01*
X83928035Y-36750499D01*
X83928036Y-36750499D01*
X83928039Y-36750500D01*
X83928041Y-36750500D01*
X84071959Y-36750500D01*
X84071961Y-36750500D01*
X84210053Y-36709953D01*
X84331128Y-36632143D01*
X84425377Y-36523373D01*
X84436050Y-36500002D01*
X85694353Y-36500002D01*
X85714834Y-36642456D01*
X85750244Y-36719992D01*
X85774623Y-36773373D01*
X85868872Y-36882143D01*
X85868873Y-36882144D01*
X85989942Y-36959950D01*
X85989947Y-36959953D01*
X86096403Y-36991211D01*
X86128035Y-37000499D01*
X86128036Y-37000499D01*
X86128039Y-37000500D01*
X86128041Y-37000500D01*
X86271959Y-37000500D01*
X86271961Y-37000500D01*
X86410053Y-36959953D01*
X86531128Y-36882143D01*
X86625377Y-36773373D01*
X86685165Y-36642457D01*
X86705647Y-36500000D01*
X86685165Y-36357543D01*
X86625377Y-36226627D01*
X86531128Y-36117857D01*
X86531127Y-36117856D01*
X86531126Y-36117855D01*
X86410057Y-36040049D01*
X86410054Y-36040047D01*
X86410053Y-36040047D01*
X86410050Y-36040046D01*
X86271964Y-35999500D01*
X86271961Y-35999500D01*
X86128039Y-35999500D01*
X86128035Y-35999500D01*
X85989949Y-36040046D01*
X85989942Y-36040049D01*
X85868873Y-36117855D01*
X85774622Y-36226628D01*
X85714834Y-36357543D01*
X85694353Y-36499997D01*
X85694353Y-36500002D01*
X84436050Y-36500002D01*
X84485165Y-36392457D01*
X84498386Y-36300500D01*
X84505647Y-36250002D01*
X84505647Y-36249997D01*
X84485165Y-36107543D01*
X84454340Y-36040046D01*
X84425377Y-35976627D01*
X84331128Y-35867857D01*
X84331127Y-35867856D01*
X84331126Y-35867855D01*
X84210057Y-35790049D01*
X84210054Y-35790047D01*
X84210053Y-35790047D01*
X84210050Y-35790046D01*
X84071964Y-35749500D01*
X84071961Y-35749500D01*
X83928039Y-35749500D01*
X83928035Y-35749500D01*
X83789949Y-35790046D01*
X83789942Y-35790049D01*
X83668873Y-35867855D01*
X83574622Y-35976628D01*
X83514834Y-36107543D01*
X83494353Y-36249997D01*
X83494353Y-36250002D01*
X77858942Y-36250002D01*
X77864238Y-36244706D01*
X77839697Y-36237500D01*
X77710298Y-36237500D01*
X77685758Y-36244706D01*
X76364238Y-36244706D01*
X76339697Y-36237500D01*
X76210298Y-36237500D01*
X76185758Y-36244706D01*
X74864239Y-36244706D01*
X74864239Y-36244705D01*
X74839702Y-36237500D01*
X74710298Y-36237500D01*
X74685758Y-36244706D01*
X73509276Y-36244706D01*
X73606626Y-36182143D01*
X73700875Y-36073373D01*
X73760663Y-35942457D01*
X73775112Y-35841959D01*
X73781145Y-35800002D01*
X73781145Y-35799997D01*
X73766696Y-35699504D01*
X87494353Y-35699504D01*
X87514834Y-35841958D01*
X87523511Y-35860957D01*
X87574623Y-35972875D01*
X87668872Y-36081645D01*
X87668873Y-36081646D01*
X87698435Y-36100644D01*
X87789947Y-36159455D01*
X87867220Y-36182144D01*
X87928035Y-36200001D01*
X87928036Y-36200001D01*
X87928039Y-36200002D01*
X87928041Y-36200002D01*
X88071959Y-36200002D01*
X88071961Y-36200002D01*
X88210053Y-36159455D01*
X88331128Y-36081645D01*
X88425377Y-35972875D01*
X88485165Y-35841959D01*
X88492629Y-35790046D01*
X88505647Y-35699504D01*
X88505647Y-35699499D01*
X88485165Y-35557045D01*
X88471273Y-35526627D01*
X88425377Y-35426129D01*
X88331128Y-35317359D01*
X88331127Y-35317358D01*
X88331126Y-35317357D01*
X88210057Y-35239551D01*
X88210054Y-35239549D01*
X88210053Y-35239549D01*
X88210050Y-35239548D01*
X88071964Y-35199002D01*
X88071961Y-35199002D01*
X87928039Y-35199002D01*
X87928035Y-35199002D01*
X87789949Y-35239548D01*
X87789942Y-35239551D01*
X87668873Y-35317357D01*
X87574622Y-35426130D01*
X87514834Y-35557045D01*
X87494353Y-35699499D01*
X87494353Y-35699504D01*
X73766696Y-35699504D01*
X73760663Y-35657543D01*
X73748218Y-35630292D01*
X74685759Y-35630292D01*
X74710302Y-35637500D01*
X74839701Y-35637500D01*
X74839701Y-35637499D01*
X74864239Y-35630293D01*
X74864238Y-35630292D01*
X76185759Y-35630292D01*
X76210302Y-35637500D01*
X76339701Y-35637500D01*
X76339701Y-35637499D01*
X76364239Y-35630293D01*
X76364238Y-35630292D01*
X77685759Y-35630292D01*
X77710302Y-35637500D01*
X77839701Y-35637500D01*
X77839701Y-35637499D01*
X77864239Y-35630293D01*
X77774999Y-35541053D01*
X77685759Y-35630292D01*
X76364238Y-35630292D01*
X76274999Y-35541053D01*
X76185759Y-35630292D01*
X74864238Y-35630292D01*
X74774999Y-35541053D01*
X74685759Y-35630292D01*
X73748218Y-35630292D01*
X73700875Y-35526627D01*
X73606626Y-35417857D01*
X73606625Y-35417856D01*
X73606624Y-35417855D01*
X73485555Y-35340049D01*
X73485552Y-35340047D01*
X73485551Y-35340047D01*
X73485548Y-35340046D01*
X73347462Y-35299500D01*
X73347459Y-35299500D01*
X73203537Y-35299500D01*
X73203533Y-35299500D01*
X73065447Y-35340046D01*
X73065440Y-35340049D01*
X72944371Y-35417855D01*
X72850120Y-35526628D01*
X72790332Y-35657543D01*
X72769851Y-35799997D01*
X72769851Y-35800002D01*
X72555147Y-35800002D01*
X72555147Y-35799997D01*
X72534665Y-35657543D01*
X72474877Y-35526627D01*
X72380628Y-35417857D01*
X72380627Y-35417856D01*
X72380626Y-35417855D01*
X72259557Y-35340049D01*
X72259554Y-35340047D01*
X72259553Y-35340047D01*
X72259550Y-35340046D01*
X72121464Y-35299500D01*
X72121461Y-35299500D01*
X71977539Y-35299500D01*
X71977535Y-35299500D01*
X71839449Y-35340046D01*
X71839442Y-35340049D01*
X71718373Y-35417855D01*
X71624122Y-35526628D01*
X71564334Y-35657543D01*
X71543853Y-35799997D01*
X71543853Y-35800002D01*
X70300500Y-35800002D01*
X70300500Y-35187501D01*
X74320373Y-35187501D01*
X74333077Y-35275867D01*
X74388953Y-35219992D01*
X74675000Y-35219992D01*
X74713197Y-35272565D01*
X74759162Y-35287500D01*
X74790838Y-35287500D01*
X74836803Y-35272565D01*
X74875000Y-35219992D01*
X74875000Y-35187499D01*
X75128553Y-35187499D01*
X75216921Y-35275868D01*
X75229627Y-35187501D01*
X75820373Y-35187501D01*
X75833077Y-35275867D01*
X75833078Y-35275867D01*
X75888954Y-35219992D01*
X76175000Y-35219992D01*
X76213197Y-35272565D01*
X76259162Y-35287500D01*
X76290838Y-35287500D01*
X76336803Y-35272565D01*
X76375000Y-35219992D01*
X76375000Y-35187499D01*
X76628553Y-35187499D01*
X76716921Y-35275867D01*
X76729627Y-35187501D01*
X77320373Y-35187501D01*
X77333077Y-35275867D01*
X77388952Y-35219992D01*
X77675000Y-35219992D01*
X77713197Y-35272565D01*
X77759162Y-35287500D01*
X77790838Y-35287500D01*
X77836803Y-35272565D01*
X77875000Y-35219992D01*
X77875000Y-35187499D01*
X78128553Y-35187499D01*
X78216921Y-35275867D01*
X78229627Y-35187501D01*
X78229627Y-35187497D01*
X78216921Y-35099130D01*
X78128553Y-35187499D01*
X77875000Y-35187499D01*
X77875000Y-35155008D01*
X77836803Y-35102435D01*
X77790838Y-35087500D01*
X77759162Y-35087500D01*
X77713197Y-35102435D01*
X77675000Y-35155008D01*
X77675000Y-35219992D01*
X77388952Y-35219992D01*
X77421445Y-35187499D01*
X77333078Y-35099131D01*
X77333077Y-35099131D01*
X77320373Y-35187496D01*
X77320373Y-35187501D01*
X76729627Y-35187501D01*
X76729627Y-35187497D01*
X76716921Y-35099130D01*
X76628553Y-35187499D01*
X76375000Y-35187499D01*
X76375000Y-35155008D01*
X76336803Y-35102435D01*
X76290838Y-35087500D01*
X76259162Y-35087500D01*
X76213197Y-35102435D01*
X76175000Y-35155008D01*
X76175000Y-35219992D01*
X75888954Y-35219992D01*
X75921446Y-35187500D01*
X75833077Y-35099131D01*
X75820373Y-35187496D01*
X75820373Y-35187501D01*
X75229627Y-35187501D01*
X75229627Y-35187498D01*
X75216921Y-35099131D01*
X75128553Y-35187499D01*
X74875000Y-35187499D01*
X74875000Y-35155008D01*
X74836803Y-35102435D01*
X74790838Y-35087500D01*
X74759162Y-35087500D01*
X74713197Y-35102435D01*
X74675000Y-35155008D01*
X74675000Y-35219992D01*
X74388953Y-35219992D01*
X74421447Y-35187498D01*
X74333077Y-35099131D01*
X74320373Y-35187496D01*
X74320373Y-35187501D01*
X70300500Y-35187501D01*
X70300500Y-34744706D01*
X74685758Y-34744706D01*
X74775000Y-34833947D01*
X74864239Y-34744706D01*
X76185758Y-34744706D01*
X76275000Y-34833947D01*
X76364239Y-34744706D01*
X77685758Y-34744706D01*
X77775000Y-34833947D01*
X77864239Y-34744706D01*
X77864239Y-34744705D01*
X77839702Y-34737500D01*
X77710298Y-34737500D01*
X77685758Y-34744706D01*
X76364239Y-34744706D01*
X76364239Y-34744705D01*
X76339702Y-34737500D01*
X76210298Y-34737500D01*
X76185758Y-34744706D01*
X74864239Y-34744706D01*
X74864239Y-34744705D01*
X74839702Y-34737500D01*
X74710298Y-34737500D01*
X74685758Y-34744706D01*
X70300500Y-34744706D01*
X70300500Y-33553027D01*
X70319407Y-33494836D01*
X70368907Y-33458872D01*
X70430093Y-33458872D01*
X70464334Y-33478210D01*
X70468869Y-33482140D01*
X70468872Y-33482143D01*
X70468874Y-33482144D01*
X70468875Y-33482145D01*
X70497434Y-33500499D01*
X70589947Y-33559953D01*
X70696403Y-33591211D01*
X70728035Y-33600499D01*
X70728036Y-33600499D01*
X70728039Y-33600500D01*
X70728041Y-33600500D01*
X70871959Y-33600500D01*
X70871961Y-33600500D01*
X71010053Y-33559953D01*
X71131128Y-33482143D01*
X71225377Y-33373373D01*
X71285165Y-33242457D01*
X71299543Y-33142456D01*
X71305647Y-33100002D01*
X71305647Y-33099997D01*
X71285165Y-32957543D01*
X71250731Y-32882144D01*
X71225377Y-32826627D01*
X71131128Y-32717857D01*
X71131127Y-32717856D01*
X71131126Y-32717855D01*
X71010057Y-32640049D01*
X71010054Y-32640047D01*
X71010053Y-32640047D01*
X71010050Y-32640046D01*
X70873674Y-32600002D01*
X81894353Y-32600002D01*
X81914834Y-32742456D01*
X81974622Y-32873371D01*
X81974623Y-32873373D01*
X82068872Y-32982143D01*
X82068873Y-32982144D01*
X82187487Y-33058372D01*
X82189947Y-33059953D01*
X82296403Y-33091211D01*
X82328035Y-33100499D01*
X82328036Y-33100499D01*
X82328039Y-33100500D01*
X82328041Y-33100500D01*
X82471959Y-33100500D01*
X82471961Y-33100500D01*
X82610053Y-33059953D01*
X82731128Y-32982143D01*
X82825377Y-32873373D01*
X82885165Y-32742457D01*
X82905647Y-32600000D01*
X82905575Y-32599500D01*
X82891270Y-32500002D01*
X84744353Y-32500002D01*
X84764834Y-32642456D01*
X84810504Y-32742457D01*
X84824623Y-32773373D01*
X84897556Y-32857543D01*
X84918873Y-32882144D01*
X85036197Y-32957543D01*
X85039947Y-32959953D01*
X85146403Y-32991211D01*
X85178035Y-33000499D01*
X85178036Y-33000499D01*
X85178039Y-33000500D01*
X85178041Y-33000500D01*
X85277719Y-33000500D01*
X85335910Y-33019407D01*
X85367771Y-33058372D01*
X85374621Y-33073370D01*
X85374622Y-33073373D01*
X85384843Y-33085168D01*
X85408661Y-33141527D01*
X85394802Y-33201123D01*
X85384847Y-33214826D01*
X85374623Y-33226626D01*
X85314834Y-33357543D01*
X85294353Y-33499997D01*
X85294353Y-33500002D01*
X85314834Y-33642456D01*
X85360504Y-33742457D01*
X85374623Y-33773373D01*
X85468872Y-33882143D01*
X85497669Y-33900650D01*
X85536399Y-33948014D01*
X85539893Y-34009100D01*
X85506814Y-34060573D01*
X85497669Y-34067217D01*
X85418872Y-34117857D01*
X85324622Y-34226628D01*
X85264834Y-34357543D01*
X85244353Y-34499997D01*
X85244353Y-34500002D01*
X85264834Y-34642456D01*
X85311531Y-34744706D01*
X85324623Y-34773373D01*
X85418872Y-34882143D01*
X85418873Y-34882144D01*
X85539942Y-34959950D01*
X85539947Y-34959953D01*
X85646403Y-34991211D01*
X85678035Y-35000499D01*
X85678036Y-35000499D01*
X85678039Y-35000500D01*
X85678041Y-35000500D01*
X85821959Y-35000500D01*
X85821961Y-35000500D01*
X85960053Y-34959953D01*
X86081128Y-34882143D01*
X86175377Y-34773373D01*
X86235165Y-34642457D01*
X86255647Y-34500000D01*
X86235165Y-34357543D01*
X86175377Y-34226627D01*
X86081128Y-34117857D01*
X86081127Y-34117856D01*
X86081126Y-34117855D01*
X86052331Y-34099350D01*
X86013599Y-34051984D01*
X86010106Y-33990898D01*
X86043186Y-33939426D01*
X86052311Y-33932795D01*
X86131128Y-33882143D01*
X86225377Y-33773373D01*
X86285165Y-33642457D01*
X86291269Y-33600002D01*
X86694353Y-33600002D01*
X86714834Y-33742456D01*
X86728953Y-33773371D01*
X86774623Y-33873373D01*
X86868872Y-33982143D01*
X86868873Y-33982144D01*
X86977547Y-34051984D01*
X86989947Y-34059953D01*
X87096403Y-34091211D01*
X87128035Y-34100499D01*
X87128036Y-34100499D01*
X87128039Y-34100500D01*
X87128041Y-34100500D01*
X87271959Y-34100500D01*
X87271961Y-34100500D01*
X87410053Y-34059953D01*
X87531128Y-33982143D01*
X87625377Y-33873373D01*
X87685165Y-33742457D01*
X87705575Y-33600500D01*
X87705647Y-33600002D01*
X87705647Y-33599997D01*
X87685165Y-33457543D01*
X87650731Y-33382144D01*
X87625377Y-33326627D01*
X87531128Y-33217857D01*
X87531127Y-33217856D01*
X87531126Y-33217855D01*
X87410057Y-33140049D01*
X87410054Y-33140047D01*
X87410053Y-33140047D01*
X87410050Y-33140046D01*
X87271964Y-33099500D01*
X87271961Y-33099500D01*
X87128039Y-33099500D01*
X87128035Y-33099500D01*
X86989949Y-33140046D01*
X86989942Y-33140049D01*
X86868873Y-33217855D01*
X86774622Y-33326628D01*
X86714834Y-33457543D01*
X86694353Y-33599997D01*
X86694353Y-33600002D01*
X86291269Y-33600002D01*
X86305575Y-33500500D01*
X86305647Y-33500002D01*
X86305647Y-33499997D01*
X86285165Y-33357543D01*
X86246725Y-33273373D01*
X86225377Y-33226627D01*
X86215156Y-33214831D01*
X86191338Y-33158472D01*
X86205196Y-33098877D01*
X86215158Y-33085167D01*
X86225375Y-33073375D01*
X86225374Y-33073375D01*
X86225377Y-33073373D01*
X86285165Y-32942457D01*
X86305647Y-32800000D01*
X86301818Y-32773371D01*
X86285165Y-32657543D01*
X86267040Y-32617855D01*
X86225377Y-32526627D01*
X86131128Y-32417857D01*
X86131127Y-32417856D01*
X86131126Y-32417855D01*
X86010057Y-32340049D01*
X86010054Y-32340047D01*
X86010053Y-32340047D01*
X86010050Y-32340046D01*
X85871964Y-32299500D01*
X85871961Y-32299500D01*
X85772280Y-32299500D01*
X85714089Y-32280593D01*
X85682226Y-32241625D01*
X85675377Y-32226627D01*
X85581128Y-32117857D01*
X85581127Y-32117856D01*
X85581126Y-32117855D01*
X85460057Y-32040049D01*
X85460054Y-32040047D01*
X85460053Y-32040047D01*
X85460050Y-32040046D01*
X85321964Y-31999500D01*
X85321961Y-31999500D01*
X85178039Y-31999500D01*
X85178035Y-31999500D01*
X85039949Y-32040046D01*
X85039942Y-32040049D01*
X84918873Y-32117855D01*
X84824622Y-32226628D01*
X84764834Y-32357543D01*
X84744353Y-32499997D01*
X84744353Y-32500002D01*
X82891270Y-32500002D01*
X82885165Y-32457543D01*
X82839496Y-32357543D01*
X82825377Y-32326627D01*
X82731128Y-32217857D01*
X82731127Y-32217856D01*
X82731126Y-32217855D01*
X82610057Y-32140049D01*
X82610054Y-32140047D01*
X82610053Y-32140047D01*
X82610050Y-32140046D01*
X82471964Y-32099500D01*
X82471961Y-32099500D01*
X82328039Y-32099500D01*
X82328035Y-32099500D01*
X82189949Y-32140046D01*
X82189942Y-32140049D01*
X82068873Y-32217855D01*
X81974622Y-32326628D01*
X81914834Y-32457543D01*
X81894353Y-32599997D01*
X81894353Y-32600002D01*
X70873674Y-32600002D01*
X70871964Y-32599500D01*
X70871961Y-32599500D01*
X70728039Y-32599500D01*
X70728035Y-32599500D01*
X70589949Y-32640046D01*
X70589942Y-32640049D01*
X70468872Y-32717856D01*
X70464329Y-32721793D01*
X70407969Y-32745609D01*
X70348374Y-32731749D01*
X70308308Y-32685507D01*
X70300500Y-32646972D01*
X70300500Y-31555726D01*
X70304279Y-31528635D01*
X70304401Y-31528207D01*
X70300711Y-31488384D01*
X70300500Y-31483815D01*
X70300500Y-31472157D01*
X70300432Y-31471793D01*
X70298354Y-31460678D01*
X70297727Y-31456185D01*
X70294035Y-31416340D01*
X70293837Y-31415943D01*
X70285140Y-31389992D01*
X70285060Y-31389564D01*
X70268843Y-31363374D01*
X70264006Y-31355562D01*
X70261785Y-31351575D01*
X70243958Y-31315771D01*
X70243956Y-31315769D01*
X70243628Y-31315470D01*
X70226154Y-31294427D01*
X70225919Y-31294048D01*
X70199478Y-31274081D01*
X70194008Y-31269950D01*
X70190495Y-31267033D01*
X70173673Y-31251698D01*
X70167659Y-31246215D01*
X70137395Y-31193038D01*
X70144167Y-31132229D01*
X70185165Y-31042457D01*
X70205647Y-30900002D01*
X70644851Y-30900002D01*
X70665332Y-31042456D01*
X70725120Y-31173371D01*
X70725121Y-31173373D01*
X70812380Y-31274076D01*
X70819371Y-31282144D01*
X70940440Y-31359950D01*
X70940445Y-31359953D01*
X71041292Y-31389564D01*
X71078533Y-31400499D01*
X71078534Y-31400499D01*
X71078537Y-31400500D01*
X71078539Y-31400500D01*
X71222457Y-31400500D01*
X71222459Y-31400500D01*
X71360551Y-31359953D01*
X71481626Y-31282143D01*
X71575875Y-31173373D01*
X71635663Y-31042457D01*
X71641839Y-30999502D01*
X74143855Y-30999502D01*
X74164336Y-31141956D01*
X74224124Y-31272871D01*
X74224125Y-31272873D01*
X74298400Y-31358592D01*
X74322217Y-31414951D01*
X74308358Y-31474546D01*
X74298400Y-31488252D01*
X74224278Y-31573795D01*
X74164489Y-31704712D01*
X74144008Y-31847166D01*
X74144008Y-31847171D01*
X74164489Y-31989625D01*
X74206742Y-32082144D01*
X74224278Y-32120542D01*
X74316201Y-32226628D01*
X74318528Y-32229313D01*
X74410963Y-32288717D01*
X74439602Y-32307122D01*
X74546058Y-32338380D01*
X74577690Y-32347668D01*
X74577691Y-32347668D01*
X74577694Y-32347669D01*
X74577696Y-32347669D01*
X74721614Y-32347669D01*
X74721616Y-32347669D01*
X74859708Y-32307122D01*
X74980783Y-32229312D01*
X75075032Y-32120542D01*
X75123074Y-32015346D01*
X79100143Y-32015346D01*
X79120624Y-32157800D01*
X79159671Y-32243299D01*
X79180413Y-32288717D01*
X79231494Y-32347668D01*
X79274663Y-32397488D01*
X79332960Y-32434953D01*
X79395737Y-32475297D01*
X79502193Y-32506555D01*
X79533825Y-32515843D01*
X79533826Y-32515843D01*
X79533829Y-32515844D01*
X79533831Y-32515844D01*
X79677749Y-32515844D01*
X79677751Y-32515844D01*
X79815843Y-32475297D01*
X79936918Y-32397487D01*
X80031167Y-32288717D01*
X80037379Y-32275113D01*
X80078749Y-32230036D01*
X80138715Y-32217883D01*
X80194372Y-32243299D01*
X80202243Y-32251397D01*
X80279060Y-32340049D01*
X80293873Y-32357144D01*
X80356650Y-32397488D01*
X80414947Y-32434953D01*
X80521403Y-32466211D01*
X80553035Y-32475499D01*
X80553036Y-32475499D01*
X80553039Y-32475500D01*
X80553041Y-32475500D01*
X80696959Y-32475500D01*
X80696961Y-32475500D01*
X80835053Y-32434953D01*
X80956128Y-32357143D01*
X81050377Y-32248373D01*
X81110165Y-32117457D01*
X81116992Y-32069971D01*
X81130647Y-31975002D01*
X81130647Y-31974997D01*
X81110165Y-31832543D01*
X81077177Y-31760310D01*
X81050377Y-31701627D01*
X80956128Y-31592857D01*
X80956127Y-31592856D01*
X80956126Y-31592855D01*
X80850655Y-31525073D01*
X85965103Y-31525073D01*
X85985584Y-31667527D01*
X86033506Y-31772459D01*
X86045373Y-31798444D01*
X86087595Y-31847171D01*
X86139623Y-31907215D01*
X86245099Y-31975000D01*
X86260697Y-31985024D01*
X86367153Y-32016282D01*
X86398785Y-32025570D01*
X86398786Y-32025570D01*
X86398789Y-32025571D01*
X86398791Y-32025571D01*
X86542709Y-32025571D01*
X86542711Y-32025571D01*
X86680803Y-31985024D01*
X86801878Y-31907214D01*
X86896127Y-31798444D01*
X86941084Y-31700002D01*
X88694353Y-31700002D01*
X88714834Y-31842456D01*
X88728732Y-31872887D01*
X88774623Y-31973373D01*
X88832395Y-32040046D01*
X88868873Y-32082144D01*
X88986597Y-32157800D01*
X88989947Y-32159953D01*
X89096403Y-32191211D01*
X89128035Y-32200499D01*
X89128036Y-32200499D01*
X89128039Y-32200500D01*
X89128041Y-32200500D01*
X89271959Y-32200500D01*
X89271961Y-32200500D01*
X89410053Y-32159953D01*
X89531128Y-32082143D01*
X89625377Y-31973373D01*
X89685165Y-31842457D01*
X89698884Y-31747040D01*
X89705647Y-31700002D01*
X89705647Y-31699997D01*
X89685165Y-31557543D01*
X89671960Y-31528629D01*
X89625377Y-31426627D01*
X89531128Y-31317857D01*
X89531127Y-31317856D01*
X89531126Y-31317855D01*
X89410057Y-31240049D01*
X89410054Y-31240047D01*
X89410053Y-31240047D01*
X89410050Y-31240046D01*
X89271964Y-31199500D01*
X89271961Y-31199500D01*
X89128039Y-31199500D01*
X89128035Y-31199500D01*
X88989949Y-31240046D01*
X88989942Y-31240049D01*
X88868873Y-31317855D01*
X88774622Y-31426628D01*
X88714834Y-31557543D01*
X88694353Y-31699997D01*
X88694353Y-31700002D01*
X86941084Y-31700002D01*
X86955915Y-31667528D01*
X86966651Y-31592855D01*
X86976397Y-31525073D01*
X86976397Y-31525068D01*
X86955915Y-31382614D01*
X86944944Y-31358591D01*
X86896127Y-31251698D01*
X86801878Y-31142928D01*
X86801877Y-31142927D01*
X86801876Y-31142926D01*
X86680807Y-31065120D01*
X86680804Y-31065118D01*
X86680803Y-31065118D01*
X86680800Y-31065117D01*
X86542714Y-31024571D01*
X86542711Y-31024571D01*
X86398789Y-31024571D01*
X86398785Y-31024571D01*
X86260699Y-31065117D01*
X86260692Y-31065120D01*
X86139623Y-31142926D01*
X86045372Y-31251699D01*
X85985584Y-31382614D01*
X85965103Y-31525068D01*
X85965103Y-31525073D01*
X80850655Y-31525073D01*
X80835057Y-31515049D01*
X80835054Y-31515047D01*
X80835053Y-31515047D01*
X80823365Y-31511615D01*
X80696964Y-31474500D01*
X80696961Y-31474500D01*
X80553039Y-31474500D01*
X80553035Y-31474500D01*
X80414949Y-31515046D01*
X80414942Y-31515049D01*
X80293873Y-31592855D01*
X80199621Y-31701629D01*
X80193408Y-31715234D01*
X80152035Y-31760310D01*
X80092068Y-31772459D01*
X80036412Y-31747040D01*
X80028546Y-31738947D01*
X79936918Y-31633201D01*
X79936917Y-31633200D01*
X79936916Y-31633199D01*
X79815847Y-31555393D01*
X79815844Y-31555391D01*
X79815843Y-31555391D01*
X79815840Y-31555390D01*
X79677754Y-31514844D01*
X79677751Y-31514844D01*
X79533829Y-31514844D01*
X79533825Y-31514844D01*
X79395739Y-31555390D01*
X79395732Y-31555393D01*
X79274663Y-31633199D01*
X79180412Y-31741972D01*
X79120624Y-31872887D01*
X79100143Y-32015341D01*
X79100143Y-32015346D01*
X75123074Y-32015346D01*
X75134820Y-31989626D01*
X75146669Y-31907214D01*
X75155302Y-31847171D01*
X75155302Y-31847166D01*
X75134820Y-31704712D01*
X75117838Y-31667527D01*
X75075032Y-31573796D01*
X75035529Y-31528207D01*
X75000757Y-31488077D01*
X74976939Y-31431718D01*
X74990798Y-31372122D01*
X75000757Y-31358415D01*
X75017522Y-31339067D01*
X75074879Y-31272873D01*
X75134667Y-31141957D01*
X75148973Y-31042455D01*
X75155149Y-30999502D01*
X75155149Y-30999497D01*
X75134667Y-30857043D01*
X75117251Y-30818907D01*
X75074879Y-30726127D01*
X74980630Y-30617357D01*
X74980629Y-30617356D01*
X74980628Y-30617355D01*
X74859559Y-30539549D01*
X74859556Y-30539547D01*
X74859555Y-30539547D01*
X74859552Y-30539546D01*
X74721466Y-30499000D01*
X74721463Y-30499000D01*
X74577541Y-30499000D01*
X74577537Y-30499000D01*
X74439451Y-30539546D01*
X74439444Y-30539549D01*
X74318375Y-30617355D01*
X74224124Y-30726128D01*
X74164336Y-30857043D01*
X74143855Y-30999497D01*
X74143855Y-30999502D01*
X71641839Y-30999502D01*
X71656145Y-30900000D01*
X71649554Y-30854155D01*
X71659987Y-30793866D01*
X71703865Y-30751223D01*
X71747546Y-30741066D01*
X71784000Y-30741066D01*
X71784002Y-30741066D01*
X71922094Y-30700519D01*
X72043169Y-30622709D01*
X72137418Y-30513939D01*
X72197206Y-30383023D01*
X72204033Y-30335537D01*
X72216332Y-30250002D01*
X76744353Y-30250002D01*
X76764834Y-30392456D01*
X76822103Y-30517855D01*
X76824623Y-30523373D01*
X76914093Y-30626628D01*
X76918873Y-30632144D01*
X77025267Y-30700519D01*
X77039947Y-30709953D01*
X77132116Y-30737016D01*
X77178035Y-30750499D01*
X77178036Y-30750499D01*
X77178039Y-30750500D01*
X77208855Y-30750500D01*
X77267046Y-30769407D01*
X77303010Y-30818907D01*
X77306847Y-30835409D01*
X77307932Y-30842956D01*
X77333984Y-30900000D01*
X77367721Y-30973873D01*
X77461970Y-31082643D01*
X77461971Y-31082644D01*
X77583040Y-31160450D01*
X77583045Y-31160453D01*
X77689501Y-31191711D01*
X77721133Y-31200999D01*
X77721134Y-31200999D01*
X77721137Y-31201000D01*
X77721139Y-31201000D01*
X77865057Y-31201000D01*
X77865059Y-31201000D01*
X78003151Y-31160453D01*
X78124226Y-31082643D01*
X78218475Y-30973873D01*
X78278263Y-30842957D01*
X78293495Y-30737016D01*
X78298745Y-30700502D01*
X78298745Y-30700497D01*
X78278263Y-30558043D01*
X78269816Y-30539546D01*
X78218475Y-30427127D01*
X78124226Y-30318357D01*
X78124225Y-30318356D01*
X78124224Y-30318355D01*
X78003155Y-30240549D01*
X78003152Y-30240547D01*
X78003151Y-30240547D01*
X78003148Y-30240546D01*
X77865062Y-30200000D01*
X77865059Y-30200000D01*
X77834243Y-30200000D01*
X77776052Y-30181093D01*
X77740088Y-30131593D01*
X77736251Y-30115091D01*
X77735165Y-30107543D01*
X77719559Y-30073371D01*
X77686052Y-30000002D01*
X78294353Y-30000002D01*
X78314834Y-30142456D01*
X78360504Y-30242457D01*
X78374623Y-30273373D01*
X78413600Y-30318355D01*
X78468873Y-30382144D01*
X78589942Y-30459950D01*
X78589947Y-30459953D01*
X78696403Y-30491211D01*
X78728035Y-30500499D01*
X78728036Y-30500499D01*
X78728039Y-30500500D01*
X78728041Y-30500500D01*
X78871959Y-30500500D01*
X78871961Y-30500500D01*
X79010053Y-30459953D01*
X79131128Y-30382143D01*
X79225377Y-30273373D01*
X79285165Y-30142457D01*
X79301490Y-30028911D01*
X79305647Y-30000002D01*
X84244353Y-30000002D01*
X84264834Y-30142456D01*
X84310504Y-30242457D01*
X84324623Y-30273373D01*
X84363600Y-30318355D01*
X84418873Y-30382144D01*
X84539942Y-30459950D01*
X84539947Y-30459953D01*
X84646403Y-30491211D01*
X84678035Y-30500499D01*
X84678036Y-30500499D01*
X84678039Y-30500500D01*
X84678041Y-30500500D01*
X84821959Y-30500500D01*
X84821961Y-30500500D01*
X84960053Y-30459953D01*
X85081128Y-30382143D01*
X85175377Y-30273373D01*
X85235165Y-30142457D01*
X85251490Y-30028911D01*
X85255647Y-30000002D01*
X85255647Y-29999997D01*
X85235165Y-29857543D01*
X85221046Y-29826627D01*
X85175377Y-29726627D01*
X85106180Y-29646769D01*
X89067737Y-29646769D01*
X89088218Y-29789223D01*
X89119821Y-29858423D01*
X89148007Y-29920140D01*
X89242256Y-30028910D01*
X89242257Y-30028911D01*
X89363326Y-30106717D01*
X89363331Y-30106720D01*
X89448042Y-30131593D01*
X89501419Y-30147266D01*
X89501420Y-30147266D01*
X89501423Y-30147267D01*
X89501425Y-30147267D01*
X89645343Y-30147267D01*
X89645345Y-30147267D01*
X89783437Y-30106720D01*
X89904512Y-30028910D01*
X89998761Y-29920140D01*
X90058549Y-29789224D01*
X90079031Y-29646767D01*
X90074874Y-29617857D01*
X90058549Y-29504310D01*
X90022871Y-29426187D01*
X89998761Y-29373394D01*
X89904512Y-29264624D01*
X89904511Y-29264623D01*
X89904510Y-29264622D01*
X89783441Y-29186816D01*
X89783438Y-29186814D01*
X89783437Y-29186814D01*
X89783434Y-29186813D01*
X89645348Y-29146267D01*
X89645345Y-29146267D01*
X89501423Y-29146267D01*
X89501419Y-29146267D01*
X89363333Y-29186813D01*
X89363326Y-29186816D01*
X89242257Y-29264622D01*
X89148006Y-29373395D01*
X89088218Y-29504310D01*
X89067737Y-29646764D01*
X89067737Y-29646769D01*
X85106180Y-29646769D01*
X85081128Y-29617857D01*
X85081127Y-29617856D01*
X85081126Y-29617855D01*
X84960057Y-29540049D01*
X84960054Y-29540047D01*
X84960053Y-29540047D01*
X84960050Y-29540046D01*
X84821964Y-29499500D01*
X84821961Y-29499500D01*
X84678039Y-29499500D01*
X84678035Y-29499500D01*
X84539949Y-29540046D01*
X84539942Y-29540049D01*
X84418873Y-29617855D01*
X84324622Y-29726628D01*
X84264834Y-29857543D01*
X84244353Y-29999997D01*
X84244353Y-30000002D01*
X79305647Y-30000002D01*
X79305647Y-29999997D01*
X79285165Y-29857543D01*
X79271046Y-29826627D01*
X79225377Y-29726627D01*
X79131128Y-29617857D01*
X79131127Y-29617856D01*
X79131126Y-29617855D01*
X79010057Y-29540049D01*
X79010054Y-29540047D01*
X79010053Y-29540047D01*
X79010050Y-29540046D01*
X78871964Y-29499500D01*
X78871961Y-29499500D01*
X78728039Y-29499500D01*
X78728035Y-29499500D01*
X78589949Y-29540046D01*
X78589942Y-29540049D01*
X78468873Y-29617855D01*
X78374622Y-29726628D01*
X78314834Y-29857543D01*
X78294353Y-29999997D01*
X78294353Y-30000002D01*
X77686052Y-30000002D01*
X77675377Y-29976627D01*
X77581128Y-29867857D01*
X77581127Y-29867856D01*
X77581126Y-29867855D01*
X77460057Y-29790049D01*
X77460054Y-29790047D01*
X77460053Y-29790047D01*
X77460050Y-29790046D01*
X77321964Y-29749500D01*
X77321961Y-29749500D01*
X77178039Y-29749500D01*
X77178035Y-29749500D01*
X77039949Y-29790046D01*
X77039942Y-29790049D01*
X76918873Y-29867855D01*
X76824622Y-29976628D01*
X76764834Y-30107543D01*
X76744353Y-30249997D01*
X76744353Y-30250002D01*
X72216332Y-30250002D01*
X72217688Y-30240568D01*
X72217688Y-30240563D01*
X72197206Y-30098109D01*
X72165604Y-30028911D01*
X72137418Y-29967193D01*
X72043169Y-29858423D01*
X72043168Y-29858422D01*
X72043167Y-29858421D01*
X71922098Y-29780615D01*
X71922095Y-29780613D01*
X71922094Y-29780613D01*
X71922091Y-29780612D01*
X71784005Y-29740066D01*
X71784002Y-29740066D01*
X71640080Y-29740066D01*
X71640076Y-29740066D01*
X71501990Y-29780612D01*
X71501983Y-29780615D01*
X71380914Y-29858421D01*
X71286663Y-29967194D01*
X71226875Y-30098109D01*
X71206394Y-30240563D01*
X71206394Y-30240568D01*
X71212985Y-30286411D01*
X71202552Y-30346700D01*
X71158674Y-30389343D01*
X71114993Y-30399500D01*
X71078533Y-30399500D01*
X70940447Y-30440046D01*
X70940440Y-30440049D01*
X70819371Y-30517855D01*
X70725120Y-30626628D01*
X70665332Y-30757543D01*
X70644851Y-30899997D01*
X70644851Y-30900002D01*
X70205647Y-30900002D01*
X70205647Y-30900000D01*
X70197445Y-30842956D01*
X70185165Y-30757543D01*
X70177640Y-30741065D01*
X70125377Y-30626627D01*
X70059875Y-30551033D01*
X70036057Y-30494674D01*
X70049916Y-30435079D01*
X70059866Y-30421382D01*
X70101466Y-30373373D01*
X70161254Y-30242457D01*
X70177194Y-30131593D01*
X70181736Y-30100002D01*
X70181736Y-30099997D01*
X70161254Y-29957543D01*
X70144172Y-29920140D01*
X70101466Y-29826627D01*
X70048908Y-29765972D01*
X70025092Y-29709613D01*
X70038951Y-29650018D01*
X70048898Y-29636326D01*
X70117545Y-29557103D01*
X70177333Y-29426187D01*
X70197815Y-29283730D01*
X70193037Y-29250500D01*
X70177333Y-29141273D01*
X70117545Y-29010358D01*
X70117545Y-29010357D01*
X70031638Y-28911214D01*
X70007821Y-28854854D01*
X70021680Y-28795259D01*
X70031633Y-28781559D01*
X70058977Y-28750002D01*
X78744353Y-28750002D01*
X78764834Y-28892456D01*
X78814177Y-29000499D01*
X78824623Y-29023373D01*
X78918872Y-29132143D01*
X78918873Y-29132144D01*
X78940849Y-29146267D01*
X79039947Y-29209953D01*
X79146403Y-29241211D01*
X79178035Y-29250499D01*
X79178036Y-29250499D01*
X79178039Y-29250500D01*
X79178041Y-29250500D01*
X79321959Y-29250500D01*
X79321961Y-29250500D01*
X79460053Y-29209953D01*
X79581128Y-29132143D01*
X79675377Y-29023373D01*
X79735165Y-28892457D01*
X79748386Y-28800500D01*
X79755647Y-28750002D01*
X79755647Y-28749997D01*
X79735165Y-28607543D01*
X79705440Y-28542456D01*
X79686052Y-28500002D01*
X84494353Y-28500002D01*
X84514834Y-28642456D01*
X84563947Y-28749997D01*
X84574623Y-28773373D01*
X84645226Y-28854854D01*
X84668873Y-28882144D01*
X84700042Y-28902175D01*
X84789947Y-28959953D01*
X84896403Y-28991211D01*
X84928035Y-29000499D01*
X84928036Y-29000499D01*
X84928039Y-29000500D01*
X84928041Y-29000500D01*
X85071959Y-29000500D01*
X85071961Y-29000500D01*
X85210053Y-28959953D01*
X85331128Y-28882143D01*
X85425377Y-28773373D01*
X85485165Y-28642457D01*
X85505575Y-28500500D01*
X85505647Y-28500002D01*
X85505647Y-28499997D01*
X85485165Y-28357543D01*
X85459114Y-28300500D01*
X85425377Y-28226627D01*
X85331128Y-28117857D01*
X85331127Y-28117856D01*
X85331126Y-28117855D01*
X85210057Y-28040049D01*
X85210054Y-28040047D01*
X85210053Y-28040047D01*
X85210050Y-28040046D01*
X85071964Y-27999500D01*
X85071961Y-27999500D01*
X84928039Y-27999500D01*
X84928035Y-27999500D01*
X84789949Y-28040046D01*
X84789942Y-28040049D01*
X84668873Y-28117855D01*
X84574622Y-28226628D01*
X84514834Y-28357543D01*
X84494353Y-28499997D01*
X84494353Y-28500002D01*
X79686052Y-28500002D01*
X79675377Y-28476627D01*
X79581128Y-28367857D01*
X79581127Y-28367856D01*
X79581126Y-28367855D01*
X79460057Y-28290049D01*
X79460054Y-28290047D01*
X79460053Y-28290047D01*
X79460050Y-28290046D01*
X79321964Y-28249500D01*
X79321961Y-28249500D01*
X79178039Y-28249500D01*
X79178035Y-28249500D01*
X79039949Y-28290046D01*
X79039942Y-28290049D01*
X78918873Y-28367855D01*
X78824622Y-28476628D01*
X78764834Y-28607543D01*
X78744353Y-28749997D01*
X78744353Y-28750002D01*
X70058977Y-28750002D01*
X70125377Y-28673373D01*
X70185165Y-28542457D01*
X70205647Y-28400000D01*
X70201025Y-28367855D01*
X70185165Y-28257543D01*
X70150731Y-28182144D01*
X70125377Y-28126627D01*
X70031128Y-28017857D01*
X70031127Y-28017856D01*
X70031126Y-28017855D01*
X70003346Y-28000002D01*
X70894353Y-28000002D01*
X70914834Y-28142456D01*
X70968493Y-28259950D01*
X70974623Y-28273373D01*
X71056493Y-28367857D01*
X71068873Y-28382144D01*
X71189942Y-28459950D01*
X71189947Y-28459953D01*
X71296403Y-28491211D01*
X71328035Y-28500499D01*
X71328036Y-28500499D01*
X71328039Y-28500500D01*
X71328041Y-28500500D01*
X71471959Y-28500500D01*
X71471961Y-28500500D01*
X71610053Y-28459953D01*
X71731128Y-28382143D01*
X71825377Y-28273373D01*
X71885165Y-28142457D01*
X71905647Y-28000000D01*
X71905575Y-27999500D01*
X71885165Y-27857543D01*
X71877174Y-27840046D01*
X71825377Y-27726627D01*
X71731128Y-27617857D01*
X71731127Y-27617856D01*
X71731126Y-27617855D01*
X71610057Y-27540049D01*
X71610054Y-27540047D01*
X71610053Y-27540047D01*
X71610050Y-27540046D01*
X71471964Y-27499500D01*
X71471961Y-27499500D01*
X71328039Y-27499500D01*
X71328035Y-27499500D01*
X71189949Y-27540046D01*
X71189942Y-27540049D01*
X71068873Y-27617855D01*
X70974622Y-27726628D01*
X70914834Y-27857543D01*
X70894353Y-27999997D01*
X70894353Y-28000002D01*
X70003346Y-28000002D01*
X69910057Y-27940049D01*
X69910054Y-27940047D01*
X69910053Y-27940047D01*
X69910050Y-27940046D01*
X69771964Y-27899500D01*
X69771961Y-27899500D01*
X69628039Y-27899500D01*
X69628035Y-27899500D01*
X69489949Y-27940046D01*
X69489942Y-27940049D01*
X69368873Y-28017855D01*
X69274622Y-28126628D01*
X69214834Y-28257543D01*
X69194353Y-28399997D01*
X69194353Y-28400002D01*
X69214834Y-28542456D01*
X69260504Y-28642457D01*
X69274623Y-28673373D01*
X69360529Y-28772515D01*
X69384346Y-28828874D01*
X69370487Y-28888469D01*
X69360529Y-28902175D01*
X69266791Y-29010356D01*
X69207002Y-29141273D01*
X69186521Y-29283727D01*
X69186521Y-29283732D01*
X69207002Y-29426186D01*
X69266791Y-29557103D01*
X69319346Y-29617755D01*
X69343164Y-29674114D01*
X69329306Y-29733709D01*
X69319347Y-29747416D01*
X69250712Y-29826626D01*
X69190923Y-29957543D01*
X69170442Y-30099997D01*
X69170442Y-30100002D01*
X69190923Y-30242456D01*
X69250712Y-30373373D01*
X69316213Y-30448966D01*
X69340031Y-30505325D01*
X69326172Y-30564921D01*
X69316214Y-30578627D01*
X69274623Y-30626626D01*
X69214834Y-30757543D01*
X69194353Y-30899997D01*
X69194353Y-30900002D01*
X69214834Y-31042456D01*
X69222560Y-31059373D01*
X69229535Y-31120160D01*
X69199449Y-31173437D01*
X69143793Y-31198855D01*
X69132507Y-31199500D01*
X69055727Y-31199500D01*
X69028636Y-31195721D01*
X69028207Y-31195599D01*
X68988385Y-31199289D01*
X68983816Y-31199500D01*
X68972156Y-31199500D01*
X68960696Y-31201641D01*
X68956170Y-31202272D01*
X68916344Y-31205964D01*
X68916334Y-31205966D01*
X68915929Y-31206169D01*
X68890012Y-31214855D01*
X68889570Y-31214937D01*
X68889568Y-31214938D01*
X68855573Y-31235986D01*
X68851580Y-31238211D01*
X68815769Y-31256043D01*
X68815465Y-31256378D01*
X68794435Y-31273840D01*
X68794053Y-31274076D01*
X68794047Y-31274081D01*
X68769944Y-31305998D01*
X68767023Y-31309516D01*
X68740085Y-31339064D01*
X68740081Y-31339070D01*
X68739918Y-31339493D01*
X68726616Y-31363374D01*
X68726348Y-31363728D01*
X68726344Y-31363736D01*
X68715398Y-31402202D01*
X68713945Y-31406536D01*
X68699500Y-31443825D01*
X68699500Y-31444272D01*
X68695722Y-31471361D01*
X68695599Y-31471790D01*
X68695599Y-31471794D01*
X68699289Y-31511615D01*
X68699500Y-31516184D01*
X68699500Y-54944272D01*
X68695722Y-54971361D01*
X68695599Y-54971790D01*
X68695599Y-54971794D01*
X61400500Y-54971794D01*
X61400500Y-49000002D01*
X61694352Y-49000002D01*
X61714834Y-49142456D01*
X61760504Y-49242457D01*
X61774623Y-49273373D01*
X61852385Y-49363116D01*
X61868873Y-49382144D01*
X61938092Y-49426628D01*
X61989947Y-49459953D01*
X62096403Y-49491211D01*
X62128035Y-49500499D01*
X62128036Y-49500499D01*
X62128039Y-49500500D01*
X62128041Y-49500500D01*
X62271959Y-49500500D01*
X62271961Y-49500500D01*
X62410053Y-49459953D01*
X62531128Y-49382143D01*
X62625377Y-49273373D01*
X62685165Y-49142457D01*
X62705647Y-49000000D01*
X62704936Y-48995056D01*
X62685165Y-48857543D01*
X62654340Y-48790046D01*
X62625377Y-48726627D01*
X62531128Y-48617857D01*
X62531127Y-48617856D01*
X62531126Y-48617855D01*
X62410057Y-48540049D01*
X62410054Y-48540047D01*
X62410053Y-48540047D01*
X62410050Y-48540046D01*
X62271964Y-48499500D01*
X62271961Y-48499500D01*
X62128039Y-48499500D01*
X62128035Y-48499500D01*
X61989949Y-48540046D01*
X61989942Y-48540049D01*
X61868873Y-48617855D01*
X61774622Y-48726628D01*
X61714834Y-48857543D01*
X61694352Y-48999997D01*
X61694352Y-49000002D01*
X61400500Y-49000002D01*
X61400500Y-46980002D01*
X62774352Y-46980002D01*
X62794834Y-47122456D01*
X62837705Y-47216329D01*
X62854623Y-47253373D01*
X62948872Y-47362143D01*
X62948873Y-47362144D01*
X63069942Y-47439950D01*
X63069947Y-47439953D01*
X63139758Y-47460451D01*
X63208035Y-47480499D01*
X63208036Y-47480499D01*
X63208039Y-47480500D01*
X63208041Y-47480500D01*
X63351959Y-47480500D01*
X63351961Y-47480500D01*
X63490053Y-47439953D01*
X63611128Y-47362143D01*
X63705377Y-47253373D01*
X63765165Y-47122457D01*
X63782700Y-47000498D01*
X63785647Y-46980002D01*
X63785647Y-46979997D01*
X63765165Y-46837543D01*
X63718617Y-46735619D01*
X63705377Y-46706627D01*
X63611128Y-46597857D01*
X63611127Y-46597856D01*
X63611126Y-46597855D01*
X63490057Y-46520049D01*
X63490054Y-46520047D01*
X63490053Y-46520047D01*
X63490050Y-46520046D01*
X63351964Y-46479500D01*
X63351961Y-46479500D01*
X63208039Y-46479500D01*
X63208035Y-46479500D01*
X63069949Y-46520046D01*
X63069942Y-46520049D01*
X62948873Y-46597855D01*
X62854622Y-46706628D01*
X62794834Y-46837543D01*
X62774352Y-46979997D01*
X62774352Y-46980002D01*
X61400500Y-46980002D01*
X61400500Y-45500002D01*
X62094352Y-45500002D01*
X62114834Y-45642456D01*
X62151969Y-45723768D01*
X62174623Y-45773373D01*
X62245078Y-45854683D01*
X62268873Y-45882144D01*
X62389942Y-45959950D01*
X62389947Y-45959953D01*
X62496403Y-45991211D01*
X62528035Y-46000499D01*
X62528036Y-46000499D01*
X62528039Y-46000500D01*
X62528041Y-46000500D01*
X62671959Y-46000500D01*
X62671961Y-46000500D01*
X62810053Y-45959953D01*
X62931128Y-45882143D01*
X63025377Y-45773373D01*
X63085165Y-45642457D01*
X63105575Y-45500500D01*
X63105647Y-45500002D01*
X63105647Y-45499997D01*
X63085165Y-45357543D01*
X63046725Y-45273373D01*
X63025377Y-45226627D01*
X62931128Y-45117857D01*
X62931127Y-45117856D01*
X62931126Y-45117855D01*
X62810057Y-45040049D01*
X62810054Y-45040047D01*
X62810053Y-45040047D01*
X62795470Y-45035765D01*
X62671964Y-44999500D01*
X62671961Y-44999500D01*
X62528039Y-44999500D01*
X62528035Y-44999500D01*
X62389949Y-45040046D01*
X62389942Y-45040049D01*
X62268873Y-45117855D01*
X62174622Y-45226628D01*
X62114834Y-45357543D01*
X62094352Y-45499997D01*
X62094352Y-45500002D01*
X61400500Y-45500002D01*
X61400500Y-43600002D01*
X64194352Y-43600002D01*
X64214834Y-43742456D01*
X64260504Y-43842457D01*
X64274623Y-43873373D01*
X64364093Y-43976628D01*
X64368873Y-43982144D01*
X64436836Y-44025821D01*
X64489947Y-44059953D01*
X64596403Y-44091211D01*
X64628035Y-44100499D01*
X64628036Y-44100499D01*
X64628039Y-44100500D01*
X64628041Y-44100500D01*
X64771959Y-44100500D01*
X64771961Y-44100500D01*
X64910053Y-44059953D01*
X65031128Y-43982143D01*
X65125377Y-43873373D01*
X65185165Y-43742457D01*
X65192673Y-43690234D01*
X65205647Y-43600002D01*
X65205647Y-43599997D01*
X65185165Y-43457543D01*
X65125377Y-43326628D01*
X65125377Y-43326627D01*
X65031128Y-43217857D01*
X65031127Y-43217856D01*
X65031126Y-43217855D01*
X64910057Y-43140049D01*
X64910054Y-43140047D01*
X64910053Y-43140047D01*
X64882794Y-43132043D01*
X64771964Y-43099500D01*
X64771961Y-43099500D01*
X64628039Y-43099500D01*
X64628035Y-43099500D01*
X64489949Y-43140046D01*
X64489942Y-43140049D01*
X64368873Y-43217855D01*
X64274622Y-43326628D01*
X64214834Y-43457543D01*
X64194352Y-43599997D01*
X64194352Y-43600002D01*
X61400500Y-43600002D01*
X61400500Y-42300002D01*
X64194852Y-42300002D01*
X64215334Y-42442456D01*
X64275122Y-42573371D01*
X64275123Y-42573373D01*
X64352659Y-42662855D01*
X64369373Y-42682144D01*
X64410252Y-42708415D01*
X64490447Y-42759953D01*
X64596903Y-42791211D01*
X64628535Y-42800499D01*
X64628536Y-42800499D01*
X64628539Y-42800500D01*
X64628541Y-42800500D01*
X64772459Y-42800500D01*
X64772461Y-42800500D01*
X64910553Y-42759953D01*
X65031628Y-42682143D01*
X65125877Y-42573373D01*
X65185665Y-42442457D01*
X65201396Y-42333043D01*
X65206147Y-42300002D01*
X65206147Y-42299997D01*
X65185665Y-42157543D01*
X65178775Y-42142456D01*
X65125877Y-42026627D01*
X65031628Y-41917857D01*
X65031627Y-41917856D01*
X65031626Y-41917855D01*
X64910557Y-41840049D01*
X64910554Y-41840047D01*
X64910553Y-41840047D01*
X64910550Y-41840046D01*
X64772464Y-41799500D01*
X64772461Y-41799500D01*
X64628539Y-41799500D01*
X64628535Y-41799500D01*
X64490449Y-41840046D01*
X64490442Y-41840049D01*
X64369373Y-41917855D01*
X64275122Y-42026628D01*
X64215334Y-42157543D01*
X64194852Y-42299997D01*
X64194852Y-42300002D01*
X61400500Y-42300002D01*
X61400500Y-39900002D01*
X65194352Y-39900002D01*
X65214834Y-40042456D01*
X65252988Y-40125999D01*
X65274623Y-40173373D01*
X65322869Y-40229052D01*
X65368873Y-40282144D01*
X65424441Y-40317855D01*
X65489947Y-40359953D01*
X65596403Y-40391211D01*
X65628035Y-40400499D01*
X65628036Y-40400499D01*
X65628039Y-40400500D01*
X65628041Y-40400500D01*
X65771959Y-40400500D01*
X65771961Y-40400500D01*
X65910053Y-40359953D01*
X66031128Y-40282143D01*
X66125377Y-40173373D01*
X66185165Y-40042457D01*
X66205647Y-39900000D01*
X66185165Y-39757543D01*
X66125377Y-39626627D01*
X66031128Y-39517857D01*
X66031127Y-39517856D01*
X66031126Y-39517855D01*
X65910057Y-39440049D01*
X65910054Y-39440047D01*
X65910053Y-39440047D01*
X65910050Y-39440046D01*
X65771964Y-39399500D01*
X65771961Y-39399500D01*
X65628039Y-39399500D01*
X65628035Y-39399500D01*
X65489949Y-39440046D01*
X65489942Y-39440049D01*
X65368873Y-39517855D01*
X65274622Y-39626628D01*
X65214834Y-39757543D01*
X65194352Y-39899997D01*
X65194352Y-39900002D01*
X61400500Y-39900002D01*
X61400500Y-38520002D01*
X65894352Y-38520002D01*
X65914834Y-38662456D01*
X65965489Y-38773373D01*
X65974623Y-38793373D01*
X65997401Y-38819660D01*
X66068873Y-38902144D01*
X66155076Y-38957543D01*
X66189947Y-38979953D01*
X66256519Y-38999500D01*
X66328035Y-39020499D01*
X66328036Y-39020499D01*
X66328039Y-39020500D01*
X66328041Y-39020500D01*
X66471959Y-39020500D01*
X66471961Y-39020500D01*
X66610053Y-38979953D01*
X66731128Y-38902143D01*
X66825377Y-38793373D01*
X66885165Y-38662457D01*
X66905647Y-38520000D01*
X66902771Y-38500000D01*
X66885165Y-38377543D01*
X66876031Y-38357543D01*
X66825377Y-38246627D01*
X66731128Y-38137857D01*
X66731127Y-38137856D01*
X66731126Y-38137855D01*
X66610057Y-38060049D01*
X66610054Y-38060047D01*
X66610053Y-38060047D01*
X66610050Y-38060046D01*
X66471964Y-38019500D01*
X66471961Y-38019500D01*
X66328039Y-38019500D01*
X66328035Y-38019500D01*
X66189949Y-38060046D01*
X66189942Y-38060049D01*
X66068873Y-38137855D01*
X65974622Y-38246628D01*
X65914834Y-38377543D01*
X65894352Y-38519997D01*
X65894352Y-38520002D01*
X61400500Y-38520002D01*
X61400500Y-35718502D01*
X63918852Y-35718502D01*
X63939334Y-35860956D01*
X63942485Y-35867855D01*
X63999123Y-35991873D01*
X64076911Y-36081646D01*
X64093373Y-36100644D01*
X64184885Y-36159455D01*
X64214447Y-36178453D01*
X64320903Y-36209711D01*
X64352535Y-36218999D01*
X64352536Y-36218999D01*
X64352539Y-36219000D01*
X64352541Y-36219000D01*
X64496459Y-36219000D01*
X64496461Y-36219000D01*
X64634553Y-36178453D01*
X64755628Y-36100643D01*
X64849877Y-35991873D01*
X64909665Y-35860957D01*
X64930147Y-35718500D01*
X64909665Y-35576043D01*
X64849877Y-35445127D01*
X64755628Y-35336357D01*
X64755627Y-35336356D01*
X64755626Y-35336355D01*
X64634557Y-35258549D01*
X64634554Y-35258547D01*
X64634553Y-35258547D01*
X64634550Y-35258546D01*
X64496464Y-35218000D01*
X64496461Y-35218000D01*
X64352539Y-35218000D01*
X64352535Y-35218000D01*
X64214449Y-35258546D01*
X64214442Y-35258549D01*
X64093373Y-35336355D01*
X63999122Y-35445128D01*
X63939334Y-35576043D01*
X63918852Y-35718497D01*
X63918852Y-35718502D01*
X61400500Y-35718502D01*
X61400500Y-33000002D01*
X61694352Y-33000002D01*
X61714834Y-33142456D01*
X61760504Y-33242457D01*
X61774623Y-33273373D01*
X61847556Y-33357543D01*
X61868873Y-33382144D01*
X61986197Y-33457543D01*
X61989947Y-33459953D01*
X62065527Y-33482145D01*
X62128035Y-33500499D01*
X62128036Y-33500499D01*
X62128039Y-33500500D01*
X62128041Y-33500500D01*
X62271959Y-33500500D01*
X62271961Y-33500500D01*
X62410053Y-33459953D01*
X62531128Y-33382143D01*
X62625377Y-33273373D01*
X62685165Y-33142457D01*
X62691269Y-33100002D01*
X67394353Y-33100002D01*
X67414834Y-33242456D01*
X67474622Y-33373371D01*
X67474623Y-33373373D01*
X67565464Y-33478210D01*
X67568873Y-33482144D01*
X67597436Y-33500500D01*
X67689947Y-33559953D01*
X67796403Y-33591211D01*
X67828035Y-33600499D01*
X67828036Y-33600499D01*
X67828039Y-33600500D01*
X67828041Y-33600500D01*
X67971959Y-33600500D01*
X67971961Y-33600500D01*
X68110053Y-33559953D01*
X68231128Y-33482143D01*
X68325377Y-33373373D01*
X68385165Y-33242457D01*
X68399543Y-33142456D01*
X68405647Y-33100002D01*
X68405647Y-33099997D01*
X68385165Y-32957543D01*
X68350731Y-32882144D01*
X68325377Y-32826627D01*
X68231128Y-32717857D01*
X68231127Y-32717856D01*
X68231126Y-32717855D01*
X68110057Y-32640049D01*
X68110054Y-32640047D01*
X68110053Y-32640047D01*
X68110050Y-32640046D01*
X67971964Y-32599500D01*
X67971961Y-32599500D01*
X67828039Y-32599500D01*
X67828035Y-32599500D01*
X67689949Y-32640046D01*
X67689942Y-32640049D01*
X67568873Y-32717855D01*
X67474622Y-32826628D01*
X67414834Y-32957543D01*
X67394353Y-33099997D01*
X67394353Y-33100002D01*
X62691269Y-33100002D01*
X62697028Y-33059950D01*
X62705647Y-33000002D01*
X62705647Y-32999997D01*
X62685165Y-32857543D01*
X62671046Y-32826627D01*
X62625377Y-32726627D01*
X62531128Y-32617857D01*
X62531127Y-32617856D01*
X62531126Y-32617855D01*
X62410057Y-32540049D01*
X62410054Y-32540047D01*
X62410053Y-32540047D01*
X62410050Y-32540046D01*
X62271964Y-32499500D01*
X62271961Y-32499500D01*
X62128039Y-32499500D01*
X62128035Y-32499500D01*
X61989949Y-32540046D01*
X61989942Y-32540049D01*
X61868873Y-32617855D01*
X61774622Y-32726628D01*
X61714834Y-32857543D01*
X61694352Y-32999997D01*
X61694352Y-33000002D01*
X61400500Y-33000002D01*
X61400500Y-29800002D01*
X61794352Y-29800002D01*
X61814834Y-29942456D01*
X61874622Y-30073371D01*
X61874623Y-30073373D01*
X61938651Y-30147266D01*
X61968873Y-30182144D01*
X62074463Y-30250002D01*
X62089947Y-30259953D01*
X62180056Y-30286411D01*
X62228035Y-30300499D01*
X62228036Y-30300499D01*
X62228039Y-30300500D01*
X62228041Y-30300500D01*
X62371959Y-30300500D01*
X62371961Y-30300500D01*
X62510053Y-30259953D01*
X62631128Y-30182143D01*
X62725377Y-30073373D01*
X62785165Y-29942457D01*
X62797247Y-29858423D01*
X62805647Y-29800002D01*
X62805647Y-29799997D01*
X62785165Y-29657543D01*
X62739294Y-29557101D01*
X62725377Y-29526627D01*
X62631128Y-29417857D01*
X62631127Y-29417856D01*
X62631126Y-29417855D01*
X62510057Y-29340049D01*
X62510054Y-29340047D01*
X62510053Y-29340047D01*
X62510050Y-29340046D01*
X62371964Y-29299500D01*
X62371961Y-29299500D01*
X62228039Y-29299500D01*
X62228035Y-29299500D01*
X62089949Y-29340046D01*
X62089942Y-29340049D01*
X61968873Y-29417855D01*
X61874622Y-29526628D01*
X61814834Y-29657543D01*
X61794352Y-29799997D01*
X61794352Y-29800002D01*
X61400500Y-29800002D01*
X61400500Y-28300002D01*
X61794352Y-28300002D01*
X61814834Y-28442456D01*
X61860504Y-28542457D01*
X61874623Y-28573373D01*
X61961271Y-28673371D01*
X61968873Y-28682144D01*
X62074463Y-28750002D01*
X62089947Y-28759953D01*
X62196403Y-28791211D01*
X62228035Y-28800499D01*
X62228036Y-28800499D01*
X62228039Y-28800500D01*
X62228041Y-28800500D01*
X62371959Y-28800500D01*
X62371961Y-28800500D01*
X62510053Y-28759953D01*
X62631128Y-28682143D01*
X62725377Y-28573373D01*
X62785165Y-28442457D01*
X62805575Y-28300500D01*
X62805647Y-28300002D01*
X62805647Y-28299997D01*
X62785165Y-28157543D01*
X62746725Y-28073373D01*
X62725377Y-28026627D01*
X62631128Y-27917857D01*
X62631127Y-27917856D01*
X62631126Y-27917855D01*
X62510057Y-27840049D01*
X62510054Y-27840047D01*
X62510053Y-27840047D01*
X62510050Y-27840046D01*
X62371964Y-27799500D01*
X62371961Y-27799500D01*
X62228039Y-27799500D01*
X62228035Y-27799500D01*
X62089949Y-27840046D01*
X62089942Y-27840049D01*
X61968873Y-27917855D01*
X61874622Y-28026628D01*
X61814834Y-28157543D01*
X61794352Y-28299997D01*
X61794352Y-28300002D01*
X61400500Y-28300002D01*
X61400500Y-27399500D01*
X61419407Y-27341309D01*
X61468907Y-27305345D01*
X61499500Y-27300500D01*
X72281000Y-27300500D01*
X72339191Y-27319407D01*
G37*
%TD.AperFunction*%
%TD*%
M02*
