%TF.GenerationSoftware,KiCad,Pcbnew,7.0.5*%
%TF.CreationDate,2023-07-29T18:05:40+03:00*%
%TF.ProjectId,models-heart,6d6f6465-6c73-42d6-9865-6172742e6b69,rev?*%
%TF.SameCoordinates,Original*%
%TF.FileFunction,Soldermask,Bot*%
%TF.FilePolarity,Negative*%
%FSLAX46Y46*%
G04 Gerber Fmt 4.6, Leading zero omitted, Abs format (unit mm)*
G04 Created by KiCad (PCBNEW 7.0.5) date 2023-07-29 18:05:40*
%MOMM*%
%LPD*%
G01*
G04 APERTURE LIST*
G04 Aperture macros list*
%AMRoundRect*
0 Rectangle with rounded corners*
0 $1 Rounding radius*
0 $2 $3 $4 $5 $6 $7 $8 $9 X,Y pos of 4 corners*
0 Add a 4 corners polygon primitive as box body*
4,1,4,$2,$3,$4,$5,$6,$7,$8,$9,$2,$3,0*
0 Add four circle primitives for the rounded corners*
1,1,$1+$1,$2,$3*
1,1,$1+$1,$4,$5*
1,1,$1+$1,$6,$7*
1,1,$1+$1,$8,$9*
0 Add four rect primitives between the rounded corners*
20,1,$1+$1,$2,$3,$4,$5,0*
20,1,$1+$1,$4,$5,$6,$7,0*
20,1,$1+$1,$6,$7,$8,$9,0*
20,1,$1+$1,$8,$9,$2,$3,0*%
G04 Aperture macros list end*
%ADD10C,1.000000*%
%ADD11RoundRect,0.218750X-0.218750X-0.256250X0.218750X-0.256250X0.218750X0.256250X-0.218750X0.256250X0*%
%ADD12C,0.650000*%
%ADD13R,0.600000X1.150000*%
%ADD14R,0.300000X1.150000*%
%ADD15O,1.000000X1.800000*%
%ADD16O,1.000000X2.100000*%
%ADD17R,2.500000X1.000000*%
%ADD18R,1.000000X1.800000*%
%ADD19C,0.700000*%
%ADD20R,1.400000X1.050000*%
G04 APERTURE END LIST*
D10*
%TO.C,TP26*%
X82000000Y-47750000D03*
%TD*%
%TO.C,TP3*%
X89250000Y-49250000D03*
%TD*%
%TO.C,TP5*%
X87250000Y-51500000D03*
%TD*%
%TO.C,TP23*%
X86000000Y-47750000D03*
%TD*%
D11*
%TO.C,D1*%
X88000000Y-57750000D03*
X89575000Y-57750000D03*
%TD*%
D10*
%TO.C,TP12*%
X70800000Y-51500000D03*
%TD*%
%TO.C,TP4*%
X87250000Y-49250000D03*
%TD*%
D12*
%TO.C,P1*%
X83390000Y-52895000D03*
X77610000Y-52895000D03*
D13*
X83700000Y-51820000D03*
X82900000Y-51820000D03*
D14*
X81750000Y-51820000D03*
X80750000Y-51820000D03*
X80250000Y-51820000D03*
X79250000Y-51820000D03*
D13*
X78100000Y-51820000D03*
X77300000Y-51820000D03*
X77300000Y-51820000D03*
X78100000Y-51820000D03*
D14*
X78750000Y-51820000D03*
X79750000Y-51820000D03*
X81250000Y-51820000D03*
X82250000Y-51820000D03*
D13*
X82900000Y-51820000D03*
X83700000Y-51820000D03*
D15*
X84820000Y-56575000D03*
D16*
X84820000Y-52395000D03*
D15*
X76180000Y-56575000D03*
D16*
X76180000Y-52395000D03*
%TD*%
D10*
%TO.C,TP27*%
X84000000Y-47750000D03*
%TD*%
%TO.C,TP1*%
X70800000Y-45250000D03*
%TD*%
%TO.C,TP2*%
X70800000Y-47250000D03*
%TD*%
%TO.C,TP9*%
X72800000Y-49250000D03*
%TD*%
%TO.C,TP10*%
X72800000Y-51500000D03*
%TD*%
%TO.C,TP20*%
X83000000Y-46500000D03*
%TD*%
%TO.C,TP16*%
X83000000Y-49250000D03*
%TD*%
D17*
%TO.C,U5*%
X88100000Y-28700000D03*
X88100000Y-30700000D03*
X88100000Y-32700000D03*
X88100000Y-34700000D03*
X88100000Y-36700000D03*
X88100000Y-38700000D03*
X88100000Y-40700000D03*
X88100000Y-42700000D03*
D18*
X85500000Y-44200000D03*
X83500000Y-44200000D03*
X81500000Y-44200000D03*
X79500000Y-44200000D03*
X77500000Y-44200000D03*
X75500000Y-44200000D03*
D17*
X72900000Y-42700000D03*
X72900000Y-40700000D03*
X72900000Y-38700000D03*
X72900000Y-36700000D03*
X72900000Y-34700000D03*
X72900000Y-32700000D03*
X72900000Y-30700000D03*
X72900000Y-28700000D03*
%TD*%
D10*
%TO.C,TP7*%
X74800000Y-49250000D03*
%TD*%
%TO.C,TP8*%
X74800000Y-51500000D03*
%TD*%
%TO.C,TP25*%
X80000000Y-47750000D03*
%TD*%
%TO.C,TP6*%
X89250000Y-51500000D03*
%TD*%
%TO.C,TP19*%
X85000000Y-46500000D03*
%TD*%
%TO.C,TP21*%
X81000000Y-46500000D03*
%TD*%
D11*
%TO.C,D2*%
X88000000Y-55000000D03*
X89575000Y-55000000D03*
%TD*%
D10*
%TO.C,TP24*%
X78000000Y-47750000D03*
%TD*%
%TO.C,TP14*%
X79000000Y-49250000D03*
%TD*%
D19*
%TO.C,SW1*%
X72800000Y-57600000D03*
X72800000Y-55800000D03*
D20*
X74600000Y-55980000D03*
X71000000Y-55980000D03*
X74600000Y-57420000D03*
X71000000Y-57420000D03*
%TD*%
D10*
%TO.C,TP22*%
X79000000Y-46500000D03*
%TD*%
%TO.C,TP15*%
X81000000Y-49250000D03*
%TD*%
%TO.C,TP18*%
X77000000Y-46500000D03*
%TD*%
%TO.C,TP11*%
X70800000Y-49250000D03*
%TD*%
%TO.C,TP17*%
X85000000Y-49250000D03*
%TD*%
%TO.C,TP13*%
X77000000Y-49250000D03*
%TD*%
M02*
