M48
; DRILL file {KiCad 7.0.5} date Sat Jul 29 18:06:08 2023
; FORMAT={-:-/ absolute / inch / decimal}
; #@! TF.CreationDate,2023-07-29T18:06:08+03:00
; #@! TF.GenerationSoftware,Kicad,Pcbnew,7.0.5
; #@! TF.FileFunction,Plated,1,4,PTH
FMAT,2
INCH
; #@! TA.AperFunction,Plated,PTH,ComponentDrill
T1C0.0079
; #@! TA.AperFunction,Plated,PTH,ViaDrill
T2C0.0118
; #@! TA.AperFunction,Plated,PTH,ComponentDrill
T3C0.0236
%
G90
G05
T1
X2.9439Y-1.3853
X2.9439Y-1.4444
X3.003Y-1.3853
X3.003Y-1.4444
X3.062Y-1.3853
X3.062Y-1.4444
T2
X2.4409Y-1.2205
X2.4409Y-2.0079
X2.4409Y-2.0866
X2.4409Y-2.1457
X2.4409Y-2.2047
X2.4488Y-1.2992
X2.4488Y-1.9291
X2.4528Y-1.1142
X2.4528Y-1.1732
X2.4528Y-2.252
X2.4646Y-1.7913
X2.4803Y-1.2598
X2.4803Y-1.9882
X2.4913Y-1.8496
X2.5Y-2.0472
X2.5Y-2.1063
X2.5Y-2.1654
X2.5315Y-2.248
X2.5364Y-1.4062
X2.5472Y-1.7165
X2.5473Y-1.6654
X2.5591Y-2.0669
X2.5748Y-1.9291
X2.5787Y-1.9685
X2.5866Y-1.5709
X2.5984Y-1.1417
X2.5984Y-1.2008
X2.5984Y-1.3386
X2.5984Y-2.1063
X2.6102Y-1.8504
X2.6102Y-2.248
X2.6142Y-1.5165
X2.6181Y-2.0079
X2.6378Y-1.9291
X2.6575Y-1.1417
X2.6575Y-1.7913
X2.6575Y-2.1654
X2.6614Y-2.2835
X2.6732Y-1.3031
X2.7432Y-1.185
X2.7436Y-2.2599
X2.7438Y-1.1529
X2.7441Y-1.0866
X2.7441Y-1.1181
X2.7441Y-1.2165
X2.7441Y-2.1969
X2.7442Y-2.2914
X2.7443Y-2.2284
X2.7795Y-1.6024
X2.7815Y-1.9803
X2.7835Y-1.6339
X2.7872Y-1.4433
X2.7874Y-1.7091
X2.7874Y-1.3031
X2.7899Y-1.4867
X2.7953Y-1.378
X2.8012Y-1.2165
X2.8051Y-2.1161
X2.8091Y-1.9803
X2.811Y-1.1024
X2.813Y-2.0689
X2.8142Y-1.8876
X2.815Y-2.1636
X2.8201Y-1.7098
X2.8233Y-1.1906
X2.8321Y-2.258
X2.8366Y-1.4094
X2.8369Y-1.9318
X2.8386Y-1.5551
X2.8402Y-2.2338
X2.8445Y-1.8504
X2.8504Y-1.9803
X2.8543Y-1.7913
X2.8543Y-1.8183
X2.878Y-1.9803
X2.8819Y-1.8465
X2.8829Y-1.8045
X2.8849Y-1.4094
X2.8912Y-1.7731
X2.8925Y-2.2914
X2.8973Y-2.0195
X2.9153Y-1.9803
X2.9173Y-1.8174
X2.9232Y-2.0374
X2.9331Y-1.8898
X2.939Y-1.2205
X2.939Y-1.2538
X2.9429Y-1.9803
X2.9429Y-2.1565
X2.9446Y-1.6848
X2.9528Y-1.8996
X2.9601Y-2.2835
X2.9705Y-1.9803
X2.9724Y-1.9193
X2.977Y-1.6817
X2.9823Y-1.0945
X2.9882Y-1.6142
X2.9921Y-1.122
X2.9955Y-1.5601
X2.9961Y-1.9803
X3.0039Y-1.5157
X3.0039Y-1.5394
X3.0079Y-1.6378
X3.0079Y-1.9331
X3.016Y-1.7945
X3.0197Y-1.6142
X3.0236Y-1.9803
X3.0315Y-2.2539
X3.0315Y-2.2854
X3.0413Y-1.1909
X3.0413Y-1.998
X3.0571Y-1.9799
X3.0593Y-1.7961
X3.0724Y-1.6531
X3.0736Y-1.6852
X3.0787Y-1.9331
X3.0827Y-1.7913
X3.0827Y-1.9803
X3.0905Y-1.7707
X3.0906Y-2.0866
X3.0906Y-1.7441
X3.1102Y-1.9803
X3.1181Y-1.7953
X3.1201Y-1.1319
X3.1206Y-2.2632
X3.1341Y-1.2604
X3.1378Y-1.9803
X3.1457Y-2.0825
X3.1496Y-1.9488
X3.1496Y-2.1457
X3.1654Y-1.9803
X3.1726Y-1.9175
X3.1742Y-1.2589
X3.1779Y-2.0833
X3.1791Y-2.1457
X3.1929Y-1.9803
X3.2047Y-2.2666
X3.2087Y-1.4764
X3.2087Y-2.1457
X3.2185Y-1.1516
X3.2185Y-1.2008
X3.2185Y-1.3878
X3.2205Y-1.9803
X3.2283Y-1.9193
X3.2441Y-1.2835
X3.248Y-1.7618
X3.248Y-1.9803
X3.248Y-2.0866
X3.2512Y-2.1232
X3.2756Y-1.9803
X3.2835Y-2.273
X3.2874Y-1.1024
X3.2909Y-1.8151
X3.2972Y-1.5453
X3.3071Y-1.4272
X3.3071Y-1.9803
X3.3122Y-1.9197
X3.3268Y-1.7421
X3.3297Y-1.6452
X3.3346Y-1.9803
X3.3366Y-1.1811
X3.3366Y-1.6732
X3.3465Y-1.122
X3.3543Y-1.6339
X3.3543Y-1.6575
X3.3563Y-1.2795
X3.3622Y-1.9803
X3.376Y-1.3583
X3.376Y-1.8012
X3.3775Y-2.2736
X3.378Y-1.2913
X3.378Y-1.3189
X3.378Y-1.6457
X3.3858Y-2.1358
X3.3898Y-1.9803
X3.3937Y-1.437
X3.4016Y-2.2047
X3.4044Y-1.2411
X3.4154Y-1.6535
X3.4154Y-1.7717
X3.4178Y-1.855
X3.419Y-2.2309
X3.4213Y-1.9803
X3.4331Y-1.3228
X3.435Y-2.1949
X3.4449Y-2.0965
X3.4488Y-1.0945
X3.4488Y-1.9803
X3.4547Y-1.563
X3.4567Y-1.9213
X3.4569Y-2.0603
X3.4646Y-1.4055
X3.4646Y-1.8406
X3.4843Y-1.6437
X3.4843Y-1.9488
X3.4882Y-1.9803
X3.4945Y-2.2388
X3.5118Y-1.248
X3.5138Y-1.9803
X3.5194Y-2.0781
X3.5197Y-2.1177
X3.5197Y-1.7913
X3.5202Y-1.4841
X3.5225Y-1.6411
X3.5265Y-1.1672
X3.5413Y-1.9803
X3.5433Y-1.31
X3.5433Y-1.8504
X3.5433Y-2.2303
X3.5512Y-1.1152
X3.5512Y-2.0187
T3
G00X2.9992Y-2.0844
M15
G01X2.9992Y-2.0411
M16
G05
G00X2.9992Y-2.2431
M15
G01X2.9992Y-2.2116
M16
G05
G00X3.3394Y-2.0844
M15
G01X3.3394Y-2.0411
M16
G05
G00X3.3394Y-2.2431
M15
G01X3.3394Y-2.2116
M16
G05
T0
M30
