<?xml version="1.0" encoding="UTF-8"?>
<!DOCTYPE svg PUBLIC "-//W3C//DTD SVG 1.1//EN" "http://www.w3.org/Graphics/SVG/1.1/DTD/svg11.dtd">
<!-- Creator: CorelDRAW X7 -->
<svg xmlns="http://www.w3.org/2000/svg" xml:space="preserve" width="147.532mm" height="154.067mm" version="1.1" style="shape-rendering:geometricPrecision; text-rendering:geometricPrecision; image-rendering:optimizeQuality; fill-rule:evenodd; clip-rule:evenodd"
viewBox="0 0 26436 27607"
 xmlns:xlink="http://www.w3.org/1999/xlink">
 <defs>
  <style type="text/css">
   <![CDATA[
    .fil2 {fill:#EBECEC}
    .fil0 {fill:#C60068}
    .fil3 {fill:#EBECEC;fill-rule:nonzero}
    .fil1 {fill:#C60068;fill-opacity:0.501961}
   ]]>
  </style>
 </defs>
 <g id="Layer_x0020_1">
  <metadata id="CorelCorpID_0Corel-Layer"/>
  <rect class="fil0" width="8150" height="27607"/>
  <polygon class="fil1" points="0,9110 0,4350 26436,4350 26436,9110 "/>
  <polygon class="fil1" points="0,16231 0,11471 26436,11471 26436,16231 "/>
  <polygon class="fil1" points="0,23133 0,18374 26436,18374 26436,23133 "/>
  <path class="fil2" d="M4888 3729l-899 0c-60,189 -94,454 -132,678 -61,349 -127,270 -425,396 -518,219 -428,-161 -1034,-400l-623 620c149,478 603,512 400,992 -41,97 -75,182 -117,277 -121,277 -305,161 -938,318l-18 912 877 164c213,749 423,454 6,1084 -80,122 -160,206 -211,334l621 627c186,-63 338,-209 500,-326 332,-237 236,-50 562,16l618 -1450c-128,-123 -692,-402 -553,-1081 202,-992 1596,-999 1825,-31 162,683 -376,951 -534,1107l590 1462c327,-70 248,-252 553,-38 153,108 342,279 522,338l629 -620c-91,-218 -313,-432 -424,-644 -89,-170 159,-582 214,-781l864 -157 12 -916c-993,-229 -817,4 -1059,-567 -227,-534 229,-506 387,-1019l-622 -622c-170,68 -344,212 -500,320 -242,167 -218,214 -534,81 -300,-127 -364,-47 -425,-396 -40,-226 -73,-490 -132,-678z"/>
  <path class="fil3" d="M4438 12061c375,-750 750,-1125 1500,-1125 828,0 1500,672 1500,1500 0,1500 -1500,3001 -3000,4501 -1501,-1500 -3001,-3001 -3001,-4501 0,-828 672,-1500 1500,-1500 750,0 1126,375 1501,1125z"/>
  <path class="fil2" d="M4226 17889c-587,43 -1195,276 -1626,625 -86,69 -310,272 -392,363 -16,18 -23,31 -39,49 -510,579 -779,1387 -719,2176 49,642 271,1145 625,1621 53,71 109,140 173,200 33,31 57,62 91,95 20,19 32,28 51,47 19,18 28,33 48,51 18,16 31,23 49,39 571,508 1395,780 2172,719 595,-46 1314,-317 1722,-709l192 -181c156,-163 287,-307 416,-526 93,-159 178,-312 250,-504 365,-975 212,-2111 -435,-2914 -113,-141 -136,-168 -264,-293 -302,-294 -623,-515 -1029,-668 -397,-149 -824,-223 -1285,-190zm37 917c-1086,87 -2004,1058 -1896,2261 45,507 221,827 503,1178 133,167 307,303 491,418 363,226 814,332 1259,294 1084,-90 1993,-1052 1893,-2256 -91,-1089 -1051,-1992 -2250,-1895zm-827 857l586 595c98,-54 148,-81 273,-113l1 -833c-267,0 -679,183 -860,351zm1146 397l1 86c125,27 179,62 273,110l590 -589c-175,-153 -537,-345 -864,-356l0 749zm-1359 1827l594 -589c-37,-93 -91,-143 -109,-275l-839 0c19,190 57,328 123,487 42,102 161,304 231,377zm1840 -589l590 593c166,-205 331,-511 357,-869l-839 0c-7,52 -23,99 -41,145 -19,47 -51,89 -67,131zm-2 -846c21,75 67,94 113,284l833 1c4,-148 -69,-359 -120,-483 -30,-72 -66,-139 -105,-201 -23,-36 -38,-55 -62,-91 -22,-32 -46,-59 -62,-89 -53,22 -244,231 -299,286 -52,52 -96,96 -148,148 -40,41 -108,116 -150,145zm-2188 285l832 -1c45,-189 89,-206 113,-283l-440 -436c-46,-46 -99,-118 -157,-144 -72,111 -161,219 -226,372 -49,116 -128,350 -122,492zm560 1364c110,72 218,163 371,227 128,54 337,124 493,124l-1 -838c-178,-42 -156,-58 -272,-110 -24,13 -566,537 -591,597zm1149 -487l0 838c171,-5 342,-63 485,-121 152,-62 271,-155 379,-230 -22,-51 -236,-249 -291,-304 -66,-67 -236,-253 -299,-294 -99,43 -140,85 -274,111zm-220 -1187c-228,42 -427,256 -374,535 42,225 257,417 530,371 223,-38 422,-259 373,-533 -39,-223 -255,-423 -529,-373zm-135 -1398c-354,43 -732,198 -979,418 -106,94 -144,134 -236,235 -27,30 -70,91 -99,131 -34,46 -59,86 -89,141 -196,351 -285,729 -235,1150 114,952 978,1761 2073,1630 422,-51 806,-246 1092,-526 587,-577 720,-1520 306,-2248 -82,-145 -188,-283 -296,-393 -378,-387 -970,-606 -1537,-538z"/>
  <path class="fil3" d="M10613 6451c0,156 -18,295 -54,420 -37,124 -92,230 -164,317 -73,87 -164,155 -274,202 -110,47 -237,70 -384,70 -144,0 -268,-21 -373,-64 -106,-43 -193,-106 -261,-188 -69,-82 -120,-184 -154,-305 -33,-121 -50,-261 -50,-419 0,-151 18,-288 55,-412 36,-123 91,-228 164,-314 73,-86 165,-153 274,-200 110,-47 238,-70 384,-70 141,0 264,21 369,63 105,43 192,104 261,186 70,81 122,182 156,302 34,120 51,258 51,412zm-270 18c0,-108 -9,-209 -29,-302 -19,-93 -51,-174 -96,-243 -45,-68 -104,-122 -179,-160 -76,-39 -168,-58 -278,-58 -111,0 -204,21 -279,62 -74,42 -136,97 -182,166 -47,69 -80,149 -101,242 -20,92 -30,188 -30,290 0,113 10,216 28,311 19,95 50,176 95,245 44,68 104,121 178,159 74,38 168,57 280,57 112,0 205,-20 281,-62 76,-41 137,-97 184,-168 46,-70 79,-152 99,-245 20,-92 29,-190 29,-294z"/>
  <path id="1" class="fil3" d="M12216 6707c0,117 -13,221 -38,314 -25,93 -62,172 -111,237 -48,64 -109,114 -181,149 -72,35 -154,53 -247,53 -39,0 -76,-4 -109,-12 -34,-8 -66,-20 -99,-37 -31,-17 -63,-38 -95,-64 -31,-25 -65,-56 -100,-90l0 668c0,8 -2,15 -6,21 -4,6 -10,11 -20,15 -9,4 -21,7 -37,9 -16,2 -36,3 -61,3 -24,0 -44,-1 -59,-3 -16,-2 -29,-5 -38,-9 -10,-4 -16,-9 -20,-15 -3,-6 -5,-13 -5,-21l0 -1863c0,-10 2,-17 5,-22 3,-5 9,-10 17,-14 9,-4 20,-7 35,-8 13,-2 30,-2 50,-2 21,0 38,0 52,2 13,1 24,4 33,8 9,4 15,9 19,14 3,5 5,12 5,22l0 178c40,-41 79,-77 117,-108 37,-30 75,-56 113,-76 38,-20 77,-36 117,-46 40,-11 82,-16 126,-16 97,0 179,19 247,56 68,38 123,89 166,155 43,65 75,141 94,227 20,87 30,178 30,275zm-255 28c0,-68 -5,-134 -16,-198 -10,-64 -28,-120 -53,-170 -25,-50 -59,-89 -101,-119 -43,-30 -96,-44 -159,-44 -32,0 -63,4 -94,14 -30,9 -62,24 -93,44 -32,21 -65,47 -100,81 -34,33 -71,74 -109,123l0 530c67,83 131,145 191,189 61,44 124,65 190,65 61,0 114,-14 158,-44 44,-30 79,-69 107,-119 27,-49 47,-105 60,-166 12,-61 19,-124 19,-186z"/>
  <path id="2" class="fil3" d="M13719 6670c0,39 -10,66 -29,83 -19,16 -42,24 -66,24l-876 0c0,74 7,141 22,200 15,60 39,111 74,154 35,42 80,74 135,97 56,23 123,35 203,35 63,0 120,-5 169,-16 50,-10 93,-22 129,-34 35,-13 65,-25 89,-35 23,-10 40,-16 52,-16 7,0 13,2 19,6 5,3 9,8 12,15 3,7 6,16 7,29 2,12 2,27 2,45 0,12 0,23 -1,33 -1,9 -2,18 -4,25 -1,7 -4,14 -8,20 -3,5 -7,11 -13,17 -5,5 -21,14 -48,26 -27,13 -61,24 -103,36 -43,12 -92,23 -148,32 -55,9 -114,14 -178,14 -109,0 -205,-15 -287,-46 -83,-31 -152,-76 -208,-136 -56,-61 -99,-136 -127,-227 -29,-91 -43,-196 -43,-317 0,-115 15,-218 44,-309 30,-91 73,-169 128,-233 56,-64 124,-112 203,-147 79,-33 167,-51 265,-51 104,0 193,17 267,51 73,33 134,79 181,135 47,57 82,124 104,201 23,76 34,158 34,245l0 44zm-246 -72c3,-128 -25,-229 -85,-303 -61,-73 -149,-110 -267,-110 -61,0 -114,12 -159,34 -46,23 -84,53 -115,91 -30,38 -54,82 -71,131 -17,50 -26,102 -28,157l725 0z"/>
  <path id="3" class="fil3" d="M15240 7396c0,8 -2,14 -6,20 -4,5 -10,10 -19,14 -9,4 -21,7 -37,9 -16,2 -36,3 -59,3 -26,0 -46,-1 -62,-3 -16,-2 -28,-5 -37,-9 -9,-4 -15,-9 -19,-14 -4,-6 -6,-12 -6,-20l0 -782c0,-76 -6,-137 -18,-183 -12,-47 -29,-87 -52,-121 -22,-33 -51,-59 -87,-76 -36,-18 -78,-27 -125,-27 -61,0 -121,21 -182,65 -61,43 -125,107 -192,191l0 933c0,8 -2,14 -6,20 -4,5 -10,10 -19,14 -9,4 -21,7 -37,9 -16,2 -36,3 -61,3 -24,0 -44,-1 -60,-3 -16,-2 -29,-5 -38,-9 -9,-4 -16,-9 -19,-14 -4,-6 -6,-12 -6,-20l0 -1334c0,-9 2,-15 5,-21 3,-5 9,-10 18,-14 9,-5 20,-8 34,-9 14,-2 32,-2 55,-2 22,0 40,0 54,2 15,1 26,4 34,9 8,4 14,9 17,14 3,6 5,12 5,21l0 176c75,-84 150,-146 224,-185 75,-39 150,-59 226,-59 88,0 163,15 224,45 60,31 109,71 147,121 37,51 64,110 80,178 16,67 24,149 24,243l0 815z"/>
  <path id="4" class="fil3" d="M17432 6894c0,90 -17,170 -49,240 -34,70 -80,130 -139,179 -58,48 -127,85 -207,110 -80,25 -165,37 -257,37 -65,0 -124,-6 -179,-16 -55,-11 -104,-25 -147,-41 -43,-15 -79,-32 -108,-49 -29,-17 -50,-31 -61,-43 -11,-12 -20,-27 -25,-45 -6,-19 -8,-43 -8,-73 0,-22 1,-40 3,-54 2,-14 5,-26 8,-35 4,-9 10,-15 16,-18 6,-4 12,-5 20,-5 14,0 34,8 59,25 25,17 57,35 97,54 40,20 87,38 143,56 56,17 121,25 193,25 56,0 107,-7 153,-22 46,-15 85,-35 118,-63 33,-26 59,-60 76,-99 18,-40 27,-85 27,-135 0,-54 -12,-100 -37,-139 -25,-38 -57,-72 -97,-101 -41,-29 -87,-56 -139,-80 -52,-25 -105,-49 -159,-74 -54,-25 -108,-53 -159,-84 -51,-30 -97,-66 -138,-108 -40,-41 -73,-90 -98,-146 -25,-56 -38,-122 -38,-200 0,-81 15,-152 44,-215 29,-62 70,-114 121,-157 52,-42 114,-75 185,-97 72,-22 149,-33 232,-33 42,0 85,3 128,11 43,7 83,17 121,30 38,12 72,26 102,41 29,15 49,28 58,37 10,10 16,17 19,22 3,6 5,13 7,21 2,9 3,19 4,31 1,11 2,27 2,46 0,17 -1,33 -2,47 -2,14 -4,26 -7,35 -3,9 -7,16 -12,21 -6,5 -12,7 -19,7 -11,0 -28,-8 -51,-21 -23,-14 -52,-30 -86,-47 -33,-17 -73,-33 -119,-47 -46,-15 -97,-22 -155,-22 -53,0 -99,7 -139,21 -39,15 -72,34 -98,57 -25,24 -44,52 -58,84 -12,33 -19,68 -19,104 0,53 12,99 37,138 25,38 58,72 99,102 41,30 88,56 140,81 52,25 106,50 161,75 54,25 107,53 159,83 53,30 100,66 141,107 41,41 74,89 99,145 25,55 38,121 38,197z"/>
  <path id="5" class="fil3" d="M19005 6713c0,109 -14,209 -43,300 -28,91 -71,170 -128,236 -56,67 -128,118 -213,155 -85,37 -184,56 -296,56 -110,0 -206,-16 -287,-49 -82,-33 -149,-80 -203,-142 -54,-63 -95,-138 -122,-227 -27,-89 -40,-190 -40,-302 0,-109 14,-209 42,-300 29,-92 71,-171 128,-237 56,-66 127,-117 212,-154 85,-36 184,-55 297,-55 110,0 206,16 287,49 82,33 149,80 203,142 55,63 96,138 123,227 27,89 40,189 40,301zm-255 16c0,-73 -6,-141 -20,-205 -13,-64 -35,-121 -66,-169 -30,-49 -72,-87 -125,-115 -52,-28 -118,-42 -196,-42 -72,0 -135,12 -187,38 -52,26 -94,62 -128,109 -34,47 -59,103 -75,167 -17,64 -25,135 -25,211 0,73 7,142 20,206 14,64 36,120 67,168 32,48 73,86 126,114 52,28 118,43 196,43 72,0 133,-13 186,-39 52,-26 95,-62 129,-108 34,-47 59,-102 75,-167 15,-64 23,-135 23,-211z"/>
  <path id="6" class="fil3" d="M20508 7396c0,8 -1,14 -5,20 -3,5 -9,10 -19,14 -8,4 -20,7 -34,9 -15,2 -32,3 -53,3 -22,0 -41,-1 -55,-3 -15,-2 -26,-5 -35,-9 -8,-4 -14,-9 -16,-14 -3,-6 -5,-12 -5,-20l0 -177c-76,84 -151,145 -225,183 -74,39 -149,58 -225,58 -89,0 -164,-15 -225,-45 -61,-29 -110,-69 -148,-121 -37,-50 -64,-109 -80,-177 -17,-68 -25,-150 -25,-247l0 -808c0,-9 2,-15 5,-21 4,-5 10,-10 21,-14 9,-5 22,-8 38,-9 16,-2 35,-2 59,-2 24,0 44,0 59,2 16,1 29,4 38,9 9,4 16,9 20,14 4,6 6,12 6,21l0 776c0,78 6,141 17,188 11,47 29,87 52,120 23,33 53,59 88,77 36,18 77,27 125,27 61,0 122,-21 183,-65 61,-43 125,-107 193,-191l0 -932c0,-9 2,-15 6,-21 3,-5 10,-10 20,-14 9,-5 22,-8 37,-9 16,-2 36,-2 60,-2 24,0 44,0 60,2 15,1 28,4 36,9 10,4 16,9 21,14 4,6 6,12 6,21l0 1334z"/>
  <path id="7" class="fil3" d="M21741 6148c0,22 0,40 -1,55 -1,14 -3,26 -6,35 -3,8 -7,14 -12,19 -4,4 -10,6 -18,6 -8,0 -17,-2 -29,-6 -11,-5 -24,-9 -38,-13 -14,-5 -30,-9 -48,-13 -18,-4 -37,-6 -58,-6 -25,0 -49,5 -73,15 -23,10 -48,26 -74,49 -26,23 -53,53 -82,91 -29,38 -60,84 -95,138l0 878c0,8 -2,14 -6,20 -4,5 -10,10 -19,14 -9,4 -21,7 -38,9 -15,2 -35,3 -60,3 -25,0 -44,-1 -60,-3 -16,-2 -29,-5 -38,-9 -9,-4 -16,-9 -20,-14 -3,-6 -5,-12 -5,-20l0 -1334c0,-9 2,-15 5,-21 3,-5 9,-10 18,-14 9,-5 20,-8 34,-9 14,-2 32,-2 55,-2 22,0 40,0 54,2 15,1 26,4 34,9 8,4 14,9 17,14 3,6 5,12 5,21l0 194c37,-54 71,-97 103,-131 32,-34 63,-60 91,-80 29,-19 57,-32 85,-40 28,-7 57,-11 85,-11 13,0 28,1 44,2 16,2 33,5 51,8 18,4 34,9 48,14 14,5 24,10 30,15 6,5 11,9 12,14 2,4 4,10 6,17 1,7 2,17 3,30 0,14 0,31 0,54z"/>
  <path id="8" class="fil3" d="M22934 7190c0,17 -1,32 -2,44 -1,12 -2,23 -5,31 -3,9 -6,16 -9,22 -4,7 -11,17 -24,29 -12,12 -33,28 -63,46 -29,18 -63,35 -100,49 -37,15 -77,27 -121,35 -43,9 -88,14 -135,14 -96,0 -181,-16 -254,-48 -75,-31 -137,-77 -187,-138 -50,-60 -88,-135 -114,-223 -26,-89 -39,-190 -39,-306 0,-131 16,-244 48,-339 32,-94 76,-171 132,-231 56,-60 122,-105 197,-134 76,-29 158,-44 246,-44 42,0 83,4 123,12 41,8 77,19 111,31 33,13 64,28 89,45 27,17 46,32 58,43 12,12 20,22 24,29 4,7 8,15 11,24 3,10 5,20 6,32 1,12 2,27 2,45 0,38 -5,65 -14,81 -9,15 -19,22 -33,22 -14,0 -31,-8 -51,-24 -19,-17 -43,-35 -73,-54 -30,-20 -66,-38 -108,-55 -42,-16 -91,-24 -148,-24 -118,0 -209,45 -271,135 -63,90 -94,221 -94,393 0,85 8,160 24,225 17,64 40,118 72,162 32,43 70,75 116,97 46,21 99,31 158,31 57,0 106,-9 149,-26 42,-18 79,-38 110,-60 32,-21 58,-40 79,-57 21,-18 37,-26 50,-26 6,0 12,2 17,6 5,4 9,10 13,19 4,10 6,22 8,36 1,14 2,32 2,51z"/>
  <path id="9" class="fil3" d="M24393 6670c0,39 -10,66 -29,83 -20,16 -42,24 -67,24l-875 0c0,74 7,141 22,200 14,60 39,111 74,154 35,42 80,74 135,97 55,23 123,35 203,35 63,0 120,-5 169,-16 49,-10 92,-22 128,-34 36,-13 66,-25 89,-35 24,-10 41,-16 53,-16 7,0 13,2 19,6 5,3 9,8 12,15 3,7 5,16 7,29 1,12 2,27 2,45 0,12 -1,23 -2,33 -1,9 -2,18 -3,25 -2,7 -4,14 -8,20 -3,5 -7,11 -13,17 -5,5 -22,14 -48,26 -27,13 -61,24 -104,36 -42,12 -91,23 -147,32 -55,9 -115,14 -178,14 -110,0 -205,-15 -288,-46 -82,-31 -151,-76 -207,-136 -57,-61 -99,-136 -127,-227 -29,-91 -43,-196 -43,-317 0,-115 14,-218 44,-309 30,-91 73,-169 128,-233 56,-64 124,-112 202,-147 79,-33 168,-51 265,-51 105,0 194,17 267,51 74,33 134,79 182,135 47,57 82,124 104,201 22,76 34,158 34,245l0 44zm-246 -72c3,-128 -26,-229 -86,-303 -60,-73 -148,-110 -266,-110 -61,0 -114,12 -160,34 -45,23 -83,53 -114,91 -31,38 -54,82 -71,131 -17,50 -26,102 -28,157l725 0z"/>
  <path class="fil3" d="M10279 14665c0,9 -2,16 -6,21 -4,6 -10,11 -20,14 -10,4 -24,7 -40,9 -16,3 -36,4 -60,4 -26,0 -47,-1 -63,-4 -16,-2 -28,-5 -39,-9 -10,-3 -16,-8 -20,-14 -4,-5 -6,-12 -6,-21l0 -850 -871 0 0 850c0,9 -2,16 -6,21 -4,6 -11,11 -21,14 -10,4 -23,7 -39,9 -17,3 -37,4 -62,4 -23,0 -44,-1 -60,-4 -17,-2 -31,-5 -40,-9 -10,-3 -17,-8 -21,-14 -4,-5 -6,-12 -6,-21l0 -1840c0,-8 2,-15 6,-21 4,-6 11,-11 21,-14 9,-4 23,-7 40,-9 16,-3 37,-4 60,-4 25,0 45,1 62,4 16,2 29,5 39,9 10,3 17,8 21,14 4,6 6,13 6,21l0 768 871 0 0 -768c0,-8 2,-15 6,-21 4,-6 10,-11 20,-14 11,-4 23,-7 39,-9 16,-3 37,-4 63,-4 24,0 44,1 60,4 16,2 30,5 40,9 10,3 16,8 20,14 4,6 6,13 6,21l0 1840z"/>
  <path id="1" class="fil3" d="M11897 13942c0,38 -10,66 -29,82 -19,16 -42,25 -66,25l-876 0c0,74 7,141 22,200 15,59 39,111 74,153 35,42 80,75 135,98 55,22 123,34 203,34 63,0 120,-5 169,-16 50,-10 93,-21 128,-34 36,-13 66,-24 90,-34 23,-11 40,-16 52,-16 7,0 13,1 19,5 5,3 9,8 12,16 3,6 6,16 7,28 2,13 2,27 2,45 0,13 0,24 -1,33 -1,9 -2,18 -4,25 -2,8 -4,14 -8,20 -3,6 -7,11 -13,17 -5,6 -21,14 -48,26 -27,13 -61,25 -103,37 -43,11 -92,22 -148,31 -55,10 -114,14 -178,14 -109,0 -205,-15 -287,-46 -83,-30 -152,-76 -208,-136 -56,-61 -99,-136 -127,-227 -29,-90 -43,-196 -43,-317 0,-114 15,-217 44,-309 30,-91 73,-169 128,-233 56,-63 124,-112 203,-146 78,-34 167,-51 265,-51 104,0 193,16 267,50 73,34 134,79 181,136 47,56 82,123 104,200 23,76 34,158 34,245l0 45zm-246 -73c3,-128 -25,-229 -86,-302 -60,-74 -148,-110 -266,-110 -61,0 -114,11 -159,34 -46,22 -84,53 -115,91 -30,37 -54,81 -71,131 -17,50 -26,102 -28,156l725 0z"/>
  <path id="2" class="fil3" d="M13276 14668c0,12 -4,21 -12,27 -8,6 -19,10 -33,13 -13,3 -34,5 -60,5 -26,0 -46,-2 -62,-5 -15,-3 -26,-7 -33,-13 -7,-6 -11,-14 -11,-27l0 -133c-58,62 -123,111 -194,145 -72,34 -148,51 -228,51 -70,0 -134,-9 -191,-27 -56,-18 -105,-45 -145,-80 -40,-34 -71,-77 -93,-127 -22,-51 -34,-108 -34,-172 0,-75 16,-140 46,-196 31,-55 75,-101 132,-138 58,-36 128,-64 211,-82 83,-18 176,-27 280,-27l184 0 0 -105c0,-51 -6,-96 -16,-136 -11,-40 -29,-72 -53,-99 -24,-26 -55,-46 -94,-59 -38,-14 -86,-20 -142,-20 -60,0 -114,7 -162,22 -48,14 -90,30 -126,48 -36,17 -66,33 -90,48 -24,14 -42,21 -54,21 -8,0 -15,-2 -21,-6 -6,-3 -11,-9 -15,-17 -5,-8 -8,-18 -10,-30 -2,-13 -3,-26 -3,-41 0,-24 2,-44 5,-58 4,-14 12,-28 25,-41 14,-12 37,-28 69,-45 33,-17 71,-34 113,-48 42,-14 89,-27 139,-36 50,-10 101,-14 152,-14 96,0 177,10 245,32 67,22 121,54 162,96 42,42 72,94 90,156 19,63 29,135 29,218l0 900zm-243 -610l-209 0c-67,0 -125,5 -174,17 -49,11 -90,28 -123,50 -33,23 -56,49 -72,80 -15,32 -23,68 -23,108 0,69 22,124 66,165 44,41 105,62 185,62 63,0 123,-16 178,-49 54,-32 112,-82 172,-150l0 -283z"/>
  <path id="3" class="fil3" d="M14505 13419c0,22 -1,40 -2,55 -1,15 -3,26 -6,35 -3,9 -7,15 -11,19 -4,5 -10,7 -18,7 -8,0 -18,-2 -29,-7 -12,-4 -24,-9 -39,-13 -14,-5 -30,-9 -48,-13 -17,-4 -37,-6 -57,-6 -25,0 -49,5 -73,15 -23,10 -49,26 -74,50 -27,22 -54,53 -83,90 -28,38 -60,84 -94,139l0 877c0,8 -2,15 -6,20 -5,5 -11,10 -20,14 -9,4 -21,7 -37,9 -16,2 -36,3 -61,3 -24,0 -44,-1 -59,-3 -17,-2 -29,-5 -38,-9 -10,-4 -17,-9 -20,-14 -4,-5 -5,-12 -5,-20l0 -1334c0,-8 1,-15 4,-20 3,-5 9,-10 18,-15 9,-5 20,-8 34,-9 14,-2 33,-2 56,-2 21,0 40,0 54,2 14,1 25,4 34,9 7,5 13,10 17,15 3,5 5,12 5,20l0 194c36,-53 71,-97 102,-131 33,-33 63,-60 91,-79 29,-19 58,-33 85,-40 29,-8 57,-11 86,-11 13,0 27,0 43,2 17,1 34,4 51,8 18,4 34,8 49,13 14,6 24,10 30,15 6,5 10,10 11,14 3,5 5,10 6,17 2,7 3,17 3,30 1,14 1,32 1,54z"/>
  <path id="4" class="fil3" d="M15475 14568c0,29 -2,51 -7,68 -3,17 -9,29 -17,37 -8,8 -20,16 -36,22 -15,7 -34,13 -54,17 -20,5 -41,9 -64,12 -23,3 -45,4 -68,4 -69,0 -128,-9 -177,-27 -49,-18 -90,-46 -122,-83 -31,-37 -54,-84 -68,-141 -15,-56 -22,-123 -22,-200l0 -778 -187 0c-15,0 -27,-8 -36,-23 -9,-16 -13,-42 -13,-78 0,-19 1,-34 3,-47 3,-13 6,-24 10,-32 4,-8 9,-14 16,-18 6,-3 13,-5 21,-5l186 0 0 -317c0,-7 2,-13 5,-19 4,-6 11,-11 20,-15 9,-5 22,-8 38,-10 16,-2 35,-3 60,-3 25,0 45,1 60,3 17,2 29,5 38,10 9,4 15,9 19,15 4,6 6,12 6,19l0 317 340 0c8,0 15,2 21,5 5,4 11,10 15,18 4,8 7,19 10,32 2,13 3,28 3,47 0,36 -5,62 -14,78 -9,15 -20,23 -35,23l-340 0 0 742c0,92 14,161 41,208 26,47 75,70 145,70 22,0 42,-2 60,-7 18,-4 33,-9 47,-14 14,-5 25,-10 35,-14 10,-5 19,-7 27,-7 5,0 9,1 14,4 4,2 7,7 10,14 2,7 4,16 7,28 2,12 3,27 3,45z"/>
  <path id="5" class="fil3" d="M17723 13984c0,109 -14,209 -43,301 -28,91 -71,170 -128,236 -57,66 -128,118 -213,155 -85,36 -185,55 -297,55 -110,0 -205,-16 -287,-49 -81,-32 -149,-80 -203,-142 -54,-62 -94,-138 -121,-227 -27,-89 -40,-189 -40,-302 0,-109 14,-209 42,-300 28,-91 71,-170 127,-236 57,-67 128,-118 213,-155 85,-36 184,-54 297,-54 110,0 205,16 287,49 81,32 149,80 203,142 54,62 95,137 122,226 27,89 41,190 41,301zm-255 16c0,-72 -7,-141 -20,-205 -13,-64 -36,-120 -66,-169 -31,-48 -73,-87 -125,-115 -52,-28 -118,-42 -197,-42 -72,0 -134,13 -186,38 -52,26 -95,63 -129,110 -34,47 -58,102 -74,167 -17,64 -25,134 -25,210 0,73 6,142 20,206 13,64 35,121 67,169 31,47 73,86 125,113 53,29 118,43 197,43 71,0 133,-13 185,-39 53,-25 96,-61 130,-108 34,-46 59,-102 74,-166 16,-64 24,-135 24,-212z"/>
  <path id="6" class="fil3" d="M18816 12784c0,19 -1,34 -3,46 -2,11 -4,20 -6,27 -3,7 -6,12 -10,14 -4,2 -9,4 -15,4 -7,0 -15,-2 -26,-7 -11,-4 -23,-9 -38,-15 -15,-5 -32,-10 -53,-15 -20,-4 -43,-6 -70,-6 -37,0 -68,6 -94,17 -25,13 -46,31 -62,57 -16,25 -27,57 -34,98 -7,40 -11,89 -11,146l0 146 298 0c7,0 14,2 20,5 5,4 10,10 14,18 5,8 8,19 11,32 2,13 3,28 3,47 0,36 -4,62 -13,78 -9,15 -21,23 -35,23l-298 0 0 1168c0,8 -2,15 -6,20 -4,5 -10,10 -19,14 -10,4 -23,7 -38,9 -16,2 -36,3 -59,3 -24,0 -44,-1 -60,-3 -15,-2 -28,-5 -38,-9 -9,-4 -15,-9 -19,-14 -4,-5 -6,-12 -6,-20l0 -1168 -189 0c-16,0 -28,-8 -36,-23 -8,-16 -12,-42 -12,-78 0,-19 1,-34 3,-47 2,-13 5,-24 9,-32 4,-8 9,-14 15,-18 6,-3 13,-5 21,-5l189 0 0 -138c0,-94 8,-173 25,-240 18,-67 44,-122 80,-165 36,-42 80,-74 134,-94 54,-20 118,-31 191,-31 34,0 68,4 101,10 33,7 58,13 76,21 17,7 29,14 35,20 6,6 11,14 15,23 4,9 7,21 8,34 2,13 2,30 2,48z"/>
  <path id="7" class="fil3" d="M20303 14704l-178 491c-6,16 -21,28 -45,36 -24,9 -61,13 -110,13 -26,0 -47,-1 -63,-4 -15,-2 -27,-7 -36,-12 -8,-6 -13,-14 -14,-24 -1,-10 2,-22 8,-36l184 -464c-10,-4 -18,-11 -26,-19 -8,-9 -13,-19 -16,-29l-476 -1274c-8,-21 -11,-37 -11,-49 0,-12 3,-21 11,-28 8,-7 21,-12 39,-15 17,-2 41,-3 71,-3 29,0 53,0 70,2 16,1 30,4 40,9 9,3 16,9 21,16 5,8 9,18 14,31l381 1070 4 0 368 -1076c6,-19 13,-31 21,-36 8,-6 21,-10 38,-13 17,-2 41,-3 73,-3 27,0 50,1 68,3 18,3 31,8 39,15 8,7 12,16 12,28 0,12 -3,27 -8,44l-479 1327z"/>
  <path id="8" class="fil3" d="M22273 13984c0,109 -15,209 -43,301 -29,91 -72,170 -128,236 -57,66 -128,118 -213,155 -86,36 -185,55 -297,55 -110,0 -205,-16 -287,-49 -81,-32 -149,-80 -203,-142 -54,-62 -95,-138 -121,-227 -27,-89 -40,-189 -40,-302 0,-109 14,-209 42,-300 28,-91 70,-170 127,-236 57,-67 127,-118 212,-155 85,-36 185,-54 298,-54 110,0 205,16 287,49 81,32 149,80 203,142 54,62 95,137 122,226 27,89 41,190 41,301zm-255 16c0,-72 -7,-141 -20,-205 -14,-64 -36,-120 -67,-169 -30,-48 -72,-87 -125,-115 -52,-28 -117,-42 -196,-42 -72,0 -134,13 -186,38 -53,26 -95,63 -129,110 -34,47 -59,102 -75,167 -16,64 -24,134 -24,210 0,73 6,142 20,206 13,64 35,121 66,169 32,47 74,86 126,113 52,29 118,43 197,43 71,0 133,-13 185,-39 53,-25 96,-61 130,-108 34,-46 58,-102 74,-166 16,-64 24,-135 24,-212z"/>
  <path id="9" class="fil3" d="M23776 14667c0,8 -2,15 -5,20 -4,5 -10,10 -19,14 -9,4 -20,7 -35,9 -14,2 -32,3 -53,3 -22,0 -41,-1 -55,-3 -14,-2 -26,-5 -34,-9 -8,-4 -14,-9 -17,-14 -3,-5 -4,-12 -4,-20l0 -177c-77,84 -152,145 -226,184 -74,38 -149,57 -225,57 -89,0 -164,-14 -225,-44 -60,-30 -110,-70 -147,-121 -38,-51 -64,-110 -81,-178 -16,-67 -24,-150 -24,-246l0 -809c0,-8 1,-15 5,-20 3,-5 10,-10 20,-15 10,-5 23,-8 38,-9 16,-2 36,-2 60,-2 23,0 43,0 59,2 15,1 28,4 38,9 9,5 15,10 19,15 4,5 6,12 6,20l0 777c0,78 6,140 18,187 11,47 28,87 51,120 23,34 53,59 89,78 35,18 77,27 124,27 61,0 122,-22 183,-65 61,-44 126,-108 194,-192l0 -932c0,-8 1,-15 5,-20 3,-5 10,-10 20,-15 10,-5 22,-8 38,-9 15,-2 35,-2 60,-2 23,0 43,0 59,2 16,1 28,4 37,9 9,5 15,10 20,15 5,5 7,12 7,20l0 1334z"/>
  <path id="10" class="fil3" d="M25008 13419c0,22 0,40 -1,55 -1,15 -3,26 -6,35 -3,9 -7,15 -11,19 -4,5 -10,7 -18,7 -9,0 -18,-2 -29,-7 -12,-4 -25,-9 -39,-13 -14,-5 -30,-9 -48,-13 -17,-4 -37,-6 -57,-6 -25,0 -49,5 -73,15 -23,10 -49,26 -75,50 -26,22 -53,53 -82,90 -28,38 -60,84 -95,139l0 877c0,8 -2,15 -6,20 -4,5 -10,10 -19,14 -9,4 -21,7 -37,9 -16,2 -36,3 -61,3 -24,0 -44,-1 -60,-3 -16,-2 -28,-5 -38,-9 -9,-4 -16,-9 -19,-14 -4,-5 -5,-12 -5,-20l0 -1334c0,-8 1,-15 4,-20 3,-5 9,-10 18,-15 9,-5 20,-8 34,-9 14,-2 33,-2 55,-2 22,0 40,0 55,2 14,1 25,4 33,9 8,5 14,10 18,15 3,5 5,12 5,20l0 194c36,-53 70,-97 102,-131 33,-33 63,-60 91,-79 29,-19 58,-33 85,-40 29,-8 57,-11 86,-11 12,0 27,0 43,2 16,1 34,4 51,8 18,4 34,8 48,13 15,6 25,10 31,15 6,5 10,10 11,14 2,5 4,10 6,17 1,7 2,17 3,30 0,14 0,32 0,54z"/>
  <path class="fil3" d="M10983 21862c0,8 -2,15 -6,20 -4,6 -11,11 -21,15 -10,3 -23,6 -39,9 -16,2 -36,3 -62,3 -23,0 -44,-1 -60,-3 -17,-3 -30,-6 -40,-9 -9,-4 -16,-9 -20,-15 -4,-5 -6,-12 -6,-20l0 -1671 -4 0 -675 1678c-2,7 -7,13 -12,18 -5,5 -13,9 -24,13 -10,3 -22,6 -37,7 -14,2 -31,2 -51,2 -21,0 -38,-1 -53,-3 -15,-2 -27,-4 -37,-8 -10,-3 -18,-8 -23,-13 -5,-5 -9,-10 -11,-16l-647 -1678 -1 0 0 1671c0,8 -2,15 -6,20 -4,6 -11,11 -22,15 -10,3 -23,6 -39,9 -17,2 -37,3 -63,3 -24,0 -45,-1 -61,-3 -16,-3 -29,-6 -39,-9 -9,-4 -16,-9 -20,-15 -3,-5 -5,-12 -5,-20l0 -1764c0,-42 11,-71 33,-89 22,-17 47,-27 74,-27l156 0c32,0 61,4 84,10 25,5 45,15 64,27 18,14 33,30 45,49 12,20 22,43 31,70l549 1389 8 0 569 -1385c11,-29 23,-54 37,-75 13,-21 27,-37 43,-50 15,-12 32,-21 51,-26 19,-6 42,-9 66,-9l165 0c14,0 29,2 43,7 13,5 24,12 34,21 10,9 17,21 23,36 6,14 9,32 9,52l0 1764z"/>
  <path id="1" class="fil3" d="M12704 21180c0,109 -14,209 -43,301 -28,91 -71,170 -128,236 -57,66 -128,118 -213,155 -85,37 -185,55 -297,55 -110,0 -205,-16 -287,-49 -81,-32 -149,-80 -203,-142 -54,-62 -94,-138 -121,-226 -27,-89 -40,-190 -40,-303 0,-108 14,-209 42,-300 28,-91 71,-170 127,-236 57,-67 128,-118 213,-155 85,-36 184,-54 297,-54 110,0 205,16 287,49 81,32 149,80 203,142 54,62 95,138 122,227 27,89 41,189 41,300zm-255 16c0,-72 -7,-140 -20,-205 -13,-64 -36,-120 -67,-169 -30,-48 -72,-87 -124,-114 -53,-29 -118,-43 -197,-43 -72,0 -134,13 -186,39 -52,25 -95,62 -129,109 -34,47 -58,102 -75,167 -16,64 -24,134 -24,210 0,73 6,142 20,206 13,65 35,121 67,169 31,47 73,86 125,114 53,28 118,42 197,42 71,0 133,-13 185,-38 53,-26 96,-62 130,-109 34,-46 58,-102 74,-166 16,-64 24,-135 24,-212z"/>
  <path id="2" class="fil3" d="M14207 21863c0,8 -2,15 -5,21 -4,6 -10,11 -18,14 -9,4 -20,6 -33,8 -15,2 -31,3 -51,3 -21,0 -38,-1 -52,-3 -14,-2 -25,-4 -34,-8 -9,-3 -15,-8 -19,-14 -4,-6 -6,-13 -6,-21l0 -177c-70,76 -143,135 -218,178 -76,42 -158,63 -248,63 -98,0 -182,-19 -250,-57 -70,-38 -126,-89 -169,-154 -42,-65 -74,-141 -93,-228 -20,-88 -30,-180 -30,-276 0,-115 12,-219 37,-311 25,-92 61,-171 110,-236 48,-66 108,-116 180,-151 71,-34 153,-52 247,-52 78,0 150,17 214,51 65,34 129,84 192,151l0 -774c0,-7 1,-13 5,-20 4,-6 10,-11 20,-14 10,-4 23,-7 38,-10 15,-2 35,-3 58,-3 25,0 45,1 61,3 16,3 28,6 37,10 9,3 16,8 20,14 5,7 7,13 7,20l0 1973zm-246 -939c-66,-82 -129,-145 -191,-188 -62,-43 -126,-65 -193,-65 -62,0 -115,15 -158,45 -44,30 -79,69 -106,117 -27,48 -46,103 -58,164 -13,62 -19,124 -19,187 0,67 5,133 15,197 11,64 29,122 54,172 26,50 60,90 102,120 42,30 96,45 160,45 32,0 63,-5 94,-13 29,-9 60,-24 92,-45 31,-20 64,-47 99,-81 34,-32 71,-73 109,-121l0 -534z"/>
  <path id="3" class="fil3" d="M15795 21138c0,38 -10,66 -29,82 -19,17 -42,25 -66,25l-876 0c0,74 7,141 22,200 15,60 39,111 74,153 35,43 80,75 135,98 55,23 123,34 203,34 63,0 120,-5 169,-16 50,-10 93,-21 128,-34 36,-13 66,-24 89,-34 24,-11 41,-16 53,-16 7,0 13,2 19,5 5,4 9,9 12,16 3,6 5,16 7,28 1,13 2,27 2,45 0,13 -1,24 -2,33 -1,10 -2,18 -3,25 -2,8 -4,14 -8,20 -3,6 -7,12 -13,17 -5,6 -22,14 -48,26 -27,13 -61,25 -104,37 -42,12 -91,22 -147,31 -55,10 -114,14 -178,14 -109,0 -205,-15 -287,-46 -83,-30 -152,-75 -208,-136 -56,-60 -99,-136 -127,-227 -29,-90 -43,-196 -43,-317 0,-114 14,-217 44,-309 30,-91 73,-169 128,-232 56,-64 124,-113 203,-147 78,-34 167,-51 265,-51 104,0 193,17 267,50 73,34 134,79 181,136 47,57 82,123 104,200 23,77 34,159 34,246l0 44zm-246 -72c3,-129 -25,-230 -86,-303 -60,-74 -148,-110 -266,-110 -61,0 -114,11 -159,34 -46,23 -84,53 -115,91 -31,37 -54,81 -71,131 -17,50 -26,102 -28,157l725 0z"/>
  <path id="4" class="fil3" d="M16415 21863c0,8 -2,15 -6,20 -4,5 -10,11 -19,15 -9,3 -21,6 -38,8 -15,2 -35,3 -60,3 -25,0 -44,-1 -60,-3 -16,-2 -29,-5 -38,-8 -9,-4 -16,-10 -20,-15 -3,-5 -5,-12 -5,-20l0 -1979c0,-8 2,-15 5,-20 4,-6 11,-11 20,-16 9,-3 22,-6 38,-8 16,-2 35,-3 60,-3 25,0 45,1 60,3 17,2 29,5 38,8 9,5 15,10 19,16 4,5 6,12 6,20l0 1979z"/>
 </g>
</svg>
