<?xml version="1.0" encoding="UTF-8"?>
<!DOCTYPE svg PUBLIC "-//W3C//DTD SVG 1.1//EN" "http://www.w3.org/Graphics/SVG/1.1/DTD/svg11.dtd">
<!-- Creator: CorelDRAW X7 -->
<svg xmlns="http://www.w3.org/2000/svg" xml:space="preserve" width="106.791mm" height="63.484mm" version="1.1" style="shape-rendering:geometricPrecision; text-rendering:geometricPrecision; image-rendering:optimizeQuality; fill-rule:evenodd; clip-rule:evenodd"
viewBox="0 0 16789 9981"
 xmlns:xlink="http://www.w3.org/1999/xlink">
 <defs>
  <style type="text/css">
   <![CDATA[
    .fil0 {fill:#EBECEC}
    .fil2 {fill:#00A0E3}
    .fil3 {fill:#EBECEC;fill-rule:nonzero}
    .fil1 {fill:#FFED00;fill-rule:nonzero}
   ]]>
  </style>
 </defs>
 <g id="Layer_x0020_1">
  <metadata id="CorelCorpID_0Corel-Layer"/>
  <path class="fil0" d="M3321 4715l-789 0c-52,165 -81,398 -115,595 -53,305 -112,236 -373,347 -455,192 -375,-141 -907,-351l-547 544c131,420 529,449 351,870 -36,86 -66,160 -102,244 -106,243 -269,141 -823,278l-16 801 769 144c187,656 372,398 6,951 -71,107 -141,181 -186,293l545 550c164,-56 297,-184 439,-286 291,-208 207,-44 493,14l542 -1273c-112,-107 -607,-352 -485,-948 177,-870 1400,-876 1601,-27 142,599 -330,834 -469,971l518 1283c287,-62 218,-221 486,-33 134,94 300,244 458,296l551 -543c-79,-192 -274,-380 -372,-566 -78,-149 140,-511 188,-685l758 -138 11 -804c-872,-200 -717,4 -930,-497 -199,-469 201,-444 340,-894l-546 -546c-149,60 -301,186 -438,281 -212,147 -191,188 -469,71 -263,-111 -319,-41 -373,-347 -35,-198 -64,-431 -116,-595z"/>
  <path class="fil1" d="M8703 5702c329,-658 659,-987 1317,-987 726,0 1316,590 1316,1316 0,1317 -1316,2633 -2633,3950 -1316,-1317 -2632,-2633 -2632,-3950 0,-726 589,-1316 1316,-1316 658,0 987,329 1316,987z"/>
  <path class="fil2" d="M8703 5702c329,-658 659,-987 1317,-987 726,0 1316,590 1316,1316 0,397 -119,793 -322,1189l-4621 0c-203,-396 -322,-792 -322,-1189 0,-726 589,-1316 1316,-1316 658,0 987,329 1316,987z"/>
  <path class="fil0" d="M13975 4722c-515,38 -1048,241 -1427,548 -74,60 -272,239 -343,318 -15,16 -20,28 -34,44 -448,508 -684,1216 -631,1909 43,563 237,1004 548,1422 47,63 96,123 151,175 30,28 51,55 81,84 17,16 28,25 45,41 16,16 24,29 41,45 16,14 28,20 43,34 501,446 1224,685 1906,631 522,-41 1153,-279 1511,-623l168 -158c137,-143 253,-269 365,-461 82,-140 157,-275 220,-443 320,-855 186,-1852 -381,-2556 -100,-124 -120,-148 -233,-258 -264,-258 -546,-452 -903,-586 -348,-130 -722,-195 -1127,-166zm32 804c-952,77 -1757,929 -1663,1984 40,445 194,726 441,1034 117,146 270,265 431,366 318,199 715,291 1105,259 951,-80 1749,-924 1661,-1980 -80,-956 -922,-1748 -1975,-1663zm-725 752l514 522c86,-48 130,-71 240,-99l1 -731c-234,0 -596,161 -755,308zm1006 349l1 75c109,23 157,55 239,96l518 -516c-154,-135 -471,-303 -758,-313l0 658zm-1193 1602l521 -516c-32,-82 -79,-126 -96,-242l-735 0c16,167 50,288 107,428 37,89 142,266 203,330zm1615 -517l518 521c145,-180 290,-448 312,-762l-735 0c-7,45 -21,87 -37,126 -16,42 -44,79 -58,115zm-2 -742c18,66 59,83 99,250l731 0c3,-129 -61,-314 -106,-423 -26,-64 -57,-122 -92,-177 -20,-31 -33,-48 -54,-80 -19,-27 -40,-51 -55,-77 -46,19 -213,202 -262,250 -46,46 -84,84 -130,130 -35,36 -95,102 -131,127zm-1920 250l730 0c39,-166 78,-181 99,-249l-386 -382c-40,-40 -87,-104 -137,-126 -64,97 -142,192 -199,326 -43,102 -113,307 -107,431zm491 1198c97,63 192,142 326,198 112,47 296,109 432,109l0 -735c-157,-37 -137,-51 -239,-97 -21,12 -497,471 -519,525zm1009 -428l0 736c149,-5 300,-56 425,-107 133,-55 238,-136 332,-202 -19,-44 -206,-219 -254,-267 -59,-58 -208,-222 -263,-257 -87,37 -123,74 -240,97zm-194 -1041c-199,37 -374,224 -328,469 38,198 226,366 465,325 196,-33 370,-227 328,-467 -35,-196 -224,-371 -465,-327zm-118 -1227c-310,38 -642,174 -859,367 -93,82 -126,117 -207,206 -24,26 -61,79 -87,115 -30,40 -51,75 -78,123 -172,308 -250,640 -206,1010 100,835 858,1545 1819,1430 370,-45 707,-216 958,-462 515,-506 632,-1334 269,-1972 -73,-127 -166,-249 -260,-345 -332,-340 -851,-532 -1349,-472z"/>
  <path class="fil3" d="M6198 1835c0,300 -38,569 -112,806 -75,237 -186,439 -334,604 -147,165 -330,292 -547,379 -218,87 -470,130 -756,130 -282,0 -528,-38 -738,-111 -210,-74 -385,-186 -526,-338 -139,-151 -245,-343 -314,-577 -70,-233 -106,-510 -106,-829 0,-293 38,-557 112,-791 75,-235 186,-434 334,-598 147,-165 330,-291 547,-378 218,-88 471,-132 759,-132 274,0 516,36 727,109 209,73 385,185 526,337 142,151 248,341 320,572 71,231 108,503 108,817zm-775 37c0,-190 -16,-363 -45,-519 -30,-156 -81,-290 -152,-401 -72,-111 -168,-197 -287,-258 -120,-61 -269,-91 -448,-91 -181,0 -332,34 -452,102 -122,68 -220,160 -295,274 -75,113 -127,246 -158,399 -30,153 -46,313 -46,484 0,198 16,376 45,533 30,158 81,293 151,406 71,112 166,197 285,256 120,59 270,88 451,88 181,0 332,-33 452,-101 122,-67 220,-159 295,-275 75,-115 127,-250 158,-404 30,-154 46,-319 46,-493z"/>
  <path id="1" class="fil3" d="M9649 3590c0,18 -6,36 -18,51 -13,14 -33,27 -60,36 -28,9 -65,16 -112,22 -46,6 -106,9 -175,9 -73,0 -133,-3 -181,-9 -48,-6 -84,-13 -112,-22 -27,-9 -46,-22 -58,-36 -13,-15 -19,-33 -19,-51l0 -1466 -1360 0 0 1466c0,18 -6,36 -17,51 -11,14 -31,27 -58,36 -28,9 -66,16 -112,22 -46,6 -107,9 -178,9 -71,0 -130,-3 -178,-9 -48,-6 -85,-13 -113,-22 -28,-9 -48,-22 -60,-36 -13,-15 -19,-33 -19,-51l0 -3426c0,-19 6,-36 19,-51 12,-14 32,-27 60,-36 28,-10 65,-17 113,-22 48,-6 107,-9 178,-9 71,0 132,3 178,9 46,5 84,13 112,22 27,9 47,22 58,36 11,15 17,32 17,51l0 1334 1360 0 0 -1334c0,-19 6,-36 19,-51 12,-14 31,-27 58,-36 28,-9 64,-17 112,-22 48,-6 108,-9 181,-9 69,0 129,3 175,9 47,5 84,12 112,22 27,9 47,22 60,36 12,15 18,32 18,51l0 3426z"/>
  <path id="2" class="fil3" d="M14665 3590c0,18 -5,36 -16,51 -10,14 -29,27 -56,36 -27,9 -63,16 -108,22 -45,6 -103,9 -172,9 -67,0 -124,-3 -169,-9 -45,-6 -80,-13 -107,-22 -26,-9 -45,-22 -55,-36 -12,-15 -18,-33 -18,-51l0 -2953 -5 0 -1048 2950c-8,24 -19,44 -36,61 -17,16 -39,28 -69,38 -29,8 -66,15 -110,18 -45,3 -100,4 -163,4 -64,0 -117,-2 -162,-7 -45,-5 -83,-12 -111,-23 -29,-10 -52,-23 -69,-37 -16,-15 -28,-34 -34,-54l-1011 -2950 -6 0 0 2953c0,18 -4,36 -15,51 -10,14 -30,27 -57,36 -29,9 -65,16 -109,22 -44,6 -101,9 -170,9 -68,0 -124,-3 -169,-9 -45,-6 -81,-13 -108,-22 -27,-9 -46,-22 -57,-36 -10,-15 -15,-33 -15,-51l0 -3232c0,-96 25,-169 76,-219 50,-51 117,-76 203,-76l482 0c86,0 160,7 222,21 62,15 115,37 160,70 44,33 83,76 112,129 30,54 57,120 79,198l781 2161 12 0 809 -2156c24,-78 51,-144 79,-199 30,-54 64,-98 102,-131 38,-34 84,-57 136,-72 52,-14 113,-21 182,-21l498 0c50,0 94,7 130,20 36,13 67,32 90,58 24,24 41,55 53,91 13,37 19,79 19,126l0 3232z"/>
 </g>
</svg>
